<svg xmlns="http://www.w3.org/2000/svg" viewBox="0 0 158.68 57.46"><defs><style>.cls-1{fill:#faea48;}</style></defs><title>inw2Middel 56@4x</title><g id="Laag_2" data-name="Laag 2"><g id="Laag_4" data-name="Laag 4"><circle class="cls-1" cx="83.38" cy="1.76" r="1.76"/><path class="cls-1" d="M85.91,7.2a2.54,2.54,0,0,0-5.07,0h0v4.94h5.08V7.2Z"/><circle class="cls-1" cx="91.46" cy="1.76" r="1.76"/><path class="cls-1" d="M94,7.2a2.54,2.54,0,0,0-5.07,0h0v4.94H94V7.2Z"/><circle class="cls-1" cx="99.55" cy="1.76" r="1.76"/><path class="cls-1" d="M102.08,7.2A2.54,2.54,0,0,0,97,7.2h0v4.94h5.08V7.2Z"/><circle class="cls-1" cx="107.63" cy="1.76" r="1.76"/><path class="cls-1" d="M110.17,7.2a2.54,2.54,0,0,0-5.07,0h0v4.94h5.08V7.2Z"/><circle class="cls-1" cx="115.72" cy="1.76" r="1.76"/><path class="cls-1" d="M118.25,7.2a2.54,2.54,0,0,0-5.07,0h0v4.94h5.08V7.2Z"/><circle class="cls-1" cx="123.8" cy="1.76" r="1.76"/><path class="cls-1" d="M126.33,7.2a2.54,2.54,0,0,0-5.07,0h0v4.94h5.08V7.2Z"/><circle class="cls-1" cx="131.89" cy="1.76" r="1.76"/><path class="cls-1" d="M134.42,7.2a2.54,2.54,0,0,0-5.07,0h0v4.94h5.08V7.2Z"/><circle class="cls-1" cx="139.97" cy="1.76" r="1.76"/><path class="cls-1" d="M142.5,7.2a2.54,2.54,0,0,0-5.07,0h0v4.94h5.08V7.2Z"/><circle class="cls-1" cx="148.05" cy="1.76" r="1.76"/><path class="cls-1" d="M150.59,7.2a2.54,2.54,0,0,0-5.07,0h0v4.94h5.08V7.2Z"/><circle class="cls-1" cx="156.14" cy="1.76" r="1.76"/><path class="cls-1" d="M158.67,7.2a2.54,2.54,0,0,0-5.07,0h0v4.94h5.08V7.2Z"/><circle class="cls-1" cx="83.38" cy="16.89" r="1.76"/><path class="cls-1" d="M85.91,22.34a2.54,2.54,0,0,0-5.07,0h0v4.94h5.08V22.34Z"/><circle class="cls-1" cx="91.46" cy="16.89" r="1.76"/><path class="cls-1" d="M94,22.34a2.54,2.54,0,0,0-5.07,0h0v4.94H94V22.34Z"/><circle class="cls-1" cx="99.55" cy="16.89" r="1.76"/><path class="cls-1" d="M102.08,22.34a2.54,2.54,0,0,0-5.07,0h0v4.94h5.08V22.34Z"/><circle class="cls-1" cx="107.63" cy="16.89" r="1.76"/><path class="cls-1" d="M110.17,22.34a2.54,2.54,0,0,0-5.07,0h0v4.94h5.08V22.34Z"/><circle class="cls-1" cx="115.72" cy="16.89" r="1.76"/><path class="cls-1" d="M118.25,22.34a2.54,2.54,0,0,0-5.07,0h0v4.94h5.08V22.34Z"/><circle class="cls-1" cx="123.8" cy="16.89" r="1.76"/><path class="cls-1" d="M126.33,22.34a2.54,2.54,0,0,0-5.07,0h0v4.94h5.08V22.34Z"/><circle class="cls-1" cx="131.89" cy="16.89" r="1.76"/><path class="cls-1" d="M134.42,22.34a2.54,2.54,0,0,0-5.07,0h0v4.94h5.08V22.34Z"/><circle class="cls-1" cx="139.97" cy="16.89" r="1.76"/><path class="cls-1" d="M142.5,22.34a2.54,2.54,0,0,0-5.07,0h0v4.94h5.08V22.34Z"/><circle class="cls-1" cx="148.05" cy="16.89" r="1.76"/><path class="cls-1" d="M150.59,22.34a2.54,2.54,0,0,0-5.07,0h0v4.94h5.08V22.34Z"/><circle class="cls-1" cx="156.14" cy="16.89" r="1.76"/><path class="cls-1" d="M158.67,22.34a2.54,2.54,0,0,0-5.07,0h0v4.94h5.08V22.34Z"/><circle class="cls-1" cx="83.38" cy="32.03" r="1.76"/><path class="cls-1" d="M85.91,37.48a2.54,2.54,0,0,0-5.07,0h0v4.94h5.08V37.48Z"/><circle class="cls-1" cx="91.46" cy="32.03" r="1.76"/><path class="cls-1" d="M94,37.48a2.54,2.54,0,0,0-5.07,0h0v4.94H94V37.48Z"/><circle class="cls-1" cx="99.55" cy="32.03" r="1.76"/><path class="cls-1" d="M102.08,37.48a2.54,2.54,0,0,0-5.07,0h0v4.94h5.08V37.48Z"/><circle class="cls-1" cx="107.63" cy="32.03" r="1.76"/><path class="cls-1" d="M110.17,37.48a2.54,2.54,0,0,0-5.07,0h0v4.94h5.08V37.48Z"/><circle class="cls-1" cx="115.72" cy="32.03" r="1.76"/><path class="cls-1" d="M118.25,37.48a2.54,2.54,0,0,0-5.07,0h0v4.94h5.08V37.48Z"/><circle class="cls-1" cx="123.8" cy="32.03" r="1.76"/><path class="cls-1" d="M126.33,37.48a2.54,2.54,0,0,0-5.07,0h0v4.94h5.08V37.48Z"/><circle class="cls-1" cx="131.89" cy="32.03" r="1.76"/><path class="cls-1" d="M134.42,37.48a2.54,2.54,0,0,0-5.07,0h0v4.94h5.08V37.48Z"/><circle class="cls-1" cx="139.97" cy="32.03" r="1.76"/><path class="cls-1" d="M142.5,37.48a2.54,2.54,0,0,0-5.07,0h0v4.94h5.08V37.48Z"/><circle class="cls-1" cx="148.05" cy="32.03" r="1.76"/><path class="cls-1" d="M150.59,37.48a2.54,2.54,0,0,0-5.07,0h0v4.94h5.08V37.48Z"/><circle class="cls-1" cx="156.14" cy="32.03" r="1.76"/><path class="cls-1" d="M158.67,37.48a2.54,2.54,0,0,0-5.07,0h0v4.94h5.08V37.48Z"/><circle class="cls-1" cx="83.38" cy="47.08" r="1.76"/><path class="cls-1" d="M85.91,52.53a2.54,2.54,0,0,0-5.07,0h0v4.94h5.08V52.53Z"/><circle class="cls-1" cx="91.46" cy="47.08" r="1.76"/><path class="cls-1" d="M94,52.53a2.54,2.54,0,0,0-5.07,0h0v4.94H94V52.53Z"/><circle class="cls-1" cx="99.55" cy="47.08" r="1.76"/><path class="cls-1" d="M102.08,52.53a2.54,2.54,0,0,0-5.07,0h0v4.94h5.08V52.53Z"/><circle class="cls-1" cx="107.63" cy="47.08" r="1.76"/><path class="cls-1" d="M110.17,52.53a2.54,2.54,0,0,0-5.07,0h0v4.94h5.08V52.53Z"/><circle class="cls-1" cx="115.72" cy="47.08" r="1.76"/><path class="cls-1" d="M118.25,52.53a2.54,2.54,0,0,0-5.07,0h0v4.94h5.08V52.53Z"/><circle class="cls-1" cx="123.8" cy="47.08" r="1.76"/><path class="cls-1" d="M126.33,52.53a2.54,2.54,0,0,0-5.07,0h0v4.94h5.08V52.53Z"/><circle class="cls-1" cx="131.89" cy="47.08" r="1.76"/><path class="cls-1" d="M134.42,52.53a2.54,2.54,0,0,0-5.07,0h0v4.94h5.08V52.53Z"/><circle class="cls-1" cx="139.97" cy="47.08" r="1.76"/><path class="cls-1" d="M142.5,52.53a2.54,2.54,0,0,0-5.07,0h0v4.94h5.08V52.53Z"/><circle class="cls-1" cx="148.05" cy="47.08" r="1.76"/><path class="cls-1" d="M150.59,52.53a2.54,2.54,0,0,0-5.07,0h0v4.94h5.08V52.53Z"/><circle class="cls-1" cx="156.14" cy="47.08" r="1.76"/><path class="cls-1" d="M158.67,52.53a2.54,2.54,0,0,0-5.07,0h0v4.94h5.08V52.53Z"/><circle class="cls-1" cx="2.54" cy="1.93" r="1.76"/><path class="cls-1" d="M5.08,7.38A2.54,2.54,0,0,0,0,7.38H0v4.94H5.08V7.38Z"/><circle class="cls-1" cx="10.63" cy="1.93" r="1.76"/><path class="cls-1" d="M13.16,7.38a2.54,2.54,0,0,0-5.07,0h0v4.94h5.08V7.38Z"/><circle class="cls-1" cx="18.71" cy="1.93" r="1.76"/><path class="cls-1" d="M21.24,7.38a2.54,2.54,0,0,0-5.07,0h0v4.94h5.08V7.38Z"/><circle class="cls-1" cx="26.8" cy="1.93" r="1.76"/><path class="cls-1" d="M29.33,7.38a2.54,2.54,0,0,0-5.07,0h0v4.94h5.08V7.38Z"/><circle class="cls-1" cx="34.88" cy="1.93" r="1.76"/><path class="cls-1" d="M37.41,7.38a2.54,2.54,0,0,0-5.07,0h0v4.94h5.08V7.38Z"/><circle class="cls-1" cx="42.96" cy="1.93" r="1.76"/><path class="cls-1" d="M45.5,7.38a2.54,2.54,0,0,0-5.07,0h0v4.94h5.08V7.38Z"/><circle class="cls-1" cx="51.05" cy="1.93" r="1.76"/><path class="cls-1" d="M53.58,7.38a2.54,2.54,0,0,0-5.07,0h0v4.94h5.08V7.38Z"/><circle class="cls-1" cx="59.13" cy="1.93" r="1.76"/><path class="cls-1" d="M61.67,7.38a2.54,2.54,0,0,0-5.07,0h0v4.94h5.08V7.38Z"/><circle class="cls-1" cx="67.22" cy="1.93" r="1.76"/><path class="cls-1" d="M69.75,7.38a2.54,2.54,0,0,0-5.07,0h0v4.94h5.08V7.38Z"/><circle class="cls-1" cx="75.3" cy="1.93" r="1.76"/><path class="cls-1" d="M77.83,7.38a2.54,2.54,0,0,0-5.07,0h0v4.94h5.08V7.38Z"/><circle class="cls-1" cx="2.54" cy="16.62" r="1.76"/><path class="cls-1" d="M5.08,22.06a2.54,2.54,0,0,0-5.07,0H0V27H5.08V22.06Z"/><circle class="cls-1" cx="10.63" cy="16.62" r="1.76"/><path class="cls-1" d="M13.16,22.06a2.54,2.54,0,0,0-5.07,0h0V27h5.08V22.06Z"/><circle class="cls-1" cx="18.71" cy="16.62" r="1.76"/><path class="cls-1" d="M21.24,22.06a2.54,2.54,0,0,0-5.07,0h0V27h5.08V22.06Z"/><circle class="cls-1" cx="26.8" cy="16.62" r="1.76"/><path class="cls-1" d="M29.33,22.06a2.54,2.54,0,0,0-5.07,0h0V27h5.08V22.06Z"/><circle class="cls-1" cx="34.88" cy="16.62" r="1.76"/><path class="cls-1" d="M37.41,22.06a2.54,2.54,0,0,0-5.07,0h0V27h5.08V22.06Z"/><circle class="cls-1" cx="42.96" cy="16.62" r="1.76"/><path class="cls-1" d="M45.5,22.06a2.54,2.54,0,0,0-5.07,0h0V27h5.08V22.06Z"/><circle class="cls-1" cx="51.05" cy="16.62" r="1.76"/><path class="cls-1" d="M53.58,22.06a2.54,2.54,0,0,0-5.07,0h0V27h5.08V22.06Z"/><circle class="cls-1" cx="59.13" cy="16.62" r="1.76"/><path class="cls-1" d="M61.67,22.06a2.54,2.54,0,0,0-5.07,0h0V27h5.08V22.06Z"/><circle class="cls-1" cx="67.22" cy="16.62" r="1.76"/><path class="cls-1" d="M69.75,22.06a2.54,2.54,0,0,0-5.07,0h0V27h5.08V22.06Z"/><circle class="cls-1" cx="75.3" cy="16.62" r="1.76"/><path class="cls-1" d="M77.83,22.06a2.54,2.54,0,0,0-5.07,0h0V27h5.08V22.06Z"/><circle class="cls-1" cx="2.54" cy="31.66" r="1.76"/><path class="cls-1" d="M5.08,37.11a2.54,2.54,0,0,0-5.07,0H0V42H5.08V37.11Z"/><circle class="cls-1" cx="10.63" cy="31.66" r="1.76"/><path class="cls-1" d="M13.16,37.11a2.54,2.54,0,0,0-5.07,0h0V42h5.08V37.11Z"/><circle class="cls-1" cx="18.71" cy="31.66" r="1.76"/><path class="cls-1" d="M21.24,37.11a2.54,2.54,0,0,0-5.07,0h0V42h5.08V37.11Z"/><circle class="cls-1" cx="26.8" cy="31.66" r="1.76"/><path class="cls-1" d="M29.33,37.11a2.54,2.54,0,0,0-5.07,0h0V42h5.08V37.11Z"/><circle class="cls-1" cx="34.88" cy="31.66" r="1.76"/><path class="cls-1" d="M37.41,37.11a2.54,2.54,0,0,0-5.07,0h0V42h5.08V37.11Z"/><circle class="cls-1" cx="42.96" cy="31.66" r="1.76"/><path class="cls-1" d="M45.5,37.11a2.54,2.54,0,0,0-5.07,0h0V42h5.08V37.11Z"/><circle class="cls-1" cx="51.05" cy="31.66" r="1.76"/><path class="cls-1" d="M53.58,37.11a2.54,2.54,0,0,0-5.07,0h0V42h5.08V37.11Z"/><circle class="cls-1" cx="59.13" cy="31.66" r="1.76"/><path class="cls-1" d="M61.67,37.11a2.54,2.54,0,0,0-5.07,0h0V42h5.08V37.11Z"/><circle class="cls-1" cx="67.22" cy="31.66" r="1.76"/><path class="cls-1" d="M69.75,37.11a2.54,2.54,0,0,0-5.07,0h0V42h5.08V37.11Z"/><circle class="cls-1" cx="75.3" cy="31.66" r="1.76"/><path class="cls-1" d="M77.83,37.11a2.54,2.54,0,0,0-5.07,0h0V42h5.08V37.11Z"/><circle class="cls-1" cx="2.54" cy="47.08" r="1.76"/><path class="cls-1" d="M5.08,52.53a2.54,2.54,0,0,0-5.07,0H0v4.94H5.08V52.53Z"/><circle class="cls-1" cx="10.63" cy="47.08" r="1.76"/><path class="cls-1" d="M13.16,52.53a2.54,2.54,0,0,0-5.07,0h0v4.94h5.08V52.53Z"/><circle class="cls-1" cx="18.71" cy="47.08" r="1.76"/><path class="cls-1" d="M21.24,52.53a2.54,2.54,0,0,0-5.07,0h0v4.94h5.08V52.53Z"/><circle class="cls-1" cx="26.8" cy="47.08" r="1.76"/><path class="cls-1" d="M29.33,52.53a2.54,2.54,0,0,0-5.07,0h0v4.94h5.08V52.53Z"/><circle class="cls-1" cx="34.88" cy="47.08" r="1.76"/><path class="cls-1" d="M37.41,52.53a2.54,2.54,0,0,0-5.07,0h0v4.94h5.08V52.53Z"/><circle class="cls-1" cx="42.96" cy="47.08" r="1.76"/><path class="cls-1" d="M45.5,52.53a2.54,2.54,0,0,0-5.07,0h0v4.94h5.08V52.53Z"/><circle class="cls-1" cx="51.05" cy="47.08" r="1.76"/><path class="cls-1" d="M53.58,52.53a2.54,2.54,0,0,0-5.07,0h0v4.94h5.08V52.53Z"/><circle class="cls-1" cx="59.13" cy="47.08" r="1.76"/><path class="cls-1" d="M61.67,52.53a2.54,2.54,0,0,0-5.07,0h0v4.94h5.08V52.53Z"/><circle class="cls-1" cx="67.22" cy="47.08" r="1.76"/><path class="cls-1" d="M69.75,52.53a2.54,2.54,0,0,0-5.07,0h0v4.94h5.08V52.53Z"/><circle class="cls-1" cx="75.3" cy="47.08" r="1.76"/><path class="cls-1" d="M77.83,52.53a2.54,2.54,0,0,0-5.07,0h0v4.94h5.08V52.53Z"/></g></g></svg>