<svg xmlns="http://www.w3.org/2000/svg" viewBox="0 0 77.84 43.53"><defs><style>.cls-1{fill:#faea48;}</style></defs><title>inw4Middel 58@4x</title><g id="Laag_2" data-name="Laag 2"><g id="Laag_4" data-name="Laag 4"><circle class="cls-1" cx="2.54" cy="1.76" r="1.76"/><path class="cls-1" d="M5.08,7.2A2.54,2.54,0,0,0,0,7.2H0v4.94H5.08V7.2Z"/><circle class="cls-1" cx="10.63" cy="1.76" r="1.76"/><path class="cls-1" d="M13.16,7.2a2.54,2.54,0,0,0-5.07,0h0v4.94h5.08V7.2Z"/><circle class="cls-1" cx="18.71" cy="1.76" r="1.76"/><path class="cls-1" d="M21.24,7.2a2.54,2.54,0,0,0-5.07,0h0v4.94h5.08V7.2Z"/><circle class="cls-1" cx="26.8" cy="1.76" r="1.76"/><path class="cls-1" d="M29.33,7.2a2.54,2.54,0,0,0-5.07,0h0v4.94h5.08V7.2Z"/><circle class="cls-1" cx="34.88" cy="1.76" r="1.76"/><path class="cls-1" d="M37.41,7.2a2.54,2.54,0,0,0-5.07,0h0v4.94h5.08V7.2Z"/><circle class="cls-1" cx="42.96" cy="1.76" r="1.76"/><path class="cls-1" d="M45.5,7.2a2.54,2.54,0,0,0-5.07,0h0v4.94h5.08V7.2Z"/><circle class="cls-1" cx="51.05" cy="1.76" r="1.76"/><path class="cls-1" d="M53.58,7.2a2.54,2.54,0,0,0-5.07,0h0v4.94h5.08V7.2Z"/><circle class="cls-1" cx="59.13" cy="1.76" r="1.76"/><path class="cls-1" d="M61.67,7.2a2.54,2.54,0,0,0-5.07,0h0v4.94h5.08V7.2Z"/><circle class="cls-1" cx="67.22" cy="1.76" r="1.76"/><path class="cls-1" d="M69.75,7.2a2.54,2.54,0,0,0-5.07,0h0v4.94h5.08V7.2Z"/><circle class="cls-1" cx="75.3" cy="1.76" r="1.76"/><path class="cls-1" d="M77.83,7.2a2.54,2.54,0,0,0-5.07,0h0v4.94h5.08V7.2Z"/><circle class="cls-1" cx="2.54" cy="17.45" r="1.76"/><path class="cls-1" d="M5.08,22.9A2.54,2.54,0,0,0,0,22.9H0v4.94H5.08V22.9Z"/><circle class="cls-1" cx="10.63" cy="17.45" r="1.76"/><path class="cls-1" d="M13.16,22.9a2.54,2.54,0,0,0-5.07,0h0v4.94h5.08V22.9Z"/><circle class="cls-1" cx="18.71" cy="17.45" r="1.76"/><path class="cls-1" d="M21.24,22.9a2.54,2.54,0,0,0-5.07,0h0v4.94h5.08V22.9Z"/><circle class="cls-1" cx="26.8" cy="17.45" r="1.76"/><path class="cls-1" d="M29.33,22.9a2.54,2.54,0,0,0-5.07,0h0v4.94h5.08V22.9Z"/><circle class="cls-1" cx="34.88" cy="17.45" r="1.76"/><path class="cls-1" d="M37.41,22.9a2.54,2.54,0,0,0-5.07,0h0v4.94h5.08V22.9Z"/><circle class="cls-1" cx="42.96" cy="17.45" r="1.76"/><path class="cls-1" d="M45.5,22.9a2.54,2.54,0,0,0-5.07,0h0v4.94h5.08V22.9Z"/><circle class="cls-1" cx="51.05" cy="17.45" r="1.76"/><path class="cls-1" d="M53.58,22.9a2.54,2.54,0,0,0-5.07,0h0v4.94h5.08V22.9Z"/><circle class="cls-1" cx="59.13" cy="17.45" r="1.76"/><path class="cls-1" d="M61.67,22.9a2.54,2.54,0,0,0-5.07,0h0v4.94h5.08V22.9Z"/><circle class="cls-1" cx="67.22" cy="17.45" r="1.76"/><path class="cls-1" d="M69.75,22.9a2.54,2.54,0,0,0-5.07,0h0v4.94h5.08V22.9Z"/><circle class="cls-1" cx="75.3" cy="17.45" r="1.76"/><path class="cls-1" d="M77.83,22.9a2.54,2.54,0,0,0-5.07,0h0v4.94h5.08V22.9Z"/><circle class="cls-1" cx="2.54" cy="33.15" r="1.76"/><path class="cls-1" d="M5.08,38.6A2.54,2.54,0,0,0,0,38.6H0v4.94H5.08V38.6Z"/><circle class="cls-1" cx="10.63" cy="33.15" r="1.76"/><path class="cls-1" d="M13.16,38.6a2.54,2.54,0,0,0-5.07,0h0v4.94h5.08V38.6Z"/><circle class="cls-1" cx="18.71" cy="33.15" r="1.76"/><path class="cls-1" d="M21.24,38.6a2.54,2.54,0,0,0-5.07,0h0v4.94h5.08V38.6Z"/><circle class="cls-1" cx="26.8" cy="33.15" r="1.76"/><path class="cls-1" d="M29.33,38.6a2.54,2.54,0,0,0-5.07,0h0v4.94h5.08V38.6Z"/><circle class="cls-1" cx="34.88" cy="33.15" r="1.76"/><path class="cls-1" d="M37.41,38.6a2.54,2.54,0,0,0-5.07,0h0v4.94h5.08V38.6Z"/><circle class="cls-1" cx="42.96" cy="33.15" r="1.76"/><path class="cls-1" d="M45.5,38.6a2.54,2.54,0,0,0-5.07,0h0v4.94h5.08V38.6Z"/><circle class="cls-1" cx="51.05" cy="33.15" r="1.76"/><path class="cls-1" d="M53.58,38.6a2.54,2.54,0,0,0-5.07,0h0v4.94h5.08V38.6Z"/><circle class="cls-1" cx="59.13" cy="33.15" r="1.76"/><path class="cls-1" d="M61.67,38.6a2.54,2.54,0,0,0-5.07,0h0v4.94h5.08V38.6Z"/><circle class="cls-1" cx="67.22" cy="33.15" r="1.76"/><path class="cls-1" d="M69.75,38.6a2.54,2.54,0,0,0-5.07,0h0v4.94h5.08V38.6Z"/></g></g></svg>