<svg xmlns="http://www.w3.org/2000/svg" viewBox="0 0 85.8 57.12"><defs><style>.cls-1{fill:#faea48;}</style></defs><title>inw8Middel 62@4x</title><g id="Laag_2" data-name="Laag 2"><g id="Laag_4" data-name="Laag 4"><circle class="cls-1" cx="2.54" cy="1.76" r="1.76"/><path class="cls-1" d="M5.08,7.2A2.54,2.54,0,0,0,0,7.2H0v4.94H5.08V7.2Z"/><circle class="cls-1" cx="10.63" cy="1.76" r="1.76"/><path class="cls-1" d="M13.16,7.2a2.54,2.54,0,0,0-5.07,0h0v4.94h5.08V7.2Z"/><circle class="cls-1" cx="18.71" cy="1.76" r="1.76"/><path class="cls-1" d="M21.24,7.2a2.54,2.54,0,0,0-5.07,0h0v4.94h5.08V7.2Z"/><circle class="cls-1" cx="26.8" cy="1.76" r="1.76"/><path class="cls-1" d="M29.33,7.2a2.54,2.54,0,0,0-5.07,0h0v4.94h5.08V7.2Z"/><circle class="cls-1" cx="34.88" cy="1.76" r="1.76"/><path class="cls-1" d="M37.41,7.2a2.54,2.54,0,0,0-5.07,0h0v4.94h5.08V7.2Z"/><circle class="cls-1" cx="42.96" cy="1.76" r="1.76"/><path class="cls-1" d="M45.5,7.2a2.54,2.54,0,0,0-5.07,0h0v4.94h5.08V7.2Z"/><circle class="cls-1" cx="51.05" cy="1.76" r="1.76"/><path class="cls-1" d="M53.58,7.2a2.54,2.54,0,0,0-5.07,0h0v4.94h5.08V7.2Z"/><circle class="cls-1" cx="59.13" cy="1.76" r="1.76"/><path class="cls-1" d="M61.67,7.2a2.54,2.54,0,0,0-5.07,0h0v4.94h5.08V7.2Z"/><circle class="cls-1" cx="67.22" cy="1.76" r="1.76"/><path class="cls-1" d="M69.75,7.2a2.54,2.54,0,0,0-5.07,0h0v4.94h5.08V7.2Z"/><circle class="cls-1" cx="75.3" cy="1.76" r="1.76"/><path class="cls-1" d="M77.83,7.2a2.54,2.54,0,0,0-5.07,0h0v4.94h5.08V7.2Z"/><circle class="cls-1" cx="2.54" cy="16.89" r="1.76"/><path class="cls-1" d="M5.08,22.34a2.54,2.54,0,0,0-5.07,0H0v4.94H5.08V22.34Z"/><circle class="cls-1" cx="10.63" cy="16.89" r="1.76"/><path class="cls-1" d="M13.16,22.34a2.54,2.54,0,0,0-5.07,0h0v4.94h5.08V22.34Z"/><circle class="cls-1" cx="18.71" cy="16.89" r="1.76"/><path class="cls-1" d="M21.24,22.34a2.54,2.54,0,0,0-5.07,0h0v4.94h5.08V22.34Z"/><circle class="cls-1" cx="26.8" cy="16.89" r="1.76"/><path class="cls-1" d="M29.33,22.34a2.54,2.54,0,0,0-5.07,0h0v4.94h5.08V22.34Z"/><circle class="cls-1" cx="34.88" cy="16.89" r="1.76"/><path class="cls-1" d="M37.41,22.34a2.54,2.54,0,0,0-5.07,0h0v4.94h5.08V22.34Z"/><circle class="cls-1" cx="42.96" cy="16.89" r="1.76"/><path class="cls-1" d="M45.5,22.34a2.54,2.54,0,0,0-5.07,0h0v4.94h5.08V22.34Z"/><circle class="cls-1" cx="51.05" cy="16.89" r="1.76"/><path class="cls-1" d="M53.58,22.34a2.54,2.54,0,0,0-5.07,0h0v4.94h5.08V22.34Z"/><circle class="cls-1" cx="59.13" cy="16.89" r="1.76"/><path class="cls-1" d="M61.67,22.34a2.54,2.54,0,0,0-5.07,0h0v4.94h5.08V22.34Z"/><circle class="cls-1" cx="67.22" cy="16.89" r="1.76"/><path class="cls-1" d="M69.75,22.34a2.54,2.54,0,0,0-5.07,0h0v4.94h5.08V22.34Z"/><circle class="cls-1" cx="75.3" cy="16.89" r="1.76"/><path class="cls-1" d="M77.83,22.34a2.54,2.54,0,0,0-5.07,0h0v4.94h5.08V22.34Z"/><circle class="cls-1" cx="2.54" cy="32.03" r="1.76"/><path class="cls-1" d="M5.08,37.48a2.54,2.54,0,0,0-5.07,0H0v4.94H5.08V37.48Z"/><circle class="cls-1" cx="10.63" cy="32.03" r="1.76"/><path class="cls-1" d="M13.16,37.48a2.54,2.54,0,0,0-5.07,0h0v4.94h5.08V37.48Z"/><circle class="cls-1" cx="18.71" cy="32.03" r="1.76"/><path class="cls-1" d="M21.24,37.48a2.54,2.54,0,0,0-5.07,0h0v4.94h5.08V37.48Z"/><circle class="cls-1" cx="26.8" cy="32.03" r="1.76"/><path class="cls-1" d="M29.33,37.48a2.54,2.54,0,0,0-5.07,0h0v4.94h5.08V37.48Z"/><circle class="cls-1" cx="34.88" cy="32.03" r="1.76"/><path class="cls-1" d="M37.41,37.48a2.54,2.54,0,0,0-5.07,0h0v4.94h5.08V37.48Z"/><circle class="cls-1" cx="42.96" cy="32.03" r="1.76"/><path class="cls-1" d="M45.5,37.48a2.54,2.54,0,0,0-5.07,0h0v4.94h5.08V37.48Z"/><circle class="cls-1" cx="51.05" cy="32.03" r="1.76"/><path class="cls-1" d="M53.58,37.48a2.54,2.54,0,0,0-5.07,0h0v4.94h5.08V37.48Z"/><circle class="cls-1" cx="59.13" cy="32.03" r="1.76"/><path class="cls-1" d="M61.67,37.48a2.54,2.54,0,0,0-5.07,0h0v4.94h5.08V37.48Z"/><circle class="cls-1" cx="67.22" cy="32.03" r="1.76"/><path class="cls-1" d="M69.75,37.48a2.54,2.54,0,0,0-5.07,0h0v4.94h5.08V37.48Z"/><circle class="cls-1" cx="75.3" cy="32.03" r="1.76"/><path class="cls-1" d="M77.83,37.48a2.54,2.54,0,0,0-5.07,0h0v4.94h5.08V37.48Z"/><circle class="cls-1" cx="83.26" cy="1.76" r="1.76"/><path class="cls-1" d="M85.79,7.2a2.54,2.54,0,0,0-5.07,0h0v4.94H85.8V7.2Z"/><circle class="cls-1" cx="83.26" cy="16.89" r="1.76"/><path class="cls-1" d="M85.79,22.34a2.54,2.54,0,0,0-5.07,0h0v4.94H85.8V22.34Z"/><circle class="cls-1" cx="83.26" cy="32.03" r="1.76"/><path class="cls-1" d="M85.79,37.48a2.54,2.54,0,0,0-5.07,0h0v4.94H85.8V37.48Z"/><circle class="cls-1" cx="2.54" cy="46.74" r="1.76"/><path class="cls-1" d="M5.08,52.18a2.54,2.54,0,0,0-5.07,0H0v4.94H5.08V52.18Z"/><circle class="cls-1" cx="10.63" cy="46.74" r="1.76"/><path class="cls-1" d="M13.16,52.18a2.54,2.54,0,0,0-5.07,0h0v4.94h5.08V52.18Z"/><circle class="cls-1" cx="18.71" cy="46.74" r="1.76"/><path class="cls-1" d="M21.24,52.18a2.54,2.54,0,0,0-5.07,0h0v4.94h5.08V52.18Z"/><circle class="cls-1" cx="26.8" cy="46.74" r="1.76"/><path class="cls-1" d="M29.33,52.18a2.54,2.54,0,0,0-5.07,0h0v4.94h5.08V52.18Z"/><circle class="cls-1" cx="34.88" cy="46.74" r="1.76"/><path class="cls-1" d="M37.41,52.18a2.54,2.54,0,0,0-5.07,0h0v4.94h5.08V52.18Z"/><circle class="cls-1" cx="42.96" cy="46.74" r="1.76"/><path class="cls-1" d="M45.5,52.18a2.54,2.54,0,0,0-5.07,0h0v4.94h5.08V52.18Z"/><circle class="cls-1" cx="51.05" cy="46.74" r="1.76"/><path class="cls-1" d="M53.58,52.18a2.54,2.54,0,0,0-5.07,0h0v4.94h5.08V52.18Z"/><circle class="cls-1" cx="59.13" cy="46.74" r="1.76"/><path class="cls-1" d="M61.67,52.18a2.54,2.54,0,0,0-5.07,0h0v4.94h5.08V52.18Z"/><circle class="cls-1" cx="67.22" cy="46.74" r="1.76"/><path class="cls-1" d="M69.75,52.18a2.54,2.54,0,0,0-5.07,0h0v4.94h5.08V52.18Z"/><circle class="cls-1" cx="75.3" cy="46.74" r="1.76"/><path class="cls-1" d="M77.83,52.18a2.54,2.54,0,0,0-5.07,0h0v4.94h5.08V52.18Z"/></g></g></svg>