<svg xmlns="http://www.w3.org/2000/svg" viewBox="0 0 77.84 27.27"><defs><style>.cls-1{fill:#faea48;}</style></defs><title>inwoners9Middel 43@4x</title><g id="Laag_2" data-name="Laag 2"><g id="Laag_4" data-name="Laag 4"><circle class="cls-1" cx="2.54" cy="1.76" r="1.76"/><path class="cls-1" d="M5.08,7.2A2.54,2.54,0,0,0,0,7.2H0v4.94H5.08V7.2Z"/><circle class="cls-1" cx="10.63" cy="1.76" r="1.76"/><path class="cls-1" d="M13.16,7.2a2.54,2.54,0,0,0-5.07,0h0v4.94h5.08V7.2Z"/><circle class="cls-1" cx="18.71" cy="1.76" r="1.76"/><path class="cls-1" d="M21.24,7.2a2.54,2.54,0,0,0-5.07,0h0v4.94h5.08V7.2Z"/><circle class="cls-1" cx="26.8" cy="1.76" r="1.76"/><path class="cls-1" d="M29.33,7.2a2.54,2.54,0,0,0-5.07,0h0v4.94h5.08V7.2Z"/><circle class="cls-1" cx="34.88" cy="1.76" r="1.76"/><path class="cls-1" d="M37.41,7.2a2.54,2.54,0,0,0-5.07,0h0v4.94h5.08V7.2Z"/><circle class="cls-1" cx="42.96" cy="1.76" r="1.76"/><path class="cls-1" d="M45.5,7.2a2.54,2.54,0,0,0-5.07,0h0v4.94h5.08V7.2Z"/><circle class="cls-1" cx="51.05" cy="1.76" r="1.76"/><path class="cls-1" d="M53.58,7.2a2.54,2.54,0,0,0-5.07,0h0v4.94h5.08V7.2Z"/><circle class="cls-1" cx="59.13" cy="1.76" r="1.76"/><path class="cls-1" d="M61.67,7.2a2.54,2.54,0,0,0-5.07,0h0v4.94h5.08V7.2Z"/><circle class="cls-1" cx="67.22" cy="1.76" r="1.76"/><path class="cls-1" d="M69.75,7.2a2.54,2.54,0,0,0-5.07,0h0v4.94h5.08V7.2Z"/><circle class="cls-1" cx="75.3" cy="1.76" r="1.76"/><path class="cls-1" d="M77.83,7.2a2.54,2.54,0,0,0-5.07,0h0v4.94h5.08V7.2Z"/><circle class="cls-1" cx="2.54" cy="16.89" r="1.76"/><path class="cls-1" d="M5.08,22.34a2.54,2.54,0,0,0-5.07,0H0v4.94H5.08V22.34Z"/><circle class="cls-1" cx="10.63" cy="16.89" r="1.76"/><path class="cls-1" d="M13.16,22.34a2.54,2.54,0,0,0-5.07,0h0v4.94h5.08V22.34Z"/><circle class="cls-1" cx="18.71" cy="16.89" r="1.76"/><path class="cls-1" d="M21.24,22.34a2.54,2.54,0,0,0-5.07,0h0v4.94h5.08V22.34Z"/><circle class="cls-1" cx="26.8" cy="16.89" r="1.76"/><path class="cls-1" d="M29.33,22.34a2.54,2.54,0,0,0-5.07,0h0v4.94h5.08V22.34Z"/><circle class="cls-1" cx="34.88" cy="16.89" r="1.76"/><path class="cls-1" d="M37.41,22.34a2.54,2.54,0,0,0-5.07,0h0v4.94h5.08V22.34Z"/><circle class="cls-1" cx="42.96" cy="16.89" r="1.76"/><path class="cls-1" d="M45.5,22.34a2.54,2.54,0,0,0-5.07,0h0v4.94h5.08V22.34Z"/></g></g></svg>