<svg xmlns="http://www.w3.org/2000/svg" viewBox="0 0 77.97 87.48"><defs><style>.cls-1{fill:#faea48;}</style></defs><title>inwoners1Middel 35@4x</title><g id="Laag_2" data-name="Laag 2"><g id="Laag_4" data-name="Laag 4"><circle class="cls-1" cx="2.54" cy="1.76" r="1.76"/><path class="cls-1" d="M5.08,7.2A2.54,2.54,0,0,0,0,7.2H0v4.94H5.08V7.2Z"/><circle class="cls-1" cx="10.63" cy="1.76" r="1.76"/><path class="cls-1" d="M13.16,7.2a2.54,2.54,0,0,0-5.07,0h0v4.94h5.08V7.2Z"/><circle class="cls-1" cx="18.71" cy="1.76" r="1.76"/><path class="cls-1" d="M21.24,7.2a2.54,2.54,0,0,0-5.07,0h0v4.94h5.08V7.2Z"/><circle class="cls-1" cx="26.8" cy="1.76" r="1.76"/><path class="cls-1" d="M29.33,7.2a2.54,2.54,0,0,0-5.07,0h0v4.94h5.08V7.2Z"/><circle class="cls-1" cx="34.88" cy="1.76" r="1.76"/><path class="cls-1" d="M37.41,7.2a2.54,2.54,0,0,0-5.07,0h0v4.94h5.08V7.2Z"/><circle class="cls-1" cx="42.96" cy="1.76" r="1.76"/><path class="cls-1" d="M45.5,7.2a2.54,2.54,0,0,0-5.07,0h0v4.94h5.08V7.2Z"/><circle class="cls-1" cx="51.05" cy="1.76" r="1.76"/><path class="cls-1" d="M53.58,7.2a2.54,2.54,0,0,0-5.07,0h0v4.94h5.08V7.2Z"/><circle class="cls-1" cx="59.13" cy="1.76" r="1.76"/><path class="cls-1" d="M61.67,7.2a2.54,2.54,0,0,0-5.07,0h0v4.94h5.08V7.2Z"/><circle class="cls-1" cx="67.22" cy="1.76" r="1.76"/><path class="cls-1" d="M69.75,7.2a2.54,2.54,0,0,0-5.07,0h0v4.94h5.08V7.2Z"/><circle class="cls-1" cx="75.3" cy="1.76" r="1.76"/><path class="cls-1" d="M77.83,7.2a2.54,2.54,0,0,0-5.07,0h0v4.94h5.08V7.2Z"/><circle class="cls-1" cx="2.54" cy="16.89" r="1.76"/><path class="cls-1" d="M5.08,22.34a2.54,2.54,0,0,0-5.07,0H0v4.94H5.08V22.34Z"/><circle class="cls-1" cx="10.63" cy="16.89" r="1.76"/><path class="cls-1" d="M13.16,22.34a2.54,2.54,0,0,0-5.07,0h0v4.94h5.08V22.34Z"/><circle class="cls-1" cx="18.71" cy="16.89" r="1.76"/><path class="cls-1" d="M21.24,22.34a2.54,2.54,0,0,0-5.07,0h0v4.94h5.08V22.34Z"/><circle class="cls-1" cx="26.8" cy="16.89" r="1.76"/><path class="cls-1" d="M29.33,22.34a2.54,2.54,0,0,0-5.07,0h0v4.94h5.08V22.34Z"/><circle class="cls-1" cx="34.88" cy="16.89" r="1.76"/><path class="cls-1" d="M37.41,22.34a2.54,2.54,0,0,0-5.07,0h0v4.94h5.08V22.34Z"/><circle class="cls-1" cx="42.96" cy="16.89" r="1.76"/><path class="cls-1" d="M45.5,22.34a2.54,2.54,0,0,0-5.07,0h0v4.94h5.08V22.34Z"/><circle class="cls-1" cx="51.05" cy="16.89" r="1.76"/><path class="cls-1" d="M53.58,22.34a2.54,2.54,0,0,0-5.07,0h0v4.94h5.08V22.34Z"/><circle class="cls-1" cx="59.13" cy="16.89" r="1.76"/><path class="cls-1" d="M61.67,22.34a2.54,2.54,0,0,0-5.07,0h0v4.94h5.08V22.34Z"/><circle class="cls-1" cx="67.22" cy="16.89" r="1.76"/><path class="cls-1" d="M69.75,22.34a2.54,2.54,0,0,0-5.07,0h0v4.94h5.08V22.34Z"/><circle class="cls-1" cx="75.3" cy="16.89" r="1.76"/><path class="cls-1" d="M77.83,22.34a2.54,2.54,0,0,0-5.07,0h0v4.94h5.08V22.34Z"/><circle class="cls-1" cx="2.54" cy="32.03" r="1.76"/><path class="cls-1" d="M5.08,37.48a2.54,2.54,0,0,0-5.07,0H0v4.94H5.08V37.48Z"/><circle class="cls-1" cx="10.63" cy="32.03" r="1.76"/><path class="cls-1" d="M13.16,37.48a2.54,2.54,0,0,0-5.07,0h0v4.94h5.08V37.48Z"/><circle class="cls-1" cx="18.71" cy="32.03" r="1.76"/><path class="cls-1" d="M21.24,37.48a2.54,2.54,0,0,0-5.07,0h0v4.94h5.08V37.48Z"/><circle class="cls-1" cx="26.8" cy="32.03" r="1.76"/><path class="cls-1" d="M29.33,37.48a2.54,2.54,0,0,0-5.07,0h0v4.94h5.08V37.48Z"/><circle class="cls-1" cx="34.88" cy="32.03" r="1.76"/><path class="cls-1" d="M37.41,37.48a2.54,2.54,0,0,0-5.07,0h0v4.94h5.08V37.48Z"/><circle class="cls-1" cx="42.96" cy="32.03" r="1.76"/><path class="cls-1" d="M45.5,37.48a2.54,2.54,0,0,0-5.07,0h0v4.94h5.08V37.48Z"/><circle class="cls-1" cx="51.05" cy="32.03" r="1.76"/><path class="cls-1" d="M53.58,37.48a2.54,2.54,0,0,0-5.07,0h0v4.94h5.08V37.48Z"/><circle class="cls-1" cx="59.13" cy="32.03" r="1.76"/><path class="cls-1" d="M61.67,37.48a2.54,2.54,0,0,0-5.07,0h0v4.94h5.08V37.48Z"/><circle class="cls-1" cx="67.22" cy="32.03" r="1.76"/><path class="cls-1" d="M69.75,37.48a2.54,2.54,0,0,0-5.07,0h0v4.94h5.08V37.48Z"/><circle class="cls-1" cx="75.3" cy="32.03" r="1.76"/><path class="cls-1" d="M77.83,37.48a2.54,2.54,0,0,0-5.07,0h0v4.94h5.08V37.48Z"/><circle class="cls-1" cx="2.54" cy="47.17" r="1.76"/><path class="cls-1" d="M5.08,52.61a2.54,2.54,0,0,0-5.07,0H0v4.94H5.08V52.61Z"/><circle class="cls-1" cx="10.63" cy="47.17" r="1.76"/><path class="cls-1" d="M13.16,52.61a2.54,2.54,0,0,0-5.07,0h0v4.94h5.08V52.61Z"/><circle class="cls-1" cx="18.71" cy="47.17" r="1.76"/><path class="cls-1" d="M21.24,52.61a2.54,2.54,0,0,0-5.07,0h0v4.94h5.08V52.61Z"/><circle class="cls-1" cx="26.8" cy="47.17" r="1.76"/><path class="cls-1" d="M29.33,52.61a2.54,2.54,0,0,0-5.07,0h0v4.94h5.08V52.61Z"/><circle class="cls-1" cx="34.88" cy="47.17" r="1.76"/><path class="cls-1" d="M37.41,52.61a2.54,2.54,0,0,0-5.07,0h0v4.94h5.08V52.61Z"/><circle class="cls-1" cx="42.96" cy="47.17" r="1.76"/><path class="cls-1" d="M45.5,52.61a2.54,2.54,0,0,0-5.07,0h0v4.94h5.08V52.61Z"/><circle class="cls-1" cx="51.05" cy="47.17" r="1.76"/><path class="cls-1" d="M53.58,52.61a2.54,2.54,0,0,0-5.07,0h0v4.94h5.08V52.61Z"/><circle class="cls-1" cx="59.13" cy="47.17" r="1.76"/><path class="cls-1" d="M61.67,52.61a2.54,2.54,0,0,0-5.07,0h0v4.94h5.08V52.61Z"/><circle class="cls-1" cx="67.22" cy="47.17" r="1.76"/><path class="cls-1" d="M69.75,52.61a2.54,2.54,0,0,0-5.07,0h0v4.94h5.08V52.61Z"/><circle class="cls-1" cx="75.3" cy="47.17" r="1.76"/><path class="cls-1" d="M77.83,52.61a2.54,2.54,0,0,0-5.07,0h0v4.94h5.08V52.61Z"/><circle class="cls-1" cx="2.66" cy="62.31" r="1.76"/><path class="cls-1" d="M5.2,67.75a2.54,2.54,0,0,0-5.07,0h0v4.94H5.21V67.75Z"/><circle class="cls-1" cx="10.75" cy="62.31" r="1.76"/><path class="cls-1" d="M13.28,67.75a2.54,2.54,0,0,0-5.07,0h0v4.94h5.08V67.75Z"/><circle class="cls-1" cx="18.83" cy="62.31" r="1.76"/><path class="cls-1" d="M21.37,67.75a2.54,2.54,0,0,0-5.07,0h0v4.94h5.08V67.75Z"/><circle class="cls-1" cx="26.92" cy="62.31" r="1.76"/><path class="cls-1" d="M29.45,67.75a2.54,2.54,0,0,0-5.07,0h0v4.94h5.08V67.75Z"/><circle class="cls-1" cx="2.66" cy="77.1" r="1.76"/><path class="cls-1" d="M5.2,82.55a2.54,2.54,0,0,0-5.07,0h0v4.94H5.21V82.55Z"/><circle class="cls-1" cx="10.75" cy="77.1" r="1.76"/><path class="cls-1" d="M13.28,82.55a2.54,2.54,0,0,0-5.07,0h0v4.94h5.08V82.55Z"/><circle class="cls-1" cx="18.83" cy="77.1" r="1.76"/><path class="cls-1" d="M21.37,82.55a2.54,2.54,0,0,0-5.07,0h0v4.94h5.08V82.55Z"/><circle class="cls-1" cx="26.92" cy="77.1" r="1.76"/><path class="cls-1" d="M29.45,82.55a2.54,2.54,0,0,0-5.07,0h0v4.94h5.08V82.55Z"/><circle class="cls-1" cx="35" cy="62.31" r="1.76"/><path class="cls-1" d="M37.53,67.75a2.54,2.54,0,0,0-5.07,0h0v4.94h5.08V67.75Z"/><circle class="cls-1" cx="43.09" cy="62.31" r="1.76"/><path class="cls-1" d="M45.62,67.75a2.54,2.54,0,0,0-5.07,0h0v4.94h5.08V67.75Z"/><circle class="cls-1" cx="51.17" cy="62.31" r="1.76"/><path class="cls-1" d="M53.7,67.75a2.54,2.54,0,0,0-5.07,0h0v4.94h5.08V67.75Z"/><circle class="cls-1" cx="59.25" cy="62.31" r="1.76"/><path class="cls-1" d="M61.79,67.75a2.54,2.54,0,0,0-5.07,0h0v4.94H61.8V67.75Z"/><circle class="cls-1" cx="67.34" cy="62.31" r="1.76"/><path class="cls-1" d="M69.87,67.75a2.54,2.54,0,0,0-5.07,0h0v4.94h5.08V67.75Z"/><circle class="cls-1" cx="75.42" cy="62.31" r="1.76"/><path class="cls-1" d="M78,67.75a2.54,2.54,0,0,0-5.07,0h0v4.94H78V67.75Z"/></g></g></svg>