<svg xmlns="http://www.w3.org/2000/svg" viewBox="0 0 30.01 28.16"><defs><style>.cls-1{fill:#fff;}</style></defs><title>politie10Middel 54@4x</title><g id="Laag_2" data-name="Laag 2"><g id="Laag_4" data-name="Laag 4"><path class="cls-1" d="M11,17.47a5.5,5.5,0,0,0-11,0H0V28.16H11V17.47Z"/><path class="cls-1" d="M9.7,2.42,5.5,0,1.31,2.42l.37,1h.8a3.8,3.8,0,1,0,6.05,0h.8Z"/><path class="cls-1" d="M30,17.47a5.5,5.5,0,0,0-11,0h0V28.16H30V17.47Z"/><path class="cls-1" d="M28.7,2.42,24.51,0,20.31,2.42l.37,1h.8a3.8,3.8,0,1,0,6.05,0h.8Z"/></g></g></svg>