<svg xmlns="http://www.w3.org/2000/svg" viewBox="0 0 106.04 61.48"><defs><style>.cls-1{fill:#fff;}</style></defs><title>politie1Middel 45@4x</title><g id="Laag_2" data-name="Laag 2"><g id="Laag_4" data-name="Laag 4"><path class="cls-1" d="M11,17.47a5.5,5.5,0,0,0-11,0H0V28.16H11V17.47Z"/><path class="cls-1" d="M9.7,2.42,5.5,0,1.31,2.42l.37,1h.8a3.8,3.8,0,1,0,6.05,0h.8Z"/><path class="cls-1" d="M30,17.47a5.5,5.5,0,0,0-11,0h0V28.16H30V17.47Z"/><path class="cls-1" d="M28.7,2.42,24.51,0,20.31,2.42l.37,1h.8a3.8,3.8,0,1,0,6.05,0h.8Z"/><path class="cls-1" d="M49,17.47a5.5,5.5,0,0,0-11,0h0V28.16H49V17.47Z"/><path class="cls-1" d="M47.71,2.42,43.52,0,39.32,2.42l.37,1h.8a3.8,3.8,0,1,0,6.05,0h.8Z"/><path class="cls-1" d="M68,17.47a5.5,5.5,0,0,0-11,0h0V28.16H68V17.47Z"/><path class="cls-1" d="M66.72,2.42,62.52,0,58.33,2.42l.37,1h.8a3.8,3.8,0,1,0,6.05,0h.8Z"/><path class="cls-1" d="M87,17.47a5.5,5.5,0,0,0-11,0h0V28.16H87V17.47Z"/><path class="cls-1" d="M85.72,2.42,81.53,0,77.33,2.42l.37,1h.8a3.8,3.8,0,1,0,6.05,0h.8Z"/><path class="cls-1" d="M106,17.47a5.5,5.5,0,0,0-11,0h0V28.16h11V17.47Z"/><path class="cls-1" d="M104.73,2.42,100.53,0,96.34,2.42l.37,1h.8a3.8,3.8,0,1,0,6.05,0h.8Z"/><path class="cls-1" d="M11,50.8a5.5,5.5,0,0,0-11,0H0V61.48H11V50.8Z"/><path class="cls-1" d="M9.7,35.75,5.5,33.32,1.31,35.75l.37,1h.8a3.8,3.8,0,1,0,6.05,0h.8Z"/><path class="cls-1" d="M30,50.8a5.5,5.5,0,0,0-11,0h0V61.48H30V50.8Z"/><path class="cls-1" d="M28.7,35.75l-4.19-2.42-4.19,2.42.37,1h.8a3.8,3.8,0,1,0,6.05,0h.8Z"/><path class="cls-1" d="M49,50.8a5.5,5.5,0,0,0-11,0h0V61.48H49V50.8Z"/><path class="cls-1" d="M47.71,35.75l-4.19-2.42-4.19,2.42.37,1h.8a3.8,3.8,0,1,0,6.05,0h.8Z"/><path class="cls-1" d="M68,50.8a5.5,5.5,0,0,0-11,0h0V61.48H68V50.8Z"/><path class="cls-1" d="M66.72,35.75l-4.19-2.42-4.19,2.42.37,1h.8a3.8,3.8,0,1,0,6.05,0h.8Z"/><path class="cls-1" d="M87,50.8a5.5,5.5,0,0,0-11,0h0V61.48H87V50.8Z"/><path class="cls-1" d="M85.72,35.75l-4.19-2.42-4.19,2.42.37,1h.8a3.8,3.8,0,1,0,6.05,0h.8Z"/><path class="cls-1" d="M106,50.8a5.5,5.5,0,0,0-11,0h0V61.48h11V50.8Z"/><path class="cls-1" d="M104.73,35.75l-4.19-2.42-4.19,2.42.37,1h.8a3.8,3.8,0,1,0,6.05,0h.8Z"/></g></g></svg>