<?xml version="1.0" encoding="utf-8"?>
<!-- Generator: Adobe Illustrator 23.0.1, SVG Export Plug-In . SVG Version: 6.00 Build 0)  -->
<svg version="1.1" id="Layer_1" xmlns="http://www.w3.org/2000/svg" xmlns:xlink="http://www.w3.org/1999/xlink" x="0px" y="0px"
	 viewBox="0 0 132.2 132.2" style="enable-background:new 0 0 132.2 132.2;" xml:space="preserve">
<style type="text/css">
	.st0{fill:#E63B23;}
</style>
<title>fysiekgeweldMiddel 23@4x</title>
<path class="st0" d="M66,132v-31.1c-1.4-1-2.4-2.5-2.5-4.3c0-1.5,0.4-3,1.3-4.3c0.4-0.6,0.8-1.2,1.2-1.8v-7.7
	c-0.9,0.5-1.8,1.1-2.7,1.6c-2,1.1-4.1,1.8-6.3,2c-2.7,0.3-5.3-0.9-7-3c-0.9-1-1.5-2.3-1.8-3.7c0.7,0.2,1.3,0.4,2,0.6
	c2.9,0.9,5.9,1.1,8.9,0.8c2.2-0.1,4.3-1,6-2.5c0.3-0.3,0.6-0.7,0.9-1.1v-12c-1.3-2-2.7-3.9-4.3-5.7c1.4-1,2.8-1.9,4.3-2.5v-29
	c-2.5,1.8-5.1,3.6-7.6,5.3c-0.7,0.5-1.4,0.9-2.2,1.1c-1.4,0.3-3-0.2-4-1.2c-2.5-2-4.8-3.9-7.2-5.9c-1-0.8-1.9-1.6-3-2.5
	c-0.1,0.8-0.3,1.6-0.4,2.4c-0.6,3.8-1.2,7.7-1.8,11.5c0,0.5-0.2,0.9-0.5,1.2c-0.1,0.2-0.3,0.3-0.5,0.4c-0.7,0.4-1.6,0-1.9-0.7
	c-0.4-0.8-0.6-1.7-0.6-2.6c0-6.2,0-12.3,0-18.5c0-0.5,0.1-1,0.3-1.5c0.1-0.2,0.2-0.4,0.3-0.6c0.7-1.1,2.2-1.5,3.3-0.8
	c1.1,0.6,2.1,1.3,3,2.1c3.9,3.5,7.7,7,11.6,10.5l0.8,0.8l2.1-2c2.8-2.6,5.6-5.2,8.3-7.8V0c-17.8,0-34.9,7.2-47.2,20
	C10.9,28,5.3,37.8,2.4,48.6c-1.3,4.6-2.1,9.3-2.3,14.1c-0.2,3.4-0.1,6.7,0.3,10.1c0.4,4.7,1.4,9.4,2.9,13.9
	c7.1,21.8,25.1,38.3,47.3,43.7c6.8,1.6,13.7,2.1,20.5,1.6H66z M45.7,43.4c2.2-1.3,4.7-2.1,7.3-2.2c4.4-0.4,8.4,2.4,9.7,6.6
	c0.3,1.1,0.4,2.2,0.1,3.3c-0.7,2.4-1.9,4.5-3.6,6.2c-5.4-4.3-10.8-8.6-17.6-10.8C42.8,45.3,44.2,44.3,45.7,43.4z M60.4,111.7
	c-3.2,1.3-6.6,1.8-10,1.3c-1.9-0.2-3.9-0.6-5.7-1.3c-2.6-1.1-4.7-2.9-6.2-5.3c-2.9-4.1-3.7-9.4-2-14.2c0-0.2,0.1-0.3,0.1-0.4
	c-1.4,0.1-2.8,0.3-4.2,0.4c-3.6,0.2-7.2-0.4-10.5-1.9c-3.9-1.8-6.6-5.3-7.6-9.4c-0.8-3.1-1-6.3-0.6-9.4c0.5-4.8,2.3-9.4,5-13.4
	c2.2-3.6,5.6-6.3,9.6-7.7c2.9-0.9,6-1,9-0.3c3.8,0.9,7.4,2.5,10.7,4.7c4.3,2.7,8.3,5.9,11.7,9.7c1.5,1.5,2.6,3.3,3.3,5.2
	c0.8,1.7,0.4,3.7-0.8,5.1c-0.9,1-2.2,1.5-3.5,1.6c-2.4,0.2-4.9,0-7.3-0.8c-3.4-1-6.7-2.3-9.7-4.1c-2.1-1.3-4-2.9-5.8-4.7
	c-1.2-1-2.2-2.2-3.4-3.2c-0.9-0.9-1.6-0.8-2.4,0.2c-1,1.2-1.5,2.7-1.7,4.3c-0.1,0.8,0.2,1.6,0.7,2.2c1.6,2.1,3.6,3.9,5.9,5.3
	c2.3,1.6,4.8,2.8,7.5,3.6c0.3,0.1,0.6,0.4,0.5,0.8c-0.1,3,1,5.8,3,8c2.1,2.3,4.9,3.6,8,3.8c1.7,0.1,3.3-0.1,4.9-0.5
	c-0.4,1-0.9,1.9-1.2,2.9c-0.8,2-1,4.3-0.6,6.4c0.7,3.5,3.1,5.6,6.5,6.5c0.7,0.2,1.4,0.3,2.2,0.4C64.3,109.4,62.4,110.9,60.4,111.7z"
	/>
</svg>
