<?xml version="1.0" encoding="utf-8"?>
<!-- Generator: Adobe Illustrator 23.0.1, SVG Export Plug-In . SVG Version: 6.00 Build 0)  -->
<svg version="1.1" id="Layer_1" xmlns="http://www.w3.org/2000/svg" xmlns:xlink="http://www.w3.org/1999/xlink" x="0px" y="0px"
	 viewBox="0 0 132.2 132.2" style="enable-background:new 0 0 132.2 132.2;" xml:space="preserve">
<style type="text/css">
	.st0{fill:#E63B23;}
</style>
<title>fysiekgeweldMiddel 23@4x</title>
<g>
	<path class="st0" d="M60.7,132c3.5,0.3,6.9,0.3,10.3,0H60.7z"/>
	<path class="st0" d="M16,85c-0.8-1.3-1.4-2.7-1.7-4.1c-0.8-3.1-1-6.3-0.6-9.4c0.3-3,1.1-5.9,2.3-8.6V23C9.6,30.4,4.9,39.1,2.4,48.6
		c-1.3,4.6-2.1,9.3-2.3,14.1c-0.2,3.4-0.1,6.7,0.3,10.1c0.4,4.7,1.4,9.4,2.9,13.9c2.7,8.4,7.1,16,12.7,22.6V85z"/>
</g>
</svg>
