<svg xmlns="http://www.w3.org/2000/svg" viewBox="0 0 132.2 132.25"><defs><style>.cls-1{fill:#fff;}</style></defs><title>fysiekgeweldMiddel 23@4x</title><g id="Laag_2" data-name="Laag 2"><g id="Laag_2-2" data-name="Laag 2"><g id="_Groep_" data-name="&lt;Groep&gt;"><path class="cls-1" d="M132.2,63v6.29c0,.22-.06.44-.09.65-.15,1.61-.26,3.22-.46,4.82a62.24,62.24,0,0,1-3.82,15.13A65.5,65.5,0,0,1,104.37,120a66.17,66.17,0,0,1-53.66,10.41A66.24,66.24,0,0,1,3.26,86.71,65,65,0,0,1,.33,72.77,68.75,68.75,0,0,1,.08,62.71,64,64,0,0,1,2.34,48.57,65.74,65.74,0,0,1,18.75,20,66.05,66.05,0,0,1,69.66.09,64,64,0,0,1,83.1,2.2a66.37,66.37,0,0,1,45.79,43.11,63.49,63.49,0,0,1,2.89,13.12C131.95,59.95,132.06,61.46,132.2,63ZM115.4,83.41a4.4,4.4,0,0,0-.56-7.73L97,66.65c-.88-.44-1.75-.9-2.65-1.37l.43-.58c2.25-3,4.49-6.08,6.76-9.1,3.22-4.29,6.45-8.57,9.72-12.81a5.67,5.67,0,0,0,1.13-4.66,5.24,5.24,0,0,0-6-4.42c-3.1.29-6.18.81-9.26,1.26-4.94.71-9.87,1.45-14.8,2.18l-2.76.39a1.43,1.43,0,0,1-.06-.22c-.14-3.93-.26-7.87-.41-11.8-.12-3-.24-6-.42-8.95a8.37,8.37,0,0,0-.51-2.4,2.59,2.59,0,0,0-3.56-1.61,9.53,9.53,0,0,0-3.4,2.19Q64.45,21,57.71,27.32l-2.12,2-.82-.76C50.94,25,47.11,21.48,43.24,18a14.12,14.12,0,0,0-3-2.09,2.42,2.42,0,0,0-3.6,1.46,4.29,4.29,0,0,0-.32,1.55q0,9.26,0,18.51a5.05,5.05,0,0,0,.59,2.6,1.46,1.46,0,0,0,2.48.3,2.54,2.54,0,0,0,.55-1.16c.63-3.84,1.22-7.68,1.83-11.52.13-.78.28-1.56.43-2.43,1.06.9,2,1.73,3,2.54,2.38,2,4.74,3.94,7.16,5.86a4.32,4.32,0,0,0,4,1.15,7.47,7.47,0,0,0,2.15-1.06c3.59-2.49,7.15-5,10.72-7.54.7-.49,1.41-1,2.18-1.5,0,.23.06.37.09.51.47,3,.88,6,1.43,9,.51,2.78,1.16,5.53,1.73,8.3a1.21,1.21,0,0,0,1.31,1.06c1.4,0,2.79.17,4.18.19q5,0,10,0c3,0,6-.11,9-.17h1.66l-.44.68c-3.51,5.38-7,10.74-10.52,16.14-1,1.53-1.83,3.17-2.69,4.79-.51.95-.45,1.19.32,1.92A31.46,31.46,0,0,0,90,69.33c4.69,3.52,9.42,7,14.13,10.51.44.33.88.63,1.36,1l-.26.21c-2.88,2-5.77,3.92-8.6,5.95-1.71,1.23-3.32,2.6-5,3.91A1.71,1.71,0,0,0,91,92.55c.3,2.48.57,5,.91,7.43s.81,5.13,1.23,7.79c-1.14-.1-2.25-.16-3.36-.3-3-.37-6.08-.77-9.11-1.16a1.71,1.71,0,0,0-1.83,1.42,1.37,1.37,0,0,0,1,1.66l12.89,4.55c1.24.44,2.48.88,3.75,1.23a1.78,1.78,0,0,0,2.27-1,5.58,5.58,0,0,0,.39-2.18c-.07-1.48-.27-3-.45-4.43q-.78-6.58-1.61-13.16a.57.57,0,0,1,.34-.69c3.76-2.1,7.53-4.19,11.27-6.34C111,86.12,113.24,84.86,115.4,83.41ZM86.93,88.13a1.39,1.39,0,0,0,0-.16,7.21,7.21,0,0,0-9.82-6.69A19.08,19.08,0,0,0,72,84.52a30.18,30.18,0,0,0-7.18,7.9,7.57,7.57,0,0,0-1.33,4.31A5.65,5.65,0,0,0,67,101.5a8.11,8.11,0,0,0,6,.31A23.17,23.17,0,0,0,83.64,95.2,10.63,10.63,0,0,0,86.93,88.13ZM79,70.48a10.85,10.85,0,0,0,1.35-5.43A9,9,0,0,0,77.43,59a8.43,8.43,0,0,0-6.55-2.86c-3.45.14-6.27,1.84-9.1,3.74a35,35,0,0,1,4.91,6.6,10.24,10.24,0,0,1-1.52,12.25,10,10,0,0,1-6,2.54,22.22,22.22,0,0,1-8.88-.78c-.66-.18-1.32-.37-2-.57a7.51,7.51,0,0,0,1.84,3.69,7.91,7.91,0,0,0,7,3,16.45,16.45,0,0,0,6.29-2,46.33,46.33,0,0,0,7.8-5.24A28.05,28.05,0,0,0,79,70.48Zm-13.23,37c-.78-.13-1.51-.18-2.19-.36-3.42-.91-5.77-3-6.55-6.53a11.26,11.26,0,0,1,.64-6.37c.34-1,.78-1.88,1.2-2.87a13.67,13.67,0,0,1-4.88.46,11.82,11.82,0,0,1-8-3.77,11.52,11.52,0,0,1-3-8,.67.67,0,0,0-.55-.78,29.39,29.39,0,0,1-7.53-3.57A21.85,21.85,0,0,1,29,70.39a3,3,0,0,1-.72-2.19A8.35,8.35,0,0,1,30,63.87c.78-1,1.45-1.06,2.37-.22,1.16,1,2.25,2.16,3.37,3.25a32.16,32.16,0,0,0,5.85,4.74,38.91,38.91,0,0,0,9.67,4.06,18.54,18.54,0,0,0,7.34.83,5.38,5.38,0,0,0,3.48-1.58,4.7,4.7,0,0,0,.81-5.05,15.68,15.68,0,0,0-3.27-5.24,54.4,54.4,0,0,0-11.69-9.72,32.26,32.26,0,0,0-10.69-4.65,16.91,16.91,0,0,0-9,.31,18.7,18.7,0,0,0-9.6,7.65,29.55,29.55,0,0,0-5,13.4A23.74,23.74,0,0,0,14.26,81a13.92,13.92,0,0,0,7.57,9.41,21.9,21.9,0,0,0,10.46,1.9c1.41-.06,2.81-.28,4.2-.42,0,.09-.06.23-.1.36a15.67,15.67,0,0,0,2,14.18,13.23,13.23,0,0,0,6.19,5.27,22.7,22.7,0,0,0,5.7,1.33,19.43,19.43,0,0,0,10-1.26A13.32,13.32,0,0,0,65.72,107.52Zm-2.94-56.4a6.26,6.26,0,0,0-.09-3.27A9.33,9.33,0,0,0,53,41.18a15.92,15.92,0,0,0-7.35,2.2,19.61,19.61,0,0,0-4.08,3.14C48.39,48.7,53.75,53,59.16,57.34A13.7,13.7,0,0,0,62.78,51.12Z"/></g></g></g></svg>