<?xml version="1.0" encoding="utf-8"?>
<!-- Generator: Adobe Illustrator 23.0.1, SVG Export Plug-In . SVG Version: 6.00 Build 0)  -->
<svg version="1.1" id="Layer_1" xmlns="http://www.w3.org/2000/svg" xmlns:xlink="http://www.w3.org/1999/xlink" x="0px" y="0px"
	 viewBox="0 0 132.2 132.2" style="enable-background:new 0 0 132.2 132.2;" xml:space="preserve">
<style type="text/css">
	.st0{fill:#E63B23;}
</style>
<title>fysiekgeweldMiddel 23@4x</title>
<g id="Laag_2">
	<g id="Laag_2-2">
		<g id="_Groep_">
			<path class="st0" d="M132.2,63v6.3c0,0.2-0.1,0.4-0.1,0.7c-0.1,1.6-0.3,3.2-0.5,4.8c-0.6,5.2-1.9,10.3-3.8,15.1
				c-4.7,12.1-12.8,22.6-23.5,30.1c-15.6,11-35.1,14.8-53.7,10.4C28.4,125,10.4,108.5,3.3,86.7c-1.5-4.5-2.5-9.2-2.9-13.9
				C0,69.4-0.1,66.1,0.1,62.7c0.2-4.8,1-9.5,2.3-14.1C5.3,37.8,10.9,28,18.8,20C32,6.3,50.6-0.9,69.7,0.1c4.5,0.2,9,0.9,13.4,2.1
				c21.5,5.8,38.7,22,45.8,43.1c1.4,4.3,2.4,8.7,2.9,13.1C131.9,60,132.1,61.5,132.2,63z M115.4,83.4c2.1-1.3,2.7-4,1.4-6.1
				c-0.5-0.7-1.1-1.3-1.9-1.7l-17.8-9c-0.9-0.4-1.8-0.9-2.7-1.4l0.4-0.6c2.2-3,4.5-6.1,6.8-9.1c3.2-4.3,6.4-8.6,9.7-12.8
				c1-1.3,1.5-3,1.1-4.7c-0.4-2.9-3.1-4.8-5.9-4.4c0,0,0,0-0.1,0c-3.1,0.3-6.2,0.8-9.3,1.3c-4.9,0.7-9.9,1.5-14.8,2.2l-2.8,0.4
				c0-0.1,0-0.1-0.1-0.2c-0.1-3.9-0.3-7.9-0.4-11.8c-0.1-3-0.2-6-0.4-9c-0.1-0.8-0.2-1.6-0.5-2.4c-0.4-1.4-1.9-2.1-3.2-1.7
				c-0.1,0-0.2,0.1-0.3,0.1c-1.3,0.5-2.4,1.2-3.4,2.2c-4.5,4.2-9,8.4-13.5,12.6l-2.1,2l-0.8-0.8C50.9,25,47.1,21.5,43.2,18
				c-0.9-0.8-1.9-1.5-3-2.1c-1.1-0.7-2.6-0.3-3.3,0.8c-0.1,0.2-0.2,0.4-0.3,0.6c-0.2,0.5-0.3,1-0.3,1.5c0,6.2,0,12.3,0,18.5
				c0,0.9,0.2,1.8,0.6,2.6c0.3,0.7,1.2,1.1,1.9,0.7c0.2-0.1,0.4-0.2,0.5-0.4c0.3-0.3,0.5-0.7,0.5-1.2c0.6-3.8,1.2-7.7,1.8-11.5
				c0.1-0.8,0.3-1.6,0.4-2.4c1.1,0.9,2,1.7,3,2.5c2.4,2,4.7,3.9,7.2,5.9c1,1,2.6,1.5,4,1.2c0.8-0.2,1.5-0.6,2.2-1.1
				c3.6-2.5,7.1-5,10.7-7.5c0.7-0.5,1.4-1,2.2-1.5c0,0.2,0.1,0.4,0.1,0.5c0.5,3,0.9,6,1.4,9c0.5,2.8,1.2,5.5,1.7,8.3
				c0.1,0.6,0.7,1.1,1.3,1.1c1.4,0,2.8,0.2,4.2,0.2c3.3,0,6.7,0,10,0c3,0,6-0.1,9-0.2h1.7l-0.4,0.7c-3.5,5.4-7,10.7-10.5,16.1
				c-1,1.5-1.8,3.2-2.7,4.8c-0.5,0.9-0.4,1.2,0.3,1.9c0.8,0.8,1.6,1.5,2.5,2.2c4.7,3.5,9.4,7,14.1,10.5c0.4,0.3,0.9,0.6,1.4,1
				l-0.3,0.2c-2.9,2-5.8,3.9-8.6,5.9c-1.7,1.2-3.3,2.6-5,3.9c-0.5,0.4-0.7,1-0.6,1.6c0.3,2.5,0.6,5,0.9,7.4s0.8,5.1,1.2,7.8
				c-1.1-0.1-2.2-0.2-3.4-0.3c-3-0.4-6.1-0.8-9.1-1.2c-0.9-0.1-1.7,0.5-1.8,1.4c-0.2,0.7,0.3,1.5,1,1.7c0,0,0,0,0,0l12.9,4.6
				c1.2,0.4,2.5,0.9,3.8,1.2c0.9,0.3,1.9-0.1,2.3-1c0.3-0.7,0.4-1.4,0.4-2.2c-0.1-1.5-0.3-3-0.4-4.4c-0.5-4.4-1.1-8.8-1.6-13.2
				c-0.1-0.3,0.1-0.6,0.3-0.7c3.8-2.1,7.5-4.2,11.3-6.3C111,86.1,113.2,84.9,115.4,83.4z M86.9,88.1c0-0.1,0-0.1,0-0.2
				c0-4-3.3-7.2-7.2-7.2c-0.9,0-1.8,0.2-2.6,0.5c-1.9,0.8-3.6,1.9-5.1,3.2c-2.8,2.2-5.3,4.9-7.2,7.9c-0.9,1.3-1.3,2.8-1.3,4.3
				c0.2,2.1,1.5,4,3.5,4.8c1.9,0.9,4,1,6,0.3c4.1-1.2,7.8-3.5,10.6-6.6C85.6,93.3,86.8,90.8,86.9,88.1z M79,70.5
				c0.9-1.7,1.4-3.5,1.3-5.4c-0.2-2.3-1.2-4.5-2.9-6.1c-1.7-1.9-4.1-2.9-6.6-2.9c-3.4,0.1-6.3,1.8-9.1,3.7c1.9,2,3.5,4.2,4.9,6.6
				c2.3,4,1.7,9-1.5,12.2c-1.7,1.5-3.8,2.4-6,2.5c-3,0.3-6,0.1-8.9-0.8c-0.7-0.2-1.3-0.4-2-0.6c0.3,1.4,0.9,2.7,1.8,3.7
				c1.7,2.1,4.3,3.3,7,3c2.2-0.2,4.3-0.9,6.3-2c2.8-1.5,5.4-3.2,7.8-5.2C74.4,77,77.1,74,79,70.5z M65.8,107.5
				c-0.8-0.1-1.5-0.2-2.2-0.4c-3.4-0.9-5.8-3-6.5-6.5c-0.4-2.1-0.2-4.4,0.6-6.4c0.3-1,0.8-1.9,1.2-2.9c-1.6,0.4-3.2,0.6-4.9,0.5
				c-3.1-0.2-5.9-1.5-8-3.8c-2-2.2-3.1-5-3-8c0.1-0.4-0.2-0.7-0.5-0.8c0,0,0,0,0,0c-2.7-0.8-5.2-2-7.5-3.6c-2.3-1.4-4.3-3.2-5.9-5.3
				c-0.5-0.6-0.8-1.4-0.7-2.2c0.2-1.6,0.7-3.1,1.7-4.3c0.8-1,1.5-1.1,2.4-0.2c1.2,1,2.2,2.2,3.4,3.2c1.8,1.8,3.7,3.4,5.8,4.7
				c3,1.8,6.3,3.1,9.7,4.1c2.4,0.8,4.9,1,7.3,0.8c1.3-0.1,2.6-0.6,3.5-1.6c1.2-1.4,1.6-3.4,0.8-5.1c-0.7-1.9-1.8-3.7-3.3-5.2
				c-3.4-3.8-7.4-7-11.7-9.7c-3.3-2.2-6.9-3.8-10.7-4.7c-3-0.7-6.1-0.6-9,0.3c-4,1.4-7.4,4.1-9.6,7.7c-2.7,4-4.5,8.6-5,13.4
				c-0.4,3.1-0.2,6.3,0.6,9.4c1,4.1,3.7,7.6,7.6,9.4c3.3,1.5,6.9,2.1,10.5,1.9c1.4-0.1,2.8-0.3,4.2-0.4c0,0.1-0.1,0.2-0.1,0.4
				c-1.7,4.8-0.9,10.1,2,14.2c1.5,2.4,3.6,4.2,6.2,5.3c1.8,0.7,3.8,1.1,5.7,1.3c3.4,0.5,6.8,0,10-1.3
				C62.4,110.9,64.3,109.4,65.8,107.5L65.8,107.5z M62.8,51.1c0.3-1.1,0.2-2.2-0.1-3.3c-1.3-4.2-5.3-7-9.7-6.6
				c-2.6,0.1-5.1,0.9-7.3,2.2c-1.5,0.9-2.9,1.9-4.1,3.1c6.8,2.2,12.2,6.5,17.6,10.8C60.9,55.6,62.1,53.5,62.8,51.1L62.8,51.1z"/>
		</g>
	</g>
</g>
</svg>
