<svg xmlns="http://www.w3.org/2000/svg" viewBox="0 0 126.27 126.27"><defs><style>.cls-1{fill:#fff;stroke:#1d1d1b;stroke-miterlimit:10;stroke-width:0.36px;}</style></defs><title>peppersprayMiddel 22@4x</title><g id="Laag_2" data-name="Laag 2"><g id="Laag_2-2" data-name="Laag 2"><path class="cls-1" d="M63.14.18a63,63,0,1,0,63,63A63,63,0,0,0,63.14.18ZM61.67,21.32a7.22,7.22,0,1,1-7.22,7.22A7.22,7.22,0,0,1,61.67,21.32ZM19.86,46.55a3.69,3.69,0,1,1,3.69-3.69A3.69,3.69,0,0,1,19.86,46.55ZM27,34a4.7,4.7,0,1,1,4.7-4.7A4.7,4.7,0,0,1,27,34Zm8.6-14.92a3.57,3.57,0,1,1,3.57,3.57A3.57,3.57,0,0,1,35.64,19.05ZM42.77,59A5.19,5.19,0,1,1,48,53.76,5.19,5.19,0,0,1,42.77,59Zm2.6-19.79a2.6,2.6,0,1,1,2.6-2.6A2.6,2.6,0,0,1,45.37,39.17Zm13.22,3.24a4.14,4.14,0,1,1-4.14,4.14A4.14,4.14,0,0,1,58.59,42.41ZM106.08,68.9c-.49,8.54-3.6,16.24-7.67,23.62a69.31,69.31,0,0,1-9,12.85c-2.52,2.81-5.67,4.83-8.69,7-1.52,1.1-6.78,2.84-8.61,4.24a1.44,1.44,0,0,1-.88.29H69.2a5,5,0,0,1-1.51-.23L65.5,116l-.14-.05-.48-.19a1.7,1.7,0,0,1-1.11-1.43c-.05-.85-1.84-2.22-2.33-2.91a28.65,28.65,0,0,0-2.19-2.81c-2.67-2.89-4.6-6.09-4.77-10.11a18.88,18.88,0,0,1,1-6.34,37.84,37.84,0,0,0,6.68,7.48,24.81,24.81,0,0,0,7.4,4.58,10.31,10.31,0,0,0,11.1-2,24.15,24.15,0,0,0,8.55-20.68c-.71-10-6.15-16.67-15-20.9a43.83,43.83,0,0,0-9.34-3.12l-1.06-.26a33.23,33.23,0,0,1,2.29-3.7c5.5-6.75,12.56-10.1,21.31-9.2,5.42.56,9.8,3.32,13.33,7.4C105,56.71,106.45,62.55,106.08,68.9Z"/></g></g></svg>