<?xml version="1.0" encoding="utf-8"?>
<!-- Generator: Adobe Illustrator 23.0.1, SVG Export Plug-In . SVG Version: 6.00 Build 0)  -->
<svg version="1.1" id="Layer_1" xmlns="http://www.w3.org/2000/svg" xmlns:xlink="http://www.w3.org/1999/xlink" x="0px" y="0px"
	 viewBox="0 0 500 500" style="enable-background:new 0 0 500 500;" xml:space="preserve">
<style type="text/css">
	.st0{fill:#FFF33D;}
</style>
<title>instagram</title>
<g>
	<path class="st0" d="M110,180.6c15.1,12.3,39.2,31.4,90.6,71.7c11.3,8.9,33.8,30.4,49.4,30.1c15.6,0.2,38.1-21.2,49.4-30.1
		c51.4-40.3,75.5-59.4,90.6-71.7v-27.5H110V180.6z"/>
	<path class="st0" d="M0,0v500h500V0H0z M422.3,347c0,17.8-14.5,32.3-32.3,32.3H110c-17.8,0-32.3-14.5-32.3-32.3V153.1
		c0-17.8,14.5-32.3,32.3-32.3h280c17.8,0,32.3,14.4,32.3,32.3V347z"/>
	<path class="st0" d="M250,314.6c-28.9,0.1-54.7-25.4-69.4-37c-33.3-26.1-55.2-43.3-70.6-55.6v124.9h280V222
		c-15.4,12.3-37.3,29.5-70.6,55.6C304.2,289.6,278.8,314.8,250,314.6z"/>
</g>
</svg>
