<?xml version="1.0" encoding="utf-8"?>
<!-- Generator: Adobe Illustrator 23.0.1, SVG Export Plug-In . SVG Version: 6.00 Build 0)  -->
<svg version="1.1" id="Layer_1" xmlns="http://www.w3.org/2000/svg" xmlns:xlink="http://www.w3.org/1999/xlink" x="0px" y="0px"
	 viewBox="0 0 500 500" style="enable-background:new 0 0 500 500;" xml:space="preserve">
<style type="text/css">
	.st0{fill:#FFF33D;}
</style>
<path class="st0" d="M0,0v500h500V0H0z M320.9,125.7c0,12.5,0,24.9,0,37.4c0,1.7-0.3,3-0.8,4c-0.4,0.7-0.9,1.2-1.5,1.6
	c-1,0.6-2.3,0.8-3.9,0.8c-4.5,0-9,0-13.5,0c-4.6,0-9.1,0.1-13.7,0.4c-1.1,0.1-2.1,0.2-3,0.4c-3.8,0.7-6.5,2.4-8.2,5.1
	c-0.2,0.3-0.4,0.7-0.6,1.1c-0.7,1.5-1.2,3.2-1.4,5.2c-0.1,0.5-0.1,1-0.1,1.6c-0.4,9.7-0.1,19.5-0.2,29.3c0,0,0,0,0,0
	c0,0,0,0.2,0.1,0.3c0,0.1,0.1,0.2,0.2,0.4h38.5h0.1c4.6,0,6.5,1.9,6.5,6.5c0,13.6,0,27.1,0,40.7c0,4.7-1.9,6.6-6.6,6.6h-0.1H274v2.7
	c0,34.8,0,69.6,0,104.4c0,5.4-1.8,7.1-7,7.1h-41.8c-3,0-4.8-0.8-5.8-2.6c-0.6-1-0.9-2.4-0.9-4.2c0-34.9,0-69.7,0-104.6v-2.9h-32.9
	c-2.3,0-4-0.5-5-1.6c-1.1-1-1.6-2.7-1.6-5c0-13.6,0-27.3,0-40.9c0-4.6,1.8-6.4,6.5-6.6h33c0-1,0-1.9,0-2.7
	c0.1-11.4-0.3-22.9,0.5-34.3c1.3-19,8.8-35.2,25-46.5c1.9-1.3,3.8-2.4,5.8-3.4c7.2-3.8,15.1-6.2,23.3-7c0.9,0,1.9-0.3,2.7-0.4h41.1
	v0.2C319.7,119.9,321.3,122.7,320.9,125.7z"/>
</svg>
