<?xml version="1.0" encoding="utf-8"?>
<!-- Generator: Adobe Illustrator 23.0.1, SVG Export Plug-In . SVG Version: 6.00 Build 0)  -->
<svg version="1.1" id="Layer_1" xmlns="http://www.w3.org/2000/svg" xmlns:xlink="http://www.w3.org/1999/xlink" x="0px" y="0px"
	 viewBox="0 0 500 500" style="enable-background:new 0 0 500 500;" xml:space="preserve">
<style type="text/css">
	.st0{fill:#FFF33D;}
</style>
<title>instagram</title>
<g>
	<path class="st0" d="M0,0v500h500V0H0z M250.1,377H250c-21.5,0-42.5-5.4-61.2-15.6l-67.9,17.8l18.2-66.3
		c-11.2-19.4-17.1-41.5-17.1-64c0-70.6,57.4-128,128-128c34.2,0,66.3,13.3,90.5,37.5c24.1,24.2,38.7,56.3,38.8,90.6
		C379.3,319.6,320.6,377,250.1,377z"/>
	<path class="st0" d="M249.9,142.6c-58.8,0-106.5,47.8-106.5,106.4c0,20.1,5.6,39.6,16.3,56.6l2.5,4l-10.7,39.3l40.3-10.6l3.9,2.3
		c16.3,9.7,35.1,14.8,54.2,14.8c58.7,0,107.6-47.8,107.6-106.3c0-28.5-12.3-55.2-32.4-75.3C305,153.7,278.3,142.6,249.9,142.6z
		 M312.6,294.6c-2.7,7.5-15.4,14.3-21.6,15.2c-10.1,1.5-18.1,0.8-38.4-8c-32.2-13.9-53.1-46.2-54.7-48.3c-1.5-2.1-13-17.4-13-33.1
		c0-15.7,8.3-23.5,11.2-26.7c2.9-3.2,6.4-4,8.5-4c2.1,0,4.3,0,6.1,0.1c2,0.1,4.6-0.7,7.2,5.5c2.7,6.4,9.1,22.2,9.9,23.8
		c0.8,1.6,1.3,3.5,0.3,5.6c-6.1,12.3-12.7,11.8-9.4,17.5c12.4,21.3,24.7,28.7,43.5,38.1c3.2,1.6,5.1,1.3,6.9-0.8
		c1.9-2.2,8-9.4,10.1-12.6c2.1-3.2,4.3-2.7,7.2-1.6c3,1.1,18.7,8.8,21.9,10.4c3.2,1.5,5.3,2.3,6.1,3.7
		C315.3,280.7,315.3,287.1,312.6,294.6z"/>
</g>
</svg>
