<svg xmlns="http://www.w3.org/2000/svg" viewBox="0 0 126.85 123.6"><defs><style>.cls-1{fill:#fff;}</style></defs><title>alternatiefgeweldMiddel 24@4x</title><g id="Laag_2" data-name="Laag 2"><g id="Laag_2-2" data-name="Laag 2"><path class="cls-1" d="M64.22,123.6a63.69,63.69,0,0,1-11.47-.92c-2.22-.39-4.43-.91-6.62-1.46a54.72,54.72,0,0,1-8.37-2.94,54.21,54.21,0,0,1-7.61-3.93c-1.41-.9-2.83-1.8-4.19-2.77s-2.49-1.82-3.66-2.82c-1.46-1.24-2.89-2.52-4.25-3.88a56,56,0,0,1-3.9-4.29c-1.44-1.78-2.74-3.67-4.11-5.5A49.87,49.87,0,0,1,6.1,88.2,58.25,58.25,0,0,1,2,77.22,57.53,57.53,0,0,1,0,59,51,51,0,0,1,1.69,47.39a60.27,60.27,0,0,1,4-11.34c1.19-2.38,2.48-4.73,3.89-7a61.59,61.59,0,0,1,4-5.57,55.68,55.68,0,0,1,3.89-4.37,64.07,64.07,0,0,1,8-6.88q1.82-1.33,3.74-2.52a55,55,0,0,1,8.07-4.26c2.55-1,5.14-2,7.76-2.84A58.86,58.86,0,0,1,56,.42,67.25,67.25,0,0,1,68,.15a62.24,62.24,0,0,1,9,1.26A64,64,0,0,1,88.82,5.16a56.72,56.72,0,0,1,7.89,4c1.35.85,2.69,1.7,4,2.62s2.62,1.93,3.86,3,2.75,2.38,4,3.66,2.74,2.83,4,4.35c1.4,1.7,2.65,3.51,4,5.27a50.54,50.54,0,0,1,4,6.91,60.62,60.62,0,0,1,4.05,10.55,51.18,51.18,0,0,1,1.86,9.38,60.11,60.11,0,0,1,.26,10.48A54.25,54.25,0,0,1,125.18,76a60.79,60.79,0,0,1-4.27,12,75.23,75.23,0,0,1-3.77,6.69,65.85,65.85,0,0,1-4.1,5.64,54.19,54.19,0,0,1-3.81,4.23c-1.3,1.32-2.67,2.57-4.07,3.77s-2.56,2.12-3.92,3.08a65.49,65.49,0,0,1-7.81,4.83,63.79,63.79,0,0,1-12,4.81,62,62,0,0,1-12.77,2.3C67.2,123.44,65.71,123.52,64.22,123.6ZM62.64,97V96.2q0-31.57,0-63.13a4,4,0,0,0,0-.72,1.47,1.47,0,0,0-.26-.69c-.49-.55-1-1-1.53-1.59-1.71-1.85-3.4-3.71-5.12-5.55a.93.93,0,0,0-.61-.27q-10.87,0-21.75,0a.83.83,0,0,0-.54.18Q30.56,26.7,28.31,29c-.81.82-1.58,1.67-2.41,2.46-.29.28-.54.47-.54.94q0,32,0,64.06V97H39.13V77.5h9.76V97ZM73.56,24.27V97H99.28V86H87.18V24.27Z"/><path class="cls-1" d="M48.84,65.37h-9.7V36.84h9.7Z"/></g></g></svg>