<?xml version="1.0" encoding="utf-8"?>
<!-- Generator: Adobe Illustrator 23.0.1, SVG Export Plug-In . SVG Version: 6.00 Build 0)  -->
<svg version="1.1" id="Layer_1" xmlns="http://www.w3.org/2000/svg" xmlns:xlink="http://www.w3.org/1999/xlink" x="0px" y="0px"
	 viewBox="0 0 132.2 132.2" style="enable-background:new 0 0 132.2 132.2;" xml:space="preserve">
<style type="text/css">
	.st0{fill:#E63B23;}
</style>
<title>fysiekgeweldMiddel 23@4x</title>
<g>
	<path class="st0" d="M94.4,65.2c0.5,0.3,1.1,0.6,1.6,0.9v-3.1c-0.4,0.6-0.8,1.1-1.2,1.7L94.4,65.2z"/>
	<path class="st0" d="M96,114.8c-1.2-0.3-2.3-0.7-3.4-1.1l-12.9-4.6c-0.7-0.2-1.2-1-1-1.7c0.1-0.9,0.9-1.5,1.8-1.4
		c3,0.4,6.1,0.8,9.1,1.2c1.2,0.1,2.3,0.2,3.4,0.3c-0.4-2.7-0.9-5.4-1.2-7.8c-0.3-2.4-0.6-4.9-0.9-7.4c-0.1-0.6,0.1-1.2,0.6-1.6
		c1.5-1.2,3-2.4,4.5-3.6V73.8c-2-1.5-4.1-3-6.1-4.6c-0.9-0.7-1.7-1.4-2.5-2.2c-0.7-0.7-0.8-1-0.3-1.9c0.9-1.6,1.7-3.3,2.7-4.8
		c2.1-3.2,4.2-6.4,6.2-9.5v-7.2c-2,0.1-4,0.1-6,0.1c-3.3,0-6.7,0-10,0c-1.4,0-2.8-0.2-4.2-0.2c-0.6,0-1.2-0.5-1.3-1.1
		c-0.5-2.8-1.2-5.5-1.7-8.3c-0.5-3-0.9-6-1.4-9c0-0.1-0.1-0.3-0.1-0.5c-0.8,0.5-1.5,1-2.2,1.5c-3.6,2.5-7.1,5-10.7,7.5
		c-0.7,0.5-1.4,0.9-2.2,1.1c-1.4,0.3-3-0.2-4-1.2c-2.5-2-4.8-3.9-7.2-5.9c-1-0.8-1.9-1.6-3-2.5c-0.1,0.8-0.3,1.6-0.4,2.4
		c-0.6,3.8-1.2,7.7-1.8,11.5c0,0.5-0.2,0.9-0.5,1.2c-0.1,0.2-0.3,0.3-0.5,0.4c-0.7,0.4-1.6,0-1.9-0.7c-0.4-0.8-0.6-1.7-0.6-2.6
		c0-6.2,0-12.3,0-18.5c0-0.5,0.1-1,0.3-1.5c0.1-0.2,0.2-0.4,0.3-0.6c0.7-1.1,2.2-1.5,3.3-0.8c1.1,0.6,2.1,1.3,3,2.1
		c3.9,3.5,7.7,7,11.6,10.5l0.8,0.8l2.1-2c4.5-4.2,9-8.4,13.5-12.6c1-1,2.1-1.7,3.4-2.2c0.1,0,0.2-0.1,0.3-0.1
		c1.3-0.4,2.8,0.3,3.2,1.7c0.3,0.8,0.4,1.6,0.5,2.4c0.2,3,0.3,6,0.4,9c0.1,3.9,0.3,7.9,0.4,11.8c0.1,0.1,0.1,0.1,0.1,0.2l2.8-0.4
		c4.5-0.6,9.2-1.4,13.7-2V7.2c-4.1-2.1-8.4-3.8-12.9-5C78.7,1,74.2,0.3,69.7,0.1C50.6-0.9,32,6.3,18.8,20C10.9,28,5.3,37.8,2.4,48.6
		c-1.3,4.6-2.1,9.3-2.3,14.1c-0.2,3.4-0.1,6.7,0.3,10.1c0.4,4.7,1.4,9.4,2.9,13.9c7.1,21.8,25.1,38.3,47.3,43.7
		C66,134.1,82.1,132,96,125V114.8z M70.8,56.1c2.5,0,4.9,1,6.6,2.9c1.7,1.6,2.7,3.8,2.9,6.1c0.1,1.9-0.4,3.7-1.3,5.4
		c-1.9,3.5-4.6,6.5-7.9,8.7c-2.4,2-5,3.7-7.8,5.2c-2,1.1-4.1,1.8-6.3,2c-2.7,0.3-5.3-0.9-7-3c-0.9-1-1.5-2.3-1.8-3.7
		c0.7,0.2,1.3,0.4,2,0.6c2.9,0.9,5.9,1.1,8.9,0.8c2.2-0.1,4.3-1,6-2.5c3.2-3.2,3.8-8.2,1.5-12.2c-1.4-2.4-3-4.6-4.9-6.6
		C64.5,57.9,67.4,56.2,70.8,56.1z M45.7,43.4c2.2-1.3,4.7-2.1,7.3-2.2c4.4-0.4,8.4,2.4,9.7,6.6c0.3,1.1,0.4,2.2,0.1,3.3
		c-0.7,2.4-1.9,4.5-3.6,6.2c-5.4-4.3-10.8-8.6-17.6-10.8C42.8,45.3,44.2,44.3,45.7,43.4z M60.4,111.7c-3.2,1.3-6.6,1.8-10,1.3
		c-1.9-0.2-3.9-0.6-5.7-1.3c-2.6-1.1-4.7-2.9-6.2-5.3c-2.9-4.1-3.7-9.4-2-14.2c0-0.2,0.1-0.3,0.1-0.4c-1.4,0.1-2.8,0.3-4.2,0.4
		c-3.6,0.2-7.2-0.4-10.5-1.9c-3.9-1.8-6.6-5.3-7.6-9.4c-0.8-3.1-1-6.3-0.6-9.4c0.5-4.8,2.3-9.4,5-13.4c2.2-3.6,5.6-6.3,9.6-7.7
		c2.9-0.9,6-1,9-0.3c3.8,0.9,7.4,2.5,10.7,4.7c4.3,2.7,8.3,5.9,11.7,9.7c1.5,1.5,2.6,3.3,3.3,5.2c0.8,1.7,0.4,3.7-0.8,5.1
		c-0.9,1-2.2,1.5-3.5,1.6c-2.4,0.2-4.9,0-7.3-0.8c-3.4-1-6.7-2.3-9.7-4.1c-2.1-1.3-4-2.9-5.8-4.7c-1.2-1-2.2-2.2-3.4-3.2
		c-0.9-0.9-1.6-0.8-2.4,0.2c-1,1.2-1.5,2.7-1.7,4.3c-0.1,0.8,0.2,1.6,0.7,2.2c1.6,2.1,3.6,3.9,5.9,5.3c2.3,1.6,4.8,2.8,7.5,3.6
		c0.3,0.1,0.6,0.4,0.5,0.8c-0.1,3,1,5.8,3,8c2.1,2.3,4.9,3.6,8,3.8c1.7,0.1,3.3-0.1,4.9-0.5c-0.4,1-0.9,1.9-1.2,2.9
		c-0.8,2-1,4.3-0.6,6.4c0.7,3.5,3.1,5.6,6.5,6.5c0.7,0.2,1.4,0.3,2.2,0.4C64.3,109.4,62.4,110.9,60.4,111.7z M67,101.4
		c-2-0.8-3.3-2.7-3.5-4.8c0-1.5,0.4-3,1.3-4.3c1.9-3,4.4-5.7,7.2-7.9c1.5-1.3,3.2-2.4,5.1-3.2c0.8-0.3,1.7-0.5,2.6-0.5
		c3.9,0,7.2,3.2,7.2,7.2c0,0.1,0,0.1,0,0.2c-0.1,2.7-1.3,5.2-3.3,7c-2.8,3.1-6.5,5.4-10.6,6.6C71,102.4,68.9,102.3,67,101.4z"/>
</g>
</svg>
