<svg xmlns="http://www.w3.org/2000/svg" viewBox="0 0 122.87 122.83"><defs><style>.cls-1{fill:#fff;}</style></defs><title>geweldolvmeerderenMiddel 19@4x</title><g id="Laag_2" data-name="Laag 2"><g id="Laag_2-2" data-name="Laag 2"><path class="cls-1" d="M122.5,55.66a60,60,0,0,0-14.72-34.4A60.07,60.07,0,0,0,74.21,1.44C71,.74,67.63.58,64.34.17c-.28,0-.55-.11-.82-.17H59.29L55.6.37A60,60,0,0,0,21.2,15.09,58.84,58.84,0,0,0,1.39,48.66c-4.09,20.54.87,38.8,14.92,54.4A58.88,58.88,0,0,0,47.72,121.3a66.08,66.08,0,0,0,10.91,1.42,58.25,58.25,0,0,0,34.24-8.56c15.34-9.35,25-22.87,28.67-40.48.64-3,.79-6.2,1.18-9.3a4.15,4.15,0,0,1,.17-.61V59.35C122.75,58.12,122.62,56.9,122.5,55.66Zm-50.26,50c-.08,1.39-.29,2.78-.45,4.27l-10.49.84c.88-1.84,1.61-3.49,2.45-5.1,1.73-3.34,3.49-6.68,5.3-10a8.32,8.32,0,0,1,1.63-2c.61-.57,1.19-.43,1.51.36a5.47,5.47,0,0,1,.5,2.12C72.61,99.32,72.44,102.48,72.24,105.64Zm33.7-63.28-.16,1.27a5.08,5.08,0,0,1-.19,2.12c0,.13-.09.27-.13.4l-.16,1.31-.24,0c-.8,2.44-1.75,4.83-2.71,7.21-1.06,2.64-2.34,5.18-3.42,7.81-.68,1.65-.46,2.12,1.09,3.06.79.48,1.61.91,2.44,1.32,2.9,1.43,4.07,3.89,4.22,7,.26,5.38-1.48,10.21-4.21,14.7a84.26,84.26,0,0,1-9.59,12.81c-4.07,4.48-9.28,7-15.08,8.44-.89.22-1.79.4-2.82.63.7-2.49,1.37-4.84,2-7.19,1.81-6.81,3.32-13.67,3.14-20.77-.13-5.06-.88-10-3.61-14.42a18.56,18.56,0,0,0-1.42-1.93,6.53,6.53,0,0,0-7-2.33c-.59.14-1.19.22-1.79.33A1.54,1.54,0,0,1,64.36,63c-.81-2.25-1.59-4.52-2.43-6.76A30.3,30.3,0,0,0,57.49,48a3.32,3.32,0,0,0-3.18-1.36c-3.36.38-8,5.58-7.17,9.3a8.18,8.18,0,0,0,3.57,5.16c2.58,1.7,5.32,3.16,8,4.73.55.32,1.11.64,1.64,1a.79.79,0,0,1,.19,1.31c-.51.62-1,1.24-1.53,1.85a6.55,6.55,0,0,0-1.25,6.94c1.13,3.25,2,6.59,2.84,9.93.78,3.1.4,6.24-.07,9.34a98,98,0,0,1-3.73,14.74,1.21,1.21,0,0,1-1.47,1c-8.64-.49-16.72-2.57-23.61-8.13a41.92,41.92,0,0,1-9.39-11.31,38.13,38.13,0,0,1-5.44-14.21,26,26,0,0,1,1-11.84,7.69,7.69,0,0,1,3.58-4.22c.71-.43,1.44-.83,2.13-1.3,1.57-1.07,2-2.18,1.3-4-.92-2.24-2-4.41-3.09-6.58-1.46-2.95-3.08-5.82-3.88-9a6.54,6.54,0,0,1-.15-.91l-.92-3.25c-1.81.09-3-.14-3.18-.73-.34-1.19,3.62-3.35,8.83-4.83s9.72-1.72,10.05-.53c.17.59-.73,1.42-2.32,2.3l1.21,4.25a8,8,0,0,1,.75,3.15,48,48,0,0,1-.86,10.11c-.27,1.73-.52,3.47-.69,5.22-.12,1.26.18,1.61,1.46,1.51,1.74-.14,3.47-.47,5.45-.75,0-2.12,0-4,0-6a9.48,9.48,0,0,1,4.78-8.53q2.19-1.29,4.34-2.65c1.71-1.09,1.73-1.25,1-3.08-1.49-3.56-3-7.11-4.4-10.71a19.85,19.85,0,0,1-1-4.47,7.39,7.39,0,0,1,0-2l-.31-3.6c-2-.24-3.23-.69-3.28-1.3-.1-1.23,4.66-2.64,10.64-3.14s10.91.08,11,1.31c.05.61-1.1,1.27-3,1.84l.48,5.64h0c0,.07,0,.14,0,.21a26.7,26.7,0,0,1-1.29,8.29c-.62,2.34-1.3,4.68-1.86,7s-.06,3.2,2.1,4.15a29.75,29.75,0,0,0,3.48,1.33,8,8,0,0,1,5.28,5l.77,1.92a14.12,14.12,0,0,0,5.26-1.63c1-.64,1.25-1.21.94-2.64-.44-2-.92-4-1.37-6.07a53.5,53.5,0,0,1-1.67-10.37l-.13,0,.13-1.08c0-.15,0-.3,0-.45a9.25,9.25,0,0,1,.35-2.38L70,21.8c-1.92-.65-3.07-1.35-3-2,.15-1.22,5.18-1.61,11.23-.86S89,21.34,88.87,22.56c-.08.61-1.36,1-3.38,1.17l-.42,3.41a8,8,0,0,1-.16,1.6c0,.13-.06.25-.09.37l0,.23h0a48.87,48.87,0,0,1-3.54,9.14c-.92,2-1.87,4.06-2.62,6.16-.68,1.89-.05,3.24,1.69,4.27a4.55,4.55,0,0,0,.59.32c4.47,1.82,6.31,5.57,7.16,10,.34,1.74.38,3.54.57,5.47,1-.28,2.08-.54,3.13-.89a1.78,1.78,0,0,0,1.35-2.13c-.36-2.43-.81-4.85-1.05-7.3A60.23,60.23,0,0,1,91.54,46c0-.08,0-.15,0-.22l-.33,0,.63-5.09c-1.74-.59-2.78-1.22-2.72-1.78.14-1.11,4.7-1.46,10.19-.78s9.82,2.13,9.69,3.24C108.94,41.85,107.78,42.22,105.94,42.36Z"/></g></g></svg>