<svg xmlns="http://www.w3.org/2000/svg" viewBox="0 0 125.31 125.3"><defs><style>.cls-1{fill:#fff;}</style></defs><title>politiehondMiddel 20@4x</title><g id="Laag_2" data-name="Laag 2"><g id="Laag_2-2" data-name="Laag 2"><path class="cls-1" d="M63.5,0a62.65,62.65,0,1,0,61.81,63.52A62.69,62.69,0,0,0,63.5,0ZM33.75,37.49A3.64,3.64,0,0,1,36,36a8.8,8.8,0,0,1,4.09-.12,23.2,23.2,0,0,1,5,1.54,4.05,4.05,0,0,1,2.35,4.13c-.05,1.67-.16,3.35-.22,5a5.71,5.71,0,0,0,.1,1.13,1,1,0,0,0,1.18.9c1.15-.17,2.29-.42,3.44-.59.79-.12,1.58-.18,2.38-.24a1.61,1.61,0,0,1,1.6.84,22.6,22.6,0,0,1,1.42,2.73c.53,1.33.95,2.71,1.38,4.07a3.37,3.37,0,0,1,.1,1c0,.34,0,.72-.4.86s-.65-.14-.84-.42c-.4-.56-.76-1.15-1.16-1.71-.77-1.08-1.54-2.15-2.34-3.21a1.49,1.49,0,0,0-1.81-.51c-.76.25-1.53.51-2.31.7a48.7,48.7,0,0,1-4.84,1.11c-1.4.19-2-.29-2.14-1.7a33,33,0,0,1,.07-3.72c0-1.06.14-2.13.18-3.19a5.08,5.08,0,0,0-.11-1.09A1.81,1.81,0,0,0,41.42,42a19.46,19.46,0,0,0-2.86.25c-1,.13-2,.4-3,.47A2.37,2.37,0,0,1,33,40.55,5.12,5.12,0,0,1,33.75,37.49ZM46.92,64.1a1.33,1.33,0,0,0-1.23.56c-.72.91-1.45,1.82-2.14,2.75A71.62,71.62,0,0,1,38,74.5a9.92,9.92,0,0,1-1.38,1.19,1.73,1.73,0,0,1-2.12,0,6.79,6.79,0,0,1-2.13-2.14,48.84,48.84,0,0,1-3.22-5.77c-.49-.95-1-1.89-1.58-2.79s-1.1-1-1.88-.18c-1,1-1.87,2.13-2.75,3.24a77,77,0,0,1-5.92,7.13,16.31,16.31,0,0,1-2.45,2,6.3,6.3,0,0,1-7-.19A4.32,4.32,0,0,1,6,73.29c.07-3,1.95-4.85,5-5a4.66,4.66,0,0,1,1.17,0,3.2,3.2,0,0,0,2.45-.62,14.33,14.33,0,0,0,2.94-2.78c1.56-1.86,3.06-3.78,4.63-5.63.81-1,1.71-1.83,2.59-2.72a4.55,4.55,0,0,1,.92-.66,2.17,2.17,0,0,1,2.87.23A9.89,9.89,0,0,1,31,59.29c1.18,2.33,2.28,4.7,3.44,7a24.08,24.08,0,0,0,1.38,2.44.82.82,0,0,0,1.28.16,31.16,31.16,0,0,0,2.61-2.65q2.08-2.38,4.05-4.85a3,3,0,0,1,3.32-1.12c2.71.66,5.45,1.25,8.17,1.89,1.18.28,2.36.6,3.52.94a2.44,2.44,0,0,1,1,.56.6.6,0,0,1,0,.89,2,2,0,0,1-1.57.36c-2-.17-4.06-.35-6.1-.51C50.37,64.32,48.64,64.23,46.92,64.1Zm50.76,38a55.36,55.36,0,0,1-2,7.91,14.69,14.69,0,0,1-1.81,3.84,4,4,0,0,1-.93.92.65.65,0,0,1-1.08-.42,6.79,6.79,0,0,1-.22-1.61c0-1.67.07-3.34.09-5,0-1.38,0-2.76,0-4.14a6.22,6.22,0,0,0-.36-1.72.73.73,0,0,0-1.13-.4,2.71,2.71,0,0,0-.72.61c-.7.93-1.4,1.86-2,2.83-1,1.48-1.88,3-2.86,4.48a8.34,8.34,0,0,1-1.34,1.5c-.4.36-.81.2-1-.33a1.89,1.89,0,0,1-.07-.31,9.42,9.42,0,0,1,.19-3.09c.42-2.3.89-4.58,1.3-6.87a9.17,9.17,0,0,0,.15-2.11c-.08-1.49.88-6.49-4-5.81a11.07,11.07,0,0,0-7.48,6.1,30.79,30.79,0,0,0-2.19,6.68,9.42,9.42,0,0,1-.82,3,1.89,1.89,0,0,1-.17.27c-.34.44-.77.47-1,0a8.34,8.34,0,0,1-.79-1.85c-.46-1.71-.82-3.45-1.27-5.17-.29-1.12-.66-2.23-1-3.34a2.68,2.68,0,0,0-.48-.79.74.74,0,0,0-1.22,0,6.18,6.18,0,0,0-.88,1.5c-.49,1.29-.91,2.6-1.34,3.92-.52,1.59-1,3.19-1.52,4.77a6.79,6.79,0,0,1-.73,1.45.65.65,0,0,1-1.15,0,4,4,0,0,1-.58-1.17,14.68,14.68,0,0,1-.48-4.22,55.35,55.35,0,0,1,.64-8.14,34.79,34.79,0,0,1,1.45-6.35c.81-2.39,1.64-4.89,3.58-6.53C65.1,80.23,70.5,80,74.85,80.23c-.42-.09-.84-.18-1.26-.3A19.85,19.85,0,0,1,61.24,69.15a.52.52,0,0,1,.79-.61,14.09,14.09,0,0,0,6.39,2.8c2.85.4,5.7-.46,7.15-2.47s1.28-5.36-.57-7.82c-1.63-2.17-4.63-4.39-7.24-4.33a.29.29,0,0,1-.19-.52,13.56,13.56,0,0,1,9.57-2.26c1.46.18,2.94.56,4.39.6a16.78,16.78,0,0,0,4.41-.64L93.84,52a.8.8,0,0,1,.93,1.06,59.55,59.55,0,0,1-3.22,6.86,3.08,3.08,0,0,0-.17,2.55,12.62,12.62,0,0,1-.13,7.84A17.06,17.06,0,0,1,89,75.45c-2.21,3.19-6.21,5-10.57,5.1.91.11,1.67.23,2.18.31,11.71,1.49,14.57,4.32,15.1,5.13A15,15,0,0,1,97,88.26a18.13,18.13,0,0,1,1.29,7.33A34.79,34.79,0,0,1,97.68,102.07Z"/></g></g></svg>