<svg xmlns="http://www.w3.org/2000/svg" viewBox="0 0 124.46 124.46"><defs><style>.cls-1,.cls-2{fill:#fff;stroke:#fff;stroke-linecap:round;}.cls-1{stroke-miterlimit:10;stroke-width:1.63px;}.cls-2{stroke-linejoin:round;stroke-width:0.28px;}</style></defs><title>vuurwapenindehandnemenMiddel 18@4x</title><g id="Laag_2" data-name="Laag 2"><g id="Laag_2-2" data-name="Laag 2"><path class="cls-1" d="M62.23.82a61.41,61.41,0,1,0,61.41,61.41A61.41,61.41,0,0,0,62.23.82Zm-15,24.36,7-9.12a3.1,3.1,0,0,1,2.46-1.13h13a3.1,3.1,0,0,1,2.46,1.13l7,9.12V49.63a2.75,2.75,0,0,1-2.94,2.51h-26a2.75,2.75,0,0,1-2.94-2.51Zm7.32,36.21a1.85,1.85,0,0,1-1.85-1.85v-5a1.85,1.85,0,0,1,1.85-1.85H71.28a1.85,1.85,0,0,1,1.85,1.85v5a1.85,1.85,0,0,1-1.85,1.85Zm12.62.42V76.31c0,1.16-.55,1.48-1.23,1.48H60.56c-.68,0-1.23-.32-1.23-.71V62.57c0-.39.55-.71,1.23-.71h5.34C66.59,61.85,67.14,62.17,67.14,61.8ZM29.2,70.52A7.67,7.67,0,0,1,34,62.65a6,6,0,0,1,2.51-.47l15.18.39c2.86.07,5.13,2.07,5.13,4.52v6.19c0,2.53-2.44,4.57-5.41,4.52l-15.87-.29S29.47,77.74,29.2,70.52Zm36.65,39L43.65,109s-4.35.23-4.54-7a13.82,13.82,0,0,1,.12-2.28c.5-3.57,3.19-6.11,6.23-6l20.64.74a6.3,6.3,0,0,1,5.65,5,12.68,12.68,0,0,1,.34,3.23C72,109.65,65.85,109.54,65.85,109.54ZM67.12,94l-27.83-.56s-5.45.23-5.68-7q0-.52,0-1a7.93,7.93,0,0,1,8.33-7.28l25.13.72a7.91,7.91,0,0,1,7.79,6.72,11.56,11.56,0,0,1,.08,1.57C74.82,94.11,67.12,94,67.12,94Zm5.17-16.27a1.83,1.83,0,0,1-2.36-1.56V64.62A1.77,1.77,0,0,1,71.87,63a2.19,2.19,0,0,1,.57.09,7.92,7.92,0,0,1,5.76,8.14C78.11,75.54,74.81,77.13,72.29,77.73ZM87.17,63.09l-2.55,3.09A5.09,5.09,0,0,1,80.5,68a4.41,4.41,0,0,1-3.44-1.87,5.33,5.33,0,0,0-1.49-1.42c-2.44-1.57-2.61-3.19-1.5-4.47l3.46-4.88c1-1.14,3.26-1.32,5.51-.42a23.45,23.45,0,0,1,2.5,1.2l.15.08A4.45,4.45,0,0,1,87.17,63.09Z"/><circle class="cls-2" cx="63.14" cy="33.53" r="10.79"/></g></g></svg>