<svg xmlns="http://www.w3.org/2000/svg" viewBox="0 0 123.01 123.01"><defs><style>.cls-1,.cls-2{fill:#fff;}.cls-1{stroke:#fff;stroke-linecap:round;stroke-miterlimit:10;stroke-width:2.4px;}</style></defs><title>vuurwapenenkelrichtenMiddel 17@4x</title><g id="Laag_2" data-name="Laag 2"><g id="Laag_2-2" data-name="Laag 2"><path class="cls-1" d="M61.51,1.2a60.3,60.3,0,1,0,60.3,60.3A60.3,60.3,0,0,0,61.51,1.2Zm0,117.06a56.76,56.76,0,1,1,56.76-56.76A56.76,56.76,0,0,1,61.51,118.26Z"/><path class="cls-2" d="M26.84,55.6v4h4.22V52.42a.38.38,0,1,1,.77,0v7.17h8.62V52.42a.38.38,0,1,1,.77,0v7.17h8.62V52.42a.38.38,0,1,1,.77,0v7.17h9v-9H52.42a.38.38,0,0,1,0-.77h7.17V41.22H52.42a.38.38,0,0,1,0-.77h7.17V31.84H52.42a.38.38,0,0,1,0-.77h7.17V26.84h-4V14.42A47.47,47.47,0,0,0,14.42,55.6Z"/><path class="cls-2" d="M67.42,26.84h-4v4.23h7.17a.38.38,0,0,1,0,.77H63.42v8.62h7.17a.38.38,0,0,1,0,.77H63.42v8.62h7.17a.38.38,0,0,1,0,.77H63.42v9h9.1V52.42a.38.38,0,1,1,.77,0v7.17h8.62V52.42a.38.38,0,1,1,.77,0v7.17H91.3V52.42a.38.38,0,1,1,.77,0v7.17h4.11v-4h12.42A47.47,47.47,0,0,0,67.42,14.42Z"/><path class="cls-2" d="M96.17,67.42v-4H92.06v7.17a.38.38,0,1,1-.77,0V63.42H82.68v7.17a.38.38,0,1,1-.77,0V63.42H73.29v7.17a.38.38,0,1,1-.77,0V63.42h-9.1v9.15h7.17a.38.38,0,0,1,0,.77H63.42V82h7.17a.38.38,0,0,1,0,.77H63.42v8.62h7.17a.38.38,0,0,1,0,.77H63.42v4.06h4v12.42a47.47,47.47,0,0,0,41.17-41.17Z"/><path class="cls-2" d="M55.6,96.17h4V92.11H52.42a.38.38,0,0,1,0-.77h7.17V82.73H52.42a.38.38,0,0,1,0-.77h7.17V73.34H52.42a.38.38,0,0,1,0-.77h7.17V63.42h-9v7.17a.38.38,0,1,1-.77,0V63.42H41.21v7.17a.38.38,0,1,1-.77,0V63.42H31.83v7.17a.38.38,0,1,1-.77,0V63.42H26.84v4H14.42A47.47,47.47,0,0,0,55.6,108.59Z"/><rect class="cls-2" x="11.99" y="52.71" width="10.4" height="17.59" transform="translate(-44.31 78.7) rotate(-90)"/><rect class="cls-2" x="100.54" y="52.71" width="10.4" height="17.59" transform="translate(44.23 167.25) rotate(-90)"/><rect class="cls-2" x="56.31" y="96.92" width="10.4" height="17.59"/><rect class="cls-2" x="56.31" y="8.31" width="10.4" height="17.59"/></g></g></svg>