<svg xmlns="http://www.w3.org/2000/svg" viewBox="0 0 124.75 124.75"><defs><style>.cls-1{fill:#fff;stroke:#fff;stroke-linecap:round;stroke-miterlimit:10;stroke-width:0.84px;}</style></defs><title>wapenstokMiddel 21@4x</title><g id="Laag_2" data-name="Laag 2"><g id="Laag_2-2" data-name="Laag 2"><path class="cls-1" d="M62.38.42a62,62,0,1,0,62,62A62,62,0,0,0,62.38.42ZM36.59,99.75,33.36,103A1.64,1.64,0,0,1,31,103L23,94.92a1.64,1.64,0,0,1,0-2.31l3.23-3.23a1.64,1.64,0,0,1,2.31,0l8.05,8.05A1.64,1.64,0,0,1,36.59,99.75Zm63.09-51.7L42.69,94a5.49,5.49,0,0,1-7.34-.39l-3-3a5.49,5.49,0,0,1-.4-7.33l46-57A15.39,15.39,0,0,1,99.68,48.05Z"/></g></g></svg>