<svg xmlns="http://www.w3.org/2000/svg" viewBox="0 0 673.86 802.77"><defs><style>.cls-1{fill:#abdaed;}.cls-2{fill:#6295bc;}.cls-3{fill:#fff;}</style></defs><title>kaart-nieuw-letteromtrekMiddel 34@4x</title><g id="Laag_2" data-name="Laag 2"><g id="Laag_4" data-name="Laag 4"><path class="cls-1" d="M156.18,550.53c-3.44-2.53-7.05-5.31-10.79-7.9-3.95-2.73-7.69-6.35-12.1-7.67-10.68-3.2-18.86-11.56-20.57-22.78-.12-.81-.34-1.61-.35-1.65-6.64.62-13,1.71-19.3,1.55-2.46-.06-7.14-3.82-6.91-4.4,1.5-3.9,3.43-9.81,6.37-10.57,9.33-2.39,18.41-8.58,28.83-4.24.85.35,2.22-.55,3.65-1-2-5.72-10-9.18-4.82-16.32-8.3-2.86-13.26-8.72-12.23-15.2.87-5.49,1.08-12,8.26-13.64,8.1-1.87,11.08.44,17,12.4l6.2-.41c-3.81-6.49-5.83-13.24.11-19.2,3.38-3.39,8-5.55,11.7-8.64,11.54-9.56,22.35-20.56,26.84-34.64,2.3-7.21,5.77-12.54,9.7-18.34,10.61-15.66,15.74-33.72,22-51.28,7.78-21.7,8.07-44.58,11.36-67,1.32-9,3.62-17.84,5.7-26.71,2.65-11.32,5.51-22.59,8.33-33.86,1.75-7,3.51-14,5.44-20.92,1.32-4.76,4.86-5.71,9.41-5.5s5.27,3.13,6.26,6.6c2.6,9.09,9.56,14.34,17.75,20.13,1.87-4.47,3.63-7.81,4.67-11.36,2.32-7.92,9.08-5.45,14.32-6.37,4.45-.78,5.54,2.79,7,5.95,2.66,5.77,5.78,11.34,8.26,17.18,1.38,3.24,3.34,7.31,2.47,10.25-3,9.94,2.27,15.91,8.28,21.56,3.79-.94,7.17-2.12,10.66-2.57,7.49-1,13.1,4.16,12.86,11.57-.38,11.58-7.47,19.77-15.18,27-3.46,3.25-9.14,4.35-14,5.77-1.65.48-3.95-.9-5.84-1.68-3.63-1.51-7.19-3.2-12.78-5.72.34,5.13-.14,8.66.92,11.62,2.57,7.13,6.72,13.78,8.56,21,1.12,4.44,0,10-1.69,14.45-2.51,6.68-6.4,12.55-4.93,20.5.51,2.74-3.47,6.31-5.57,9.78L309,354.22c.28-2.16,1.33-4.41.61-5.58-3.73-6.05.28-9.22,4.34-12,12.05-8.19,24.75-15.5,36.32-24.32,8.24-6.28,14.86-14.66,22.62-21.64,3.35-3,7.74-4.9,11.68-7.26,4.13-2.47,8.29-4.89,12.75-7.52-9.54-9.38-5.67-21-7.5-31.35-2-11.64,6.87-19.54,11.21-31.39-4.2,1-6.66,1.69-9.16,2.09-3.5.56-7.11,1.52-10.54,1.15-6.19-.66-12.27-2.38-18.45-3.29a20.61,20.61,0,0,1-15.31-10.22c-3-5.11-2.09-10.57,2.84-14.23,4.59-3.41,5.42-7.57,4.85-12.81-.55-5,0-10.24-.81-15.22-.62-3.73-2.53-7.28-4.1-10.8-2-4.57-5.09-8.84-6.24-13.6-1.66-6.89,1.14-10.21,8.24-10,4,.1,4.86-1.52,6-4.66,2.33-6.59,5.09-13,7.92-19.44A16.59,16.59,0,0,1,370,97.19c6.18-6,12.3-12.06,18.8-17.67a43,43,0,0,1,11.44-7.34c8-3.28,16.35-5.74,24.52-8.64a10.44,10.44,0,0,0,3.77-2.26c9.84-9.71,22.22-12.54,35.4-13.39A81.09,81.09,0,0,0,474,46.63c5.57-1.07,10.88-3,16.31,1.35,1.64,1.31,5.48,2.77,8.24-.8,1.24-1.6,4.2-1.82,6.31-2.81,5-2.35,9.42-2.74,11.48,3,21.46-7.5,43.65-10.6,65.06-16.52,9.65-2.67,17.78,1,26.62.88,6.11-.06,10.73,5.84,10.78,12.15,0,3.59-.71,7.18-.84,10.78-.19,5.12,1.66,8.64,6.08,12.2,10.64,8.59,22.65,10.6,35.59,10.62a22.33,22.33,0,0,1,8,1.75,5.41,5.41,0,0,1,2.8,3.61c1,6.84,1.78,13.73,2.48,20.61.59,5.88,1,11.54-2.39,17.17-1.36,2.25,0,6.33.53,9.53.85,5.61,2.73,11.17,2.78,16.77.09,10.13-.71,20.28-1.43,30.41a17,17,0,0,1-2.36,7.14c-5.7,9.65-11.77,19.09-17.38,28.79-1.3,2.24-1.61,5.2-1.86,7.88-1.41,14.78-2.39,29.61-4.06,44.37-1.23,10.9-4.09,12.21-14.32,8.12-1.29-.52-3.39-.6-4.43.11-4.39,3-7.76,1.39-11.57-1.29a11.93,11.93,0,0,0-7.24-1.74c-6.06.45-12.07,1.44-18.08,2.39-1,.16-2.78,1.13-2.79,1.75,0,3.49.33,7,.59,10.47,0,.16.29.3.42.46,6.69,8.36,6.69,8.36-1.61,13.5,0,3,.66,6-.13,8.54-1.84,5.87.05,10.7,6.12,11.73,4,.69,8.35,0,12.52-.25,3.6-.22,6.74-.77,9.46,3.12,2.92,4.19,11.38,2.55,14.38-2,1-1.45,2.89-3.58,3.94-3.36,1.65.35,3.43,2.18,4.29,3.83q5.29,10.09,10,20.47c3.45,7.55-.74,14.4-2.24,21.52a26.12,26.12,0,0,0-.24,8.18c.33,2.92,1.43,5.74,2,8.64,1.39,7.28.22,9.18-6.88,10.67-3.88.81-6.3,2.23-7.2,6.7-.47,2.35-3.66,4.21-5.75,6.16-4.71,4.37-9.16,9.12-14.39,12.77a14.89,14.89,0,0,1-10.28,2.28c-5.2-1-7,0-8.33,5.3-1,3.82-4.63,6.95-7.78,11.35,2.31,1.68,5.2,4.44,8.62,6.14,9.12,4.52,13.48,11.07,11.55,20.94-.68,3.45-4.46,6.34-6.95,9.39-1.44,1.76-4,3.09-4.52,5-1.83,7-5.85,6.44-10.36,3.28-4-2.8-7.75-2.83-11.82-.57-8.3,4.61-16.79,8.92-24.85,13.9-4.65,2.88-8.43,4-13,0-4.82-4.15-10.14-3.25-14.81.44-9.69,7.66-10.21,7.62-15.92-4.29-10.62,6.14-13-6.79-21.51-9.56.51,2.23.76,3.67,1.17,5.06.9,3,2.13,6,2.77,9,.9,4.32-1.08,6.41-5.56,6.09-6.11-.44-12.22-.83-19.63-1.33-1.43,2.86-4.82,7-1.2,13,1.5,2.52.79,6.37,1.74,8.74,2.78,4.42,5.46,8.91,8.4,13.22,1.24,1.81,2.73,4,4.61,4.74a13.11,13.11,0,0,1,7.75,16.45c-.51,1.73-1.07,4-.36,5.44,3.23,6.41,6.17,13.2,10.62,18.71,5,6.25,9.88,11.84,9.46,20.64-.36,7.58.54,15.21.79,22.82a8.86,8.86,0,0,1-.66,4.37c-6.06,11-10.85,23.07-18.86,32.4-7.58,8.82-7,15.75,3.9,20.88,1.91.9,3.44,2.61,5.14,3.94-1.41,1.72-2.6,3.69-4.26,5.12-9.43,8.16-19.17,16-28.42,24.34-7.24,6.53-8.65,6.77-15.21-.62-.82-.93-1.12-2.32-2.39-3-4.15,7.6,1,13.32,1.23,18.72,7.36,1.79,14.07,3.14,20.55,5.22,1.35.43,2.93,3.86,2.51,5.39-1.47,5.36-.74,9.29,4.16,12.57,1.94,1.3,3,4.07,4.21,6.29,2.35,4.18,1.73,7.73-2.59,10.3-1.28.76-2.56,1.52-3.76,2.38-4.68,3.36-6.46,7.18-3.54,13,2.23,4.44,3.39,9.45,4.63,14.32.92,3.61-.7,5.34-4.54,4.22-3-.89-6-2.14-9.13-2.65-2.68-.44-5.51.19-8.23-.1-4.44-.46-9.51-3-13.12-1.58-6.71,2.61-8.61-2.58-12.27-5.15-4.84,7.4-12.17,11.6-16.57,9.5-3.72-1.78-3.9-5.68-.75-17.91-7.53-2.34-9.63-8.3-9-15.36.54-6.41,1.85-12.76,2.84-19.13a1.64,1.64,0,0,1,.59-1.1c8.41-4.44,10.88-14.24,17.93-20,1.16-.94,1.51-3.18,1.79-4.88,1-6.28-.26-12.74,5.52-18.22,2.66-2.52,1.87-8.68,2.43-12-2.22-2.84-4.87-5-5.86-7.76-1.76-4.88-4.46-7.39-9.76-7.15-6.56.3-12.49-1-17.36-6.12-1.32-1.38-4.27-1.58-6.49-1.67-7.6-.32-9.74-2.68-8.84-10.26,1.12-9.36,1.12-9.36-4.14-14.47-2.15,1.94-4.4,3.81-6.46,5.86-4.74,4.72-10.18,5.56-16.41,3.52-1.48-.48-3.7-.6-4.87.18-8.75,5.8-13.21,6.23-21.62,2.29l-2.79-17c-5,1.18-9.77,3.82-11.83,2.44-3.14-2.1-4.66-6.88-6.41-10.73A110.48,110.48,0,0,1,300.58,620a25.85,25.85,0,0,1-.95-7c-.13-5.29,0-10.58,0-15.87l-1.87-.54c-1.63,2.31-3.14,4.7-4.91,6.9-4.49,5.61-8.92,11.28-13.78,16.56-1.07,1.16-3.91,1.29-5.8,1a167.23,167.23,0,0,1-18.73-3.67c-6.71-1.84-13.21-3-19.79.2a3,3,0,0,1-1.86.33c-9.37-2.55-18.79-5-28-8-1-.33-1.41-4-1.26-6.1.12-1.73,1.47-3.37,2.61-5.76-4.21.34-7.73.4-11.17.95-6.29,1-9.06,5.75-7.52,12,1.28,5.13,2,10.4,3.38,15.5,1.31,4.89-1.3,6.31-5.23,6.27-3.14,0-6.26-.92-9.41-1.25-4-.43-7.95-.91-11.93-.94s-6.81,1.23-7.16,6.07c-.25,3.36-2.16,5.39-6.31,5.72-2.43.19-5.12,2.65-6.87,4.77-3.05,3.69-5,8.31-8.31,11.73a14.15,14.15,0,0,1-8.37,3.66c-7.43.7-13.44,2.2-18.19,9.29-5.15,7.67-16.29,8.61-23.91,3.18-2.21-1.57-3.43-5-4.28-7.84-.69-2.3-.14-5-.14-6.82-11.76-4-23.1-8-34.6-11.46-1.76-.53-4.55.85-6.28,2.13s-2.39,3.44-3.58,5.2c-7,10.36-18.58,12.32-27.36,3.32-3.11-3.18-3.59-9.51-4-14.51-.3-3.38,0-6.31-2.84-8.9-2.41-2.19-3.42-4.41.73-6.9,3.08-1.84,5.13-5.47,7.49-8.41,6-7.41,15.43-8.53,24.66-6.81,14,2.62,25.41,8.94,36.56,17.43,8.69,6.62,28.76-.13,34.1-9.92,3.09-5.67,9.53-7.32,14-2.73,5.17,5.31,10.12,9.39,18.22,7.27,1.82-.48,4.25,1.38,6.66,2.26l8.05-7.59c-18.3,4.22-30.08-5.41-43.13-15-3.88.84-8.57,6.94-7.35,12.7,1,4.74-1.37,5.47-4.67,6.43-13.81,4-24-3-32.57-12-4.38-4.61-8.09-5.47-13.57-4.3-12.63,2.71-12.6,2.58-19.53-8.15-1.09-1.7-2.9-3-4.45-4.33-3.16-2.8-6.48-5.42-9.52-8.34-4.16-4-3-7.37.8-11.32,6.75-6.93,13.27-13.7,23.95-13.57a150.22,150.22,0,0,0,17.18-.26c5.4-.56,10.72-2,16-3.22,2.27-.51,4.45-1.42,6.72-1.93,13-3,20.69,5.43,16.47,19.36,7.21,1.86,14.61,3.09,21.43,5.8,3.46,1.38,6.13,5.2,8.64,8.33,2.06,2.56,2.81,6.28,5.1,8.52,5.16,5.08,16.63,5.55,22.8,1.36,1-.66,2.08-2.76,1.71-3.4a18.13,18.13,0,0,0-4.88-6c-2.69-1.88-6-2.92-8.68-5.07-7.8.22-15.34.51-20.25-8.4-1.8-3.27-5.75-5.57-9.1-7.7-3.57-2.27-5.82-4.42-3-7.93l-9.73-8.26c-.47-.4-1-1.23-1.4-1.16-7.79,1.61-9.11-5.26-12.46-9.43-2.83-3.53-5.45-5.35-10-1.79-6.33,4.94-13.4,3.1-19.83-.08-1.67-.83-3-4.19-2.93-6.35.21-7.35,7.5-14,15-14.42,4.87-.29,9.95,0,14.56-1.35,8.34-2.37,16,0,23.61,2.37,3,1,5.21,4.54,7.83,6.86,3.69,3.28,7.08,7.09,11.23,9.61,7.15,4.33,14.73,8,22.28,11.62C152.8,550.67,155.21,550.41,156.18,550.53ZM506,486.73c.88,1.37,1.42,1.86,1.53,2.44,2,9.91,5.92,9.26,12.22,3.09,4.64-4.54,10.34-5.72,15.64-1.45s9.51,2.79,14.64-.57c7.21-4.71,15.1-8.37,22.63-12.61,4.9-2.76,9.38-2.65,14,.69,3,2.15,6,3.35,7.35-2.26.51-2.13,3.16-3.73,4.78-5.63,2.42-2.85,6.17-5.44,6.9-8.69,2-8.61-2.29-14.64-10.46-18.91-4.25-2.22-7.82-5.73-12.43-9.21,3.29-2.14,5.26-3.05,6.72-4.48s3.34-3.38,3.78-5.36c1.75-8,2.44-8.32,10.66-7.13a12.37,12.37,0,0,0,8.36-2c5-3.71,9.31-8.25,13.94-12.41,1.84-1.65,5.15-3,5.41-4.83.91-6.51,5.19-7.86,10.47-9.23,1.83-.47,4.22-3.64,4.17-5.51-.12-3.91-2-7.74-2.56-11.68a23.83,23.83,0,0,1,.36-8.11c1.48-7.24,6.25-14.06,2-21.93-3-5.55-5.55-11.35-8.36-17-1-1.94-2.1-3.78-3.58-6.42-1.42,2.25-2.23,3.45-3,4.7-2.3,3.95-14.72,6.24-16.62,2.45-2.71-5.41-6.28-3.41-10.13-3.21-4.17.22-8.52.51-12.52-.41-5.43-1.24-8.19-7.63-6.89-12.32.77-2.78.14-5.95.14-8.94l-1.79-.25L594,293.37c-1.2-1.42-1.83-2.66-2.84-3.28-5.11-3.14-5.58-8-5.18-13.23.29-3.86,1.62-6.41,6.41-5.62,3.13.52,6.41.1,9.63.1l0-1.58H395.57l-1.11,1.5,6.59,3c-2.22,1.91-3.08,2.54-3.82,3.29-8.09,8.17-20.39,9.7-27.89,19.83-6.3,8.51-16.18,14.54-25,21C335,325.28,325,331.25,315.48,337.8c-3.36,2.3-7.17,4.41-4.06,10,1.11,2-.57,5.54-1,8.5-6.59-1.92-12.44-3.51-18.2-5.38-1.23-.4-3-1.85-3-2.73.07-1.26,1.57-2.46,2.48-3.67,1.53-2,4.78-4.6,4.34-6-2.47-8.18,2.28-14.23,4.79-21.07,1.5-4.09,2.78-9.12,1.76-13.11-1.75-6.85-5.22-13.29-8.28-19.75-2.06-4.35-3.47-9.78.34-12.19,2.63-1.66,8,.86,12.14,1.81,2.18.5,4.59,2.81,6.23,2.27,4.66-1.55,9-4.15,14-6.62H221.87c-.23,1.93-.49,3.37-.57,4.81-1.73,30-10.9,58-21.74,85.84-5.42,13.91-16.14,24.3-21.11,38.88-5.63,16.51-19,29.24-34.05,39-8.27,5.38-8.74,14.67-1.1,21,1.75,1.45,3.42,3,5.13,4.49-3.1.17-5.54-1-8.12-1.62-2.24-.51-4.65-.33-8.14-.52-3.37-5.09-4-16-15.67-13.23-6.54,1.55-7,8.27-6.81,13,.42,9,7.4,12.32,16.3,12.84-6.21,4.59-6.21,4.59,3,19.68-4.55-.24-8-.43-11.43-.58-1.85-.08-3.78-.44-5.54,0-5.16,1.17-10.18,3-15.38,3.92-6.52,1.13-8.49,5.31-9.07,11,7.17,4,13.95,3.5,20.85,0,2.05-1,4.51-2.65,5.94,1.5,1.89,5.51,3.85,11.19,7,16,1.94,2.94,6.06,4.56,9.4,6.43,4.71,2.63,9.6,5,14.42,7.39,2,1,3.94,2.67,6,2.76,7.63.33,15.29.06,22.93.19,3.29.06,5.34-.92,5.45-4.51,0,0,.68-.05,1.44-.11l.91,4H477l.16-1.29-6.42-1.39c-1.95-7.88-3-16.84-13-15.9.68-3.75,3.06-8.37,1.67-10.85-4.61-8.17.58-13.28,3.66-19.94,6.54,8.78,14.8,3.79,21.55,5.18,4.52-7.32-6.5-13.34-.52-20.88,3,2.3,6.11,3.78,7.8,6.25C495.74,488.81,500,490.61,506,486.73ZM130.23,542.61c-4.63-4-9.86-7.24-13.39-11.81-4.7-6.09-15.6-11.79-23.39-10.8q-11,1.41-22.1,2.29c-6.17.5-12.81,6.31-13,12.48-.05,2,1.66,5.19,3.32,5.81,3.46,1.29,8,2.7,11,1.44,7.09-3,13.52-6.46,20.07.59ZM631,269.74c6.82,5.73,10.19,5.7,12.7,0Z"/><path class="cls-1" d="M237.23,164c-6-19,5.42-31.76,14.88-45.12,2.31-3.27,5.14-6.16,7.7-9.26,3.48-4.22,5.95-4.1,8.83.38,1.91,3,4,5.84,5.92,8.8.56.87,1.31,1.94,1.22,2.85-1.08,12.17-1.08,24.67-13.3,32.49-4.63,3-7.91,8.6-12.78,10.44A26.28,26.28,0,0,0,237.65,173c-2.54,3.26-5.52,3.53-8.25,1.6-1.56-1.11-3.11-4.73-2.42-6,1.15-2.07,4-3.32,6.34-4.55C234.28,163.56,235.73,164,237.23,164Z"/><path class="cls-1" d="M378.72,31l7.75,4.38c-2.75,2.29-5.43,4.69-8.3,6.83-1,.71-3.05.4-3.5,1.19-4.07,7.25-10.6,6.75-17.63,6.94-3.94.1-8.55,2.76-11.49,5.66-3.94,3.88-8.56,2.31-12.75,3.57-2.24.68-4.28,2-6.49,2.83-2.63,1-5.37,2.65-8,2.52-6.16-.31-7.8-3.8-4.6-9a25.34,25.34,0,0,1,15.91-11.72c12.83-3.35,25.52-7.26,38.3-10.85C371,32.48,374.12,32,378.72,31Z"/><path class="cls-1" d="M419.32,38.11c-3.59,1.49-7.24,2.85-10.76,4.51-5.87,2.77-14.11-.09-16.66-5.95-2-4.64,4.72-12.31,10.66-11.88,5.44.39,10.86,1.67,16.27,1.6,10.93-.14,21.84-1.11,32.77-1.32,2.44,0,4.95,1.53,7.29,2.64.17.08-.38,3.18-1.26,3.67a29.06,29.06,0,0,1-8.27,3.19c-3.4.67-7,.26-10.41.92-6.39,1.24-12.7,2.91-19,4.4Z"/><path class="cls-1" d="M263.66,105.77c-1-.68-3.19-1.43-3.71-2.82a5.56,5.56,0,0,1,1.31-5c9.86-8.28,19.73-16.6,30.1-24.23,2.86-2.1,7.52-3,11.11-2.54,4,.52,4.78,4.29,1.56,7s-7.09,4.27-10.44,6.69c-1.91,1.38-3.35,3.43-4.92,5.25-.39.45-.31,1.32-.72,1.74C281.4,98.63,274,104,263.66,105.77Z"/><path class="cls-1" d="M510.75,13.33c3.59-.29,7.19-.89,10.76-.73,1.46.07,3.81,1.62,4,2.79s-1.24,3.88-2.5,4.29c-9.22,3-18.62,5.44-27.83,8.45A15.67,15.67,0,0,0,489,32.68c-3.3,3.67-5.79,3.67-8.46-.52-4.33-6.78-1-15.08,7-16.43,7.68-1.31,15.49-1.92,23.23-2.84Z"/><path class="cls-1" d="M553.32,5.35,542.49,16.46c-2-3.16-5.25-6.17-5.69-9.53-.61-4.72,3.85-7,7.94-6.93C547,0,549.25,2.69,553.32,5.35Z"/><path class="cls-1" d="M506,486.73c-6,3.88-10.27,2.07-14-3.45-1.69-2.47-4.84-3.95-7.8-6.25-6,7.55,5,13.56.52,20.88-6.75-1.39-15,3.6-21.55-5.18-3.08,6.66-8.27,11.77-3.66,19.94,1.4,2.48-1,7.1-1.67,10.85,10-.94,11,8,13,15.9l6.42,1.39L477,542.1H181.9l-.91-4c-.75.06-1.43.07-1.44.11-.11,3.59-2.16,4.57-5.45,4.51-7.64-.13-15.3.14-22.93-.19-2-.09-4-1.76-6-2.76-4.82-2.43-9.71-4.76-14.42-7.39-3.34-1.87-7.47-3.49-9.4-6.43-3.16-4.8-5.12-10.48-7-16-1.43-4.15-3.89-2.52-5.94-1.5-6.91,3.45-13.69,3.92-20.85,0,.58-5.72,2.54-9.9,9.07-11,5.19-.9,10.22-2.75,15.38-3.92,1.75-.4,3.69,0,5.54,0,3.44.15,6.87.35,11.43.58-9.2-15.1-9.2-15.1-3-19.68-8.9-.52-15.88-3.83-16.3-12.84-.22-4.77.28-11.49,6.81-13,11.67-2.77,12.3,8.14,15.67,13.23,3.5.19,5.9,0,8.14.52,2.58.59,5,1.79,8.12,1.62-1.71-1.5-3.38-3-5.13-4.49-7.64-6.3-7.18-15.59,1.1-21,15.09-9.8,28.43-22.53,34.05-39,5-14.57,15.68-25,21.11-38.88,10.84-27.79,20-55.82,21.74-85.84.08-1.45.34-2.89.57-4.81H327.08c-5.05,2.48-9.37,5.07-14,6.62-1.63.54-4.05-1.76-6.23-2.27-4.1-.95-9.51-3.47-12.14-1.81-3.81,2.41-2.4,7.84-.34,12.19,3.06,6.46,6.53,12.91,8.28,19.75,1,4-.25,9-1.76,13.11-2.51,6.85-7.26,12.89-4.79,21.07.44,1.45-2.81,4-4.34,6-.91,1.21-2.42,2.41-2.48,3.67,0,.88,1.75,2.33,3,2.73,5.76,1.87,11.61,3.46,18.2,5.38.42-3,2.1-6.5,1-8.5-3.11-5.63.7-7.75,4.06-10,9.57-6.54,19.56-12.51,28.89-19.36,8.79-6.45,18.67-12.48,25-21,7.5-10.13,19.8-11.66,27.89-19.83.74-.75,1.6-1.38,3.82-3.29l-6.59-3,1.11-1.5H601.92l0,1.58c-3.22,0-6.5.42-9.63-.1-4.79-.79-6.11,1.76-6.41,5.62-.4,5.2.08,10.09,5.18,13.23,1,.62,1.64,1.86,2.84,3.28l-10.52,6.12,1.79.25c0,3,.63,6.16-.14,8.94-1.3,4.69,1.46,11.08,6.89,12.32,4,.92,8.35.63,12.52.41,3.85-.2,7.42-2.2,10.13,3.21,1.9,3.79,14.32,1.5,16.62-2.45.73-1.25,1.53-2.44,3-4.7,1.48,2.64,2.61,4.49,3.58,6.42,2.81,5.66,5.35,11.46,8.36,17,4.27,7.86-.5,14.68-2,21.93a23.83,23.83,0,0,0-.36,8.11c.59,3.94,2.45,7.77,2.56,11.68.06,1.87-2.34,5-4.17,5.51-5.27,1.37-9.56,2.72-10.47,9.23-.26,1.82-3.57,3.18-5.41,4.83-4.63,4.16-9,8.7-13.94,12.41a12.37,12.37,0,0,1-8.36,2c-8.23-1.19-8.92-.84-10.66,7.13-.44,2-2.22,3.84-3.78,5.36s-3.43,2.34-6.72,4.48c4.61,3.48,8.19,7,12.43,9.21,8.18,4.28,12.42,10.3,10.46,18.91-.74,3.25-4.48,5.84-6.9,8.69-1.61,1.9-4.27,3.5-4.78,5.63-1.33,5.61-4.35,4.41-7.35,2.26-4.66-3.35-9.14-3.46-14-.69-7.52,4.24-15.42,7.9-22.63,12.61-5.14,3.36-9.24,4.92-14.64.57s-11-3.09-15.64,1.45c-6.29,6.16-10.19,6.82-12.22-3.09C507.42,488.59,506.89,488.1,506,486.73Z"/><path class="cls-1" d="M130.23,542.61H92.82c-6.55-7-13-3.56-20.07-.59-3,1.26-7.59-.15-11-1.44-1.66-.62-3.37-3.82-3.32-5.81.16-6.17,6.8-12,13-12.48q11.07-.9,22.1-2.29c7.79-1,18.68,4.71,23.39,10.8C120.37,535.37,125.6,538.63,130.23,542.61Z"/><path class="cls-1" d="M631,269.74h12.7C641.22,275.44,637.85,275.47,631,269.74Z"/><path class="cls-2" d="M427.91,225.81c16.72-3.38,26.8,14.73,36.41,25,3.75,4,8,7.76,13.14,9.91,6.49,2.73,13,1.52,19.78,1.57,13.76.1,25.41,9.51,39.12,9.77,7.22.14,13.49-3.49,20.42-4.84A39.66,39.66,0,0,1,583,271.45c1.7.91,3.22-1.68,1.51-2.59a43.54,43.54,0,0,0-19.83-5.27c-8-.13-14.68,3.17-22.34,4.89-15.1,3.4-28.52-8.34-43.32-9.11-8.55-.44-16.35,1.59-24.09-3.32-6.11-3.87-10.7-9.72-15.2-15.27-8-9.87-18.68-20.67-32.58-17.85-1.89.38-1.09,3.27.8,2.89Z"/><path class="cls-2" d="M449.38,521.68c-2.24,12.58,7.55,21.91,10,33.55,2.17,10.19-4.33,16.73-13.64,19.24-5.85,1.57-11,3.09-15.62,7.21-9.18,8.22-12.62,20.94-17.69,31.74a80.66,80.66,0,0,1-30,34c-1.63,1-.12,3.63,1.51,2.59A83.31,83.31,0,0,0,413,619c6.35-11.92,9.38-27.62,20.57-36.26,6.22-4.8,14.31-4.36,20.84-8.34a17.66,17.66,0,0,0,8.34-13.76c1-13.77-13-24.31-10.52-38.12.34-1.89-2.55-2.7-2.89-.8Z"/><path class="cls-2" d="M301.28,592.38c10.39-13.07,20.94-32.52,9-48-6.39-8.31-16-12.76-16.77-24.34-.41-6.17,1-13.62-3.58-18.63-7.62-8.28-22.76-2.17-31.41.85-17.35,6-36.48,9.85-51.53,20.94-13,9.57-24.84,32.57-44,25.61-1.82-.66-2.6,2.24-.8,2.89,13.57,4.94,24.42-4.35,33.35-13.55,5.51-5.67,10.7-11.29,17.51-15.45,8.18-5,17.31-8.2,26.4-11.12,7.2-2.31,14.39-4.58,21.54-7,5.59-1.92,11.48-3.9,17.44-4.06,7.58-.2,11.54,3.84,11.9,11.36.35,7.34-.34,14.3,4.23,20.58,6.7,9.22,17.74,14.07,18,27,.24,11.45-6.63,22.22-13.49,30.85-1.19,1.5.92,3.63,2.12,2.12Z"/><path class="cls-2" d="M302.58,527.71c10.38-6.42,22.83-5.26,34.29-8.12,12.29-3.07,22.52-11.06,34.48-15,6.86-2.25,14.34-3.19,21.22-.54,5.84,2.25,10.64,6.54,16.36,9.09A50.34,50.34,0,0,0,441,516c1.88-.44,1.08-3.33-.8-2.89-13.93,3.24-26.74,0-38.6-7.58-10.53-6.68-20.92-7.45-32.69-3.23-12,4.32-22.45,12.32-35.14,14.93-11.09,2.28-22.72,1.73-32.67,7.89-1.64,1-.13,3.61,1.51,2.59Z"/><path class="cls-2" d="M155.13,464.39a253.9,253.9,0,0,0,38.07-14.49q9.51-4.54,18.61-9.88,4.54-2.67,9-5.53c1.07-.69,3.09-2.7,4.39-2.91,2-.32,3,.93,4.39,2.43,3.74,4.14,5.72,9.54,9.28,13.82a32.13,32.13,0,0,0,11.73,8.75,34.07,34.07,0,0,0,28.83-.43,1.51,1.51,0,0,0,.69-1.69,142.69,142.69,0,0,1-3.73-75.59,1.51,1.51,0,0,0-1.85-1.85c-17.88,6.08-40.68,13.24-56.22-1.83-6.91-6.7-9-15-6-24.09,2.08-6.41,5.36-13.24,1.12-19.46-1.08-1.59-3.68-.09-2.59,1.51,5.5,8.06-4,19.13-3,28.16.83,7.63,5.6,14.24,11.61,18.77,16.57,12.48,38.14,5.84,55.86-.18l-1.85-1.85a145.78,145.78,0,0,0,3.73,77.18l.69-1.69a31.28,31.28,0,0,1-31.83-3c-8.27-6.05-10.25-17.67-19.43-22.55a1.5,1.5,0,0,0-1.51,0,250,250,0,0,1-70.77,33.48c-1.85.54-1.06,3.44.8,2.89Z"/><path class="cls-2" d="M296.53,499.13c5-2.82,10-5.62,14.91-8.47,3.31-1.91,6.82-4,9.21-7,2.24-2.87,2.72-6,3.14-9.46.39-3.18,1.71-4.88,2.95-7.59a5,5,0,0,0,.48-3.33c-1.5-6.25-13.39-9.5-18.64-11A60.14,60.14,0,0,0,281,451.19c-1.9.36-1.09,3.25.8,2.89a56.47,56.47,0,0,1,23.6.45,55.91,55.91,0,0,1,10.47,3.59c3.85,1.78,9.22,3.52,7.12,8.68a25.33,25.33,0,0,0-2.19,7.38c-.55,4.77-2.11,8-6,10.89-6.07,4.44-13.21,7.77-19.74,11.48a1.5,1.5,0,0,0,1.51,2.59Z"/><path class="cls-2" d="M289,502.87q3.76-1.84,7.47-3.79c1.71-.9.19-3.49-1.51-2.59q-3.7,2-7.47,3.79c-1.73.85-.22,3.44,1.51,2.59Z"/><path class="cls-2" d="M279.27,374l20.58-19.27c1.41-1.32-.71-3.44-2.12-2.12l-20.58,19.27c-1.41,1.32.71,3.44,2.12,2.12Z"/><path class="cls-2" d="M330.75,461.41l40.81-6.6c9.43-1.53,22.35-1.39,28.27-10.27,5-7.44,4-17.45,3.2-25.87-1-10-2.42-20.58-8.69-28.84-6.58-8.66-18-12.79-23.27-22.48-3.41-6.21-3.53-13.1,2.17-17.92,5.47-4.62,12.08-8.25,18-12.24l32.46-21.77c8.7-5.84,17.66-11.76,24.57-19.76,7.4-8.58,11.21-19.15,10.22-30.52-1.16-13.31-7.41-25.6-13.56-37.22-.9-1.71-3.49-.19-2.59,1.51,5.9,11.13,12,22.95,13.15,35.7,1,11.75-3.32,22.21-11.38,30.63-7.33,7.66-16.42,13.37-25.17,19.23l-32.46,21.77c-6.81,4.56-18.43,9.53-20.55,18.37-2,8.18,3.19,16.38,9,21.62,8.44,7.6,17.82,12.65,21.77,24,3.21,9.26,4.31,20.36,3.84,30.15-.3,6.2-2,12.87-7.78,16.17s-13.68,3.45-20.09,4.49L330,458.52c-1.9.31-1.09,3.2.8,2.89Z"/><path class="cls-2" d="M295.25,531.56c4.82-3,9.2-5.75,14.83-7.14,1.87-.46,1.08-3.36-.8-2.89-5.87,1.45-10.49,4.25-15.54,7.44-1.63,1-.13,3.62,1.51,2.59Z"/><path class="cls-2" d="M440.83,516.09c6.12-1.2,12.34-2.18,18.25-4.21,1.82-.62,1-3.52-.8-2.89-5.91,2-12.13,3-18.25,4.21-1.89.37-1.09,3.26.8,2.89Z"/><path class="cls-2" d="M451.67,522.69c1.88-2.09,4-3.89,5.76-6.08,1.43-1.75,2.82-3.41,2.88-5.77,0-1.93-3-1.93-3,0s-2.14,3.88-3.37,5.28c-1.38,1.57-3,2.89-4.39,4.44s.83,3.56,2.12,2.12Z"/><path class="cls-2" d="M276.21,378.77c0-.48.51-1.08.74-1.48s.66-1.06,1-1.58A19.16,19.16,0,0,1,280,373.5c1.33-1.4-.79-3.53-2.12-2.12a24.48,24.48,0,0,0-2.8,3.21c-.82,1.22-1.9,2.66-1.91,4.18a1.5,1.5,0,0,0,3,0Z"/><path class="cls-2" d="M235.36,386c.58-.67,1.6-.94,2.27-1.54a26,26,0,0,0,2.2-2.42c1.27-1.45-.85-3.58-2.12-2.12a20.72,20.72,0,0,1-2.2,2.42c-.72.6-1.64.81-2.27,1.54-1.26,1.45.86,3.59,2.12,2.12Z"/><path class="cls-2" d="M280.2,454.91c-.09.23.13-.19.19-.26-.18.23.32-.26.21-.18s.12-.07.14-.08.27-.14.14-.08.13,0,.15,0l.35-.07a1.51,1.51,0,0,0,1-1.85,1.54,1.54,0,0,0-1.85-1,4.39,4.39,0,0,0-3.27,2.81,1.5,1.5,0,0,0,1,1.85,1.55,1.55,0,0,0,1.85-1Z"/><path class="cls-2" d="M327,463.44a3.35,3.35,0,0,1,1.72-1.11c.91-.36,1.82-.68,2.73-1,1.79-.67,1-3.57-.8-2.89-2.21.82-4.9,1.41-6.25,3.51-1,1.63,1.55,3.14,2.59,1.51Z"/><path class="cls-2" d="M297.31,310.2c-12.52-4.87-27.77,2.18-31.67,15.18-1.62,5.4-2.1,10.71-4.5,15.92-2.1,4.54-4.53,9-6.9,13.37-5,9.27-10.4,18.25-17.4,26.15-1.28,1.44.84,3.57,2.12,2.12,10.83-12.22,19.94-27.89,26-43,3.2-8,2.5-16.79,9.48-22.85a21.64,21.64,0,0,1,22-4c1.8.7,2.58-2.2.8-2.89Z"/><path class="cls-2" d="M163.15,548.73a23.21,23.21,0,0,0-6.9-1.05,1.5,1.5,0,0,0,0,3,20.35,20.35,0,0,1,6.1.95c1.85.58,2.64-2.32.8-2.89Z"/><path class="cls-2" d="M152.38,549.06a9.16,9.16,0,0,0,3.71-.49c.36-.15.36-.75-.1-.74a11,11,0,0,0-3.29.59l.2.72a9,9,0,0,1,6.47-.15c.46.16.65-.57.2-.72a9.63,9.63,0,0,0-6.87.15c-.44.17-.27.88.2.72a10.37,10.37,0,0,1,3.09-.56l-.1-.74a8.6,8.6,0,0,1-3.51.47.38.38,0,0,0,0,.75Z"/><path class="cls-2" d="M155.52,548.78a2.43,2.43,0,0,0-1.46.28.38.38,0,0,0,.09.69,7,7,0,0,1,1.24.4c.44.19.82-.46.38-.65a8.07,8.07,0,0,0-1.41-.47l.09.69a1.75,1.75,0,0,1,1.08-.18c.48.06.47-.69,0-.75Z"/><path class="cls-2" d="M154.4,550.44q1.37.11,2.75.17c.48,0,.48-.73,0-.75q-1.37-.05-2.75-.17c-.48,0-.48.71,0,.75Z"/><path class="cls-2" d="M382.6,647.33a31.46,31.46,0,0,1-6.32,2.74c-1.84.57-1.05,3.47.8,2.89a35.19,35.19,0,0,0,7-3,1.5,1.5,0,0,0-1.51-2.59Z"/><path class="cls-2" d="M460.33,509.15a1.79,1.79,0,0,1-.75-.18l.36,2.74a5.33,5.33,0,0,1,1-.53l-2.05-2.05a11.09,11.09,0,0,1-1.38,2.22,1.55,1.55,0,0,0,0,2.12,1.52,1.52,0,0,0,2.12,0,9.09,9.09,0,0,1,2.72-2.31,1.54,1.54,0,0,0,1-1.85,1.51,1.51,0,0,0-1.85-1,12,12,0,0,0-4,3.09l2.12,2.12a14.33,14.33,0,0,0,1.85-2.83,1.51,1.51,0,0,0-2.05-2.05,5.33,5.33,0,0,0-1,.53,1.52,1.52,0,0,0,.36,2.74,4,4,0,0,0,1.54.29,1.5,1.5,0,0,0,0-3Z"/><path class="cls-2" d="M298.9,590.49c-2.71,4.61-3.27,9.82-3.69,15-.15,1.92,2.85,1.91,3,0,.38-4.7.84-9.38,3.28-13.53a1.5,1.5,0,0,0-2.59-1.51Z"/><path class="cls-2" d="M427.12,223l-21.58,3.45c-1.9.3-1.09,3.19.8,2.89l21.58-3.45c1.9-.3,1.09-3.19-.8-2.89Z"/><path class="cls-2" d="M406,226.34c-5.4.42-10.68,1.82-16.12,1.67-1.93-.05-1.93,2.95,0,3,5.45.15,10.71-1.25,16.12-1.67,1.91-.15,1.93-3.15,0-3Z"/><path class="cls-2" d="M582.58,271.3q3.48,2.39,6.72,5.09c1.47,1.23,3.61-.88,2.12-2.12q-3.53-3-7.33-5.56c-1.6-1.09-3.1,1.5-1.51,2.59Z"/><path class="cls-2" d="M155.36,461.45c-6.57.66-14.7.1-19.92-4.44-1.45-1.26-3.58.85-2.12,2.12,5.84,5.08,14.61,6.06,22,5.32,1.9-.19,1.92-3.19,0-3Z"/><path class="cls-2" d="M136.26,459.83c.94.68,1.6,1.63,2.59,2.26a17.1,17.1,0,0,0,3.44,1.61c1.82.66,2.6-2.24.8-2.89a10.81,10.81,0,0,1-2.93-1.45c-.84-.65-1.5-1.49-2.38-2.12-1.57-1.13-3.07,1.47-1.51,2.59Z"/><path class="cls-2" d="M300,354.77a28.51,28.51,0,0,0,2.9-3.41,1.51,1.51,0,0,0-.54-2.05,1.53,1.53,0,0,0-2.05.54,23.66,23.66,0,0,1-2.43,2.8,1.5,1.5,0,0,0,2.12,2.12Z"/><path class="cls-2" d="M296.62,313.12c2.34.81,4.55,2.39,6.71,3.59,1.69.94,3.2-1.65,1.51-2.59a49.16,49.16,0,0,0-7.42-3.89c-1.83-.64-2.61,2.26-.8,2.89Z"/><path class="cls-2" d="M213.37,331.71c-1.54-2-4-2.85-6.16-3.85-1.74-.79-3.27,1.79-1.51,2.59,2,.89,4.18,1.65,5.55,3.39,1.19,1.52,3.3-.62,2.12-2.12Z"/><path class="cls-3" d="M438.42,161c-.16,0-.24-.07-.24-.21l0-20.43a.21.21,0,0,1,.24-.24h2.7L446.16,152,446,140.4c0-.16.09-.24.27-.24h3c.12,0,.18.08.18.24l0,20.46c0,.12,0,.18-.15.18h-2.64l-5.19-11,.21,10.8c0,.16-.09.24-.27.24Z"/><path class="cls-3" d="M457.62,161.34a5.51,5.51,0,0,1-3-.83,6.33,6.33,0,0,1-2.14-2.19,5.8,5.8,0,0,1-.81-3l0-9.51a5.8,5.8,0,0,1,.79-3,6.08,6.08,0,0,1,2.14-2.16,5.61,5.61,0,0,1,2.94-.81,5.51,5.51,0,0,1,2.94.81,6.16,6.16,0,0,1,2.11,2.16,5.8,5.8,0,0,1,.79,3l0,9.51a5.89,5.89,0,0,1-.79,3,6.21,6.21,0,0,1-2.13,2.19A5.51,5.51,0,0,1,457.62,161.34Zm0-3.63a2.08,2.08,0,0,0,1.58-.74,2.39,2.39,0,0,0,.67-1.67l0-9.51a2.4,2.4,0,0,0-.63-1.68,2.06,2.06,0,0,0-1.59-.69,2.14,2.14,0,0,0-1.59.67,2.33,2.33,0,0,0-.66,1.7v9.51A2.39,2.39,0,0,0,456,157,2.1,2.1,0,0,0,457.62,157.71Z"/><path class="cls-3" d="M471.33,161.34a5.51,5.51,0,0,1-3-.83,6.33,6.33,0,0,1-2.14-2.19,5.8,5.8,0,0,1-.81-3l0-9.51a5.8,5.8,0,0,1,.79-3,6.08,6.08,0,0,1,2.14-2.16,5.61,5.61,0,0,1,2.94-.81,5.51,5.51,0,0,1,2.94.81,6.16,6.16,0,0,1,2.11,2.16,5.8,5.8,0,0,1,.79,3l0,9.51a5.89,5.89,0,0,1-.79,3,6.21,6.21,0,0,1-2.13,2.19A5.51,5.51,0,0,1,471.33,161.34Zm0-3.63a2.08,2.08,0,0,0,1.58-.74,2.39,2.39,0,0,0,.67-1.67l0-9.51a2.4,2.4,0,0,0-.63-1.68,2.06,2.06,0,0,0-1.59-.69,2.14,2.14,0,0,0-1.59.67,2.33,2.33,0,0,0-.66,1.7v9.51a2.39,2.39,0,0,0,.66,1.7A2.1,2.1,0,0,0,471.33,157.71Z"/><path class="cls-3" d="M479.61,161c-.08,0-.12,0-.12-.15l.06-20.61a.11.11,0,0,1,.12-.12h6.06a5.82,5.82,0,0,1,3,.79,6.09,6.09,0,0,1,2.17,2.13,6.08,6.08,0,0,1,.48,5,6.22,6.22,0,0,1-.78,1.5,5.17,5.17,0,0,1-.81.92,6.12,6.12,0,0,1,1.62,4.23l0,6.15a.13.13,0,0,1-.15.15h-3.39c-.08,0-.12,0-.12-.09v-6.21a2.61,2.61,0,0,0-.77-1.87,2.5,2.5,0,0,0-1.87-.8h-2l0,8.82c0,.1,0,.15-.12.15Zm3.54-12.57h2.58a2.32,2.32,0,0,0,1.65-.69,2.3,2.3,0,0,0,0-3.33,2.3,2.3,0,0,0-1.67-.69h-2.58Z"/><path class="cls-3" d="M494.1,161a.13.13,0,0,1-.15-.15l.06-20.61a.11.11,0,0,1,.12-.12l5.61,0a5.6,5.6,0,0,1,3,.78,6.12,6.12,0,0,1,2.17,2.17,5.8,5.8,0,0,1,.81,3v8.61a6.12,6.12,0,0,1-.84,3.17,6.29,6.29,0,0,1-5.43,3.13Zm3.51-3.69h1.86a2.52,2.52,0,0,0,1.88-.78,2.56,2.56,0,0,0,.77-1.86v-8.64a2.28,2.28,0,0,0-.71-1.66,2.18,2.18,0,0,0-1.67-.68l-2.1,0Z"/><path class="cls-3" d="M508.35,152.37c-.1,0-.15,0-.15-.12V149c0-.08,0-.12.15-.12h5.79c.1,0,.15,0,.15.12v3.27q0,.12-.15.12Z"/><path class="cls-3" d="M517.46,161c-.16,0-.24-.07-.24-.21l0-20.43a.21.21,0,0,1,.24-.24h2.7L525.2,152l-.15-11.58c0-.16.09-.24.27-.24h3c.12,0,.18.08.18.24l0,20.46c0,.12,0,.18-.15.18h-2.64l-5.19-11,.21,10.8c0,.16-.09.24-.27.24Z"/><path class="cls-3" d="M531.23,161c-.08,0-.12,0-.12-.15l0-20.61a.11.11,0,0,1,.12-.12h9.63c.08,0,.12,0,.12.15v3.36a.11.11,0,0,1-.12.12h-6.15v4.68h6.15a.11.11,0,0,1,.12.12l0,3.39a.11.11,0,0,1-.12.12h-6.18v5.25h6.18c.08,0,.12.05.12.15v3.42a.11.11,0,0,1-.12.12Z"/><path class="cls-3" d="M543.86,161a.13.13,0,0,1-.15-.15l.06-20.61a.11.11,0,0,1,.12-.12l5.61,0a5.6,5.6,0,0,1,3,.78,6.12,6.12,0,0,1,2.17,2.17,5.8,5.8,0,0,1,.81,3v8.61a6.12,6.12,0,0,1-.84,3.17,6.29,6.29,0,0,1-5.43,3.13Zm3.51-3.69h1.86a2.52,2.52,0,0,0,1.88-.78,2.56,2.56,0,0,0,.77-1.86v-8.64a2.28,2.28,0,0,0-.71-1.66,2.18,2.18,0,0,0-1.67-.68l-2.1,0Z"/><path class="cls-3" d="M558,161c-.08,0-.12,0-.12-.15l0-20.61a.11.11,0,0,1,.12-.12h9.63c.08,0,.12,0,.12.15v3.36a.11.11,0,0,1-.12.12H561.5v4.68h6.15a.11.11,0,0,1,.12.12l0,3.39a.11.11,0,0,1-.12.12H561.5v5.25h6.18c.08,0,.12.05.12.15v3.42a.11.11,0,0,1-.12.12Z"/><path class="cls-3" d="M570.59,161c-.08,0-.12,0-.12-.15l.06-20.61a.11.11,0,0,1,.12-.12h6.06a5.82,5.82,0,0,1,3,.79,6.09,6.09,0,0,1,2.17,2.13,6.08,6.08,0,0,1,.48,5,6.22,6.22,0,0,1-.78,1.5,5.17,5.17,0,0,1-.81.92,6.12,6.12,0,0,1,1.62,4.23l0,6.15a.13.13,0,0,1-.15.15h-3.39c-.08,0-.12,0-.12-.09v-6.21a2.61,2.61,0,0,0-.77-1.87,2.5,2.5,0,0,0-1.87-.8h-2l0,8.82c0,.1,0,.15-.12.15Zm3.54-12.57h2.58a2.32,2.32,0,0,0,1.65-.69,2.3,2.3,0,0,0,0-3.33,2.3,2.3,0,0,0-1.67-.69h-2.58Z"/><path class="cls-3" d="M585.05,161c-.08,0-.12,0-.12-.15l0-20.58a.13.13,0,0,1,.15-.15h3.33a.13.13,0,0,1,.15.15l0,17h6.18a.13.13,0,0,1,.15.15v3.39a.13.13,0,0,1-.15.15Z"/><path class="cls-3" d="M595.82,160.89l3.72-20.61a.14.14,0,0,1,.15-.12H604a.14.14,0,0,1,.15.12l3.57,20.61c0,.1,0,.15-.12.15h-3.33c-.08,0-.13,0-.15-.15l-.33-2.19h-4.08l-.33,2.19c0,.1-.07.15-.15.15h-3.33C595.86,161,595.82,161,595.82,160.89Zm4.53-5.4h2.88L602,147.06l-.18-1.11-.12,1.11Z"/><path class="cls-3" d="M609.92,161c-.16,0-.24-.07-.24-.21l0-20.43a.21.21,0,0,1,.24-.24h2.7L617.66,152l-.15-11.58c0-.16.09-.24.27-.24h3c.12,0,.18.08.18.24l0,20.46c0,.12,0,.18-.15.18h-2.64L613,150l.21,10.8c0,.16-.09.24-.27.24Z"/><path class="cls-3" d="M623.72,161a.13.13,0,0,1-.15-.15l.06-20.61a.11.11,0,0,1,.12-.12l5.61,0a5.6,5.6,0,0,1,3,.78,6.12,6.12,0,0,1,2.17,2.17,5.8,5.8,0,0,1,.81,3v8.61a6.12,6.12,0,0,1-.84,3.17,6.29,6.29,0,0,1-5.43,3.13Zm3.51-3.69h1.86a2.52,2.52,0,0,0,1.88-.78,2.56,2.56,0,0,0,.77-1.86v-8.64a2.28,2.28,0,0,0-.71-1.66,2.18,2.18,0,0,0-1.67-.68l-2.1,0Z"/><path class="cls-3" d="M434.89,379.07a5.51,5.51,0,0,1-3-.82,6.33,6.33,0,0,1-2.14-2.19,5.8,5.8,0,0,1-.81-3l0-9.51a5.8,5.8,0,0,1,.79-3,6.08,6.08,0,0,1,2.14-2.16,5.61,5.61,0,0,1,2.94-.81,5.51,5.51,0,0,1,2.94.81,6.16,6.16,0,0,1,2.11,2.16,5.8,5.8,0,0,1,.79,3l0,9.51a5.89,5.89,0,0,1-.79,3,6.21,6.21,0,0,1-2.13,2.19A5.51,5.51,0,0,1,434.89,379.07Zm0-3.63a2.08,2.08,0,0,0,1.58-.74,2.39,2.39,0,0,0,.67-1.67l0-9.51a2.4,2.4,0,0,0-.63-1.68,2.06,2.06,0,0,0-1.59-.69,2.14,2.14,0,0,0-1.59.67,2.33,2.33,0,0,0-.66,1.7V373a2.39,2.39,0,0,0,.66,1.7A2.1,2.1,0,0,0,434.89,375.44Z"/><path class="cls-3" d="M448.6,379.07a5.51,5.51,0,0,1-3-.82,6.33,6.33,0,0,1-2.14-2.19,5.8,5.8,0,0,1-.81-3l0-9.51a5.8,5.8,0,0,1,.79-3,6.08,6.08,0,0,1,2.14-2.16,5.61,5.61,0,0,1,2.94-.81,5.51,5.51,0,0,1,2.94.81,6.16,6.16,0,0,1,2.11,2.16,5.8,5.8,0,0,1,.79,3l0,9.51a5.89,5.89,0,0,1-.79,3,6.21,6.21,0,0,1-2.13,2.19A5.51,5.51,0,0,1,448.6,379.07Zm0-3.63a2.08,2.08,0,0,0,1.58-.74,2.39,2.39,0,0,0,.67-1.67l0-9.51a2.4,2.4,0,0,0-.63-1.68,2.06,2.06,0,0,0-1.59-.69,2.14,2.14,0,0,0-1.59.67,2.33,2.33,0,0,0-.66,1.7V373a2.39,2.39,0,0,0,.66,1.7A2.1,2.1,0,0,0,448.6,375.44Z"/><path class="cls-3" d="M461.86,379.07a5.51,5.51,0,0,1-3-.82,6.21,6.21,0,0,1-2.13-2.19,5.88,5.88,0,0,1-.79-3v-1.38a.13.13,0,0,1,.15-.15h3.36c.08,0,.12,0,.12.15V373a2.39,2.39,0,0,0,.66,1.7,2.1,2.1,0,0,0,1.59.71,2.08,2.08,0,0,0,1.59-.72,2.4,2.4,0,0,0,.66-1.68,2.3,2.3,0,0,0-1.44-1.92l-1.5-.84-1.92-1.08a6.31,6.31,0,0,1-2.45-2.42,6.74,6.74,0,0,1-.79-3.29,5.69,5.69,0,0,1,.81-3,6,6,0,0,1,2.15-2.12,5.77,5.77,0,0,1,5.82,0,6,6,0,0,1,2.13,2.13,5.73,5.73,0,0,1,.79,3V366a.11.11,0,0,1-.12.12h-3.36a.11.11,0,0,1-.12-.12l0-2.46a2.31,2.31,0,0,0-.66-1.71,2.14,2.14,0,0,0-1.56-.66,2.1,2.1,0,0,0-1.59.71,2.36,2.36,0,0,0-.66,1.67,3,3,0,0,0,.42,1.65,4,4,0,0,0,1.53,1.26l.58.32.95.51.92.49.5.27a7.14,7.14,0,0,1,2.37,2.06,5,5,0,0,1,.87,3,6,6,0,0,1-2.92,5.23A5.66,5.66,0,0,1,461.86,379.07Z"/><path class="cls-3" d="M472.69,378.77c-.08,0-.12-.05-.12-.15v-17.1h-3.9a.13.13,0,0,1-.15-.15l0-3.36a.11.11,0,0,1,.12-.12h11.4c.1,0,.15,0,.15.12v3.36c0,.1,0,.15-.12.15h-3.93l0,17.1c0,.1,0,.15-.12.15Z"/><path class="cls-3" d="M480.43,370.1c-.1,0-.15,0-.15-.12v-3.27c0-.08,0-.12.15-.12h5.79q.15,0,.15.12V370c0,.08,0,.12-.15.12Z"/><path class="cls-3" d="M489.55,378.77c-.16,0-.24-.07-.24-.21l0-20.43a.21.21,0,0,1,.24-.24h2.7l5.07,11.82-.15-11.58c0-.16.09-.24.27-.24h3c.12,0,.18.08.18.24l0,20.46c0,.12,0,.18-.15.18H497.8l-5.19-11,.21,10.8c0,.16-.09.24-.27.24Z"/><path class="cls-3" d="M503.32,378.77c-.08,0-.12-.05-.12-.15l0-20.61a.11.11,0,0,1,.12-.12H513c.08,0,.12.05.12.15v3.36a.11.11,0,0,1-.12.12h-6.15v4.68H513a.11.11,0,0,1,.12.12l0,3.39a.11.11,0,0,1-.12.12h-6.18v5.25H513q.12,0,.12.15v3.42a.11.11,0,0,1-.12.12Z"/><path class="cls-3" d="M516,378.77a.13.13,0,0,1-.15-.15l.06-20.61a.11.11,0,0,1,.12-.12l5.61,0a5.6,5.6,0,0,1,3,.78,6.13,6.13,0,0,1,2.17,2.18,5.8,5.8,0,0,1,.81,3v8.61a6.11,6.11,0,0,1-.84,3.16,6.29,6.29,0,0,1-5.43,3.14Zm3.51-3.69h1.86a2.52,2.52,0,0,0,1.88-.78,2.56,2.56,0,0,0,.77-1.86V363.8a2.27,2.27,0,0,0-.71-1.66,2.18,2.18,0,0,0-1.67-.68l-2.1,0Z"/><path class="cls-3" d="M530.08,378.77c-.08,0-.12-.05-.12-.15L530,358a.11.11,0,0,1,.12-.12h9.63c.08,0,.12.05.12.15v3.36a.11.11,0,0,1-.12.12h-6.15v4.68h6.15a.11.11,0,0,1,.12.12l0,3.39a.11.11,0,0,1-.12.12h-6.18v5.25h6.18q.12,0,.12.15v3.42a.11.11,0,0,1-.12.12Z"/><path class="cls-3" d="M542.68,378.77c-.08,0-.12-.05-.12-.15l.06-20.61a.11.11,0,0,1,.12-.12h6.06a5.83,5.83,0,0,1,3,.79,6.09,6.09,0,0,1,2.17,2.13,6.08,6.08,0,0,1,.48,5,6.23,6.23,0,0,1-.78,1.5,5.21,5.21,0,0,1-.81.92,6.12,6.12,0,0,1,1.62,4.23l0,6.15a.13.13,0,0,1-.15.15H551c-.08,0-.12,0-.12-.09v-6.21a2.62,2.62,0,0,0-.77-1.87,2.5,2.5,0,0,0-1.87-.79h-2l0,8.82c0,.1,0,.15-.12.15Zm3.54-12.57h2.58a2.32,2.32,0,0,0,1.65-.69,2.3,2.3,0,0,0,0-3.33,2.3,2.3,0,0,0-1.67-.69h-2.58Z"/><path class="cls-3" d="M557.14,378.77c-.08,0-.12-.05-.12-.15l0-20.58a.13.13,0,0,1,.15-.15h3.33a.13.13,0,0,1,.15.15l0,17h6.18a.13.13,0,0,1,.15.15v3.39a.13.13,0,0,1-.15.15Z"/><path class="cls-3" d="M567.91,378.62,571.63,358a.14.14,0,0,1,.15-.12h4.35a.14.14,0,0,1,.15.12l3.57,20.61c0,.1,0,.15-.12.15H576.4c-.08,0-.13-.05-.15-.15l-.33-2.19h-4.08l-.33,2.19c0,.1-.07.15-.15.15H568C568,378.77,567.91,378.72,567.91,378.62Zm4.53-5.4h2.88l-1.23-8.43-.18-1.11-.12,1.11Z"/><path class="cls-3" d="M582,378.77c-.16,0-.24-.07-.24-.21l0-20.43a.21.21,0,0,1,.24-.24h2.7l5.07,11.82-.15-11.58c0-.16.09-.24.27-.24h3c.12,0,.18.08.18.24l0,20.46c0,.12,0,.18-.15.18h-2.64l-5.19-11,.21,10.8c0,.16-.09.24-.27.24Z"/><path class="cls-3" d="M595.81,378.77a.13.13,0,0,1-.15-.15l.06-20.61a.11.11,0,0,1,.12-.12l5.61,0a5.6,5.6,0,0,1,3,.78,6.13,6.13,0,0,1,2.17,2.18,5.8,5.8,0,0,1,.81,3v8.61a6.11,6.11,0,0,1-.84,3.16,6.29,6.29,0,0,1-5.43,3.14Zm3.51-3.69h1.86a2.52,2.52,0,0,0,1.88-.78,2.56,2.56,0,0,0,.77-1.86V363.8a2.27,2.27,0,0,0-.71-1.66,2.18,2.18,0,0,0-1.67-.68l-2.1,0Z"/><path class="cls-3" d="M348,562.5a5.51,5.51,0,0,1-3-.82,6.33,6.33,0,0,1-2.14-2.19,5.8,5.8,0,0,1-.81-3l0-9.51a5.8,5.8,0,0,1,.79-3A6.08,6.08,0,0,1,345,541.8,5.61,5.61,0,0,1,348,541a5.51,5.51,0,0,1,2.94.81A6.16,6.16,0,0,1,353,544a5.8,5.8,0,0,1,.79,3l0,9.51a5.89,5.89,0,0,1-.79,3,6.21,6.21,0,0,1-2.13,2.19A5.51,5.51,0,0,1,348,562.5Zm0-3.63a2.08,2.08,0,0,0,1.58-.74,2.39,2.39,0,0,0,.67-1.67l0-9.51a2.4,2.4,0,0,0-.63-1.68,2.06,2.06,0,0,0-1.59-.69,2.14,2.14,0,0,0-1.59.67,2.33,2.33,0,0,0-.66,1.7v9.51a2.39,2.39,0,0,0,.66,1.7A2.1,2.1,0,0,0,348,558.87Z"/><path class="cls-3" d="M361.68,562.5a5.51,5.51,0,0,1-3-.82,6.33,6.33,0,0,1-2.14-2.19,5.8,5.8,0,0,1-.81-3l0-9.51a5.8,5.8,0,0,1,.79-3,6.08,6.08,0,0,1,2.14-2.16,5.61,5.61,0,0,1,2.94-.81,5.51,5.51,0,0,1,2.94.81,6.16,6.16,0,0,1,2.11,2.16,5.8,5.8,0,0,1,.79,3l0,9.51a5.89,5.89,0,0,1-.79,3,6.21,6.21,0,0,1-2.13,2.19A5.51,5.51,0,0,1,361.68,562.5Zm0-3.63a2.08,2.08,0,0,0,1.58-.74,2.39,2.39,0,0,0,.67-1.67l0-9.51a2.4,2.4,0,0,0-.63-1.68,2.06,2.06,0,0,0-1.59-.69,2.14,2.14,0,0,0-1.59.67,2.33,2.33,0,0,0-.66,1.7v9.51a2.39,2.39,0,0,0,.66,1.7A2.1,2.1,0,0,0,361.68,558.87Z"/><path class="cls-3" d="M374.94,562.5a5.51,5.51,0,0,1-3-.82,6.21,6.21,0,0,1-2.13-2.19,5.88,5.88,0,0,1-.79-3v-1.38a.13.13,0,0,1,.15-.15h3.36c.08,0,.12,0,.12.15v1.38a2.39,2.39,0,0,0,.66,1.7,2.1,2.1,0,0,0,1.59.71,2.08,2.08,0,0,0,1.59-.72,2.4,2.4,0,0,0,.66-1.68,2.3,2.3,0,0,0-1.44-1.92l-1.5-.84-1.92-1.08a6.31,6.31,0,0,1-2.45-2.42,6.74,6.74,0,0,1-.79-3.29,5.69,5.69,0,0,1,.81-3A6,6,0,0,1,372,541.8a5.77,5.77,0,0,1,5.82,0,6,6,0,0,1,2.13,2.13,5.73,5.73,0,0,1,.79,3v2.46a.11.11,0,0,1-.12.12h-3.36a.11.11,0,0,1-.12-.12l0-2.46a2.31,2.31,0,0,0-.66-1.71,2.14,2.14,0,0,0-1.56-.66,2.1,2.1,0,0,0-1.59.71,2.36,2.36,0,0,0-.66,1.67,3,3,0,0,0,.42,1.65,4,4,0,0,0,1.53,1.26l.58.32.95.51.92.49.5.27a7.14,7.14,0,0,1,2.37,2.06,5,5,0,0,1,.87,3,6,6,0,0,1-2.92,5.23A5.66,5.66,0,0,1,374.94,562.5Z"/><path class="cls-3" d="M385.77,562.2c-.08,0-.12-.05-.12-.15V545h-3.9a.13.13,0,0,1-.15-.15l0-3.36a.11.11,0,0,1,.12-.12h11.4c.1,0,.15,0,.15.12v3.36c0,.1,0,.15-.12.15h-3.93l0,17.1c0,.1,0,.15-.12.15Z"/><path class="cls-3" d="M393.51,553.53c-.1,0-.15,0-.15-.12v-3.27c0-.08,0-.12.15-.12h5.79q.15,0,.15.12v3.27c0,.08,0,.12-.15.12Z"/><path class="cls-3" d="M325.89,598.2c-.08,0-.12-.05-.12-.15l.06-20.61a.11.11,0,0,1,.12-.12h5.76a5.75,5.75,0,0,1,3.06.83,6.09,6.09,0,0,1,2.13,2.17,5.78,5.78,0,0,1,.78,2.94,5.07,5.07,0,0,1-.58,2.4,6,6,0,0,1-1.4,1.8,6.25,6.25,0,0,1,1.35,2,6.14,6.14,0,0,1,.48,2.4,6.2,6.2,0,0,1-.84,3.18,6.4,6.4,0,0,1-2.26,2.29,6,6,0,0,1-3.17.86Zm3.51-3.66h1.86a2.52,2.52,0,0,0,1.86-.79,2.59,2.59,0,0,0,.78-1.87,2.66,2.66,0,0,0-2.64-2.64h-1.83Zm0-8.94h2.28a2.15,2.15,0,0,0,1.7-.74,2.38,2.38,0,0,0,.65-1.6,2.3,2.3,0,0,0-.69-1.67,2.23,2.23,0,0,0-1.65-.71h-2.28Z"/><path class="cls-3" d="M339.81,598.2c-.08,0-.12-.05-.12-.15l.06-20.61a.11.11,0,0,1,.12-.12h6.06a5.83,5.83,0,0,1,3,.79,6.09,6.09,0,0,1,2.17,2.13,6.08,6.08,0,0,1,.48,5,6.23,6.23,0,0,1-.78,1.5,5.21,5.21,0,0,1-.81.92,6.12,6.12,0,0,1,1.62,4.23l0,6.15a.13.13,0,0,1-.15.15h-3.39c-.08,0-.12,0-.12-.09V591.9a2.62,2.62,0,0,0-.77-1.87,2.5,2.5,0,0,0-1.87-.79h-2l0,8.82c0,.1,0,.15-.12.15Zm3.54-12.57h2.58a2.32,2.32,0,0,0,1.65-.69,2.3,2.3,0,0,0,0-3.33,2.3,2.3,0,0,0-1.67-.69h-2.58Z"/><path class="cls-3" d="M353.13,598.05l3.72-20.61a.14.14,0,0,1,.15-.12h4.35a.14.14,0,0,1,.15.12l3.57,20.61c0,.1,0,.15-.12.15h-3.33c-.08,0-.13-.05-.15-.15l-.33-2.19h-4.08l-.33,2.19c0,.1-.07.15-.15.15h-3.33C353.17,598.2,353.13,598.15,353.13,598.05Zm4.53-5.4h2.88l-1.23-8.43-.18-1.11-.12,1.11Z"/><path class="cls-3" d="M367.08,598.2c-.08,0-.12-.05-.12-.15l.06-20.61a.11.11,0,0,1,.12-.12h5.76a5.75,5.75,0,0,1,3.06.83,6.09,6.09,0,0,1,2.13,2.17,5.78,5.78,0,0,1,.78,2.94,5.07,5.07,0,0,1-.58,2.4,6,6,0,0,1-1.4,1.8,6.25,6.25,0,0,1,1.35,2,6.14,6.14,0,0,1,.48,2.4,6.2,6.2,0,0,1-.84,3.18,6.4,6.4,0,0,1-2.26,2.29,6,6,0,0,1-3.17.86Zm3.51-3.66h1.86a2.52,2.52,0,0,0,1.86-.79,2.59,2.59,0,0,0,.78-1.87,2.66,2.66,0,0,0-2.64-2.64h-1.83Zm0-8.94h2.28a2.15,2.15,0,0,0,1.7-.74,2.38,2.38,0,0,0,.65-1.6,2.3,2.3,0,0,0-.69-1.67,2.23,2.23,0,0,0-1.65-.71h-2.28Z"/><path class="cls-3" d="M379.26,598.05,383,577.44a.14.14,0,0,1,.15-.12h4.35a.14.14,0,0,1,.15.12l3.57,20.61c0,.1,0,.15-.12.15h-3.33c-.08,0-.13-.05-.15-.15l-.33-2.19h-4.08l-.33,2.19c0,.1-.07.15-.15.15h-3.33C379.3,598.2,379.26,598.15,379.26,598.05Zm4.53-5.4h2.88l-1.23-8.43-.18-1.11-.12,1.11Z"/><path class="cls-3" d="M393.36,598.2c-.16,0-.24-.07-.24-.21l0-20.43a.21.21,0,0,1,.24-.24H396l5.07,11.82-.15-11.58c0-.16.09-.24.27-.24h3c.12,0,.18.08.18.24l0,20.46c0,.12,0,.18-.15.18h-2.64l-5.19-11,.21,10.8c0,.16-.09.24-.27.24Z"/><path class="cls-3" d="M410,598.2c-.08,0-.12-.05-.12-.15V581H406a.13.13,0,0,1-.15-.15l0-3.36a.11.11,0,0,1,.12-.12h11.4c.1,0,.15,0,.15.12v3.36c0,.1,0,.15-.12.15h-3.93l0,17.1c0,.1,0,.15-.12.15Z"/><path class="cls-3" d="M415.11,770.93q-.12,0-.12-.15l0-20.58a.13.13,0,0,1,.15-.15h3.33a.13.13,0,0,1,.15.15l0,17h6.18a.13.13,0,0,1,.15.15v3.39a.13.13,0,0,1-.15.15Z"/><path class="cls-3" d="M427,770.93a.13.13,0,0,1-.15-.15l0-20.61a.11.11,0,0,1,.12-.12h3.36a.11.11,0,0,1,.12.12l0,20.61c0,.1,0,.15-.12.15Z"/><path class="cls-3" d="M433.32,770.93q-.12,0-.12-.15l.06-20.61a.11.11,0,0,1,.12-.12H437a.26.26,0,0,1,.21.12l2.73,4,2.73-4a.26.26,0,0,1,.21-.12h3.69a.11.11,0,0,1,.12.12l.06,20.61q0,.15-.12.15h-3.39q-.12,0-.12-.15l0-15.3L440,760l-3.12-4.56,0,15.3q0,.15-.12.15Z"/><path class="cls-3" d="M449.43,770.93q-.12,0-.12-.15l.06-20.61a.11.11,0,0,1,.12-.12h5.76a5.75,5.75,0,0,1,3.06.83,6.09,6.09,0,0,1,2.13,2.17,5.78,5.78,0,0,1,.78,2.94,5.07,5.07,0,0,1-.58,2.4,6,6,0,0,1-1.4,1.8,6.26,6.26,0,0,1,1.35,2,6.13,6.13,0,0,1,.48,2.4,6.2,6.2,0,0,1-.84,3.18,6.4,6.4,0,0,1-2.26,2.29,6,6,0,0,1-3.17.85Zm3.51-3.66h1.86a2.51,2.51,0,0,0,1.86-.79,2.58,2.58,0,0,0,.78-1.87A2.66,2.66,0,0,0,454.8,762H453Zm0-8.94h2.28a2.15,2.15,0,0,0,1.7-.74,2.38,2.38,0,0,0,.65-1.6,2.3,2.3,0,0,0-.69-1.67,2.23,2.23,0,0,0-1.65-.71H453Z"/><path class="cls-3" d="M468.75,771.23a5.53,5.53,0,0,1-2.94-.82,6.13,6.13,0,0,1-2.15-2.21,6,6,0,0,1-.79-3l.06-15a.11.11,0,0,1,.12-.12h3.36a.11.11,0,0,1,.12.12v15a2.46,2.46,0,0,0,.64,1.72,2.05,2.05,0,0,0,1.58.71,2.09,2.09,0,0,0,1.61-.71,2.46,2.46,0,0,0,.64-1.72v-15a.11.11,0,0,1,.12-.12h3.36a.11.11,0,0,1,.12.12l.06,15a6.08,6.08,0,0,1-2.92,5.25A5.64,5.64,0,0,1,468.75,771.23Z"/><path class="cls-3" d="M477.15,770.93q-.12,0-.12-.15l.06-20.61a.11.11,0,0,1,.12-.12h6.06a5.83,5.83,0,0,1,3,.79,6.09,6.09,0,0,1,2.17,2.13,6.08,6.08,0,0,1,.48,5,6.23,6.23,0,0,1-.78,1.5,5.21,5.21,0,0,1-.81.92,6.12,6.12,0,0,1,1.62,4.23l0,6.15a.13.13,0,0,1-.15.15h-3.39c-.08,0-.12,0-.12-.09v-6.21a2.62,2.62,0,0,0-.77-1.87,2.5,2.5,0,0,0-1.87-.79h-2l0,8.82q0,.15-.12.15Zm3.54-12.57h2.58a2.32,2.32,0,0,0,1.65-.69,2.3,2.3,0,0,0,0-3.33,2.3,2.3,0,0,0-1.67-.69h-2.58Z"/><path class="cls-3" d="M496.83,771.23a5.51,5.51,0,0,1-2.94-.81,6.13,6.13,0,0,1-2.12-2.17,5.94,5.94,0,0,1-.79-3v-9.51a5.82,5.82,0,0,1,.79-3,6.09,6.09,0,0,1,2.13-2.17,5.53,5.53,0,0,1,2.93-.81,5.73,5.73,0,0,1,3,.79,5.89,5.89,0,0,1,2.12,2.15,6,6,0,0,1,.78,3v1.38c0,.08-.05.12-.15.12H499.2a.1.1,0,0,1-.12-.12v-1.14a2.8,2.8,0,0,0-.65-1.89,2,2,0,0,0-1.6-.75,2.07,2.07,0,0,0-1.55.72,2.38,2.38,0,0,0-.67,1.68v9.51a2.39,2.39,0,0,0,.66,1.69,2.07,2.07,0,0,0,1.56.71,2.11,2.11,0,0,0,1.6-.69,2.41,2.41,0,0,0,.65-1.71v-1.47H497a.13.13,0,0,1-.15-.15v-3.36a.13.13,0,0,1,.15-.15h5.61c.08,0,.12,0,.12.15v5a6,6,0,0,1-.79,3,6.13,6.13,0,0,1-2.12,2.17A5.57,5.57,0,0,1,496.83,771.23Z"/><path class="cls-3" d="M29.56,591.32a.13.13,0,0,1-.15-.15l0-3.27,7.35-14h-7a.11.11,0,0,1-.12-.12v-3.15q0-.15.12-.15H40.69a.13.13,0,0,1,.15.15v3.24l-7.32,14h7.23q.12,0,.12.15l0,3.21a.13.13,0,0,1-.15.15Z"/><path class="cls-3" d="M42.91,591.32c-.08,0-.12,0-.12-.15l0-20.61a.11.11,0,0,1,.12-.12h9.63c.08,0,.12,0,.12.15v3.36a.11.11,0,0,1-.12.12H46.42v4.68h6.15a.11.11,0,0,1,.12.12l0,3.39a.11.11,0,0,1-.12.12H46.42v5.25H52.6c.08,0,.12.05.12.15v3.42a.11.11,0,0,1-.12.12Z"/><path class="cls-3" d="M55.51,591.32c-.08,0-.12,0-.12-.15l0-20.61a.11.11,0,0,1,.12-.12h9.63c.08,0,.12,0,.12.15v3.36a.11.11,0,0,1-.12.12H59v4.68h6.15a.11.11,0,0,1,.12.12l0,3.39a.11.11,0,0,1-.12.12H59v5.25H65.2c.08,0,.12.05.12.15v3.42a.11.11,0,0,1-.12.12Z"/><path class="cls-3" d="M68.11,591.32c-.08,0-.12,0-.12-.15l0-20.58a.13.13,0,0,1,.15-.15H71.5a.13.13,0,0,1,.15.15l0,17H77.8a.13.13,0,0,1,.15.15v3.39a.13.13,0,0,1-.15.15Z"/><path class="cls-3" d="M78.88,591.17l3.72-20.61a.14.14,0,0,1,.15-.12H87.1a.14.14,0,0,1,.15.12l3.57,20.61c0,.1,0,.15-.12.15H87.37c-.08,0-.13,0-.15-.15L86.89,589H82.81l-.33,2.19c0,.1-.07.15-.15.15H79C78.92,591.32,78.88,591.27,78.88,591.17Zm4.53-5.4h2.88l-1.23-8.43-.18-1.11-.12,1.11Z"/><path class="cls-3" d="M93,591.32c-.16,0-.24-.07-.24-.21l0-20.43a.21.21,0,0,1,.24-.24h2.7l5.07,11.82-.15-11.58c0-.16.09-.24.27-.24h3c.12,0,.18.08.18.24l0,20.46c0,.12,0,.18-.15.18h-2.64l-5.19-11,.21,10.8c0,.16-.09.24-.27.24Z"/><path class="cls-3" d="M106.78,591.32a.13.13,0,0,1-.15-.15l.06-20.61a.11.11,0,0,1,.12-.12l5.61,0a5.6,5.6,0,0,1,3,.78,6.12,6.12,0,0,1,2.17,2.17,5.8,5.8,0,0,1,.81,3V585a6.12,6.12,0,0,1-.84,3.17,6.29,6.29,0,0,1-5.43,3.13Zm3.51-3.69h1.86a2.52,2.52,0,0,0,1.88-.78,2.56,2.56,0,0,0,.77-1.86v-8.64a2.28,2.28,0,0,0-.71-1.66,2.18,2.18,0,0,0-1.67-.68l-2.1,0Z"/><path class="cls-3" d="M121,582.65c-.1,0-.15,0-.15-.12v-3.27c0-.08,0-.12.15-.12h5.79c.1,0,.15,0,.15.12v3.27q0,.12-.15.12Z"/><path class="cls-3" d="M132,591.32c-.08,0-.13,0-.15-.15l-3.54-20.61q0-.12.09-.12h3.36a.14.14,0,0,1,.15.12l1.92,13.56,2-13.56a.16.16,0,0,1,.18-.12h2.7a.14.14,0,0,1,.15.12l2,13.56,2-13.56a.14.14,0,0,1,.15-.12h3.33c.1,0,.14,0,.12.12l-3.57,20.61a.53.53,0,0,1-.15.15H139c-.06,0-.11,0-.15-.15l-1.53-10.77-1.53,10.77c0,.1-.07.15-.15.15Z"/><path class="cls-3" d="M148.27,591.32c-.08,0-.12,0-.12-.15l0-20.61a.11.11,0,0,1,.12-.12h9.63c.08,0,.12,0,.12.15v3.36a.11.11,0,0,1-.12.12h-6.15v4.68h6.15a.11.11,0,0,1,.12.12l0,3.39a.11.11,0,0,1-.12.12h-6.18v5.25H158c.08,0,.12.05.12.15v3.42a.11.11,0,0,1-.12.12Z"/><path class="cls-3" d="M165.67,591.62a5.51,5.51,0,0,1-3-.83,6.21,6.21,0,0,1-2.13-2.19,5.88,5.88,0,0,1-.79-3v-1.38a.13.13,0,0,1,.15-.15h3.36q.12,0,.12.15v1.38a2.39,2.39,0,0,0,.66,1.7,2.13,2.13,0,0,0,3.18,0,2.41,2.41,0,0,0,.66-1.68,2.3,2.3,0,0,0-1.44-1.92l-1.5-.84-1.92-1.08a6.29,6.29,0,0,1-2.45-2.42,6.73,6.73,0,0,1-.79-3.29,5.7,5.7,0,0,1,.81-3,6,6,0,0,1,2.15-2.12,5.77,5.77,0,0,1,5.82,0,6,6,0,0,1,2.13,2.13,5.73,5.73,0,0,1,.79,3v2.46a.11.11,0,0,1-.12.12H168a.11.11,0,0,1-.12-.12l0-2.46a2.32,2.32,0,0,0-.66-1.71,2.14,2.14,0,0,0-1.56-.66,2.1,2.1,0,0,0-1.59.71,2.36,2.36,0,0,0-.66,1.67,3,3,0,0,0,.42,1.65,4,4,0,0,0,1.53,1.26l.58.32.95.51.92.5.5.27a7.15,7.15,0,0,1,2.37,2.06,5,5,0,0,1,.87,3,6,6,0,0,1-2.92,5.24A5.67,5.67,0,0,1,165.67,591.62Z"/><path class="cls-3" d="M176.5,591.32c-.08,0-.12,0-.12-.15v-17.1h-3.9a.13.13,0,0,1-.15-.15l0-3.36a.11.11,0,0,1,.12-.12h11.4c.1,0,.15,0,.15.12v3.36c0,.1,0,.15-.12.15H180l0,17.1c0,.1,0,.15-.12.15Z"/><path class="cls-3" d="M184.24,582.65c-.1,0-.15,0-.15-.12v-3.27c0-.08,0-.12.15-.12H190c.1,0,.15,0,.15.12v3.27q0,.12-.15.12Z"/><path class="cls-3" d="M193.21,591.32c-.08,0-.12,0-.12-.15l.06-20.61a.11.11,0,0,1,.12-.12H199a5.75,5.75,0,0,1,3.06.82,6.09,6.09,0,0,1,2.13,2.18,5.78,5.78,0,0,1,.78,2.94,5.08,5.08,0,0,1-.58,2.4,6,6,0,0,1-1.4,1.8,6.25,6.25,0,0,1,1.35,2,6.36,6.36,0,0,1-.36,5.58,6.39,6.39,0,0,1-2.26,2.29,6,6,0,0,1-3.17.86Zm3.51-3.66h1.86a2.51,2.51,0,0,0,1.86-.79,2.59,2.59,0,0,0,.78-1.87,2.66,2.66,0,0,0-2.64-2.64h-1.83Zm0-8.94H199a2.15,2.15,0,0,0,1.7-.73,2.39,2.39,0,0,0,.65-1.61,2.3,2.3,0,0,0-.69-1.67A2.23,2.23,0,0,0,199,574h-2.28Z"/><path class="cls-3" d="M207.13,591.32c-.08,0-.12,0-.12-.15l.06-20.61a.11.11,0,0,1,.12-.12h6.06a5.82,5.82,0,0,1,3,.79,6.09,6.09,0,0,1,2.17,2.13,6.08,6.08,0,0,1,.48,5,6.22,6.22,0,0,1-.78,1.5,5.17,5.17,0,0,1-.81.92,6.12,6.12,0,0,1,1.62,4.23l0,6.15a.13.13,0,0,1-.15.15h-3.39c-.08,0-.12,0-.12-.09V585a2.61,2.61,0,0,0-.77-1.87,2.5,2.5,0,0,0-1.87-.8h-2l0,8.82c0,.1,0,.15-.12.15Zm3.54-12.57h2.58a2.32,2.32,0,0,0,1.65-.69,2.3,2.3,0,0,0,0-3.33,2.3,2.3,0,0,0-1.67-.69h-2.58Z"/><path class="cls-3" d="M220.45,591.17l3.72-20.61a.14.14,0,0,1,.15-.12h4.35a.14.14,0,0,1,.15.12l3.57,20.61c0,.1,0,.15-.12.15h-3.33c-.08,0-.13,0-.15-.15l-.33-2.19h-4.08l-.33,2.19c0,.1-.07.15-.15.15h-3.33C220.49,591.32,220.45,591.27,220.45,591.17Zm4.53-5.4h2.88l-1.23-8.43-.18-1.11-.12,1.11Z"/><path class="cls-3" d="M234.4,591.32c-.08,0-.12,0-.12-.15l.06-20.61a.11.11,0,0,1,.12-.12h5.76a5.75,5.75,0,0,1,3.06.82,6.09,6.09,0,0,1,2.13,2.18,5.78,5.78,0,0,1,.78,2.94,5.08,5.08,0,0,1-.58,2.4,6,6,0,0,1-1.4,1.8,6.25,6.25,0,0,1,1.35,2,6.36,6.36,0,0,1-.36,5.58,6.39,6.39,0,0,1-2.26,2.29,6,6,0,0,1-3.17.86Zm3.51-3.66h1.86a2.51,2.51,0,0,0,1.86-.79,2.59,2.59,0,0,0,.78-1.87,2.66,2.66,0,0,0-2.64-2.64h-1.83Zm0-8.94h2.28a2.15,2.15,0,0,0,1.7-.73,2.39,2.39,0,0,0,.65-1.61,2.3,2.3,0,0,0-.69-1.67,2.23,2.23,0,0,0-1.65-.71h-2.28Z"/><path class="cls-3" d="M246.58,591.17l3.72-20.61a.14.14,0,0,1,.15-.12h4.35a.14.14,0,0,1,.15.12l3.57,20.61c0,.1,0,.15-.12.15h-3.33c-.08,0-.13,0-.15-.15l-.33-2.19h-4.08l-.33,2.19c0,.1-.07.15-.15.15H246.7C246.62,591.32,246.58,591.27,246.58,591.17Zm4.53-5.4H254l-1.23-8.43-.18-1.11-.12,1.11Z"/><path class="cls-3" d="M260.67,591.32c-.16,0-.24-.07-.24-.21l0-20.43a.21.21,0,0,1,.24-.24h2.7l5.07,11.82-.15-11.58c0-.16.09-.24.27-.24h3c.12,0,.18.08.18.24l0,20.46c0,.12,0,.18-.15.18h-2.64l-5.19-11,.21,10.8c0,.16-.09.24-.27.24Z"/><path class="cls-3" d="M277.32,591.32c-.08,0-.12,0-.12-.15v-17.1h-3.9a.13.13,0,0,1-.15-.15l0-3.36a.11.11,0,0,1,.12-.12h11.4c.1,0,.15,0,.15.12v3.36c0,.1,0,.15-.12.15H280.8l0,17.1c0,.1,0,.15-.12.15Z"/><path class="cls-3" d="M138.45,497.79q-.12,0-.12-.15l.06-20.61a.11.11,0,0,1,.12-.12h6.06a5.83,5.83,0,0,1,3,.79,6.09,6.09,0,0,1,2.17,2.13,6.08,6.08,0,0,1,.48,5,6.23,6.23,0,0,1-.78,1.5,5.21,5.21,0,0,1-.81.92,6.12,6.12,0,0,1,1.62,4.23l0,6.15a.13.13,0,0,1-.15.15h-3.39c-.08,0-.12,0-.12-.09v-6.21a2.62,2.62,0,0,0-.77-1.87,2.5,2.5,0,0,0-1.87-.79h-2l0,8.82q0,.15-.12.15ZM142,485.22h2.58a2.32,2.32,0,0,0,1.65-.69,2.3,2.3,0,0,0,0-3.33,2.3,2.3,0,0,0-1.67-.69H142Z"/><path class="cls-3" d="M158.19,498.09a5.51,5.51,0,0,1-3-.82,6.33,6.33,0,0,1-2.14-2.19,5.8,5.8,0,0,1-.81-3l0-9.51a5.8,5.8,0,0,1,.79-3,6.08,6.08,0,0,1,2.14-2.16,5.61,5.61,0,0,1,2.94-.81,5.51,5.51,0,0,1,2.94.81,6.17,6.17,0,0,1,2.11,2.16,5.8,5.8,0,0,1,.79,3l0,9.51a5.89,5.89,0,0,1-.79,3,6.21,6.21,0,0,1-2.13,2.19A5.51,5.51,0,0,1,158.19,498.09Zm0-3.63a2.08,2.08,0,0,0,1.58-.73,2.4,2.4,0,0,0,.67-1.67l0-9.51a2.4,2.4,0,0,0-.63-1.68,2.06,2.06,0,0,0-1.59-.69,2.14,2.14,0,0,0-1.59.67,2.32,2.32,0,0,0-.66,1.69v9.51a2.39,2.39,0,0,0,.66,1.69A2.1,2.1,0,0,0,158.19,494.46Z"/><path class="cls-3" d="M169,497.79q-.12,0-.12-.15v-17.1h-3.9a.13.13,0,0,1-.15-.15l0-3.36a.11.11,0,0,1,.12-.12h11.4c.1,0,.15,0,.15.12v3.36c0,.1,0,.15-.12.15h-3.93l0,17.1q0,.15-.12.15Z"/><path class="cls-3" d="M181,497.79q-.12,0-.12-.15v-17.1h-3.9a.13.13,0,0,1-.15-.15l0-3.36a.11.11,0,0,1,.12-.12h11.4c.1,0,.15,0,.15.12v3.36c0,.1,0,.15-.12.15h-3.93l0,17.1q0,.15-.12.15Z"/><path class="cls-3" d="M190.08,497.79q-.12,0-.12-.15L190,477a.11.11,0,0,1,.12-.12h9.63c.08,0,.12,0,.12.15v3.36a.11.11,0,0,1-.12.12h-6.15v4.68h6.15a.11.11,0,0,1,.12.12l0,3.39a.11.11,0,0,1-.12.12h-6.18v5.25h6.18q.12,0,.12.15v3.42a.11.11,0,0,1-.12.12Z"/><path class="cls-3" d="M202.68,497.79q-.12,0-.12-.15l.06-20.61a.11.11,0,0,1,.12-.12h6.06a5.83,5.83,0,0,1,3,.79,6.09,6.09,0,0,1,2.17,2.13,6.08,6.08,0,0,1,.48,5,6.23,6.23,0,0,1-.78,1.5,5.21,5.21,0,0,1-.81.92,6.12,6.12,0,0,1,1.62,4.23l0,6.15a.13.13,0,0,1-.15.15H211c-.08,0-.12,0-.12-.09v-6.21a2.62,2.62,0,0,0-.77-1.87,2.5,2.5,0,0,0-1.87-.79h-2l0,8.82q0,.15-.12.15Zm3.54-12.57h2.58a2.32,2.32,0,0,0,1.65-.69,2.3,2.3,0,0,0,0-3.33,2.3,2.3,0,0,0-1.67-.69h-2.58Z"/><path class="cls-3" d="M217.17,497.79a.13.13,0,0,1-.15-.15l.06-20.61a.11.11,0,0,1,.12-.12l5.61,0a5.6,5.6,0,0,1,3,.78,6.13,6.13,0,0,1,2.17,2.17,5.8,5.8,0,0,1,.81,3v8.61a6.12,6.12,0,0,1-.84,3.17,6.29,6.29,0,0,1-5.43,3.14Zm3.51-3.69h1.86a2.52,2.52,0,0,0,1.88-.78,2.56,2.56,0,0,0,.77-1.86v-8.64a2.28,2.28,0,0,0-.71-1.67,2.18,2.18,0,0,0-1.67-.67l-2.1,0Z"/><path class="cls-3" d="M229.26,497.64,233,477a.14.14,0,0,1,.15-.12h4.35a.14.14,0,0,1,.15.12l3.57,20.61q0,.15-.12.15h-3.33c-.08,0-.13,0-.15-.15l-.33-2.19h-4.08l-.33,2.19c0,.1-.07.15-.15.15h-3.33Q229.26,497.79,229.26,497.64Zm4.53-5.4h2.88l-1.23-8.43-.18-1.11-.12,1.11Z"/><path class="cls-3" d="M243.21,497.79q-.12,0-.12-.15l.06-20.61a.11.11,0,0,1,.12-.12h3.66a.26.26,0,0,1,.21.12l2.73,4,2.73-4a.26.26,0,0,1,.21-.12h3.69a.11.11,0,0,1,.12.12l.06,20.61q0,.15-.12.15h-3.39q-.12,0-.12-.15l0-15.3-3.15,4.56-3.12-4.56,0,15.3q0,.15-.12.15Z"/><path class="cls-3" d="M123.9,416.35a.13.13,0,0,1-.15-.15l.06-20.61a.11.11,0,0,1,.12-.12l5.61,0a5.6,5.6,0,0,1,3,.78,6.13,6.13,0,0,1,2.17,2.17,5.8,5.8,0,0,1,.81,3V410a6.12,6.12,0,0,1-.84,3.17,6.29,6.29,0,0,1-5.43,3.14Zm3.51-3.69h1.86a2.52,2.52,0,0,0,1.88-.78,2.56,2.56,0,0,0,.77-1.86v-8.64a2.28,2.28,0,0,0-.71-1.67,2.18,2.18,0,0,0-1.67-.67l-2.1,0Z"/><path class="cls-3" d="M138,416.35q-.12,0-.12-.15l0-20.61a.11.11,0,0,1,.12-.12h9.63c.08,0,.12,0,.12.15V399a.11.11,0,0,1-.12.12h-6.15v4.68h6.15a.11.11,0,0,1,.12.12l0,3.39a.11.11,0,0,1-.12.12h-6.18v5.25h6.18q.12,0,.12.15v3.42a.11.11,0,0,1-.12.12Z"/><path class="cls-3" d="M150.78,416.35c-.16,0-.24-.07-.24-.21l0-20.43a.21.21,0,0,1,.24-.24h2.7l5.07,11.82-.15-11.58c0-.16.09-.24.27-.24h3c.12,0,.18.08.18.24l0,20.46c0,.12,0,.18-.15.18H159l-5.19-11,.21,10.8c0,.16-.09.24-.27.24Z"/><path class="cls-3" d="M169,416.35q-.12,0-.12-.15l0-20.61c0-.08,0-.12.15-.12h3.33c.1,0,.15,0,.15.12l0,8.16H177v-8.16a.11.11,0,0,1,.12-.12h3.33q.15,0,.15.12l.06,20.61a.13.13,0,0,1-.15.15h-3.36a.13.13,0,0,1-.15-.15v-8.82h-4.5v8.82q0,.15-.12.15Z"/><path class="cls-3" d="M182.1,416.2l3.72-20.61a.14.14,0,0,1,.15-.12h4.35a.14.14,0,0,1,.15.12L194,416.2q0,.15-.12.15h-3.33c-.08,0-.13,0-.15-.15l-.33-2.19H186l-.33,2.19c0,.1-.07.15-.15.15h-3.33Q182.1,416.35,182.1,416.2Zm4.53-5.4h2.88l-1.23-8.43-.18-1.11-.12,1.11Z"/><path class="cls-3" d="M195,416.2l3.72-20.61a.14.14,0,0,1,.15-.12h4.35a.14.14,0,0,1,.15.12l3.57,20.61q0,.15-.12.15h-3.33c-.08,0-.13,0-.15-.15L203,414H198.9l-.33,2.19c0,.1-.07.15-.15.15h-3.33Q195,416.35,195,416.2Zm4.53-5.4h2.88l-1.23-8.43-.18-1.11-.12,1.11Z"/><path class="cls-3" d="M213.65,416.65a5.51,5.51,0,0,1-2.94-.81,6.13,6.13,0,0,1-2.12-2.17,5.94,5.94,0,0,1-.79-3v-9.51a5.82,5.82,0,0,1,.79-3,6.09,6.09,0,0,1,2.13-2.17,5.53,5.53,0,0,1,2.93-.81,5.73,5.73,0,0,1,3,.79,5.89,5.89,0,0,1,2.12,2.15,6,6,0,0,1,.78,3v1.38c0,.08-.05.12-.15.12H216a.1.1,0,0,1-.12-.12v-1.14a2.8,2.8,0,0,0-.65-1.89,2,2,0,0,0-1.6-.75,2.07,2.07,0,0,0-1.55.72,2.38,2.38,0,0,0-.67,1.68v9.51a2.39,2.39,0,0,0,.66,1.69,2.07,2.07,0,0,0,1.56.71,2.11,2.11,0,0,0,1.6-.69,2.41,2.41,0,0,0,.65-1.71v-1.47h-2.1a.13.13,0,0,1-.15-.15v-3.36a.13.13,0,0,1,.15-.15h5.61c.08,0,.12,0,.12.15v5a6,6,0,0,1-.79,3,6.13,6.13,0,0,1-2.12,2.17A5.57,5.57,0,0,1,213.65,416.65Z"/><path class="cls-3" d="M226.9,350.46l3.72-20.61a.14.14,0,0,1,.15-.12h4.35a.14.14,0,0,1,.15.12l3.57,20.61q0,.15-.12.15h-3.33c-.08,0-.13,0-.15-.15l-.33-2.19h-4.08l-.33,2.19c0,.1-.07.15-.15.15H227Q226.9,350.61,226.9,350.46Zm4.53-5.4h2.88l-1.23-8.43-.18-1.11-.12,1.11Z"/><path class="cls-3" d="M240.85,350.61q-.12,0-.12-.15l.06-20.61a.11.11,0,0,1,.12-.12h3.66a.26.26,0,0,1,.21.12l2.73,4,2.73-4a.26.26,0,0,1,.21-.12h3.69a.11.11,0,0,1,.12.12l.06,20.61q0,.15-.12.15h-3.39q-.12,0-.12-.15l0-15.3-3.15,4.56-3.12-4.56,0,15.3q0,.15-.12.15Z"/><path class="cls-3" d="M261.94,350.91a5.51,5.51,0,0,1-3-.82,6.21,6.21,0,0,1-2.13-2.19,5.88,5.88,0,0,1-.79-3V343.5a.13.13,0,0,1,.15-.15h3.36c.08,0,.12,0,.12.15v1.38a2.39,2.39,0,0,0,.66,1.69,2.13,2.13,0,0,0,3.18,0,2.41,2.41,0,0,0,.66-1.68,2.3,2.3,0,0,0-1.44-1.92l-1.5-.84L259.33,341a6.31,6.31,0,0,1-2.45-2.42,6.74,6.74,0,0,1-.79-3.29,5.7,5.7,0,0,1,.81-3,6,6,0,0,1,2.15-2.11,5.77,5.77,0,0,1,5.82,0,6,6,0,0,1,2.13,2.13,5.73,5.73,0,0,1,.79,3v2.46a.11.11,0,0,1-.12.12h-3.36a.11.11,0,0,1-.12-.12l0-2.46a2.31,2.31,0,0,0-.66-1.71,2.13,2.13,0,0,0-1.56-.66,2.1,2.1,0,0,0-1.59.71,2.35,2.35,0,0,0-.66,1.67,3,3,0,0,0,.42,1.65,4.05,4.05,0,0,0,1.53,1.26l.58.31.95.51.92.5.5.27a7.15,7.15,0,0,1,2.37,2.05,5,5,0,0,1,.87,3,6,6,0,0,1-2.92,5.23A5.66,5.66,0,0,1,261.94,350.91Z"/><path class="cls-3" d="M272.77,350.61q-.12,0-.12-.15v-17.1h-3.9a.13.13,0,0,1-.15-.15l0-3.36a.11.11,0,0,1,.12-.12h11.4c.1,0,.15,0,.15.12v3.36c0,.1,0,.15-.12.15h-3.93l0,17.1q0,.15-.12.15Z"/><path class="cls-3" d="M281.89,350.61q-.12,0-.12-.15l0-20.61a.11.11,0,0,1,.12-.12h9.63c.08,0,.12,0,.12.15v3.36a.11.11,0,0,1-.12.12H285.4V338h6.15a.11.11,0,0,1,.12.12l0,3.39a.11.11,0,0,1-.12.12H285.4v5.25h6.18q.12,0,.12.15v3.42a.11.11,0,0,1-.12.12Z"/><path class="cls-3" d="M294.49,350.61q-.12,0-.12-.15l.06-20.61a.11.11,0,0,1,.12-.12h6.06a5.83,5.83,0,0,1,3,.79,6.09,6.09,0,0,1,2.17,2.13,6.08,6.08,0,0,1,.48,5,6.23,6.23,0,0,1-.78,1.5,5.21,5.21,0,0,1-.81.92,6.12,6.12,0,0,1,1.62,4.23l0,6.15a.13.13,0,0,1-.15.15h-3.39c-.08,0-.12,0-.12-.09v-6.21a2.62,2.62,0,0,0-.77-1.87,2.5,2.5,0,0,0-1.87-.79h-2l0,8.82q0,.15-.12.15ZM298,338h2.58a2.32,2.32,0,0,0,1.65-.69,2.3,2.3,0,0,0,0-3.33,2.3,2.3,0,0,0-1.67-.69H298Z"/><path class="cls-3" d="M309,350.61a.13.13,0,0,1-.15-.15l.06-20.61a.11.11,0,0,1,.12-.12l5.61,0a5.6,5.6,0,0,1,3,.78,6.13,6.13,0,0,1,2.17,2.17,5.8,5.8,0,0,1,.81,3v8.61a6.12,6.12,0,0,1-.84,3.17,6.29,6.29,0,0,1-5.43,3.14Zm3.51-3.69h1.86a2.52,2.52,0,0,0,1.88-.78,2.56,2.56,0,0,0,.77-1.86v-8.64a2.28,2.28,0,0,0-.71-1.67,2.18,2.18,0,0,0-1.67-.67l-2.1,0Z"/><path class="cls-3" d="M321.06,350.46l3.72-20.61a.14.14,0,0,1,.15-.12h4.35a.14.14,0,0,1,.15.12L333,350.46q0,.15-.12.15h-3.33c-.08,0-.13,0-.15-.15l-.33-2.19H325l-.33,2.19c0,.1-.07.15-.15.15h-3.33Q321.06,350.61,321.06,350.46Zm4.53-5.4h2.88l-1.23-8.43-.18-1.11-.12,1.11Z"/><path class="cls-3" d="M335,350.61q-.12,0-.12-.15l.06-20.61a.11.11,0,0,1,.12-.12h3.66a.26.26,0,0,1,.21.12l2.73,4,2.73-4a.26.26,0,0,1,.21-.12h3.69a.11.11,0,0,1,.12.12l.06,20.61q0,.15-.12.15H345q-.12,0-.12-.15l0-15.3-3.15,4.56-3.12-4.56,0,15.3q0,.15-.12.15Z"/><path class="cls-3" d="M138.14,262.45c-.16,0-.24-.07-.24-.21l0-20.43a.21.21,0,0,1,.24-.24h2.7l5.07,11.82-.15-11.58c0-.16.09-.24.27-.24h3c.12,0,.18.08.18.24l0,20.46c0,.12,0,.18-.15.18h-2.64l-5.19-11,.21,10.8c0,.16-.09.24-.27.24Z"/><path class="cls-3" d="M157.34,262.75a5.52,5.52,0,0,1-3-.82,6.34,6.34,0,0,1-2.14-2.19,5.8,5.8,0,0,1-.81-3l0-9.51a5.8,5.8,0,0,1,.79-3,6.07,6.07,0,0,1,2.14-2.16,5.6,5.6,0,0,1,2.94-.81,5.5,5.5,0,0,1,2.94.81,6.16,6.16,0,0,1,2.11,2.16,5.8,5.8,0,0,1,.79,3l0,9.51a5.89,5.89,0,0,1-.79,3,6.22,6.22,0,0,1-2.13,2.19A5.52,5.52,0,0,1,157.34,262.75Zm0-3.63a2.08,2.08,0,0,0,1.58-.74,2.39,2.39,0,0,0,.67-1.66l0-9.51a2.4,2.4,0,0,0-.63-1.68,2.06,2.06,0,0,0-1.59-.69,2.14,2.14,0,0,0-1.59.68,2.32,2.32,0,0,0-.66,1.69v9.51a2.39,2.39,0,0,0,.66,1.69A2.1,2.1,0,0,0,157.34,259.12Z"/><path class="cls-3" d="M171,262.75a5.52,5.52,0,0,1-3-.82,6.34,6.34,0,0,1-2.14-2.19,5.8,5.8,0,0,1-.81-3l0-9.51a5.8,5.8,0,0,1,.79-3,6.07,6.07,0,0,1,2.14-2.16,5.6,5.6,0,0,1,2.94-.81,5.5,5.5,0,0,1,2.94.81,6.16,6.16,0,0,1,2.11,2.16,5.8,5.8,0,0,1,.79,3l0,9.51a5.89,5.89,0,0,1-.79,3,6.22,6.22,0,0,1-2.13,2.19A5.52,5.52,0,0,1,171,262.75Zm0-3.63a2.08,2.08,0,0,0,1.58-.74,2.39,2.39,0,0,0,.67-1.66l0-9.51a2.4,2.4,0,0,0-.63-1.68,2.06,2.06,0,0,0-1.59-.69,2.14,2.14,0,0,0-1.59.68,2.32,2.32,0,0,0-.66,1.69v9.51a2.39,2.39,0,0,0,.66,1.69A2.1,2.1,0,0,0,171,259.12Z"/><path class="cls-3" d="M179.33,262.45q-.12,0-.12-.15l.06-20.61a.11.11,0,0,1,.12-.12h6.06a5.83,5.83,0,0,1,3,.79,6.09,6.09,0,0,1,2.17,2.13,6.08,6.08,0,0,1,.48,5,6.23,6.23,0,0,1-.78,1.5,5.16,5.16,0,0,1-.81.91,6.12,6.12,0,0,1,1.62,4.23l0,6.15a.13.13,0,0,1-.15.15h-3.39c-.08,0-.12,0-.12-.09v-6.21a2.61,2.61,0,0,0-.77-1.88,2.5,2.5,0,0,0-1.87-.79h-2l0,8.82q0,.15-.12.15Zm3.54-12.57h2.58a2.32,2.32,0,0,0,1.65-.69,2.3,2.3,0,0,0,0-3.33,2.3,2.3,0,0,0-1.67-.69h-2.58Z"/><path class="cls-3" d="M193.82,262.45a.13.13,0,0,1-.15-.15l.06-20.61a.11.11,0,0,1,.12-.12l5.61,0a5.6,5.6,0,0,1,3,.78,6.13,6.13,0,0,1,2.17,2.17,5.8,5.8,0,0,1,.81,3v8.61a6.12,6.12,0,0,1-.84,3.17,6.29,6.29,0,0,1-5.43,3.13Zm3.51-3.69h1.86a2.53,2.53,0,0,0,1.88-.78,2.56,2.56,0,0,0,.77-1.86v-8.64a2.28,2.28,0,0,0-.71-1.67,2.18,2.18,0,0,0-1.67-.67l-2.1,0Z"/><path class="cls-3" d="M208.07,253.78c-.1,0-.15,0-.15-.12v-3.27c0-.08,0-.12.15-.12h5.79c.1,0,.15,0,.15.12v3.27q0,.12-.15.12Z"/><path class="cls-3" d="M217,262.45q-.12,0-.12-.15l0-20.61c0-.08,0-.12.15-.12h3.33c.1,0,.15,0,.15.12l0,8.16H225v-8.16a.11.11,0,0,1,.12-.12h3.33q.15,0,.15.12l.06,20.61a.13.13,0,0,1-.15.15H225.2a.13.13,0,0,1-.15-.15v-8.82h-4.5v8.82q0,.15-.12.15Z"/><path class="cls-3" d="M236.72,262.75a5.52,5.52,0,0,1-3-.82,6.34,6.34,0,0,1-2.14-2.19,5.8,5.8,0,0,1-.81-3l0-9.51a5.8,5.8,0,0,1,.79-3,6.07,6.07,0,0,1,2.14-2.16,5.6,5.6,0,0,1,2.94-.81,5.5,5.5,0,0,1,2.94.81,6.16,6.16,0,0,1,2.11,2.16,5.8,5.8,0,0,1,.79,3l0,9.51a5.89,5.89,0,0,1-.79,3,6.22,6.22,0,0,1-2.13,2.19A5.52,5.52,0,0,1,236.72,262.75Zm0-3.63a2.08,2.08,0,0,0,1.58-.74,2.39,2.39,0,0,0,.67-1.66l0-9.51a2.4,2.4,0,0,0-.63-1.68,2.06,2.06,0,0,0-1.59-.69,2.14,2.14,0,0,0-1.59.68,2.32,2.32,0,0,0-.66,1.69v9.51a2.39,2.39,0,0,0,.66,1.69A2.1,2.1,0,0,0,236.72,259.12Z"/><path class="cls-3" d="M245,262.45q-.12,0-.12-.15l0-20.58a.13.13,0,0,1,.15-.15h3.33a.13.13,0,0,1,.15.15l0,17h6.18a.13.13,0,0,1,.15.15v3.39a.13.13,0,0,1-.15.15Z"/><path class="cls-3" d="M256.9,262.45q-.12,0-.12-.15l0-20.58a.13.13,0,0,1,.15-.15h3.33a.13.13,0,0,1,.15.15l0,17h6.18a.13.13,0,0,1,.15.15v3.39a.13.13,0,0,1-.15.15Z"/><path class="cls-3" d="M267.67,262.3l3.72-20.61a.14.14,0,0,1,.15-.12h4.35a.14.14,0,0,1,.15.12l3.57,20.61q0,.15-.12.15h-3.33c-.08,0-.13,0-.15-.15l-.33-2.19H271.6l-.33,2.19c0,.1-.07.15-.15.15h-3.33Q267.67,262.45,267.67,262.3Zm4.53-5.4h2.88l-1.23-8.43-.18-1.11-.12,1.11Z"/><path class="cls-3" d="M281.77,262.45c-.16,0-.24-.07-.24-.21l0-20.43a.21.21,0,0,1,.24-.24h2.7l5.07,11.82-.15-11.58c0-.16.09-.24.27-.24h3c.12,0,.18.08.18.24l0,20.46c0,.12,0,.18-.15.18H290l-5.19-11,.21,10.8c0,.16-.09.24-.27.24Z"/><path class="cls-3" d="M295.57,262.45a.13.13,0,0,1-.15-.15l.06-20.61a.11.11,0,0,1,.12-.12l5.61,0a5.6,5.6,0,0,1,3,.78,6.13,6.13,0,0,1,2.17,2.17,5.8,5.8,0,0,1,.81,3v8.61a6.12,6.12,0,0,1-.84,3.17,6.29,6.29,0,0,1-5.43,3.13Zm3.51-3.69h1.86a2.53,2.53,0,0,0,1.88-.78,2.56,2.56,0,0,0,.77-1.86v-8.64a2.28,2.28,0,0,0-.71-1.67,2.18,2.18,0,0,0-1.67-.67l-2.1,0Z"/><path class="cls-3" d="M295,397.69c-.08,0-.12,0-.12-.15l.06-20.61a.11.11,0,0,1,.12-.12h3.66a.26.26,0,0,1,.21.12l2.73,4,2.73-4a.26.26,0,0,1,.21-.12h3.69a.11.11,0,0,1,.12.12l.06,20.61c0,.1,0,.15-.12.15H305c-.08,0-.12,0-.12-.15l0-15.3-3.15,4.56-3.12-4.56,0,15.3c0,.1,0,.15-.12.15Z"/><path class="cls-3" d="M311.15,397.69a.13.13,0,0,1-.15-.15l0-20.61a.11.11,0,0,1,.12-.12h3.36a.11.11,0,0,1,.12.12l0,20.61c0,.1,0,.15-.12.15Z"/><path class="cls-3" d="M317.45,397.69a.13.13,0,0,1-.15-.15l.06-20.61a.11.11,0,0,1,.12-.12l5.61,0a5.6,5.6,0,0,1,3,.78,6.12,6.12,0,0,1,2.17,2.17,5.8,5.8,0,0,1,.81,3v8.61a6.12,6.12,0,0,1-.84,3.17,6.29,6.29,0,0,1-5.43,3.13ZM321,394h1.86a2.52,2.52,0,0,0,1.88-.78,2.56,2.56,0,0,0,.77-1.86v-8.64a2.28,2.28,0,0,0-.71-1.66,2.18,2.18,0,0,0-1.67-.68l-2.1,0Z"/><path class="cls-3" d="M331.61,397.69a.13.13,0,0,1-.15-.15l.06-20.61a.11.11,0,0,1,.12-.12l5.61,0a5.6,5.6,0,0,1,3,.78,6.12,6.12,0,0,1,2.17,2.17,5.8,5.8,0,0,1,.81,3v8.61a6.12,6.12,0,0,1-.84,3.17,6.29,6.29,0,0,1-5.43,3.13Zm3.51-3.69H337a2.52,2.52,0,0,0,1.88-.78,2.56,2.56,0,0,0,.77-1.86v-8.64a2.28,2.28,0,0,0-.71-1.66,2.18,2.18,0,0,0-1.67-.68l-2.1,0Z"/><path class="cls-3" d="M345.74,397.69c-.08,0-.12,0-.12-.15l0-20.61a.11.11,0,0,1,.12-.12h9.63c.08,0,.12,0,.12.15v3.36a.11.11,0,0,1-.12.12h-6.15v4.68h6.15a.11.11,0,0,1,.12.12l0,3.39a.11.11,0,0,1-.12.12h-6.18V394h6.18c.08,0,.12.05.12.15v3.42a.11.11,0,0,1-.12.12Z"/><path class="cls-3" d="M358.49,397.69c-.16,0-.24-.07-.24-.21l0-20.43a.21.21,0,0,1,.24-.24h2.7l5.07,11.82L366.08,377c0-.16.09-.24.27-.24h3c.12,0,.18.08.18.24l0,20.46c0,.12,0,.18-.15.18h-2.64l-5.19-11,.21,10.8c0,.16-.09.24-.27.24Z"/><path class="cls-3" d="M372.38,389c-.1,0-.15,0-.15-.12v-3.27c0-.08,0-.12.15-.12h5.79c.1,0,.15,0,.15.12v3.27q0,.12-.15.12Z"/><path class="cls-3" d="M278.06,433.69c-.16,0-.24-.07-.24-.21l0-20.43a.21.21,0,0,1,.24-.24h2.7l5.07,11.82L285.65,413c0-.16.09-.24.27-.24h3c.12,0,.18.08.18.24l0,20.46c0,.12,0,.18-.15.18h-2.64l-5.19-11,.21,10.8c0,.16-.09.24-.27.24Z"/><path class="cls-3" d="M291.83,433.69c-.08,0-.12,0-.12-.15l0-20.61a.11.11,0,0,1,.12-.12h9.63c.08,0,.12,0,.12.15v3.36a.11.11,0,0,1-.12.12h-6.15v4.68h6.15a.11.11,0,0,1,.12.12l0,3.39a.11.11,0,0,1-.12.12h-6.18V430h6.18c.08,0,.12.05.12.15v3.42a.11.11,0,0,1-.12.12Z"/><path class="cls-3" d="M304.46,433.69a.13.13,0,0,1-.15-.15l.06-20.61a.11.11,0,0,1,.12-.12l5.61,0a5.6,5.6,0,0,1,3,.78,6.12,6.12,0,0,1,2.17,2.17,5.8,5.8,0,0,1,.81,3v8.61a6.12,6.12,0,0,1-.84,3.17,6.29,6.29,0,0,1-5.43,3.13ZM308,430h1.86a2.52,2.52,0,0,0,1.88-.78,2.56,2.56,0,0,0,.77-1.86v-8.64a2.28,2.28,0,0,0-.71-1.66,2.18,2.18,0,0,0-1.67-.68l-2.1,0Z"/><path class="cls-3" d="M318.59,433.69c-.08,0-.12,0-.12-.15l0-20.61a.11.11,0,0,1,.12-.12h9.63c.08,0,.12,0,.12.15v3.36a.11.11,0,0,1-.12.12H322.1v4.68h6.15a.11.11,0,0,1,.12.12l0,3.39a.11.11,0,0,1-.12.12H322.1V430h6.18c.08,0,.12.05.12.15v3.42a.11.11,0,0,1-.12.12Z"/><path class="cls-3" d="M331.19,433.69c-.08,0-.12,0-.12-.15l.06-20.61a.11.11,0,0,1,.12-.12h6.06a5.82,5.82,0,0,1,3,.79,6.09,6.09,0,0,1,2.17,2.13,6.08,6.08,0,0,1,.48,5,6.22,6.22,0,0,1-.78,1.5,5.17,5.17,0,0,1-.81.92,6.12,6.12,0,0,1,1.62,4.23l0,6.15a.13.13,0,0,1-.15.15h-3.39c-.08,0-.12,0-.12-.09v-6.21a2.61,2.61,0,0,0-.77-1.87,2.5,2.5,0,0,0-1.87-.8h-2l0,8.82c0,.1,0,.15-.12.15Zm3.54-12.57h2.58a2.32,2.32,0,0,0,1.65-.69,2.3,2.3,0,0,0,0-3.33,2.3,2.3,0,0,0-1.67-.69h-2.58Z"/><path class="cls-3" d="M345.65,433.69c-.08,0-.12,0-.12-.15l0-20.58a.13.13,0,0,1,.15-.15H349a.13.13,0,0,1,.15.15l0,17h6.18a.13.13,0,0,1,.15.15v3.39a.13.13,0,0,1-.15.15Z"/><path class="cls-3" d="M356.42,433.54l3.72-20.61a.14.14,0,0,1,.15-.12h4.35a.14.14,0,0,1,.15.12l3.57,20.61c0,.1,0,.15-.12.15h-3.33c-.08,0-.13,0-.15-.15l-.33-2.19h-4.08l-.33,2.19c0,.1-.07.15-.15.15h-3.33C356.46,433.69,356.42,433.64,356.42,433.54Zm4.53-5.4h2.88l-1.23-8.43-.18-1.11-.12,1.11Z"/><path class="cls-3" d="M370.52,433.69c-.16,0-.24-.07-.24-.21l0-20.43a.21.21,0,0,1,.24-.24h2.7l5.07,11.82L378.11,413c0-.16.09-.24.27-.24h3c.12,0,.18.08.18.24l0,20.46c0,.12,0,.18-.15.18h-2.64l-5.19-11,.21,10.8c0,.16-.09.24-.27.24Z"/><path class="cls-3" d="M384.32,433.69a.13.13,0,0,1-.15-.15l.06-20.61a.11.11,0,0,1,.12-.12l5.61,0a5.6,5.6,0,0,1,3,.78,6.12,6.12,0,0,1,2.17,2.17,5.8,5.8,0,0,1,.81,3v8.61a6.12,6.12,0,0,1-.84,3.17,6.29,6.29,0,0,1-5.43,3.13Zm3.51-3.69h1.86a2.52,2.52,0,0,0,1.88-.78,2.56,2.56,0,0,0,.77-1.86v-8.64a2.28,2.28,0,0,0-.71-1.66,2.18,2.18,0,0,0-1.67-.68l-2.1,0Z"/></g></g></svg>