<?xml version="1.0" encoding="utf-8"?>
<!-- Generator: Adobe Illustrator 23.0.1, SVG Export Plug-In . SVG Version: 6.00 Build 0)  -->
<svg version="1.1" id="Layer_1" xmlns="http://www.w3.org/2000/svg" xmlns:xlink="http://www.w3.org/1999/xlink" x="0px" y="0px"
	 viewBox="0 0 500 500" style="enable-background:new 0 0 500 500;" xml:space="preserve">
<style type="text/css">
	.st0{fill:#FFF33D;}
	.st1{fill:#FFFFFF;}
</style>
<title>instagram</title>
<rect class="st0" width="500" height="500"/>
<g>
	<path class="st1" d="M390,120.8H110c-17.8,0-32.3,14.5-32.3,32.3V347c0,17.8,14.5,32.3,32.3,32.3h280c17.8,0,32.3-14.5,32.3-32.3
		V153.1C422.3,135.2,407.8,120.8,390,120.8z M390,153.1v27.5c-15.1,12.3-39.2,31.4-90.6,71.7c-11.3,8.9-33.8,30.3-49.4,30.1
		c-15.6,0.3-38.1-21.2-49.4-30.1c-51.4-40.3-75.5-59.4-90.6-71.7v-27.5L390,153.1L390,153.1z M110,346.9V222
		c15.4,12.3,37.3,29.5,70.6,55.6c14.7,11.6,40.5,37.1,69.4,37c28.8,0.2,54.2-25,69.4-37c33.3-26.1,55.2-43.3,70.6-55.6v124.9H110z"
		/>
</g>
</svg>
