<?xml version="1.0" encoding="utf-8"?>
<!-- Generator: Adobe Illustrator 23.0.1, SVG Export Plug-In . SVG Version: 6.00 Build 0)  -->
<svg version="1.1" id="Layer_1" xmlns="http://www.w3.org/2000/svg" xmlns:xlink="http://www.w3.org/1999/xlink" x="0px" y="0px"
	 viewBox="0 0 500 500" style="enable-background:new 0 0 500 500;" xml:space="preserve">
<style type="text/css">
	.st0{fill:#FFF33D;}
	.st1{fill:#FFFFFF;}
</style>
<rect class="st0" width="500" height="500"/>
<g id="Laag_2">
	<g id="Laag_2-2">
		<path class="st1" d="M275.7,118.7c-0.9,0.1-1.9,0.3-2.7,0.4c-10.4,0.9-20.4,4.4-29,10.2c-16.2,11.3-23.7,27.5-25,46.5
			c-0.8,11.4-0.4,22.9-0.5,34.3c0,0.8,0,1.7,0,2.7h-33c-4.7,0.2-6.5,2-6.5,6.6c0,13.6,0,27.3,0,40.9c0,4.6,1.9,6.5,6.5,6.5h33v3
			c0,34.9,0,69.7,0,104.6c0,4.7,2,6.6,6.6,6.7h41.8c5.2,0,7-1.8,7-7.1c0-34.8,0-69.6,0-104.4V267h38.7c4.7,0,6.6-1.9,6.6-6.6
			c0-13.6,0-27.1,0-40.7c0-4.7-1.9-6.5-6.5-6.5h-38.5c-0.2-0.4-0.3-0.5-0.3-0.7c0-9.8-0.3-19.6,0.2-29.3c0.4-8.6,4.7-12.8,13.3-13.3
			c9-0.5,18.1-0.3,27.2-0.4c4.4,0,6.3-1.9,6.3-6.4c0-12.5,0-24.9,0-37.4c0.3-3-1.4-5.8-4.1-6.9"/>
		<path class="st1" d="M316.9,118.7c2.8,1.2,4.4,4,4,7c0,12.5,0,24.9,0,37.4c0,4.5-1.9,6.4-6.3,6.4c-9,0-18.1,0-27.2,0.4
			c-8.6,0.5-12.9,4.7-13.3,13.3c-0.4,9.7-0.1,19.5-0.2,29.3c0,0,0,0.2,0.3,0.7h38.6c4.6,0,6.5,1.9,6.5,6.5c0,13.6,0,27.1,0,40.7
			c0,4.7-1.9,6.6-6.6,6.6H274v2.7c0,34.8,0,69.6,0,104.4c0,5.4-1.8,7.1-7,7.1h-41.8c-4.7,0-6.6-2-6.6-6.7c0-34.9,0-69.7,0-104.6v-3
			h-33c-4.6,0-6.5-1.9-6.5-6.5c0-13.6,0-27.3,0-40.9c0-4.6,1.9-6.5,6.5-6.5h33c0-1.1,0-2,0-2.7c0-11.4-0.3-22.9,0.5-34.3
			c1.3-19.1,8.8-35.4,25-46.7c8.6-5.9,18.6-9.4,29-10.4c0.9,0,1.9-0.3,2.7-0.4h41.1V118.7z"/>
	</g>
</g>
</svg>
