<svg xmlns="http://www.w3.org/2000/svg" viewBox="0 0 52.13 96.42"><defs><style>.cls-1{fill:#fff;}</style></defs><title>facebookMiddel 27@4x</title><g id="Laag_2" data-name="Laag 2"><g id="Laag_2-2" data-name="Laag 2"><path class="cls-1" d="M35.54,0c-.34.05-.68.12-1,.16A22.53,22.53,0,0,0,23.88,3.91C17.92,8.05,15.17,14,14.69,21c-.29,4.19-.13,8.4-.17,12.61,0,.31,0,.63,0,1H2.39C.68,34.68,0,35.35,0,37.05q0,7.51,0,15c0,1.68.71,2.38,2.4,2.38H14.51v1.1q0,19.2,0,38.41c0,1.72.72,2.44,2.43,2.45H32.29c1.92,0,2.58-.67,2.58-2.62q0-19.16,0-38.33v-1H49.09c1.73,0,2.44-.7,2.44-2.44q0-7.47,0-14.95c0-1.71-.69-2.4-2.38-2.4H35c-.06-.14-.1-.19-.1-.24,0-3.59-.1-7.18.06-10.76.14-3.14,1.72-4.7,4.87-4.87,3.31-.18,6.64-.12,10-.15,1.63,0,2.33-.71,2.33-2.36,0-4.58,0-9.16,0-13.74A2.45,2.45,0,0,0,50.64,0"/><path class="cls-1" d="M50.64,0a2.45,2.45,0,0,1,1.48,2.56c0,4.58,0,9.16,0,13.74,0,1.65-.69,2.34-2.33,2.36-3.32,0-6.64,0-10,.15-3.15.17-4.73,1.73-4.87,4.87-.16,3.58-.05,7.17-.06,10.76,0,0,0,.09.1.24H49.15c1.69,0,2.38.69,2.38,2.4q0,7.47,0,14.95c0,1.74-.71,2.44-2.44,2.44H34.87v1q0,19.16,0,38.33c0,2-.66,2.62-2.58,2.62H16.95c-1.71,0-2.43-.72-2.43-2.45q0-19.2,0-38.41v-1.1H2.4c-1.69,0-2.4-.71-2.4-2.38q0-7.51,0-15c0-1.7.68-2.37,2.39-2.37H14.51c0-.4,0-.72,0-1,0-4.2-.11-8.42.17-12.61.48-7,3.23-13,9.19-17.13A22.53,22.53,0,0,1,34.51.16c.34,0,.68-.11,1-.16Z"/></g></g></svg>