<svg xmlns="http://www.w3.org/2000/svg" viewBox="0 0 125.14 125.14"><defs><style>.cls-1,.cls-2{fill:#fff;}.cls-1{stroke:#fff;stroke-linecap:round;stroke-miterlimit:10;stroke-width:3.37px;}</style></defs><title>gerichtschietenMiddel 14@4x</title><g id="Laag_2" data-name="Laag 2"><g id="Laag_2-2" data-name="Laag 2"><path class="cls-1" d="M62.57,1.68a60.89,60.89,0,1,0,60.89,60.89A60.89,60.89,0,0,0,62.57,1.68Zm0,116.21A55.33,55.33,0,1,1,117.9,62.57,55.33,55.33,0,0,1,62.57,117.9Z"/><path class="cls-2" d="M62.57,18.41a44.16,44.16,0,1,0,44.16,44.16A44.16,44.16,0,0,0,62.57,18.41Zm0,74.84A30.68,30.68,0,1,1,93.25,62.57,30.68,30.68,0,0,1,62.57,93.25Z"/><path class="cls-2" d="M62.57,44.82A17.75,17.75,0,1,0,80.32,62.57,17.75,17.75,0,0,0,62.57,44.82Zm9.31,19.56a.85.85,0,0,1-.61.37l-2.37.33-1.67.25-.11,0,.13.42.93,2.83a.66.66,0,0,1-.76.87c-.38-.08-.75-.18-1.13-.28l-1.86-.52a.09.09,0,0,0-.11,0l-1.22,1.56c-.14.17-.27.35-.42.51a.82.82,0,0,1-.27.19.27.27,0,0,1-.34-.14c-.1-.17-.18-.35-.27-.53l-.66-1.39-1.91,1.9a.66.66,0,0,1-.2.13.36.36,0,0,1-.53-.23,2.12,2.12,0,0,1-.1-.54c0-.78-.07-1.55-.1-2.33,0-.05,0-.1,0-.17l-.43,0-2.75-.1a1.42,1.42,0,0,1-.59-.13.39.39,0,0,1-.21-.55,1.25,1.25,0,0,1,.2-.31l.9-1,1.2-1.29,0,0L56.32,64,54.53,62.7c-.37-.28-.75-.55-1.11-.84a.78.78,0,0,1-.17-1.1.85.85,0,0,1,.61-.37l2.37-.33,1.67-.25.11,0-.13-.42L57,56.55a.66.66,0,0,1,.76-.87c.38.08.75.18,1.13.28l1.86.52a.09.09,0,0,0,.11,0L62,54.88c.14-.17.27-.35.42-.51a.82.82,0,0,1,.27-.19.27.27,0,0,1,.34.14c.1.17.18.35.27.53L64,56.23l1.91-1.9a.65.65,0,0,1,.2-.13.36.36,0,0,1,.53.23,2.13,2.13,0,0,1,.1.54c0,.78.07,1.55.1,2.33,0,.05,0,.1,0,.17l.43,0,2.75.1a1.42,1.42,0,0,1,.59.13.39.39,0,0,1,.21.55,1.24,1.24,0,0,1-.2.31l-.9,1-1.2,1.29,0,0,.33.25,1.79,1.33c.37.28.75.55,1.11.84A.78.78,0,0,1,71.88,64.38Z"/></g></g></svg>