<?xml version="1.0" encoding="utf-8"?>
<!-- Generator: Adobe Illustrator 23.0.1, SVG Export Plug-In . SVG Version: 6.00 Build 0)  -->
<svg version="1.1" id="Layer_1" xmlns="http://www.w3.org/2000/svg" xmlns:xlink="http://www.w3.org/1999/xlink" x="0px" y="0px"
	 viewBox="0 0 751.2 197.1" style="enable-background:new 0 0 751.2 197.1;" xml:space="preserve">
<style type="text/css">
	.st0{fill:#B9E2F7;}
</style>
<title>Middel 7@4x</title>
<g id="Laag_2">
	<g id="Laag_1-2">
		<polygon class="st0" points="0,186.9 61.2,186.9 61.2,149.3 95.7,149.3 95.7,88.5 142.4,88.5 142.4,0 161.6,0 199.9,12.3 
			199.9,125.1 206.2,125.1 206.2,179.9 221.5,179.9 221.5,130.6 226.6,130.6 226.6,121.2 231.3,121.2 231.3,104.2 243.2,104.2 
			243.2,61.2 278.1,61.2 278.1,55.7 290,55.7 290,119.9 307.9,119.9 307.9,164.2 335.6,164.2 335.6,157.9 343.8,157.9 343.8,135.7 
			345.7,135.7 345.7,122.2 349.5,122.2 349.5,120 353.5,120 353.5,122 357.5,122 357.5,135.8 359.6,135.8 359.6,157.9 367.4,157.9 
			367.4,164.2 371.5,164.2 371.5,144 373.5,144 373.5,116.4 375.3,116.4 375.3,102.3 379.3,102.3 379.3,96.1 385.2,96.1 385.2,82.3 
			389.3,82.3 389.3,96.1 395.3,96.1 395.3,102.1 399.1,102.1 399.1,116.1 401.2,116.1 401.2,144 402.7,144 402.7,163.7 405.3,163.7 
			405.3,122.2 411.3,122.2 411.3,114.1 445.1,114.1 445.1,120.2 447.1,120.2 447.1,124.1 449,124.1 449,130.1 451,130.1 451,136.1 
			462.7,136.1 462.7,170.9 468.8,170.9 468.8,167.4 470.9,167.4 470.9,171 475,171 475,136.2 506.8,136.2 506.8,171.9 512.7,171.9 
			512.7,169.9 512.7,168 516.8,168 516.8,166.1 518.7,166.1 518.7,170 520.9,170 528.8,170 528.8,133.8 562.4,133.8 562.4,155.8 
			584.4,155.8 584.4,96.4 610.4,96.4 610.4,110.2 616.3,110.2 616.3,155.9 618.2,155.9 618.2,158 624.3,158 624.3,161.8 
			626.1,161.8 626.1,165.7 632.3,165.7 632.3,127.9 634.3,127.9 634.3,108.2 636.3,108.2 636.3,104.2 638.1,104.2 638.1,102.1 
			642.2,102.1 642.2,100.2 644.2,100.2 644.2,90.2 648.1,90.2 648.1,100.2 650.1,100.2 650.1,102.2 654,102.2 654,104.3 656,104.3 
			656,108.2 657.8,108.2 657.8,127.9 660.2,127.9 660.2,165.9 672.4,165.9 672.4,162.9 685.9,162.9 685.9,165.9 691.8,165.9 
			691.8,178 699.9,178 699.9,136.9 706.9,136.9 716.1,127.7 716.1,120.2 723,120.2 723,127.6 731.8,136.3 739.4,136.3 739.4,187.1 
			741.6,187.1 741.6,189.8 745.4,189.8 745.4,193.8 751.2,193.8 751.2,197.1 0,197.1 		"/>
	</g>
</g>
</svg>
