<?xml version="1.0" encoding="utf-8"?>
<!-- Generator: Adobe Illustrator 23.0.1, SVG Export Plug-In . SVG Version: 6.00 Build 0)  -->
<svg version="1.1" id="Layer_1" xmlns="http://www.w3.org/2000/svg" xmlns:xlink="http://www.w3.org/1999/xlink" x="0px" y="0px"
	 viewBox="0 0 750 71.1" style="enable-background:new 0 0 750 71.1;" xml:space="preserve">
<style type="text/css">
	.st0{fill:#B9E2F7;}
</style>
<title>Middel 8@4x</title>
<g id="Laag_2">
	<g id="Laag_2-2">
		<polygon class="st0" points="0,71.1 750,71.1 750,66 722.8,66 722.8,46.7 707.3,39 707.3,25.5 715.2,25.5 703,9.6 686.2,9.6 
			686.2,38.9 672.7,38.9 672.7,28.8 680.7,28.8 658.5,14.2 630,33.9 637.7,33.9 637.7,62.2 620.4,62.2 620.4,51.9 627,51.9 
			603,41.8 603,32.9 610.3,32.9 586.3,23.3 566.5,35.7 574.3,35.7 574.3,52.4 568.1,52.4 568.1,62 560.8,62 560.8,40.3 566.3,40.3 
			544.1,26.6 514.9,43.5 521.9,43.5 521.9,62.2 509.9,62.2 509.9,44.4 501.9,34.8 494.6,34.8 494.6,0 465.8,8.6 471.1,8.6 
			471.1,19.8 453.9,19.8 438.2,35.5 446.9,35.5 446.9,62.4 440.5,62.4 440.5,57.3 434.5,57.3 434.5,52 427,52 427,47.6 419.3,47.6 
			419.3,31.2 423.7,31.2 397.7,20.3 373.2,31.2 378.3,31.2 378.3,48 370.6,48 359.6,40.6 359.6,25.1 367.5,25.1 352.4,10 336.8,10 
			336.8,38.8 324.1,38.8 324.1,28.7 330.2,28.7 309.5,15 281.5,33.7 288.1,33.7 288.1,62.2 272.7,62.2 272.7,51.1 253.3,42.3 
			253.3,32.6 259.7,32.6 237.9,24.9 218,35.5 224.4,35.5 224.4,54.7 219.6,54.7 219.6,63 212.8,63 212.8,39.9 217.6,39.9 194,27.5 
			164.7,43.7 173.5,43.7 173.5,61.7 162.3,61.7 162.3,46.3 151.5,35.5 146.8,35.5 146.8,0 118.3,9.8 122.5,9.8 122.5,19.6 
			104.2,19.6 89.1,35.5 98.7,35.5 98.7,62 90.6,62 90.6,58.2 82.8,58.2 82.8,50.8 75.1,50.8 75.1,46.7 69.6,46.7 69.6,31.2 
			74.1,31.2 51,21 25.3,31.2 32.9,31.2 32.9,42.9 17.4,56 23.1,56 23.1,65.9 0,65.9 		"/>
	</g>
</g>
</svg>
