<svg id="Layer_1" data-name="Layer 1" xmlns="http://www.w3.org/2000/svg" viewBox="0 0 500 500"><defs><style>.cls-1{fill:#ffd00a;}.cls-2{fill:#fff;}</style></defs><title>instagram</title><rect class="cls-1" width="500" height="500"/><g id="Laag_2" data-name="Laag 2"><g id="Laag_2-2" data-name="Laag 2-2"><path class="cls-2" d="M120.87,317.07V182.9c0-.56.26-1.13.32-1.72A67,67,0,0,1,171,123.06c3.83-1,8-1.48,11.93-2.21H317.08c1.41.22,2.7.46,4.24.65a67.11,67.11,0,0,1,57.81,65.85V312.51a63,63,0,0,1-.8,10,67.07,67.07,0,0,1-66.7,56.66h-123a48.61,48.61,0,0,1-6.61-.3A66.94,66.94,0,0,1,123,328.8C122.05,325,121.57,321,120.87,317.07ZM143,250v62.24a44.89,44.89,0,0,0,44.82,45H312a45,45,0,0,0,45.22-44.73V188.19A44.9,44.9,0,0,0,312.63,143H188.26A44.76,44.76,0,0,0,143,187.26v1.23Q143,219.24,143,250Z"/><path class="cls-2" d="M182.92,120.85c-4,.73-8.1,1.21-11.95,2.21a67,67,0,0,0-49.78,58.14,10.91,10.91,0,0,1-.32,1.73"/><path class="cls-2" d="M250.18,314.34A64.26,64.26,0,1,1,314.36,250v.08A64.34,64.34,0,0,1,250.18,314.34Zm-44.71-64.29a44.68,44.68,0,1,0,44.76-44.59h-.16A44.7,44.7,0,0,0,205.47,250.05Z"/><path class="cls-2" d="M336.21,178.67a14.79,14.79,0,1,1-14.73-14.84h0a14.7,14.7,0,0,1,14.7,14.7Z"/></g></g></svg>