<svg xmlns="http://www.w3.org/2000/svg" viewBox="0 0 95.73 95.73"><defs><style>.cls-1{fill:#fff;}</style></defs><title>instagramMiddel 26@4x</title><g id="Laag_2" data-name="Laag 2"><g id="Laag_2-2" data-name="Laag 2"><path class="cls-1" d="M0,72.73V23c0-.21.1-.42.12-.64A24.85,24.85,0,0,1,18.58.82C20,.45,21.53.27,23,0H72.73c.52.08,1,.17,1.57.24A24.88,24.88,0,0,1,95.73,24.65q0,23.2,0,46.39a23.33,23.33,0,0,1-.3,3.7,24.85,24.85,0,0,1-24.72,21H25.1c-.82,0-1.64,0-2.45-.11A24.81,24.81,0,0,1,.8,77.08C.44,75.66.26,74.18,0,72.73ZM8.21,47.87c0,7.69,0,15.38,0,23.07A16.64,16.64,0,0,0,24.92,87.61q23,0,45.93,0A16.67,16.67,0,0,0,87.61,70.83q0-22.93,0-45.87A16.64,16.64,0,0,0,70.85,8.21q-22.93,0-45.87,0A16.59,16.59,0,0,0,8.21,25.07Q8.2,36.47,8.21,47.87Z"/><path class="cls-1" d="M23,0c-1.48.27-3,.45-4.43.82A24.85,24.85,0,0,0,.12,22.37c0,.21-.08.42-.12.64"/><path class="cls-1" d="M47.93,71.72A23.82,23.82,0,1,1,71.72,47.9,23.85,23.85,0,0,1,47.93,71.72ZM31.36,47.89A16.56,16.56,0,1,0,47.89,31.36,16.57,16.57,0,0,0,31.36,47.89Z"/><path class="cls-1" d="M79.82,21.43a5.48,5.48,0,1,1-5.45-5.5A5.45,5.45,0,0,1,79.82,21.43Z"/></g></g></svg>