<svg xmlns="http://www.w3.org/2000/svg" viewBox="0 0 78.64 93.68"><defs><style>.cls-1{fill:#abdaed;}</style></defs><title>kaartnederlandMiddel 29@4x</title><g id="Laag_2" data-name="Laag 2"><g id="Laag_2-2" data-name="Laag 2"><path class="cls-1" d="M18.23,64.24c-.4-.3-.82-.62-1.26-.92a5.59,5.59,0,0,0-1.41-.89,3.31,3.31,0,0,1-2.4-2.66c0-.09,0-.19,0-.19a19.43,19.43,0,0,1-2.25.18,1.39,1.39,0,0,1-.81-.51c.18-.45.4-1.15.74-1.23,1.09-.28,2.15-1,3.36-.49.1,0,.26-.06.43-.11-.23-.67-1.17-1.07-.56-1.9-1-.33-1.55-1-1.43-1.77s.13-1.4,1-1.59,1.29.05,2,1.45l.72,0c-.44-.76-.68-1.55,0-2.24.39-.4.93-.65,1.36-1a9.13,9.13,0,0,0,3.13-4,8,8,0,0,1,1.13-2.14,25.83,25.83,0,0,0,2.57-6c.91-2.53.94-5.2,1.33-7.82.15-1,.42-2.08.66-3.12.31-1.32.64-2.64,1-4,.2-.82.41-1.63.63-2.44.15-.56.57-.67,1.1-.64s.61.37.73.77A4.53,4.53,0,0,0,32,23.27a14.12,14.12,0,0,0,.54-1.33c.27-.92,1.06-.64,1.67-.74s.65.33.82.69c.31.67.67,1.32,1,2a2.08,2.08,0,0,1,.29,1.2,2.31,2.31,0,0,0,1,2.52,11.62,11.62,0,0,1,1.24-.3A1.27,1.27,0,0,1,40,28.66a4.56,4.56,0,0,1-1.77,3.15,4.06,4.06,0,0,1-1.63.67c-.19.06-.46-.1-.68-.2-.42-.18-.84-.37-1.49-.67A5.83,5.83,0,0,0,34.51,33c.3.83.78,1.61,1,2.46a3,3,0,0,1-.2,1.69,4.24,4.24,0,0,0-.57,2.39c.06.32-.41.74-.65,1.14l2,.68c0-.25.15-.51.07-.65-.44-.71,0-1.08.51-1.4,1.41-1,2.89-1.81,4.24-2.84,1-.73,1.73-1.71,2.64-2.52a8.46,8.46,0,0,1,1.36-.85l1.49-.88c-1.11-1.09-.66-2.45-.87-3.66s.8-2.28,1.31-3.66c-.49.11-.78.2-1.07.24a4.83,4.83,0,0,1-1.23.13c-.72-.08-1.43-.28-2.15-.38a2.41,2.41,0,0,1-1.79-1.19A1.19,1.19,0,0,1,40.89,22a1.45,1.45,0,0,0,.57-1.5c-.06-.59,0-1.19-.1-1.78a5.45,5.45,0,0,0-.48-1.26,9.92,9.92,0,0,1-.73-1.59c-.19-.8.13-1.19,1-1.17.47,0,.57-.18.7-.54.27-.77.59-1.52.92-2.27a1.94,1.94,0,0,1,.44-.58c.72-.7,1.43-1.41,2.19-2.06a5,5,0,0,1,1.34-.86c.93-.38,1.91-.67,2.86-1A1.22,1.22,0,0,0,50,7.15a6.09,6.09,0,0,1,4.13-1.56,9.46,9.46,0,0,0,1.18-.15c.65-.13,1.27-.35,1.9.16a.66.66,0,0,0,1-.09c.14-.19.49-.21.74-.33.59-.27,1.1-.32,1.34.36,2.5-.87,5.09-1.24,7.59-1.93,1.13-.31,2.07.11,3.11.1a1.36,1.36,0,0,1,1.26,1.42c0,.42-.08.84-.1,1.26a1.61,1.61,0,0,0,.71,1.42A6.24,6.24,0,0,0,77,9a2.61,2.61,0,0,1,.93.2.63.63,0,0,1,.33.42c.12.8.21,1.6.29,2.41a3,3,0,0,1-.28,2c-.16.26,0,.74.06,1.11a14.4,14.4,0,0,1,.32,2c0,1.18-.08,2.37-.17,3.55a2,2,0,0,1-.28.83c-.66,1.13-1.37,2.23-2,3.36a2.31,2.31,0,0,0-.22.92c-.16,1.73-.28,3.46-.47,5.18-.14,1.27-.48,1.42-1.67.95a.65.65,0,0,0-.52,0c-.51.35-.91.16-1.35-.15a1.39,1.39,0,0,0-.85-.2c-.71.05-1.41.17-2.11.28-.12,0-.32.13-.33.2,0,.41,0,.81.07,1.22,0,0,0,0,0,.05.78,1,.78,1-.19,1.58a3.54,3.54,0,0,1,0,1c-.21.68,0,1.25.71,1.37a6.55,6.55,0,0,0,1.46,0c.42,0,.79-.09,1.1.36s1.33.3,1.68-.23c.11-.17.34-.42.46-.39a.89.89,0,0,1,.5.45q.62,1.18,1.17,2.39c.4.88-.09,1.68-.26,2.51a3,3,0,0,0,0,1c0,.34.17.67.23,1,.16.85,0,1.07-.8,1.25a.9.9,0,0,0-.84.78c-.06.27-.43.49-.67.72a16.28,16.28,0,0,1-1.68,1.49,1.74,1.74,0,0,1-1.2.27c-.61-.12-.81,0-1,.62a5,5,0,0,1-.91,1.32,6.89,6.89,0,0,0,1,.72,2.08,2.08,0,0,1,1.35,2.44c-.08.4-.52.74-.81,1.1s-.47.36-.53.59c-.21.82-.68.75-1.21.38A1.19,1.19,0,0,0,67,55.92c-1,.54-2,1-2.9,1.62-.54.34-1,.47-1.52,0a1.26,1.26,0,0,0-1.73.05c-1.13.89-1.19.89-1.86-.5-1.24.72-1.52-.79-2.51-1.12.06.26.09.43.14.59.1.35.25.7.32,1.05s-.13.75-.65.71L54,58.18a1.35,1.35,0,0,0-.14,1.52c.18.29.09.74.2,1,.32.52.64,1,1,1.54a1.46,1.46,0,0,0,.54.55,1.53,1.53,0,0,1,.9,1.92,1,1,0,0,0,0,.63,12,12,0,0,0,1.24,2.18A3.45,3.45,0,0,1,58.74,70c0,.88.06,1.78.09,2.66a1,1,0,0,1-.08.51,21.87,21.87,0,0,1-2.2,3.78c-.88,1-.82,1.84.46,2.44a3.47,3.47,0,0,1,.6.46,4.6,4.6,0,0,1-.5.6c-1.1,1-2.24,1.86-3.32,2.84-.84.76-1,.79-1.77-.07-.1-.11-.13-.27-.28-.35-.48.89.12,1.55.14,2.19.86.21,1.64.37,2.4.61a.71.71,0,0,1,.29.63,1.16,1.16,0,0,0,.49,1.47,2.07,2.07,0,0,1,.49.73.79.79,0,0,1-.3,1.2c-.15.09-.3.18-.44.28a1.06,1.06,0,0,0-.41,1.52,8.26,8.26,0,0,1,.54,1.67c.11.42-.08.62-.53.49a9.32,9.32,0,0,0-1.07-.31c-.31-.05-.64,0-1,0-.52-.05-1.11-.35-1.53-.18-.78.3-1-.3-1.43-.6-.56.86-1.42,1.35-1.93,1.11S47,93,47.4,91.53a1.52,1.52,0,0,1-1.05-1.79c.06-.75.22-1.49.33-2.23a.19.19,0,0,1,.07-.13c1-.52,1.27-1.66,2.09-2.33a1,1,0,0,0,.21-.57c.12-.73,0-1.49.64-2.13.31-.29.22-1,.28-1.4a4,4,0,0,1-.68-.91,1.05,1.05,0,0,0-1.14-.83,2.46,2.46,0,0,1-2-.71,1.21,1.21,0,0,0-.76-.2c-.89,0-1.14-.31-1-1.2.13-1.09.13-1.09-.48-1.69-.25.23-.51.44-.75.68a1.73,1.73,0,0,1-1.92.41.75.75,0,0,0-.57,0,2.11,2.11,0,0,1-2.52.27l-.33-2c-.58.14-1.14.45-1.38.28a3,3,0,0,1-.75-1.25,12.89,12.89,0,0,1-.56-1.5,3,3,0,0,1-.11-.82c0-.62,0-1.23,0-1.85l-.22-.06c-.19.27-.37.55-.57.8-.52.65-1,1.32-1.61,1.93a.89.89,0,0,1-.68.12A19.51,19.51,0,0,1,29.7,72a3.12,3.12,0,0,0-2.31,0,.34.34,0,0,1-.22,0c-1.09-.3-2.19-.58-3.27-.93-.12,0-.16-.47-.15-.71a2.35,2.35,0,0,1,.3-.67c-.49,0-.9,0-1.3.11a1,1,0,0,0-.88,1.39c.15.6.23,1.21.39,1.81s-.15.74-.61.73-.73-.11-1.1-.15-.93-.11-1.39-.11-.79.14-.84.71c0,.39-.25.63-.74.67a1.42,1.42,0,0,0-.8.56c-.36.43-.59,1-1,1.37a1.65,1.65,0,0,1-1,.43,2.5,2.5,0,0,0-2.12,1.08,2,2,0,0,1-2.79.37,1.76,1.76,0,0,1-.5-.92,2.67,2.67,0,0,1,0-.8c-1.37-.46-2.7-.93-4-1.34a1,1,0,0,0-.73.25,2.33,2.33,0,0,0-.42.61A2,2,0,0,1,1,77a3,3,0,0,1-.47-1.69c0-.39,0-.74-.33-1s-.4-.51.08-.8a3.93,3.93,0,0,0,.87-1,2.84,2.84,0,0,1,2.88-.79,9.89,9.89,0,0,1,4.27,2c1,.77,3.36,0,4-1.16A1,1,0,0,1,14,72.2a2,2,0,0,0,2.13.85c.21-.06.5.16.78.26l.94-.89c-2.14.49-3.51-.63-5-1.75a1.36,1.36,0,0,0-.86,1.48c.12.55-.16.64-.54.75-1.61.47-2.8-.35-3.8-1.4A1.48,1.48,0,0,0,6,71c-1.47.32-1.47.3-2.28-1a2.75,2.75,0,0,0-.52-.51c-.37-.33-.76-.63-1.11-1s-.36-.86.09-1.32A3.82,3.82,0,0,1,5,65.67a17.53,17.53,0,0,0,2,0,16.5,16.5,0,0,0,1.87-.38c.27-.06.52-.17.78-.23,1.52-.35,2.41.63,1.92,2.26a20.67,20.67,0,0,1,2.5.68,3,3,0,0,1,1,1c.24.3.33.73.59,1a2.38,2.38,0,0,0,2.66.16c.11-.08.24-.32.2-.4a2.12,2.12,0,0,0-.57-.7c-.31-.22-.7-.34-1-.59-.91,0-1.79.06-2.36-1a3,3,0,0,0-1.06-.9c-.42-.26-.68-.52-.34-.93l-1.14-1c-.06,0-.12-.14-.16-.14-.91.19-1.06-.61-1.45-1.1s-.64-.62-1.17-.21a2.06,2.06,0,0,1-2.31,0,.94.94,0,0,1-.34-.74,1.9,1.9,0,0,1,1.75-1.68A8,8,0,0,0,10,60.6a4.65,4.65,0,0,1,2.76.28c.35.11.61.53.91.8A9.71,9.71,0,0,0,15,62.8c.83.51,1.72.93,2.6,1.36A1.69,1.69,0,0,0,18.23,64.24ZM59,56.8c.1.16.17.22.18.28.24,1.16.69,1.08,1.43.36a1.28,1.28,0,0,1,1.82-.17c.63.51,1.11.33,1.71-.07.84-.55,1.76-1,2.64-1.47a1.39,1.39,0,0,1,1.64.08c.35.25.7.39.86-.26.06-.25.37-.44.56-.66s.72-.63.81-1a1.9,1.9,0,0,0-1.22-2.21A11.7,11.7,0,0,1,68,50.6a5.85,5.85,0,0,0,.78-.52,1.44,1.44,0,0,0,.44-.63c.2-.93.28-1,1.24-.83a1.44,1.44,0,0,0,1-.24c.58-.43,1.09-1,1.63-1.45.21-.19.6-.35.63-.56.11-.76.61-.92,1.22-1.08a.84.84,0,0,0,.49-.64,12.21,12.21,0,0,0-.3-1.36,2.78,2.78,0,0,1,0-.95c.17-.85.73-1.64.23-2.56-.35-.65-.65-1.32-1-2-.11-.23-.25-.44-.42-.75-.17.26-.26.4-.34.55-.27.46-1.72.73-1.94.29-.32-.63-.73-.4-1.18-.37a5.39,5.39,0,0,1-1.46,0,1.19,1.19,0,0,1-.8-1.44,4,4,0,0,0,0-1l-.21,0,1.23-.71a1.9,1.9,0,0,0-.33-.38,1.46,1.46,0,0,1-.6-1.54c0-.45.19-.75.75-.66a7,7,0,0,0,1.12,0v-.18H46.16l-.13.18.77.36c-.26.22-.36.3-.45.38-.94,1-2.38,1.13-3.25,2.31a13.09,13.09,0,0,1-2.91,2.45c-1.09.8-2.25,1.5-3.37,2.26-.39.27-.84.52-.47,1.17.13.23-.07.65-.12,1-.77-.22-1.45-.41-2.12-.63-.14,0-.35-.22-.35-.32s.18-.29.29-.43.56-.54.51-.71c-.29-1,.27-1.66.56-2.46a2.79,2.79,0,0,0,.2-1.53,13.21,13.21,0,0,0-1-2.3c-.24-.51-.4-1.14,0-1.42s.94.1,1.42.21c.25.06.54.33.73.26a14,14,0,0,0,1.64-.77H25.89c0,.22-.06.39-.07.56a32.74,32.74,0,0,1-2.54,10c-.63,1.62-1.88,2.84-2.46,4.54a9.29,9.29,0,0,1-4,4.56,1.42,1.42,0,0,0-.13,2.45c.2.17.4.35.6.52a3.17,3.17,0,0,1-.95-.19,6.35,6.35,0,0,0-1-.06C15,53.29,15,52,13.6,52.34c-.76.18-.82,1-.8,1.52,0,1.05.86,1.44,1.9,1.5-.72.54-.72.54.35,2.3l-1.33-.07a2.51,2.51,0,0,0-.65,0c-.6.14-1.19.35-1.79.46-.76.13-1,.62-1.06,1.29a2.44,2.44,0,0,0,2.43,0c.24-.12.53-.31.69.17a8.24,8.24,0,0,0,.82,1.87,3,3,0,0,0,1.1.75c.55.31,1.12.58,1.68.86a2,2,0,0,0,.7.32c.89,0,1.78,0,2.68,0,.38,0,.62-.11.64-.53h.17l.11.47H55.67l0-.15-.75-.16c-.23-.92-.35-2-1.51-1.86.08-.44.36-1,.19-1.27-.54-1,.07-1.55.43-2.33.76,1,1.73.44,2.51.6.53-.85-.76-1.56-.06-2.44a4.18,4.18,0,0,1,.91.73C57.85,57,58.35,57.25,59,56.8ZM15.2,63.32a10.61,10.61,0,0,1-1.56-1.38,3.51,3.51,0,0,0-2.73-1.26q-1.29.16-2.58.27A1.71,1.71,0,0,0,6.81,62.4a.85.85,0,0,0,.39.68,2,2,0,0,0,1.29.17c.83-.35,1.58-.75,2.34.07ZM73.64,31.48c.8.67,1.19.67,1.48,0Z"/><path class="cls-1" d="M27.68,19.14c-.7-2.22.63-3.71,1.74-5.27.27-.38.6-.72.9-1.08s.69-.48,1,0c.22.35.47.68.69,1a.62.62,0,0,1,.14.33c-.13,1.42-.13,2.88-1.55,3.79-.54.35-.92,1-1.49,1.22a3.07,3.07,0,0,0-1.41,1,.65.65,0,0,1-1,.19c-.18-.13-.36-.55-.28-.7a1.76,1.76,0,0,1,.74-.53C27.34,19.09,27.51,19.14,27.68,19.14Z"/><path class="cls-1" d="M44.19,3.62l.9.51c-.32.27-.63.55-1,.8-.11.08-.36,0-.41.14-.48.85-1.24.79-2.06.81a2.23,2.23,0,0,0-1.34.66c-.46.45-1,.27-1.49.42-.26.08-.5.23-.76.33a2.56,2.56,0,0,1-.93.29c-.72,0-.91-.44-.54-1.05a3,3,0,0,1,1.86-1.37c1.5-.39,3-.85,4.47-1.27C43.29,3.79,43.66,3.73,44.19,3.62Z"/><path class="cls-1" d="M48.93,4.45c-.42.17-.85.33-1.26.53a1.52,1.52,0,0,1-1.94-.69c-.24-.54.55-1.44,1.24-1.39s1.27.19,1.9.19c1.28,0,2.55-.13,3.82-.15a2.11,2.11,0,0,1,.85.31s0,.37-.15.43a3.39,3.39,0,0,1-1,.37c-.4.08-.82,0-1.21.11-.75.14-1.48.34-2.22.51Z"/><path class="cls-1" d="M30.77,12.34c-.11-.08-.37-.17-.43-.33a.65.65,0,0,1,.15-.58c1.15-1,2.3-1.94,3.51-2.83a2,2,0,0,1,1.3-.3c.47.06.56.5.18.82s-.83.5-1.22.78a3.71,3.71,0,0,0-.57.61c0,.05,0,.15-.08.2A5.09,5.09,0,0,1,30.77,12.34Z"/><path class="cls-1" d="M59.6,1.56a10,10,0,0,1,1.26-.08c.17,0,.44.19.47.33a.59.59,0,0,1-.29.5c-1.08.35-2.17.63-3.25,1a1.83,1.83,0,0,0-.73.53c-.39.43-.68.43-1-.06a1.22,1.22,0,0,1,.81-1.92c.9-.15,1.81-.22,2.71-.33Z"/><path class="cls-1" d="M64.57.62,63.3,1.92c-.23-.37-.61-.72-.66-1.11-.07-.55.45-.82.93-.81C63.83,0,64.09.31,64.57.62Z"/><path class="cls-1" d="M59,56.8c-.7.45-1.2.24-1.64-.4a4.18,4.18,0,0,0-.91-.73c-.7.88.59,1.58.06,2.44-.79-.16-1.75.42-2.51-.6-.36.78-1,1.37-.43,2.33.16.29-.12.83-.19,1.27,1.17-.11,1.28.94,1.51,1.86l.75.16,0,.15H21.23l-.11-.47H21c0,.42-.25.54-.64.53-.89,0-1.79,0-2.68,0a2,2,0,0,1-.7-.32c-.56-.28-1.13-.56-1.68-.86a3,3,0,0,1-1.1-.75,8.24,8.24,0,0,1-.82-1.87c-.17-.48-.45-.29-.69-.17a2.44,2.44,0,0,1-2.43,0c.07-.67.3-1.15,1.06-1.29.61-.1,1.19-.32,1.79-.46a2.51,2.51,0,0,1,.65,0l1.33.07C14,55.89,14,55.89,14.7,55.36c-1-.06-1.85-.45-1.9-1.5,0-.56,0-1.34.8-1.52C15,52,15,53.29,15.42,53.88a6.35,6.35,0,0,1,1,.06,3.17,3.17,0,0,0,.95.19c-.2-.18-.39-.36-.6-.52a1.42,1.42,0,0,1,.13-2.45,9.29,9.29,0,0,0,4-4.56c.58-1.7,1.83-2.91,2.46-4.54a32.74,32.74,0,0,0,2.54-10c0-.17,0-.34.07-.56H38.17a14,14,0,0,1-1.64.77c-.19.06-.47-.21-.73-.26-.48-.11-1.11-.41-1.42-.21s-.28.92,0,1.42a13.21,13.21,0,0,1,1,2.3,2.79,2.79,0,0,1-.2,1.53c-.29.8-.85,1.5-.56,2.46.05.17-.33.47-.51.71s-.28.28-.29.43.2.27.35.32c.67.22,1.35.4,2.12.63,0-.34.25-.76.12-1-.36-.66.08-.9.47-1.17,1.12-.76,2.28-1.46,3.37-2.26a13.09,13.09,0,0,0,2.91-2.45c.87-1.18,2.31-1.36,3.25-2.31.09-.09.19-.16.45-.38L46,31.66l.13-.18H70.24v.18a7,7,0,0,1-1.12,0c-.56-.09-.71.21-.75.66a1.46,1.46,0,0,0,.6,1.54,1.9,1.9,0,0,1,.33.38l-1.23.71.21,0a4,4,0,0,1,0,1,1.19,1.19,0,0,0,.8,1.44,5.39,5.39,0,0,0,1.46,0c.45,0,.87-.26,1.18.37.22.44,1.67.17,1.94-.29.08-.15.18-.29.34-.55.17.31.31.52.42.75.33.66.62,1.34,1,2,.5.92-.06,1.71-.23,2.56a2.78,2.78,0,0,0,0,.95,12.21,12.21,0,0,1,.3,1.36.84.84,0,0,1-.49.64c-.62.16-1.12.32-1.22,1.08,0,.21-.42.37-.63.56-.54.49-1,1-1.63,1.45a1.44,1.44,0,0,1-1,.24c-1-.14-1-.1-1.24.83a1.44,1.44,0,0,1-.44.63,5.85,5.85,0,0,1-.78.52,11.7,11.7,0,0,0,1.45,1.07,1.9,1.9,0,0,1,1.22,2.21c-.09.38-.52.68-.81,1s-.5.41-.56.66c-.16.65-.51.51-.86.26a1.39,1.39,0,0,0-1.64-.08c-.88.49-1.8.92-2.64,1.47-.6.39-1.08.57-1.71.07a1.28,1.28,0,0,0-1.82.17c-.73.72-1.19.8-1.43-.36C59.21,57,59.15,57,59,56.8Z"/><path class="cls-1" d="M15.2,63.32H10.83c-.76-.82-1.51-.42-2.34-.07a2,2,0,0,1-1.29-.17.85.85,0,0,1-.39-.68,1.71,1.71,0,0,1,1.51-1.46q1.29-.1,2.58-.27a3.51,3.51,0,0,1,2.73,1.26A10.61,10.61,0,0,0,15.2,63.32Z"/><path class="cls-1" d="M73.64,31.48h1.48C74.83,32.14,74.43,32.15,73.64,31.48Z"/></g></g></svg>