<?xml version="1.0" encoding="utf-8"?>
<!-- Generator: Adobe Illustrator 23.0.1, SVG Export Plug-In . SVG Version: 6.00 Build 0)  -->
<svg version="1.1" id="Layer_1" xmlns="http://www.w3.org/2000/svg" xmlns:xlink="http://www.w3.org/1999/xlink" x="0px" y="0px"
	 viewBox="0 0 500 500" style="enable-background:new 0 0 500 500;" xml:space="preserve">
<style type="text/css">
	.st0{fill:#060709;}
	.st1{fill:#FEFEFE;}
	.st2{fill:#FDFDFD;}
	.st3{fill:#FBFCFC;}
	.st4{fill:#FAFBFB;}
	.st5{fill:#FBFBFC;}
	.st6{fill:#FCFCFD;}
	.st7{fill:#FAFBFC;}
	.st8{fill:#F8F9F9;}
	.st9{fill:#050608;}
	.st10{fill:#FBFBFB;}
	.st11{fill:#FAFAFA;}
	.st12{fill:#F7F8F9;}
	.st13{fill:#F9FAFB;}
	.st14{fill:#F9FAFA;}
	.st15{fill:#040507;}
	.st16{fill:#000002;}
	.st17{fill:#808183;}
	.st18{fill:#97989A;}
	.st19{fill:#0B0C0E;}
	.st20{fill:#0C0D0F;}
	.st21{fill:#010103;}
	.st22{fill:#F8FAFA;}
	.st23{fill:#F8F9FA;}
	.st24{fill:#050607;}
	.st25{fill:#060707;}
	.st26{fill:#070808;}
	.st27{fill:#090A0B;}
	.st28{fill:#06070A;}
	.st29{fill:#EAEBEB;}
	.st30{fill:#070809;}
	.st31{fill:#EEEFEF;}
	.st32{fill:#ECECED;}
	.st33{fill:#030406;}
	.st34{fill:#E1E2E2;}
	.st35{fill:#0D0D0D;}
	.st36{fill:#08080B;}
	.st37{fill:#E7E8E7;}
	.st38{fill:#EAEAEB;}
	.st39{fill:#EDEEEF;}
	.st40{fill:#050507;}
	.st41{fill:#EFEFF0;}
	.st42{fill:#08080A;}
	.st43{fill:#DBDCDC;}
	.st44{fill:#D2D3D3;}
	.st45{fill:#DCDDDE;}
	.st46{fill:#E9EAEC;}
	.st47{fill:#EFF0F2;}
	.st48{fill:#111312;}
	.st49{fill:#B0B1B3;}
	.st50{fill:#101113;}
	.st51{fill:#0A0C0B;}
	.st52{fill:#1A1A1B;}
	.st53{fill:#F1F1F2;}
	.st54{fill:#EFF0F0;}
	.st55{fill:#F5F5F6;}
	.st56{fill:#ECEDEE;}
	.st57{fill:#F5F6F7;}
	.st58{fill:#1F2020;}
	.st59{fill:#F8F8F9;}
	.st60{fill:#F0F0F0;}
	.st61{fill:#010202;}
	.st62{fill:#FCFDFD;}
	.st63{fill:#0E1010;}
	.st64{fill:#F7F7F7;}
	.st65{fill:#060606;}
	.st66{fill:#000103;}
	.st67{fill:#07080A;}
	.st68{fill:#F4F5F6;}
	.st69{fill:#0B0D0C;}
	.st70{fill:#070708;}
	.st71{fill:#050606;}
	.st72{fill:#F5F6F6;}
	.st73{fill:#1B1C1C;}
	.st74{fill:#E8E9E9;}
	.st75{fill:#F9F9F9;}
	.st76{fill:#18191A;}
	.st77{fill:#F4F6F5;}
	.st78{fill:#232426;}
	.st79{fill:#040406;}
	.st80{fill:#020403;}
	.st81{fill:#18191B;}
	.st82{fill:#0D0D0E;}
	.st83{fill:#F4F6F3;}
	.st84{fill:#010204;}
	.st85{fill:#131415;}
	.st86{fill:#F0F0F1;}
	.st87{fill:#0D0E0F;}
	.st88{fill:#020305;}
	.st89{fill:#0A0B0B;}
	.st90{fill:#101112;}
	.st91{fill:#D8D8D8;}
	.st92{fill:#0C0C0E;}
	.st93{fill:#F0F2F2;}
	.st94{fill:#090A0C;}
	.st95{fill:#E0E2E1;}
	.st96{fill:#020204;}
	.st97{fill:#F6F6F7;}
	.st98{fill:#DFDFDF;}
	.st99{fill:#020202;}
	.st100{fill:#080A09;}
	.st101{fill:#000101;}
	.st102{fill:#0A0B0D;}
	.st103{fill:#030303;}
	.st104{fill:#F3F4F4;}
	.st105{fill:#F2F2F2;}
	.st106{fill:#F4F5F7;}
	.st107{fill:#E1E1E1;}
	.st108{fill:#000100;}
	.st109{fill:#08090B;}
	.st110{fill:#101110;}
	.st111{fill:#010101;}
	.st112{fill:#E8E9EA;}
	.st113{fill:#060706;}
	.st114{fill:#F1F3F2;}
	.st115{fill:#171717;}
	.st116{fill:#1D1D1E;}
	.st117{fill:#010201;}
	.st118{fill:#D2D3D5;}
	.st119{fill:#020302;}
	.st120{fill:#17181A;}
	.st121{fill:#D8D9DB;}
	.st122{fill:#0D0D0F;}
	.st123{fill:#0D0E10;}
	.st124{fill:#070709;}
	.st125{fill:#0E0F10;}
	.st126{fill:#F8F8F8;}
	.st127{fill:#F6F8F7;}
	.st128{fill:#F8FAF9;}
	.st129{fill:#F7F9F8;}
	.st130{fill:#F6F7F9;}
	.st131{fill:#F4F5F4;}
	.st132{fill:#F2F3F5;}
	.st133{fill:#1E1E20;}
	.st134{fill:#0E0E0E;}
	.st135{fill:#F6F6F8;}
	.st136{fill:#F5F6F8;}
	.st137{fill:#F5F5F5;}
	.st138{fill:#1F2120;}
	.st139{fill:#F1F2F2;}
	.st140{fill:#FAFAFB;}
	.st141{fill:#0A0A0C;}
	.st142{fill:#000201;}
	.st143{fill:#0A0B0E;}
	.st144{fill:#F3F5F4;}
	.st145{fill:#EDEDEE;}
	.st146{fill:#EFEFED;}
	.st147{fill:#DEDFDF;}
	.st148{fill:#FBFDFC;}
	.st149{fill:#090B0B;}
	.st150{fill:#F5F5F7;}
	.st151{fill:#F6F7F7;}
	.st152{fill:#101012;}
	.st153{fill:#141517;}
	.st154{fill:#0D0E0D;}
	.st155{fill:#FDFEFD;}
	.st156{fill:#0F0F10;}
	.st157{fill:#909090;}
	.st158{fill:#141414;}
	.st159{fill:#DCDCDC;}
	.st160{fill:#0C0C0C;}
	.st161{fill:#303131;}
	.st162{fill:#313234;}
	.st163{fill:#ECEEED;}
</style>
<g id="_x36_nY91c.tif">
	<g>
		<g>
			<path class="st0" d="M1.2,251.3c0-81.6,0-163.3-0.1-244.9c0-4,0.4-5.3,5-5.3c163.5,0.2,327,0.2,490.5,0c3.9,0,4.8,0.9,4.8,4.8
				c-0.1,163.5-0.1,327,0,490.5c0,3.6-0.4,5-4.6,4.9c-163.7-0.1-327.4-0.1-491.1,0c-3.8,0-4.5-0.8-4.5-4.5
				C1.3,415,1.2,333.2,1.2,251.3z"/>
			<path class="st1" d="M235.1,266.3c-1.6,3-1.6,6.3-1.5,9.6c-1,2.1,0.4,4.6-1,6.7c-0.3,0.3-0.4,0.7-0.1,1.1
				c-1.7,2.3,0.8,5.5-1.7,7.5c-0.3,0.5-0.6,1-0.9,1.4c-2.1,3.2-2.7,6.7-2.1,10.5c-0.1,0.7-0.2,1.3-0.3,2c-2.8,2.6-1.1,6.3-2.2,9.4
				l0.2,0.4L225,315c-1.1,7.1-1.2,14.2,0,21.2c0.6,2.3,0.7,4.6,0,6.9c1,7,0.3,14.1,0.4,21.1c-4.1,2.2-3.4-1.6-3.5-3.2
				c-0.3-6.7,1.6-13.4,0.5-19.9c-2.1,1-0.7,3-0.1,4.6c1.3,3.3,0.5,6-1.6,8.6c-1,1.3-2,3-4,2.2c-2-0.8-1.2-2.7-0.9-4.3
				c0.1-0.6,0.1-1.2,0.1-1.9c-0.3-1.4,1.1-2.7,0.2-4.1c-0.7-3.1-0.7-6.3-0.1-9.4c-1-6.4-0.2-12.9-0.6-19.4c-0.1-1.4-0.2-2.4-1.9-2.3
				c-1.5-4.2-0.5-8.6-0.1-12.8c0.4-4.6-2.4,0.7-2.6-1.1c-0.5-1.2-0.3-2.4-0.3-3.7c0.5-3.7-2-7.6,0.9-11.2c0.2-0.2-2.4,0.5-2.2-1.5
				c0.1-6.6-0.1-13.1,0.1-19.7c1.3-4.3-0.4-9,1.6-13.2c0.1-1.5,0.2-3.1,0.3-4.6c3.1,0,0.8,3.2,2.3,3.9c-0.2-3.9-2.8-7.8-0.1-11.8
				c-2.4-6.9,1.3-13.2,1.9-19.7c0.1-1.4,0.7-2.8,1.2-4.1c1.6-4.4,0.4-5.4-4.1-4c-2.6,0.8-6.2,3.2-7.8-1.7c-0.5-2-0.1-3.7,1.5-4.9
				c10-13,20.7-25.4,33.8-35.3c7.3-5.5,15.2-8.2,24.5-6.3c3.9,0.8,7.8,0.5,11.6-0.9c1.4-0.3,1.8-1.6,2.4-2.6
				c0.7-4.6-2.1-7.8-4.6-11.1c-5.3-6.9-6.2-14.2-2-22.5c5.1,3.8,6.2,10.5,11.1,13.9c3.2,0.9,5.8,3.3,8.9,4.4
				c8,2.9,16.3,0.7,20.7-5.6c1.5-2.2,2.4-4.6,0.9-7c-1.4-2.2-3.8-1.4-5.7-0.6c-2.4,0.9-5,0.1-7.3,1c-2.8-0.1-4.8-1-4.8-4.3
				c0-4,1.6-6.9,5.3-8.2c7.4-2.6,14.6-1.9,21.2,2.6c2.6-0.6,1.5,2.3,2.8,2.9c-1.1-4.4-1.2-9-1.3-13.6c0-6.9-8.3-19.4-14.2-21.5
				c-2.5-0.3-4-2.4-6-3.6c-5.3-2.8-7.7-7-6-13c3.3-1.7,7.6-1.9,9.1-6.2c-0.5-4.4-3.7-7.1-6.5-9.9c-0.2-0.4-0.3-0.7-0.3-1.2
				c-1-2.1,0.3-4.1,0.1-6.2c4.3,1.1,8.7,0.5,13,1.9c2.8,0.9,9.2-5.6,10.4-10.5c0.7-2.8,1.3-5.6,1.7-8.5c0.4-3,1.7-5,4.9-5.5
				c0.9,0.2,1.8,0.5,2.5,1.4c3.6,3,7.5,5.7,10.1,9.8c0.7,2.1,2.1,3.7,4.1,4.7c-1.3,4.2,2.7,4.6,4.7,6.5c1.5,2.3,4.1,3.8,5,6.6
				c0.8,3.8,3,7,4.9,10.3c1.3,4,5.2,6,7.3,9.3c0.5,0.8,1,1.7,1.5,2.5c-0.5,1.9,0,3.3,1.2,5c2.3,3.2,3.9,6.8,6.3,10
				c0.5,1.2,1.1,2.4,1.6,3.6c-0.7,3.8-1.9,6.9-6.8,5.2c-2.9,0.1-4.1-5.1-8-2.3c-4.7,3.3-10.7,3.9-13,11.3
				c-6.5,21.3-20.7,36.6-40.8,46.1c-2.1-0.1-4,0.3-5.4,2.1c-12.7,7.3-13,7.9-3.4,19.1c5.8,6.7,8.3,13.9,7.4,22.8
				c-1.2,11.5-1.8,23.1-2.6,34.6c-2,5,0.3,10.3-1.3,15.3c0.2,0.4,0.1,0.7-0.3,0.9c-5,1.7-6.4-3.4-9.6-5c-1.4-1.2-1.7-2.8-1.6-4.6
				c-0.3-2.8,1-6-2.4-7.9l0,0c-1.1-0.7,0.2-2.3-1-2.8c-0.3-0.1-0.9,1.1-1.4,1.6c-7.7,19.9-10.6,40.5-9.9,61.7
				c1.1,4.9,0.3,9.9,0.5,14.8c0.1,2.1-0.8,3.6-2.9,4.2c-2.8,0.2-3.5-1.5-3.3-3.9c0.2-2.9-0.1-5.7,0-7.3c0.1,2.8-0.2,7-0.1,11.2
				c-4.9,1.5-4.6-2.7-5.7-5.2c-0.6-4.6-1.1-9.3-5-12.6c-1.4-1.9,0.2-4.2-0.8-6.1c-2.2-5.4-3.3-11.1-3.9-16.9
				c-2.5-4-3.5-8.5-3.6-13.2l0.2-0.3l-0.3-0.3c-2.7-2.8-2-6.9-3.8-10.1c0-0.4,0-0.8-0.2-1.1c-0.6-0.6,0.1,0.2-0.5-0.4
				c-5.3-5.7-5.3-5.7-10.3,0.4c-0.8,2.5-1.6,5-2.4,7.5C237,259.7,237.9,263.3,235.1,266.3z"/>
			<path class="st2" d="M181.4,130.6c-4.2-8.1-9.4-15.6-14.8-22.9c-2.6-3.6-4.1-2.8-6.3,0.3c-4.4,6.3-8.3,12.9-12,19.6
				c-4.8,8.9-10,17.6-16,25.9c-0.8,1.8-1.7,3.5-3.8,3.9c-0.8,0-1.1,0.4-1.2,1.1c-0.7,3.5-3.5,4.4-6.4,5.1c-2.7,0.8-5.3,1.9-8.1,2.4
				c-8.2,1.3-12.8-1.4-16.9-9.8c-0.6-2.5-0.6-5,0-7.5c2.5-7.5,7.7-11.1,15.5-10.8c4.8,0.2,8.3-1.9,11.5-5.3
				c6.7-7,11.5-15.3,16.6-23.4c4.6-7.4,9.3-14.8,15.8-20.8c5.6-5.2,9.7-5.2,15.1,0.3c8.8,9,15.4,19.6,21.9,30.2
				c1,1.7,1.4,3.9,3.5,4.8c1.7,0.5,2.5,1.7,2.6,3.4c-1.9,5.4,3.4,5.9,5.9,7.8c2.6,2,4.8-0.8,6.9-2.4c1.7-1.3,1.3-5.6,5.1-4
				c2.1,0.8,3,2.9,3.2,5c0.3,3.3-1.8,6.3-4.2,7c-4.3,1.2-7,4.7-10.7,6.6c-3.2,1.7-4.8,3-7.3-0.6c-1.1-1.6-3.3-2.5-5.4-2.8
				c-1.4-1.5-2.9-2.9-4.3-4.4C183.2,138.2,182.3,134.5,181.4,130.6z"/>
			<path class="st2" d="M222.5,63.5c0.4,0.1,0.9,0.2,1.3,0.2c3.3,2.1,9.3-0.2,10,6.2c-6.2,4.5-13.5,6.8-20.4,9.9
				c-3,1.5-5.7,1.4-8-1.2c-4.8-9.8-3-20.3-3-30.5c-0.1-0.4-0.4-0.9-0.3-1.2c1.1-2.8,1.2-2.8-0.7-5.6c-0.8-6.2-5-7-9.9-5.8
				c-6,1.5-11.8,3.6-17.7,5.3c-4.5,1.3-8.6,1.2-11.1-3.6c-0.4-0.1-0.5-0.3-0.5-0.5c0.1-0.3,0.1-0.4,0.2-0.4
				c0.2-5.5-0.7-11.4,5.1-15.1c1.5-1.2,3.4-1.6,5.1-2.4c5.7-1.2,11.4-1.9,17.2-1.6c16.1,0.8,20.5,4.3,23.8,19.5
				c1.3,2.2,1.2,4.7,1.4,7.1c0.3,5.6-0.6,11.3,0.5,16.9C217.1,63.3,220.3,62.1,222.5,63.5z"/>
			<path class="st3" d="M225,378.8c21.8,4.6,27.5,35.2,10.9,51.1c-2.8,2.6-6.8,3.8-10.7,4.1c-6.2,0.4-12.5,0.4-18.7,0.9
				c-4.2,0.4-5.7-0.8-5.6-5.4c0.1-16.8-0.4-33.7-0.7-50.5C208.5,375.8,216.7,375.8,225,378.8z"/>
			<path class="st4" d="M61.3,436.1c-0.9,0.2-1.9,0.7-2.4-0.6c-0.3-0.8,0-1.5,0.8-1.9c2.5-3,3.4-6.5,3.5-10.3c0-2.1,1.3-3.8,1.7-5.8
				c0.3-2.7,3.2-4.5,2.7-7.5c0.8-1.7-0.3-4.2,2.2-5.1c2.6-6.5,5.5-12.9,7.6-19.5c1.3-3.9,3.7-4.2,7-4.2c3.3,0,5.8,0,7,4.1
				c1.1,3.9,3.1,7.6,4.7,11.3c5.9,6.9,7.6,15.6,9.8,24c-0.5,4.9-0.7,9.6,4.1,12.8c0.3,0.6,0.2,1.2-0.1,1.7c-3.2,0.6-6.3,0.9-9.5-0.2
				c-1.6-1.2-1.9-2.8-1.8-4.6c-0.6-4.6-2.5-7-7.8-6.1c-4.4,0.7-9,0.1-13.5,0.2c-1.5,0-3.4-0.7-4.1,1.6c0,0.9-0.4,1.5-1.2,1.9
				c-4-0.3-0.4,2.9-1.8,3.8c0.2,1.1,0.2,2-1.2,2.2C67.1,436.7,63.7,434.8,61.3,436.1z"/>
			<path class="st5" d="M415.2,387.6c0.5,9.4,0.5,9.4,9.9,9.2c1.7,0,3.4,0.2,5-0.1c4.3-0.7,5.7,0.9,5.8,5.3c0.1,4.8-2,5.6-5.9,5.2
				c-2.7-0.2-5.5,0.3-8.1,0c-5.4-0.8-6.5,1.5-6.2,6.5c0.6,8.4,0.2,8.4,8.9,8.3c1.7,0,3.4,0.3,5-0.1c6.3-1.5,6.7,2.1,6.6,6.9
				c-0.1,2.6-0.7,3.7-3.5,3.7c-9.1-0.1-18.3,0-27.4,0c-2.4-2.4-1.5-5.5-1.5-8.3c-0.1-14.3-0.5-28.6-0.4-43c0-1.7,0.2-3.3,1.2-4.8
				c9.6-1.6,19.2-0.8,28.8-0.4c4.2,0.1,1.5,4.7,2.3,7.1c-0.1,1,0.1,1.9-1.4,2.1c-4.8,0.5-9.6,0.5-14.4,0c-2.1-1.1-3.7,0.6-5.4,1.2
				C413.6,386.5,415.1,387,415.2,387.6z"/>
			<path class="st6" d="M192,143.9c0.8-0.2,1.7-0.7,2.4-0.4c2.6,0.9,5,2.2,5.9,5.1c2.7-1.2,3.5-5.3,7.2-4.8c2.4,0.4,1.9-1.2,2.7-2.4
				c0.8-1.3,2.9-1.6,4.8-2.1c4.2-1.1,4.1-5.3,0.1-10.9c0.2,5.4-4.2,6.3-6.7,8.8c-0.3,0.3-0.7,0.6-1,0.7c-4.3,0.4-6.1-4-9.7-5.2
				c-2.5-0.8-0.8-3.6,0-5.4c1.4-0.2,2,0.6,2.2,1.9c0,1,0,2,1.4,2.1c2.1,0.2,4,1.8,6.2,1.2c2.3-2.8,4.5-5.7,6.8-8.5
				c-0.2-1.4,0.7-2.2,1.8-2.7c1.3-1.8,3-3.4,3.8-5.4c6.7-15.8,19.6-16.7,34-14.3c4.5,0.7,9,0.9,13.5,1.3c0.5,0,1,0.1,1.5,0.4
				c5.8,1.6,12.2,1.2,17.1,5.8c-0.7,2-3,0.8-3.9,2.1c-0.3,0.6-0.8,1-1.4,1.2c-3.1,0.3-6.4,0.2-9.4,1.4c-1,0.3-1.9,0.4-2.9,0.5
				c-1.7,0.1-3.4,0.1-5.1,0.2c-3.2-0.7-6.4-0.5-9.5-0.5c-5.4,0.8-10.8-1.2-16.1,0c-5.3,1.4-6.4,6.5-8.8,10.3
				c-3.8,5.9-7.4,11.9-11.1,17.9c-0.5,0.9-1.2,1.7-1.9,2.5C203.6,157.1,202.1,155.9,192,143.9z"/>
			<path class="st5" d="M255.1,400.6c1-5.7-0.1-11.4,0.3-17.1c0.1-2-0.7-4.1,0.9-5.9c0.6-0.5,1.2-0.9,1.9-1.3c6-1,12.1-0.3,18.1-0.7
				c3.3,0.5,7-0.8,9.9,2l-0.1-0.1c1.1,0.9,0.8,2.2,0.8,3.4c0.2,7.1,0.2,7-6.7,7.2c-4.3,0.1-8.6-0.7-12.8,0.5l0.1,0
				c-0.9,1.5-0.4,3.2-0.6,4.8c-0.5,4.4,1.3,5.3,5.4,4.3c4.3-1.1,8.9-1.6,13.1,0.9c1.4,6.4,1,7-5.2,7c-2.5,0-5.1,0.5-6.1,0.1
				c2.6,0.2,6.7-0.5,11.1,0.3c-3.5,3.7-3.5,3.7-16.8,3c-1.7-0.1-3-1.1-4.6-1.8c0.6,3.7,1.9,7.3,1.4,11c-0.4,3.2,1.4,3.9,3.9,4
				c4.2,0.5,8.3-0.6,12.4-0.2c4.7,0.4,6.5,2.8,6.4,7.4c-0.1,4.7-3,5.1-6.7,5c-6.8-0.2-13.7-0.3-20.5,0c-4.2,0.2-5.1-1.4-5.1-5.4
				C255.5,419.6,256.3,410,255.1,400.6z"/>
			<path class="st4" d="M420,330.1c2.9,0.6,7.5-3.6,8,3.5c0.3,4.4-0.9,6-5.2,5.4c-1.6-0.2-3.3,0.2-5,0c-6.2-0.8-8.8,1.1-8.1,8
				c0.4,4.3,1,6.3,5.9,5.8c4.3-0.4,8.6,0,13,0.1c0.8,3.2,3,6.4-0.4,9.5c-1.1-0.5-2.1-0.4-3.2,0.1c-8.3,0.8-16.6,1.9-24.8-0.5
				c-0.1-6.9-0.2-13.8-0.3-20.6c-1.1-9.1-0.2-18.2-0.5-27.2c-0.1-2.9,1.5-3.4,3.9-3.4c7,0.1,14.1,0.2,21.1,0c4.2-0.1,4,2.9,4.3,5.4
				c0.4,2.9-0.8,4.8-4.2,4.7c-3.1-0.1-6.2,0-9.3,0c-9.2-2-4,6.7-6.7,9.5c-3.1-1.1-0.8-3.9-2-5.4c-0.1-0.9-1.1,0.5-0.3,0.1
				c0.2-0.1,0.4,0.1,0.4,0.4c-0.9,4.7,1.6,5.7,5.6,5.4C414.7,330.4,417.4,331.3,420,330.1z"/>
			<path class="st7" d="M307.5,349c-2.3-1.8,0.1-4.6-1.4-6.5c-0.7-2.5-0.7-5-0.1-7.5c4.1-23,27.6-28.6,41-19.4
				c0.7,0.5,1.2,1.1,1.7,1.7c1.4,6.3,1.1,6.8-5,8.6c-6.6-2.5-13.2-5-19.9-0.3c-1.6,1-3,2.4-3.9,4.1c-0.7,1.2-1.2,2.5-1.6,3.8
				c-0.8,3.6-0.8,7.3,0.2,10.9c1.8,5.8,6.5,8,11.6,9.6c1.9,0.7,3.9,0.6,5.9,0.9c2.6,0.6,4.1,3.1,7.3,3.1c2,0,4.3,1.7,3,4.8
				c-5,3.6-18.5,4.2-23.8,1l0,0c-4-1.6-8.4-2.6-10.1-7.4l0-0.1C309.2,354.9,308.4,351.9,307.5,349z"/>
			<path class="st8" d="M217.5,350c2,2-1.5,3.6,0.2,5.7c0-3.5,8.8-4.5,2.2-10.3c-0.6-0.5-0.5-5.9,3.8-6.5c0,8.7,0,17.4,0,26
				c-0.6,1.2-1.7,1.8-2.9,2.2c-2.7,0.7-5,0-6.7-2.1c-5.2-6.8-10.4-13.5-13.9-21.3c-0.2-1.2-0.2-2.5-1.6-3.2
				c-0.7-0.4-1.3-0.8-1.8-1.3c-0.6-0.6-1.2-1.2-1.7-1.8c-0.5,4.7,0.4,9.4,0.3,14c0,2.9,0.1,5.7-0.2,8.6c-0.6,7.5-3.7,9.1-10.9,5.8
				c-2-7.8-1.3-15.7-1.3-23.5c0.3-6.2,0.1-12.4,0.1-18.5c0-2.7,0.3-5.3,1.8-7.7c5.7-1.2,9.8,0.5,12.3,6.1c0.8,1.7,1.6,4.2,4,5
				c1.1,0.6,1.5,1.6,1.9,2.8c-0.2,3.2,1.6,5.1,4.2,6.5c0.6,0.6,0.8,1.5,1.4,2.1c1.4,2.7,4.3,4.4,5,7.5
				C214.2,348.4,215.8,349.2,217.5,350z"/>
			<path class="st0" d="M365,376.2c0.5,0.1,1.1,0.1,1.6,0.2c1.1,1.3,1.4,3,1.5,4.6c0.2,2.6,1.3,4.3,4,4.6c4.7,0.6,6,3.7,6,7.9
				c0,4.5,0.3,9-0.4,13.5c-1.1,2.6-1.6,5.3-1.7,8.1c-0.7,2-0.5,4.3-1.9,6.1c-0.7,1.5-1.6-1.8-3.1,0.4c-2,2.9-4.6,5.5-6,8.9
				c-0.6,1.3-1.2,3.5-3.3,1.3c-2.2-7.4-2.2-7.3-10.3-7.6c-4.4-0.1-9.4,1.1-10.6-5.7c-1.9-10.5-0.3-12.7,10.3-12.9
				c4.3-0.1,9.3,1,9.6-5.7c0.1-0.9,0.2-1.7,0.3-2.6c0.4-3-2.1-0.8-2.9-1.6c-3.1-0.6-6.2-0.6-9.3,0.3c-2.4,0.1-5.2,0.9-5.4-2.9
				c-0.3-3.7,2-4.1,5-4.5c4-0.5,8.2,0.8,12.1-1c0.7-1.4,1-3,1.8-4.4C364,381.3,361.8,377.7,365,376.2z"/>
			<path class="st4" d="M376.1,408.8c0.1-6,0.1-12,0.2-18c0-1.7,0.2-3.3-2.3-3.5c-2.5-0.2-6.2,1.5-7.4-1.1c-1.3-2.8-0.8-6.5,0-9.8
				c1.1-0.1,2.3-0.1,3.4-0.2c0.6-0.5,1.2-0.9,2-1.2c6.9-1,13.9-0.3,20.8-0.5c5.8,1.3,8.2,5.7,5.8,10.8c-0.9,2-2.3,3.6-4.8,2.1
				c-5.1-1.4-7,0-6.7,5.7c0.6,11,0,22,0.6,33c0.3,5.9-1.7,7.7-7.1,6.8c-1.4-0.2-2.8-0.4-4.3-0.6c-2.5-2.3-2-5.4-1.7-8.2
				C375.1,419,375.1,413.8,376.1,408.8z"/>
			<path class="st9" d="M183.9,485.9c0.2,1,0.4,2,0.7,2.9c0.3,0.8,1.7,1.8-0.2,2.3c-1.3,0.3-2.3,0.1-2.5-1.7
				c-0.4-3.2,0.6-6.6-0.8-9.7c-1.7-1.8-1.9-4.2-2.2-6.5c0.2-1.5,0.3-2.9-2-2.4c-4.3-1.4-8.4-1.6-12.3,1.4c-0.9,0.7-2.3,1.1-3.5,0.2
				l0.2,0.1c-4.8-2.3-10.2-2.1-15.1-3.8c-3.9-0.7-5-4.7-8.3-6.3c3-1.8,6.1,0.4,9.1-1.1c-1.7-2.4-4.6-0.4-5.7-2.6
				c1.6-1.8,3.7-1.7,5.8-1.7c11,0,22-0.3,33,0.2c3.6,1.1,7.2,1.4,10.8,0.1c6.9-0.5,13.7-0.6,20.6,0.1c10.4,1.8,20.9,0.4,31.3,0.8
				c2.7,0.1,5.3,0,8,0c2.1,0,4.2-0.1,6.2,0.1c2,0.2,4.5,0.2,4.8,2.9c0.2,2.7-2.1,3.2-4.2,3.7c-0.4,0-0.8,0-1.3,0
				c-1.9,1.4-3.8,0.1-5.7-0.1c-1.5-0.7-3.1,0-4.7-0.1c-4.1-1.6-8-1.4-11.6,1.2c-2.5,3.8-5.3,1.7-8.1,0.5c-2-1.1-4.2-0.3-6.3-0.6
				c-1.6-0.3-2.1-2.4-3.9-2.4c-2.1,0.4-4.4,0.2-6.2,1.7c-2.1,1.3-4.5,1.5-6.9,1.3c-1,0.4-2-1.3-3.3,0.8c-1.7,2.7-5.6,2.2-8.5,1.4
				c-3.3-0.9-4.2-0.9-5.9,3.3C185.1,476.6,186.7,481.5,183.9,485.9z"/>
			<path class="st4" d="M307.7,415c0,0.8,0,1.7,0,2.5c0.7,1.2,0.9,2.5,0,3.7c0,0.4,0.1,0.8,0.1,1.2c3.4,1.3,6.9,0.3,10.4,0.6
				c1.9,0.2,4.3-0.7,5.3,1.9c-0.7,2.4-0.3,4.7,0.1,7.1c-0.3,0.5-0.3,1.4-1,1.5c-7.9,1.6-15.9,0.9-23.8,0.4c-3.8-0.2-0.9-5-2.5-7.3
				c-2.1-2.7,0.5-5.4,0-8c-1-13.7-1.3-27.5,0.1-41.2l-0.1,0.1c3.8-2.8,7.7-0.9,11.5-0.1C309.4,390.1,308.9,402.5,307.7,415z"/>
			<path class="st10" d="M272.5,315c0-5.4,0-10.8,0-16.1c2.6,4.8-0.5,10.2,2.5,14.9c1.3,1,3.2,0.8,4.5,1.9c1.2,1,3.2,1.7,3,3.6
				c-0.2,1.9-2.1,1.6-3.5,1.9c-2.3,0.5-2.3,1.8-1.8,3.7c0.6,2.8,1.1,5.8-0.9,8.3c-1.7,2,0.5,1.2,0.8,1.1c1.3-0.5,1.7,4.1,3.7,0.5
				c0.6-1.1,2.4,0.6,3.4,1.7c2,2.1,2.8,5.1,5.4,6.7c3.6,3.7,5.2,8.3,6.7,13.1c0.8,1.3,1.6,2.6,2.4,3.9c0.5,0.5,0.8,1.1,0.8,1.9
				c-1.6,4.8-5.4,3.2-8.7,2.9c-5.7-3.6-7.3-9.9-10.2-15.4c-0.2-0.5-0.3-1.1-0.4-1.7c-0.1-0.4-0.1-0.8-0.1-1.1
				c-0.1-0.9-0.1-2-1.5-2.1c0,0.8,0.4,1.4,0.4,2.2c0.3,4.4,0.2,8.7,0.1,13c-0.1,3.7-1.3,6.5-5.6,6.6c-4.4,0.2-6.5-2-6.6-6.3
				c0-1.5-0.5-2.8-0.9-4.2c-0.3-8.1-1.2-16.3,0.5-24.4c0.7-5.1,0.1-10.2,0.3-15.3C267.7,312,270.8,316.1,272.5,315z"/>
			<path class="st11" d="M248.2,313.8c3.7,1,7.4,0.3,11.2,0.1c3.9,3.1,1.7,6.4,0.6,9.8l0,0c-2,1.6-5.7-0.7-6.8,2.9
				c-0.3,1.6-0.2,3.3-0.2,4.9c0,9.5,0.1,19,0,28.5c0,2.8,0.3,6-3.4,7.2c-1.2,0.1-2.4-0.2-3.3-1c-0.4,0-0.8,0-1.2,0
				c-2,1.1-3.6,1.2-4.3-1.5c0.2-4.5-0.6-9,0.5-13.5c-0.1-7.9-0.1-15.8-0.2-23.7c0-1.4,0.1-3.6-1.9-3.2c-8.5,1.8-7.6-4-7.7-9
				C236.8,312.8,242.7,315.7,248.2,313.8z"/>
			<path class="st9" d="M385.9,486.2c-3.1,0.7-3.2-2.2-4.5-3.7c-3.1-4.3-2.4-8.5,0.5-12.6c0.4-0.6,0.4-1.2-0.2-1.8
				c-2.4-0.7-4.6-0.3-6.9,0.4c-4.1,1.3-8.8-2.3-12.6,1.5c-0.4,0.3-0.9,0.5-1.4,0.7c-1.1,3.1-0.9,6.2,0.3,9.2
				c0.3,0.4,0.6,0.9,0.8,1.4c0.7,1.4,0.5,3.2,1.9,4.3c0.9,0.6,1.8,1,2.4,1.9c0.1,1,0.6,2.6,0.3,2.9c-3.1,2.1-12.6,0.4-15.3-2.6
				c0.1-0.3,0.2-0.5,0.3-0.8c1.3-1.3,6.5-0.2,2.8-4.6c0-3.7,0.6-7.4-0.2-11c-0.2-0.5-0.5-0.9-0.8-1.3c-1-2.1-5.6,0.7-4.9-3.6
				c-0.1-1.6,3,0,2.3-2.3c-1.4-5,1.8-5.7,5.5-5.9c2.3-0.1,4.5-0.8,6.8-1.2c7.3-0.4,14.6-0.2,21.8-0.2c2.3,0,4.6-0.2,6.4,1.7
				c1.7,2.4,4.8,0.2,7.1,2.2c-3.5,1.5-8.2-0.4-10.4,4.6c5.4,1.4,9.9,0.8,13.1-3.8c3,1.4,0.1,8.6,6.5,5.8c2.6,3,1.3,6.7,1.6,10.1
				c0.2,2.6-1.1,5.3,0.3,7.9c0.6,0.4,1.3,0.7,2,1.1c0.4,0.3,0.8,0.6,1.2,1c1.2,1.4-0.5,3-0.7,2.9c-2.6-1.4-6.9,1.7-8.1-3.1
				c-1.1-1-2-2.2-2.4-3.7c-1.9-2.5,1.7-3.9,1.2-6.1c-0.5-0.9,0.1-1.3,0.8-1.6c1-0.2,0.8-0.9,0.7-1.6c0.7-3.1-2.6,0-2.8-1.8
				c-0.8-1-0.5-2.1-0.2-2.9c-0.8,1.1-0.2,2.3,0.5,3.5c-0.8,2.1-2.6,2.7-4.5,3.2c-2.4,0.3-4.7,0.5-6.8-0.8c-1-1.1-1-2.2,0-3.3
				c1.4-1.2,3.4-1,5-1.7c0.3-0.4,0.3-0.7-0.1-1.1c-7-0.3-6.8-0.3-7.1,6.4C387.7,479.4,389.2,483.3,385.9,486.2z"/>
			<path class="st12" d="M147.5,390c-0.6-0.6-0.6-1.2-0.1-1.8c-1.1-2.3-1.6-4.5,0.2-6.7c3.5-1.4,7-0.9,10.5-0.3
				c6.1-0.8,12.2-0.9,18.3,0l0,0c0.8,3,2,6,0,9l0,0c-9.5,1.3-9.4,1.3-9.5,11.6c-0.2,11.1,0.7,22.2-0.6,33.3
				c-1.4,0.1-2.8,0.1-4.2,0.3c-4,0.7-5.5-0.9-5.1-4.9c0.3-2.8-0.6-5.7,0.4-8.4c-1.1-8.3-0.6-16.6-0.4-24.9c0.1-5.2-1.4-7.3-6.6-6.4
				C149.4,390.7,148.4,390.6,147.5,390z"/>
			<path class="st13" d="M68.4,353.9c-6.4-17,0.3-30,19.6-37.4c1.4-1.4,3-1,4.6-0.3c7.2,0.4,13.9,2.1,19.4,6.9
				c1.4,1.2,5.1,2.3,1.7,5c-2.1,1.7-3,6.6-7.6,2.7c-5.5-4.6-11.9-6.4-18.9-3.3c-0.5,0.9-1.3,1.2-2.3,1c-4.4,1.6-6.1,5.7-8.4,9.3
				c-1.8,3-0.9,6.3-0.7,9.4C76.1,354.4,76.3,354.4,68.4,353.9z"/>
			<path class="st4" d="M376.3,311.4c2.2,1.4,1.4,3.7,1.5,5.7c0.5,11.8,0.8,23.6,1.2,35.4c3,1.4,6.1,0.6,9.2,0.6c3,0,5.2,0.1,5,4.2
				c-0.2,3.5,0,6.9-4.8,6.9c-6.2-0.1-12.5,0.7-18.6-0.5c-0.7-0.3-1.3-0.8-1.8-1.5c-1.8-5.5-0.7-11.1-0.9-16.6
				c-0.4-9.3,0.7-18.6-0.6-27.9c-0.6-2.5-1.5-5.1,1.6-6.8C370.7,310.9,373.6,309.9,376.3,311.4z"/>
			<path class="st0" d="M105,421.6c-3-8.3-6-16.6-8.9-25c0.3-0.8,0.1-2.7,1.5-1.7c1.5,1,2.3,2.5,3.2-0.3c0.4-1.2-0.9-3.7,2.2-3.3
				c2.6,0.4,3.1,2.2,3.3,4.4c0.3,2.6-1.2,4.7-2.7,7.3c3.3,0.2,6.6,4.1,6.9-2.8c0.1-2.9,1-6.3,4.2-9c3-2.5,3-7.3-0.9-10.7
				c-2.3-2.1-3.6-4.5-0.1-6.9c0.8,1.7,1.7,3.3,2.5,5c0.9,0.6,1.9,1.1,2.4,2.2c1.3,6.4,0.3,13,0.6,19.4c0.1,3-0.4,6,0.5,9
				c0.3,1.3,0.3,2.6,0,3.9c-0.3,1.2-0.8,2.3-1.4,3.4c-2.7,5.1,0.7,10.5-0.9,15.7c-0.1,0.4-0.2,0.8-0.2,1.2c0.2-0.1,0.4-0.2,0.6-0.3
				c0.5,0,0.9,0.1,1.3,0.4c0.3,0.4,0.4,0.9,0.4,1.4c-0.1,0.5-0.4,0.9-0.8,1.2c0.4,5.1-2.9,2.4-5,2.4c-0.1-1.9-1.3-2.5-3-2.7
				c-0.3-0.7-0.2-1.6-0.8-2.3l0,0C106.4,430.5,106.2,425.9,105,421.6z"/>
			<path class="st14" d="M143.7,425.1c0.2,0.3,0.2,0.6,0.1,1c0.9,3.4,1,6.7-1.5,9.5c-7.4-0.2-14.9,0.5-22.3-0.4
				c1.8-4.7,6.1-0.6,8.5-2.3c-1.6,0.4-3.4,0-5.2,0.1c-3.2,0.3-4.6-1.3-4.9-4.3c-0.2-1.9-0.3-3.7-0.1-5.6c1.2-12.4,0.2-24.8,0.5-37.1
				c0-1.8-0.3-3.8,1.2-5.3c8.7-1.7,9.3-1.1,9.4,7.4c0.1,7.9-0.6,15.8,0.4,23.6c-0.5,4-0.5,7.9,0.1,11.9
				C134.4,425.6,139.3,423.1,143.7,425.1z"/>
			<path class="st15" d="M246.2,366.2c0.8,0,1.7-0.1,2.5-0.1c2.1,1.3,3.1,0.2,3.1-1.8c-0.3-11.5,0.8-22.9-0.5-34.4
				c-0.4-1.7-0.8-3.4,0.1-5c1.9-1.1,2.7-0.2,2.9,1.6c0.3,2.9,0.1,5.8,0.1,8.6c0.7-1.3-1.4-3.9,1.9-4h0c1,3.3,1,6.7,0,10
				c-2.5,5.3,0.8,10.8-0.8,16.2c-0.5,1.7-0.2,3.7-0.1,5.6c0.1,1.6-0.7,3.2-0.5,4.8c2.5-1.8,3,0.4,4.1,1.8c0.9,1.2,1.4-0.1,1.8-0.7
				c1.2-1.8,3.3-3.1,3.5-5.5c1.1-1.3,1.6-2.8,1.6-4.5c0-1.4,0-2.7,0-5c-0.3,4.1,0.7,7.6-2.3,10.1c-4.3-2.2-5.8-9.2-3.4-15.3
				c0-2.5,0-5,0-7.5c1.5-1.9-1-4.5,1.2-6.2c-0.5-1.4-2.1-3-0.5-4.2c1.5-1.2,2.3,0.6,3,1.7c3.5,4.5,1.1,9.7,1.9,14.2
				c0.7-4.9-1-10.2,0.6-15.4l0,0c0.4-0.6,0.8-0.6,1.1,0c0.3,8.1,1,16.2,0.2,24.3c0.2,0.6,0.4,1.2,0.5,1.8c0.6,8.2,0.6,8.2,8.9,8.4
				c6.7,2.2,7.2,3.1,3.9,7.5c2.8-0.2,4.7-2.7,7.5-2.6c2.4,0.1,4.7,0.3,1.7,3.2c-1.2,0.8-2.5,1.7-3.7,2.5c-3.2,1.3-6.8-0.3-10,1.1
				c-6.2,0-12.5,0.1-18.7,0.1c3.1-4,7.4-0.5,11.2-1.9c-4.2,0.5-8.4-0.5-12.4,0.8c-1.4,0.8-3.6,0.9-3.8-0.3
				C251.8,371.6,247.3,370,246.2,366.2z"/>
			<path class="st7" d="M122.6,334c3.8-7.4,7.7-14.6,16.7-16.7c4.1-1,4.4,1,3,4c-1.2,2.4-3,4.5-3.5,7.2c-0.4,1.2-1,2.3-1.7,3.2
				c-6,7.4-4.4,14.8-0.2,22.3c0.7,6.8,0.7,6.8,8.8,4.4c2.1-0.2,4.3-0.3,6.4,0.4c3.2,2.3,1,3.2-1.2,3.6c-4.7,1-8.9,3.5-13.3,5.2
				c-2.9,0.6-4.8-0.7-6.1-3.1l0.1,0.1c-7.1-5.2-10.7-12.2-11.3-20.9C120.1,340.4,120,336.9,122.6,334z"/>
			<path class="st16" d="M439.9,456.2c1.6,1.8-0.4,1.9-1.2,2.5c-4.9-1-9.9-0.6-14.8-0.6c-14.8-0.1-29.6-0.4-44.4,0.1
				c-35.2,1.2-70.3,1.5-105.5,1c-26.4-0.4-52.9-0.6-79.3-0.9c-43.1-0.5-86.2-0.1-129.2-0.2c-1.8,0-3.8,0.5-5.5-0.6
				c-2.9,1.5-5.3,0.9-7.3-1.7c2.6-1.7,5.6-1.4,8.5-1.4c123,0,246.1,0,369.1,0C433.6,454.5,437,454.1,439.9,456.2z"/>
			<path class="st17" d="M439.9,456.2c-126.8,0-253.6,0-380.4,0c-2.3,0-4.6-0.2-6.8-0.4c0.4-0.7,0.7-1.4,1.1-2.1
				c0.8-0.3,1.6-0.4,2.4-0.4c124.6-0.1,249.3,0,373.9-0.1c3.4,0,6.6,0.5,9.7,1.8C439.9,455.4,439.9,455.8,439.9,456.2z"/>
			<path class="st18" d="M439.8,455c-126.3,0-252.5,0-378.8,0c-2,0-4.2,0.6-6-0.9c1.8-2,4.2-1.5,6.4-1.5c123.1,0,246.2,0,369.3,0
				c2.3,0,4.6-0.1,6.7,1C438.3,453.9,439.7,453.4,439.8,455z"/>
			<path class="st19" d="M437.5,453.5c-28.5,0.1-57.1,0.2-85.6,0.2c-96.7,0-193.3,0-290,0c-2.3,0-4.6,0.2-6.8,0.3
				c-0.4-0.1-0.9-0.2-1.3-0.3c0.4-0.4,0.8-0.8,1.3-1.2c2.4-1.2,4.9-0.6,7.4-0.6c121.8,0,243.5,0,365.3-0.1c2.4,0,5,0.6,7.4-0.6
				C435.8,452,436.7,452.8,437.5,453.5z"/>
			<path class="st8" d="M68.4,353.9c1.1-0.6,2.5-2,3.1-1.7c4.6,2.3,3.5-1.4,3.7-3.5c0.3-3.7-1.5-7.7,1.3-11.2
				c-1.6,16.8,8.3,26.7,22.5,22.5c2.1-0.6,4.2-1.8,6-3.1c5.3-3.7,7.8-2.8,10.2,4.3c-1.3,2.8-2.8,5.2-6.4,5.1
				c-16.5,7.5-32.1,3.7-39.4-9.6C68.9,355.9,68.7,354.9,68.4,353.9z"/>
			<path class="st20" d="M60,457.5c124.1,0,248.2,0,372.3,0c2.2,0,4.6-0.8,6.5,1.2c-15.8,0-31.7,0-47.5,0c-10,0-20,0-30,0
				c-12,1.9-24.1,2.4-36.2,1.8c-14.6,0.5-29.1-0.1-43.7,0.1c-10.1,1.2-20.1-1.5-30.1-1.3c-13.3-0.4-26.7,0.8-40-0.6
				c-7.1,0-14.2,0-21.3,0c-2.9,0.9-5.8,1-8.8,0c-13.3,0-26.7,0-40,0c-26.4,0.1-52.8,0.2-79.2,0.4C60.6,459.1,60.2,458.6,60,457.5z"
				/>
			<path class="st21" d="M435,451.2c-1.8,2-4.3,1.2-6.5,1.2c-124.5,0-249,0-373.5,0c2.3-2.2,5.2-1.2,7.7-1.2
				C186.8,451.2,310.9,451.2,435,451.2z"/>
			<path class="st9" d="M281.3,458.8c14.6,0,29.2,0,43.7,0c1.8,2.7-0.9,3.5-2.2,5c1.5,0,2.4-1,3.5-1.5c6.7-3.2,7.1-2.9,8.6,5.3
				c0.2,2.3-0.2,4.5-1.4,6.6c-2.1-0.1-2.7-1.9-3.8-3.2c-2.8-2.7-5.9-2.4-9.1-0.8c-0.6,0.8-1.1,1.8-2.1,2.3c-0.4,0-0.8,0-1.2,0
				c-2.2-3.5-5.3-4.2-9-2.8c-0.8,2.1,1.7,3,1.7,4.8c0.1,4.4,1.6,9-1.5,13.1c-1.1-0.4-2.3-0.8-3.4-1.3c-0.8-0.4-1.1-1-1.1-1.8
				c0-0.4,0.1-0.8,0.3-1.2c-0.5-0.4-0.9,0.3-1.4,0.1c-4.2-1.2-3.3-4.8-3.4-7.7c0-3.3-0.4-6.2-3.5-8.1c-0.4,0.4-0.8,0.8-1.1,1.3
				c-0.8,3.1-0.8,7.1-5.9,5.4c-0.5-0.3-0.9-0.7-1.1-1.3c-0.1-0.4-0.2-0.8-0.2-1.2c-0.2-2.9,3.6-4.7,1.9-8.2
				c-1.8-3.5-5.3-1.1-7.5-2.8C281.4,460.2,280.9,459.7,281.3,458.8z"/>
			<path class="st22" d="M137.5,367.2c4.2-3.7,8.8-6.1,14.6-6c0.1,0,0.4-0.2,0.4-0.3c-0.1-0.3-0.2-0.7-0.4-1
				c3.7-4.5,9.6-6.9,11.7-12.9c1.8-6,1.8-6,4.8-6c-0.9-1.9-3.4-1.5-4-3.1c-0.3-0.5-0.5-1.1-0.6-1.7c1-7.4,1.7-8.2,7.1-7.4
				c0.9,2,1.9,4,2.8,6c1.8,6.1,1.5,12.1-0.3,18.2c-0.2,1.8-0.6,3.5-2.4,4.4c-8.5,10.8-19.4,14-32.4,10.3
				C138.2,367.9,137.7,367.8,137.5,367.2z"/>
			<path class="st23" d="M344,324.9c4.4-0.8,4.7-4.1,4.8-7.6c2.8,1,3.8,3.8,6.1,5.4c5.2,3,4.8,8.5,6.1,13.3c0.3,1.2,0.3,2.5,0.1,3.7
				c-0.6,2-0.7,4.1-1,6.2c-0.1,0.6-0.3,1.2-0.5,1.7c-2.7,4.5-3.9,10.2-9.9,12.1l0.3,0.2l-0.2-0.2c-0.8,1.4-1.8,2.3-3.5,1.6
				c-2.1-1-3.1-4.6-6.7-1.5c-1.6,1.4-0.4-4.3-3.6-3.7c-0.1-0.6,0-1.1,0.3-1.6c5.2-2.9,10-6,11.3-12.4c1.2-2.3,1.1-4.6-0.1-6.9
				C346.6,331.7,343.3,329,344,324.9z"/>
			<path class="st8" d="M289.1,343.6c-5.1,2.5-2.5-3.4-4.9-4.6c-2-1-2.5-6.2-5.4-0.7c-0.2,0.4-2,0.5-2.3,0.1
				c-0.8-1.1,0.8-0.8,1.1-1.4c1.1-1.6-0.1-1.9-1.2-1.5c-1.6,0.6-2.8,0.1-4.6-1.2c4.4-1.4,5.2-4.7,4-8.1c-2.1-5.8,0.6-7.3,6.5-7.1
				c-3.1-1.9-5.8-3-7.5-5.4c3.3-0.3,3.7-2.6,3.7-5.3c0-4.3,0.1-8.6,0.1-12.9c1.1,1.9,1,4.1,0.8,6.1c-0.6,7.3-0.7,13.4,9.7,13.6
				c5.8,0.1,7.5,6.4,9.2,11.4c1.9,2.3,0.3,4-0.9,5.8c-0.5,1.5-1.1,3-1.6,4.5C295.4,341,291.7,341.8,289.1,343.6z"/>
			<path class="st24" d="M171.2,357.3c0.6-1.6,1.2-3.1,1.8-4.7c2.6-5.5,0.5-11.6,1.8-17.2c0.2-0.8,0.2-1.8,0.6-2.3
				c3.9-4.6,5-10.2,5.8-15.9c0.1-0.6,0.2-1.2,1-0.9c0.5,0.2,0.9,0.8,1.4,1.2c1.7,6,0.4,12.2,0.8,18.3c0.2,2.4-0.4,4.9,0.5,7.3
				c0.2,7.7,0.3,15.4,0.5,23.1c2.2,1.7,5-0.2,7.2,1.2c-1,1.8-2.9,1.2-4.4,1.8c-5.7,2.4-6.9,1.7-6.2-4.3c0.7-5.4-4.2-6.6-6.3-5.6
				C172.2,361.1,172.1,359.2,171.2,357.3z"/>
			<path class="st0" d="M281.3,458.8c1,1.4,2.6,1.6,3.9,1.2c5.9-2.1,5.4,4,7.9,6.1c0.8,0.7-0.6,1.2-1.3,1.5c-2.7,1.2-2.9,3.6-3,6.2
				c-4.6-2.8-7.4-1.9-8.2,3.7c-0.2,1.6-1.1,3.1-2.6,4c-1.7,0.6-2.8-0.6-3.9-1.5c-0.4-0.4-0.8-0.8-1.2-1.2c-0.9-3-6.7-1.4-5.7-6.2
				c0.8-2.5,5.6,0.2,5-3.9c-2.7-1.3-5.4-0.8-8.2-0.3c-0.5,0.2-1.1,0.3-1.6,0.4c-2.6,3.4,0,7.6-2.1,12c-0.6-5.8,0.3-11.2-2.8-15.8
				c0.7-1.6,3.9-1.7,3-4c-0.9-2-3.3-0.8-5-1c-1.4-0.2-2.8,0-4.2,0c-0.4-0.3-0.6-0.6-0.4-0.8c0.1-0.3,0.3-0.4,0.4-0.4
				C261.2,458.8,271.3,458.8,281.3,458.8z"/>
			<path class="st15" d="M407.5,372.5c-1.4,0.8-0.1,1.7,0,2.5c-1.4,0.8-3.7,0.8-3.1,3.4c0,16,0,32,0,48c0,2,0.5,4.2-0.6,6.1
				c-3-4.6-2-9.7-2-14.7c0-8.1,0.5-16.3-0.7-24.3c-0.6-3.9-5.5-2.2-7.3-4.8c3.6-1.8,6.2-9.6,4.2-12.9c-1.6-2.7-3.7-0.1-5.5-0.2
				c-0.9,0-1.8,0-2.7-0.3c-2.8-0.6-5.7-0.2-8.5-0.3c-2.9,0.2-5.7-0.4-8.5-1c-2.2-0.5-3.8-1.7-3.5-4.2c0.3-2.9,2.3-3.5,4.8-3.5
				c2.9,0.1,5.6,1.2,8.5,1.3c1.7,0,4.2,1.6,5-1.6c0.6-0.2,1.1-0.4,1.7-0.2c-0.4-0.4-0.9-0.1-1.4-0.1c-1,0.2-1.9,0.8-2.9,0.9
				c-3.8,0.6-7.5,0.1-11.2-0.5c-1.4-0.2-3.1-0.5-2.3-2.7c7.5-0.2,14.9-0.9,22.3,0.3l0,0c2,0.9,3,2.9,5,3.7c0.4,0,0.8,0,1.2,0
				c1.1,1,2.8,1.2,3.8,2.5c0.8,0.4,1.7,0.8,2.5,1.2C407.4,370.9,407.8,371.4,407.5,372.5z"/>
			<path class="st25" d="M358.6,347.1c-0.2-0.3-0.2-0.6,0.2-0.8c0.5-0.5,0.7-1.3,1.1-1.9c0.3-0.7,0.7-1.4,1-2.1
				c0.8-2.2,0.3-4.5,0.4-6.7c-0.6,0.3-0.9,0.9-1.5,1.1c-1.1-4.8-2.2-9.7-4.9-13.9c0.4-1,1.1-2.3,2-2c5.6,2.1,6.1-0.3,4.8-5
				c-1.4-5,3.4-4.3,5.8-5.8c0.7,0.5,0.7,1.1,0.2,1.8c-0.9,1.2,1.3,2.5-0.1,3.7c1.2,13.4,0.2,26.9,0.6,40.3c0.1,2.2-0.7,4.6,0.7,6.6
				l0-0.1c0.6,0.7,0.7,1.5,0.4,2.3c-2.3,0.5-4.4,1.4-6.7,1.6c-0.4-1.2-0.8-2.5-1.3-3.8C357.8,357.8,357.7,352.5,358.6,347.1z"/>
			<path class="st0" d="M290,373.8c1.2-4.3-2.7-1.7-2.8-1.6c-2.9,2.5-6.2,1.4-9.6,1.3c2.4-0.6,4-2.7,4.1-4.3
				c0.1-1.7-3.4,0.8-4.2-1.6c1.4-5.1,0.2-10.3,0.7-15.4c0.1-1.8-0.8-4.8,3-3.3c3.6,4.7,5.1,10.5,9.1,15c3.4,0,7.7,3.4,9.4-2.6
				c0.5-0.4,1-0.3,1.5,0.1c-0.3,1.7,5.1,3.3,0,5c-2.9,1.5-5.9,0.3-9.7,0.5c3.9,0.4,7.2-0.7,9.7,2c-0.9,1.8-3.2,0.7-4.7,2.5
				c4.1,1.1,6.2,5.6,10.9,5c0.4,0.6,0.4,1.1-0.2,1.6c-3.6-0.8-7.3-0.4-11-0.2C295.8,373.7,291.8,375.6,290,373.8z"/>
			<path class="st0" d="M261.4,290.6c0.7,1.9,1.5,3.8,2.2,5.7c0.4,3.8,4,7,2.5,11.2c-0.9,0.2-1.8,2.3-2.2,1.1c-2-4.9-6-3.4-9.5-3.6
				c-4.7-0.4-9.5,1-14.1-1.1c-6.6-3-8-7-4.4-14.7c0.5,4.3,1.6,7.4,6.7,3.2c-1.6,6.8,0.6,9.1,6.1,6.9c2.5-1,3.7,1.2,7.1,1.3
				c-6.8-7,0.5-12,1.2-18.9c0.9,3.9,1.1,7.3,2.5,9.9C260.7,294.5,261.1,291.9,261.4,290.6z"/>
			<path class="st9" d="M108.8,366.4c2.1-1.7,4.3-3.4,6.4-5.1c5.1-4.6,6-10,3.7-16.4c-0.8-2.2-0.4-4.9-0.1-7.3
				c0.3-1.9,0.3-4.8,3.8-3.5c-3.1,12,1.9,21.7,9,30.7c-1.5,0.4-2.1-2.1-3.8-1c1.8,1.8-1.7,3.9-0.5,4.6c3.6,2-0.4,2.3-0.5,3.4
				c-4.7-1.4-8.4,4.2-13.2,2C111.3,371.8,110.1,369.1,108.8,366.4z"/>
			<path class="st8" d="M171,328.8c-5.7-0.4-5.4,4.1-6.1,7.7c-2.1,0.1-2.7-1.6-3.7-2.8c-5.7-7-10.5-8.4-19.1-5.6
				c-1.5,0.5-2.9,1.8-4.6,0.6c0-3.1,1.5-5.5,3.5-7.7c2.1-2.3,0.8-3.2-1.6-3.5c1.6-0.7,3.1-1.4,4.7-2.2c1.7-1.6,3.9-0.3,5.7-1.1
				c3.7,1,8.2-0.2,11,3.7C164.6,321,169.2,323.5,171,328.8z"/>
			<path class="st26" d="M300.6,132.4c2.5-0.9,5-2,7.5-2.8c2.4-0.8,5.5-2.5,7.2,0.5c1.6,2.9,1.8,6.2-0.6,9.3
				c-8.3,10.9-21.8,11.3-31.5,0.8c5.9,1,12.2-0.2,17.4,3.8c1.3-3.7,0.3-7.5,1.8-10.9C302.8,132.3,301.3,132.6,300.6,132.4z"/>
			<path class="st27" d="M285,398.6c-3.9-0.1-7.8-0.3-11.7-0.3c-7.9,0-8.9-1.6-5.9-9.8c1.6,2.7-3.2,8.4,3.9,8.6
				c3.6-2,7.6-0.2,11.3-1.2c0.2-0.2,0.3-0.3,0.5-0.5c0.2-0.2,0.4-0.3,0.5-0.5c3.5,3,8.7,5.1,5,11.3c-1.4,0.9,0,2.8-1.3,3.7
				c-1,0-2,0.3-2.5,1.3c-0.5,0.4-1.1,0.5-1.8,0.5c-2.7-0.2-5.3-0.6-8-0.7c-2.2-0.1-5.4-0.9-6,1.5c-0.7,3-2.4,6.9,1.7,9.2
				c3.3-1.1,6.7-1,10.2-0.8c1.9-0.4,3.5,0.2,5.1,1.2c0.4,0.1,0.9,0.1,1.3,0.2c1.5,2,1,4.5,1.6,6.8c0.1,1,0,2-0.1,3.1
				c-0.2,1-0.6,1.9-1.5,2.6c-9.1,0-18.2-0.2-27.3,0.1c-4.1,0.1-5.4-1.4-5.3-5.4c0.2-9.7,0.1-19.4,0.2-29.1
				c1.4,9.5,0.8,19.1,0.8,28.6c0,4.2,1.3,5.2,5.3,5c7.3-0.4,14.6-0.4,21.8-0.2c4.6,0.2,3.7-2.8,3.7-5.4c0-2.6,0.8-5.6-3.8-5.3
				c-5.4,0.4-10.8,0.2-16.2,0.2c-0.7-0.3-1.2-0.8-1.5-1.5c-0.4-4-0.3-8-0.1-12c0.2-0.7,0.7-1.3,1.3-1.7c4.3-0.5,8.7-0.5,13-0.1
				c4.9,0.5,6.7-1.4,6.2-6.1C285.5,401,285.9,399.7,285,398.6z"/>
			<path class="st28" d="M335,467.5c1.6-2.5-5.7-1.6-2-5.2c0.4-0.4-1.5-1-2.4-0.5c-2.2,1.1-4.3,2.2-6.4,3.4c-1.4,0.8-3.5,2-4.3,0.3
				c-0.8-1.6,0.3-3.5,2.8-3.6c1.9-0.1,2.1-1.6,2.2-3.1c12.1,0,24.2,0,36.2,0c-1.2,1.6-3,1.3-4.6,1.2c-3.7,0-7.2,0-3.5,5.1
				c-1.5,0.8-3,1.7-4.4,2.5c-3.4,2.9-7.3-0.1-10.8,0.8c-0.6-0.1-1.2-0.4-1.6-0.9C335.8,467.5,335.4,467.5,335,467.5z"/>
			<path class="st9" d="M225,378.8c-8.3-0.1-16.5-1-24.8,0.2l-0.3-0.4c1.9-4.5,5.4-1.8,8.3-1.8c0.6,0,1.2-0.1,1.7,0.2
				c-0.1-0.5-0.5-0.1-0.7-0.2c-0.4-0.1-0.8,0-1.2-0.1c-1.2-0.3-2.4-0.5-3.7-0.6c-1.7-0.1-4.3,0.5-4.3-2.1c0.1-1.8,2.6-2.1,4.1-1.8
				c3.9,0.8,5.5-1,5.9-4.4c0.5-3.2,1.8-3.9,4.4-1.9c3.5,2.6,7,0.8,10.5,0.1c0.3-0.1,0.6-0.1,0.8-0.2c0.9,0.5,1.8,1,2.7,1.5
				c2.6,1.4,3.6,4.2,2.9,6.3c-0.6,1.9-3.5,2.6-5.9,1.6c-0.7-0.3-1.5-0.2-2.8-0.3C223.8,376.7,224.4,377.7,225,378.8z"/>
			<path class="st29" d="M75,482.5c0.2-1.4-0.2-2.7-1.5-3.1c-1.8-0.6-1.4,1.5-2.1,2.2c-1.7,1.7-0.1,6.2-3.7,5.7
				c-3-0.4-2.1-4.3-2.7-6.7c-0.9-3.5-1.2-7.3-2.8-10.6c1-3.5,2.6-1.6,3.8-0.3c1.8,2,2.1,4.6,2.3,7.2c0.4-2.5,0.4-5.2,2.9-6.9
				c0.3-0.2,0.4-0.5,0.2-0.9c4.7-2.7,5.5,1.1,6.7,4.3c0.4-1.2,0.8-2.1,1.3-3c1.2-1.6,2.4-3.2,4.7-1.8c-1.3,5.4-2.7,10.7-3.8,16.1
				c-0.4,1.8-1.8,1.2-2.7,1.8C74.5,486.5,76.4,483.5,75,482.5z"/>
			<path class="st30" d="M260,348.8c0.7,5.1-0.2,10.7,3.8,15c0,1,2.7,1.2,0.8,2.8c-2.3,1.8-3.5,4.4-4.3,6.9c-3.4-0.6-3-3.3-3.4-5.3
				c-2.4-0.1-2,2.5-3.6,3.1c-0.2-0.3-0.6-0.6-0.5-0.8c1.6-8.1,1.5-16.3,1.3-24.5c-0.1-2-0.8-4.3,2.3-4.8
				C256.6,344.2,255,348.1,260,348.8z"/>
			<path class="st31" d="M161.2,472.4c5.1-3.3,10.2-6.3,16.3-2.4c1.2,0.5,2.1,1.4,2.4,2.7c0.4,2.3,0.8,4.6,1.2,6.9
				c-1.2,3.3-3.3,5.9-6.4,7.7c-0.6,0.9-1.4,0.8-2.2,0.4C162.4,486.5,161.1,484.7,161.2,472.4z"/>
			<path class="st0" d="M80,471.2c0,2.6-2,4.5-1.3,7.5c-3.3-1.8-2-4.4-2.5-6.4c-0.7-2.4-1.2-5.1-4.8-3.1c1.3-2.4,7.8-0.7,5.2-6.4
				c-0.1-0.1,1.1-1,1.2-1c4.8,3.9,9.7-0.9,14.5,0.1c1.4,0.3,2.2,0.7,2.7,1.9c-0.3,0.5-1.2,0.3-1.4,1c0.4-0.4,0.9-0.7,1.4-1
				c1.5,1.5,6.4,0.4,3.8,5c-2.6,2-2.9,5.2-4.5,7.8c-0.8,0.9-1.7,1.5-3,1.2c-2.8-1.9-0.5-7.1-5.2-7.8c-0.4-0.3-0.8-0.6-1.1-0.9
				C81.8,466.4,81,469,80,471.2z"/>
			<path class="st32" d="M318.7,472.5c0-1.2,0.1-2.4,0.1-3.6c4.3-1.1,8.6-2,12.3,1.4c0.8,1.3,1.7,2.5,2.5,3.8
				c-0.1,0.4,0,0.7,0.3,0.9c0.7,2.1,0.8,4.2,0,6.2c-1.1,1.2-2,2.6-3.2,3.7c-3,2.7-6.9,3.3-10.3,2.1c-3-1.1-1.1-4.7-1.4-7.1
				C318.7,477.4,318.8,474.9,318.7,472.5z"/>
			<path class="st33" d="M362.4,432.5c1.9-4.7,4.2-9.2,8.6-12.2c1.3-0.9,1.2-1.2,2.8,0.9c2.3,4.1,1.4,8.2-0.2,12.3
				c-0.2,0.6-0.6,1.1-1,1.5c-7.5,0.6-1.3-4.3-2.5-6.2c-1.5-0.9-2.3-0.4-2.5,1.3c0.4,4.5-1.6,7.7-4.8,10.6c-2.5-3.3,2-3.2,1.8-5.4
				c-11.7-0.5-23.5-0.6-36.2,4.6c3.9-5.2,8.6-3.9,11.8-6.1c4-3.1,8.6-1.3,13-1.7c2.4-0.2,4.9,0,7.3-0.2
				C361.1,431.8,361.8,432,362.4,432.5z"/>
			<path class="st34" d="M199.8,486.2c-2.5,2.3-4,0.9-5.4-1.3c-1.6-2.6-3.4-5.1-6.3-7.4c0,2.1-0.1,4.2,0,6.2c0.1,2.3-0.9,3-3.1,2.3
				c-1.3-5.4-0.3-11-0.6-16.4c5.6-3.3,6.4,2.7,9.7,4.9c0.9-1.5,0.3-3.6,1.4-4.8c1.9-2.1,4.8-2.3,5.2,0.5
				C201.5,475.4,203.6,481.1,199.8,486.2z"/>
			<path class="st35" d="M362.8,487.4c-2.6-1.5-1.1-4.1-1.6-6.1c-1.8-3.7-1.8-7.5,0-11.2c2-2.8,4.1-4.8,8-2.8c1.6,0.8,4,0.1,6,0.1
				c2.8-0.6,5.5-0.6,8.3,0c0.5,0.6,0.9,1.1,1.4,1.7c-0.5,0.4-1.1,0.9-1.6,0.8c-3.9-0.4-5.9,1.3-6,5.2c-0.9,4.3-3.7,8-3.6,12.5
				c-0.5,0.4-1.1,0.4-1.6,0.1c-1.2-1.2-2.5-2.1-4.1-2.6c-1.2-0.4-2.8-1.5-2.5-2.5c1.5-4.1,0.6-8.2,0.9-13.2
				C361.8,475.2,366.3,482.2,362.8,487.4z"/>
			<path class="st36" d="M199.8,486.2c-0.1-4.9-0.2-9.9-0.2-14.8c0-1.5-0.2-3-2.2-2.9c-1.8,0.1-1.5,1.6-1.5,2.8c0,2.4,0,4.8,0,9.3
				c-2.6-3.9-4.1-6.4-5.8-8.6c-1.2-1.6-2-4.3-5-2.9c-0.4,0.3-0.7,0.6-1.1,1c-0.9-0.8-1.4-2.2,0-2.2c4.1,0.1,5.2-2.2,5.6-6.4
				c-0.8,8.3,4.8,6.2,8.2,5.6c1-0.2,2.1-3.3,4.8-2c0.6,0.5,1.4,0.8,1.7,1.6c0,0.5-0.1,1.1-0.3,1.6c-0.9,1.4-1.1,2.9-1.4,4.5
				c1.6,3.9,1.1,8.1,1.2,12.2C203.9,490.2,201.4,486.6,199.8,486.2z"/>
			<path class="st27" d="M226.3,465c2.5-0.1,5,4.2,7.5,0c0.2,0.1,0.5,0.2,0.8,0.3c1.1,1.1,2.8,2,1.6,4c-2,1.6-4.6,2.7-5.1,5.7
				c-0.8,2.3-1,4.5,0,6.8c0.4,1.1,0.8,2.1,0.5,3.3c-0.8,1.6-1.8,3.1-4,2.4c-0.5,0-1-0.1-1.5-0.1c-3.3-3.6-5.3-7.3-2.2-12.2
				c1.4-2.2-0.1-4-2.5-4.5c-2.5-0.5-4.3-0.1-4.6,3.2c-0.3,4.5,1.1,9.1-1.3,13.4c-2.5-0.7-0.9-3.8-2.9-4.8c-0.1-0.3-0.3-0.5-0.4-0.8
				c-0.1-3.7,0.5-7.5-0.3-11.2c-0.1-0.6,0-1.2,0.1-1.8c0.1-0.3,0.2-0.6,0.3-0.8c1.1-2.3,3.1-2.4,5.2-2
				C220.4,466.6,223.4,466,226.3,465z"/>
			<path class="st37" d="M231.3,485c-0.4-0.8-0.9-1.6-1.3-2.4c-1-2.6-0.8-5.2-0.1-7.9c-0.3-4.6,3.4-5.1,6.3-6.3
				c0.8-0.7,1.7-0.9,2.7-1c3.9,0.7,7.4,2.1,8.6,6.4c0,0.4,0,0.8,0.1,1.1c0.9,2.1,0.9,4.3,0,6.4c-0.1,0.4,0,0.8,0.1,1.2
				c0.6,1.5-0.6,1.9-1.6,2.4c-2.9,2.2-6.2,3-9.8,2.7c-0.7,0.6-1.5,0.8-2.4,0.4c-1-0.5-2-1.1-2.5-2.3
				C231.4,485.5,231.4,485.2,231.3,485z"/>
			<path class="st9" d="M195,336.3c1.4,0.3,2.2,1.1,2.5,2.5c1.3,7.1,1.8,14.4,4.3,21.3c0.1,0.5,0.1,1.1,0,1.6
				c-0.4,0.9-1.1,1.4-2.1,1.4c0,0-0.5-0.1-0.5-0.1s0.5,0.3,0.5,0.3c4.7,1.8,1.7,5.2,1.3,7.8c-0.2,1.6-2.3,2.8-1.4,4.9
				c-0.3,1.2-1.2,1.9-2,2.7c-7.5-1.7-3.9-7.1-3.8-11.3c1.1-5.9,0.5-11.8,0.6-17.7C194.7,345.3,193.5,340.7,195,336.3z"/>
			<path class="st38" d="M215.4,487.3c-0.1-4.9-0.2-9.9-0.2-14.8c0-1.5-0.8-3.7,1.6-4c2.6-0.3,5.5-0.7,7.7,1.3
				c1.4,1.3,2.8,3.9,1.5,4.9c-5.6,4.5-0.1,8.5,0,12.7c-4.5,0.2-3.9-4.6-6.6-6.5C217.4,482.6,221,488,215.4,487.3z"/>
			<path class="st39" d="M146.2,468.7c5.8-1.9,10.7,0.1,15.1,3.8c-1.3,0.2-3-0.8-3.9,1c-1.8,1.3-3.6-0.2-5.4-0.2
				c-2.9-0.1-5,1-5.1,4.1c-0.1,3.4,2.1,4.6,5.3,4.5c2.1,0,4.8-2.9,6.4,0.9c0,0.6,0,1.3,0.1,1.9c-0.6,1.7-2.1,2.3-3.7,2.5
				c-5.8,0.8-10.9-0.1-13.8-6.1c-0.8-2.1-0.7-4.2-0.1-6.2C142.2,472.4,144.2,470.6,146.2,468.7z"/>
			<path class="st0" d="M324,404c-3.8-3.2-7-5.8-3.8-12.2c1.2-2.4-0.7-7.5-1.1-11.5c-0.4-4.6,4.2-3.1,4.6-5.7c2.2,1.4,3.1,3.5,2,5.9
				c-1.1,2.6-0.4,5.3-1.5,9.4c-0.4-3.3-0.7-5.3-0.9-7.2c-0.3,0-0.6,0-0.9,0c0,2.9,0,5.8,0,8.8c0,1.8,0.2,1.4,2.9,2.4
				c1.4,0.5,2.3,2.6,3.1,4.1c0.3,0.7-0.3,1.9-0.5,2.9C323.2,397.8,326.1,403.7,324,404z"/>
			<path class="st40" d="M281.3,111.2l0.4-0.3l0.5,0.2c1.4,0.1,2.8,0.3,4.2,0.4c0.3,1.8-1.1,2.3-1.8,2.1c-5.8-2.1-9.8,4.3-15.8,3.2
				c-2.7-0.5-2.2,3.1-0.8,5c0.4,0.6,2.3,0,1.4,1.7c-0.6,1.2-1.6,1-2.6,0.2c-1.3-1-2.9-1.8-3.8-3.1c-1.7-2.6-2.1-6.5-6.8-5.6
				c-3.2,0.6-6.6-1-9.7,1.1c-2.9,2.1-3.5,0-4-2.3c3.6-1.8,7.6,0.4,11.2-1.3c3.3,0,6.7,0,10,0c1.7,0.8,3.4,1.7,5-0.1
				c0.7,0,1.4,0,2-0.1C274.2,111,277.9,112.9,281.3,111.2z"/>
			<path class="st2" d="M236.3,58.9c2.5-1.6,5.2-2.7,8.2-2.8c2.2-0.5,4.5-1,6.6,0.2l0.1,0.1c-0.2,2.8-2.2,1.4-3.6,1.6
				c2.4,0.2,4.4,0.9,4.5,3.7c0.1,3.1-2.9,3.1-4.6,4.4c-3.9-1.4-7.4,0.7-11,1.4c-0.2,0.1-0.4,0.3-0.6,0.2c-2.6-1.2-6.8-1.2-7.3-4.1
				c-0.3-2.1,4.1-1.4,5.8-3.1C235,60,235.8,59.6,236.3,58.9z"/>
			<path class="st41" d="M93.5,476c1.8-2.4-1-8.1,5.2-7.3c0.4,2.1,0.8,4.2,1.3,6.2c1,1.5,1.6,3,1.5,4.8c-0.3,1.7-0.1,3.6-2.5,3.9
				c-0.1-2.2-2.1-3.8-1-7c-3.3,2.8-3,5.9-4.2,8.4c-0.4,0.9-0.3,2.1-1.7,2.1c-1.6,0.1-2-1-2.3-2.3c-1.2-5-2.5-10-3.7-15
				c1.8-2.5,3.2-2.4,3.9,0.7c0.6,2.2,0.9,4.4,1.4,6.7C93,478.4,93.1,476.9,93.5,476z"/>
			<path class="st42" d="M158.6,482.9c-1.3-1-2.5-0.7-4,0.1c-3.3,1.9-6.6,1.5-8.8-1.6c-1.9-2.5-1.9-5.7,0.3-8c2.6-2.7,5.8-2.7,9-0.7
				c0.7,0.4,1.5,0.6,2.3,0.8C159.1,476.5,156.7,480,158.6,482.9z"/>
			<path class="st23" d="M309.6,90.2c5.3-2.4,8,2.1,9.2,5.1c1,2.4,1.8,4.8,3.4,6.8c4.7,5.6,2.9,12.4,3.3,18.7c0.2,2.7,2.4,6-0.9,9.4
				c0-3.2-1.3-5.4-2.4-7.7C323.4,109.6,319.2,98.8,309.6,90.2z"/>
			<path class="st0" d="M346.3,361.3c1.2-0.5,2.3-1.1,3.5-1.6c0.2,2.5,0.2,5,0.8,7.3c0.4,1.9-1,3.6-1.6,2.9c-2.6-3-6-0.1-9.1-2.1
				c-3.9-2.5-9.1-2.6-13.4-0.3c-3.9,2.1-7.1,2.2-10.4-0.8c1.5-2.4,4.8-0.9,6.4-3.1C330.7,365.5,338.8,366.7,346.3,361.3z"/>
			<path class="st0" d="M289.1,343.6c0.9-3.7,5.2-3.8,7-6.6c0.9,2.6,1.4,5.1,3.4,7.5c3.8,4.7,1.8,8.8-3.2,11.7
				C292.9,352.6,291.8,347.7,289.1,343.6z"/>
			<path class="st43" d="M362.8,487.4c-0.1-5.4-0.2-10.8-0.3-16.2c0-1.7,0.3-3,2.3-2.8c2.6,0.3,6.2-1.4,7.6,1
				c1.5,2.7-1.7,2.3-3.4,2.4c-1.3,0.1-2.7,0.1-2.7,1.8c0,1.9,1.6,1.3,2.8,1.5c1.5,0.2,3.8-0.7,3.7,2c-0.1,2.1-2,1.7-3.4,1.7
				c-1.8,0-3.3,0-3.2,2.6c0.1,2.5,1.7,2.5,3.4,2.4c3-0.2,3.8,1.1,2.7,3.7c-1.5,1.6-3.1,1.1-4.8,0.2c-0.4,0-0.8,0-1.3,0
				C365.1,487.5,363.9,487.5,362.8,487.4z"/>
			<path class="st44" d="M341.5,472.5c-1.2,3,1.1,2.5,2.6,2.4c2.7-0.2,3.8,0.9,3.3,3.6c-0.3,0.5-0.7,0.9-1.2,1.2
				c-0.7,0.8-4.4,0.9-0.6,2.7c1.1,0.5,2.4,0.9,2.1,2.5c-2.3,5.2-6.8,1.2-10,2.4c-1.8-6.1-0.6-12.3-0.6-18.5c2.2-1.9,4.7-1.1,7.1-0.8
				c1.5,0.2,3.7-0.6,3.6,2c-0.1,2-2,1.6-3.4,1.7C343.4,471.9,342.4,471.8,341.5,472.5z"/>
			<path class="st12" d="M247.5,66.2c4.8-5.8,4.8-5.8-1.3-8c1.4-1.3,3.8,0.2,5-1.7c3,3.9,6,7.9,9.1,11.8c0.1,1.8,1.3,2.9,2.2,4.3
				c0.9,1.5,1.8,3.1,2.7,4.6c0.6,5.3-2.3,2.1-4.1,1.7c-3.7-2.9-7.1-6.2-9.8-10c-0.6-0.9-0.1-1.6,0.5-2.1c-0.1,0,0.1-0.1,0.1-0.1
				s-0.3,0.1-0.4,0.1c-1.1,0.2-2.1,0.1-3.2-0.2l-0.5,0.1L247.5,66.2z"/>
			<path class="st45" d="M267.8,472.5c-1.5,3.5,1.5,2.5,2.8,2.5c2.9-0.1,3.5,1.2,2.9,3.7c-0.8,1.3-2.3,1.4-3.4,2
				c-0.4,0.7-0.1,1.1,0.6,1.5c2.9,1.2,5.9,2.3,2.6,6c-2,0.8-3.9,1-5.7-0.5c-1.2-0.1-2.3-0.1-3.5-0.2c-2-5.6-0.5-11.4-0.8-17.1
				c-0.1-2.2,1.7-2.7,3.5-2.7c2.4,0,5.1-0.8,7,1.4c1,1.2,0.3,2.3-1.1,2.7C271.1,472.2,269.3,471.4,267.8,472.5z"/>
			<path class="st0" d="M362.5,366.2c1.9-1.2,3.7-3.3,6.3-1.3c0.7-0.6,1-2.4,2.5-0.9c4.9,1.8,10,0.4,15,0.9c0.4,0.5,1.2,0.5,1.2,1.2
				c0.8,0.6,2.3,1.1,2.3,1.7c0.1,1.6-1.5,0.6-2.3,1c-4.2,2.2-8-0.3-11.9-1c-2.1-0.4-4.9-1.6-5.4,1.9c-0.5,3.2,2.5,2.5,4.4,2.8
				c2.2,0.4,4.4,0.8,6.6,1.1c0.4,0.6,0.4,1.2-0.3,1.7c-3.2,0.7-6.6-0.6-9.7,0.8c-0.4,0-0.8,0-1.3,0c-1.4-2.4-5.2-3.7-2.3-7.8
				c1-1.4-1.1-2.3-2.5-1.1C363.3,368.9,362.8,368.1,362.5,366.2z"/>
			<path class="st46" d="M277.3,481.2c1.1-2.9,2.1-5.9,3.5-8.7c0.7-1.4-0.2-3.7,2.6-4.2c3.1-0.5,2.8,2.3,4.2,3.4
				c0.6,0.5,0.8,1.3,1.2,2l0,0c3.2,3.6,4.4,7.8,4.1,12.6c-2.9,1.8-3.3,1.6-4.1-2.4c-2.9-1.1-5.8-1.7-8.6,0.4
				c0.2,0.3,0.1,0.6-0.2,0.7c-2.2,2.8-3,1.1-3.6-1.2C276.3,482.8,276.5,481.9,277.3,481.2z"/>
			<path class="st47" d="M116.2,478.7c1.1-3.5,0.3-9.6,4.1-9.7c3.8-0.1,2.6,6.2,4.7,10c1.7-2.9,2.4-5.7,2.5-8.6
				c0.1-1.7,1.2-2.2,2.5-1.9c2.4,0.6,0.3,1.8,0.2,2.7c-0.3,4-1.4,7.7-2.3,11.6c-0.5,2.3-1,4.2-3.1,4.1c-2,0-1.3-2.8-2.3-4.2
				c-0.4-0.6-0.1-1.6-0.1-2.4c-1.5-1,0.9-4.3-2.4-4.1c-2.5,1.1,0.5,4.6-2.4,5.5C116.4,481,117,479.5,116.2,478.7z"/>
			<path class="st0" d="M331.1,431.3c-1.8-1.9-1.1-4.3-1.1-6.5c-0.1-14.5,0-29,0-43.6c0-1.5,0.6-3.6-0.2-4.2c-2.6-2.2-2-4.9,0.1-5.7
				c1.9-0.8,4.4,1,5.1,3.8c1.3,1.4,3.2,0.1,4.7,0.9c0.6,0.1,1.1,0.2,1.7,0.3c0,0.4,0,0.7-0.1,1.1c-0.1,0.2-0.3,0.4-0.4,0.4
				c-8.6,0.6-8.1,6.6-7.9,12.8c0.2,7.1,0.4,14.1,0.2,21.2c-0.1,4.5,0,8.9-0.1,13.4C332.9,427.3,333.1,429.6,331.1,431.3z"/>
			<path class="st48" d="M412.9,320.2c3.1,0,6.2-0.2,9.3,0.2c5.1,0.6,5.6-2,5.4-6.2c-0.2-3-1.3-3.3-3.8-3.3
				c-6.6,0.2-13.3,0.4-19.9,0.3c-3.5-0.1-4.6,0.9-4.4,4.6c0.4,8.5,0.3,17,0.4,25.5c-2.5-9.4-0.6-19-1.1-28.4
				c-0.1-2.1,1.4-2.8,3.3-2.8c7.7,0,15.4,0,23.1-0.1c2.8,0,3.7,1.4,3.6,3.9c1,2,1,4.1,0,6.2c-5.4,2.7-11.1,1.1-16.7,1.1
				C412.1,320.5,412.4,320.3,412.9,320.2z"/>
			<path class="st43" d="M377.3,475c0-0.2,0-0.4,0.1-0.6c1.9-3.2-6-2.6-2.5-5.4c2.5-2,6.6-1,9.9-0.1c-4.6,3.6-4,8.6-3.4,13.5
				c-0.8,1.6,1.1,4.9-2.2,4.7c-3.1-0.2-1.5-3.2-1.7-4.9C377.3,479.9,377.4,477.4,377.3,475z"/>
			<path class="st49" d="M305,483.8c0.1,0.8,0.2,1.7,0.3,2.5c-1.3,2.2-3.6,0.8-5.3,1.5c-1.3,0.5-2.6,0.9-3.7-0.5
				c0-6.2-0.1-12.4-0.1-18.5c2.7-1.1,4.4-0.7,4.4,2.7c0,2.3,0.3,4.6-0.1,6.8C299.9,481.9,301.8,483.2,305,483.8z"/>
			<path class="st33" d="M213.8,43.8c-0.1-2.4-0.1-4.7-0.2-7.1c0.2-1.8,0.3-3.6,0.6-6.6c2.1,10.5,2.1,19.9,2.1,29.7
				c3.6-1.4,1.5-3.7,2.2-5.2c0.4,0,0.9-0.2,1.1-0.1c1.3,1,3.4,2.1,1.9,3.8c-2.4,2.6,0.2,3.6,0.9,5.3c-2.5-0.4-5.2,3.5-7.5-0.3
				C213.4,56.8,215.5,50.2,213.8,43.8z"/>
			<path class="st0" d="M247.5,473.8c-2.1-3-4.7-5.4-8.7-5.3c-1.5-1.3-3.6-2-5-3.5c0,0,0,0,0,0c3.9-2.8,8-4.6,12.5-1.3
				c0.8,1.2,2.3,1.1,3.3,1.9c0.2,0.2,0.3,0.4,0.5,0.6c-1.2,1.9-3.4,0.7-4.8,1.5C243.7,470.8,254,468.7,247.5,473.8z"/>
			<path class="st0" d="M358.6,347.1c0.9,5.1,1.8,10.3,2.7,15.4c-3.8-0.9-7.7-1.9-11.5-2.8C353.4,356,356.3,351.8,358.6,347.1z"/>
			<path class="st50" d="M403.8,376.3c0.8-1.6,2.3-1.3,3.7-1.3c8.1,0,16.2,0,24.2,0c7.6-0.1,3.8,5.8,4.7,9.1
				c1.1,4.2-2.4,3.4-4.7,3.5c-5.2,0.1-10.4,0-15.5,0c-0.4-0.7-0.3-1.3,0.4-1.8c4.1-1.3,8.4-0.4,12.6-0.6c2,0.2,4,0.8,5.9,0
				c0.9-9,0.9-8.9-7.7-8.9c-7.5,0.1-14.9,0.1-22.4,0.1C404.7,376.9,404.2,376.9,403.8,376.3z"/>
			<path class="st51" d="M362.5,396.2c-0.1,1-0.1,2-0.2,3c-5.5,0.8-11.1,0.1-16.6,0c-2.6,0-4.9-0.8-5.8-3.7c-0.6-8.4,0.5-9.5,9-9.9
				c3.5-0.2,7.5,1.6,10.3-2c0.6-2.3,0.1-4.8,1.4-6.9c0.3-0.2,0.5-0.4,0.8-0.7c0.4,0.1,0.7,0.1,1.1,0.1c1.4,2.3,0.8,5,1.3,7.5
				c-1.8,1.3-1.1,3.3-1.2,5c-4.6,1.5-9.4,0.1-14.1,0.7c-2.3,0.3-5.1-1.1-5.2,3.1c-0.1,4.5,3.1,2.7,5.2,2.9c0.6,0.1,1.2-0.2,1.8-0.4
				C354.4,394.8,358.5,395,362.5,396.2z"/>
			<path class="st0" d="M238.8,271.3c1.2,0.7,3.7,1.7,3.1,2.4c-3.9,5.2,1.7,11.5-2.2,18c-1.3-4.4-6.3-5.7-4-10.4
				C237.2,278.1,238.6,274.9,238.8,271.3z"/>
			<path class="st52" d="M129.8,411.8c-0.2-7.4-0.5-14.9-0.7-22.3c-0.2-8.8-0.1-8.8-9.1-8.1c-1.5,6.4-0.1,12.9-0.8,19.3
				c-0.4,0.8-1,0.9-1.7,0.5c0-7.1,0-14.1,0-21.2c3.3-1.4,6.6-0.7,10-0.3c2.4,0.5,2.6,2.2,2.6,4.2C130,393.3,129.9,402.6,129.8,411.8
				z"/>
			<path class="st7" d="M308.7,472.5c-2.2-0.6-5.7-0.3-2.5-4.1c2.2-0.4,4.4-0.2,6.6-0.2c1.3,0,3.1-0.5,3.6,1.2
				c0.8,2.4-1.7,2.2-2.7,3.1l0,0c-2,4.8,0.7,10.1-1.4,14.9c-0.7,0-1.4,0-2.1,0C307.9,482.6,310.7,477.3,308.7,472.5z"/>
			<path class="st23" d="M297.7,74c2,4.2,1.7,9.5,6,12.6c-3.1-0.5-6.1-1-8.8-2.8c-1.7-1.2-5.9-1.1-2.7-5c1-1.3,1.9-2.6,2.9-3.9
				c0.6-0.6,1-1.4,2-1.4C297.2,73.6,297.5,73.8,297.7,74z"/>
			<path class="st11" d="M411,487.4c-0.7,0-1.4,0-2.1,0c-2-5.4-0.6-11-0.6-16.5c0-3.8,2.2-3.3,4.2-0.9c0.2,2.8,2.8,4.2,3.7,6.6
				c1,1.5,1.4,2.8-1,3.4c-0.5-0.4-1-0.8-1.5-1.2c-1.9-0.7-1.7,0.8-1.9,1.9C411.5,482.9,412.7,485.3,411,487.4z"/>
			<path class="st53" d="M166.2,434.9c-0.1-14.2-0.1-28.5-0.3-42.7c0-2.5,1.2-2.7,3-2.6c2.5,0.1,4.9,0.4,7.4,0.5
				c-9.1,1.8-9.1,1.8-9,12.1c0.1,9.3,0.2,18.6,0.2,27.9C167.6,431.7,168.8,433.9,166.2,434.9z"/>
			<path class="st30" d="M403.8,376.3c0.4,0,0.9,0,1.3-0.1c0,18.7,0.1,37.4,0.1,56.1c-0.5,0-1,0.1-1.5,0.1
				C403.8,413.8,403.8,395.1,403.8,376.3z"/>
			<path class="st54" d="M261.1,484.3c-1.3,5.1-5.5,2.1-8.3,3.1c-1.9-5.6-0.4-11.3-0.8-17c-0.1-1.1,0.5-2,1.7-2.1
				c1.2,0,1.7,0.9,1.8,2c0.1,1.6,0.3,3.3,0,4.9C254.7,480,256.1,483.2,261.1,484.3z"/>
			<path class="st55" d="M331.1,431.3c0.1-6.7,0.2-13.3,0.3-20c3.1,0.7,2.6,3.4,2.9,5.5c0.3,2.5,0.1,5,0.2,7.5
				c0.2,4.3,2.2,6.4,6.6,6.4c4.4,0,8.7-0.1,13.1,0c2.5,0.1,5-0.2,7,1.9c-7,1.9-14.2,0-21.2,1.2C337.3,432.1,333,435.8,331.1,431.3z"
				/>
			<path class="st56" d="M116.2,478.7c1.1,0.6,1.3,1.7,1.4,2.8c1.3,3.2-1.1,5.1-3.2,5.4c-2.2,0.3-1.6-2.5-2.1-4.1
				c-1.2-4.2-2.6-8.3-2.6-12.7c0-0.9,0.3-1.6,1.2-1.7c1.2-0.2,1.8,0.4,1.9,1.6c1.6,2.8-0.2,6.6,2.6,9.1c0.1,0.1,0.3,0.2,0.4,0.1
				C116,479.1,116.1,478.9,116.2,478.7z"/>
			<path class="st57" d="M212.4,468.9c-0.1,0.4,0,0.8,0.2,1.1c0.4,0.5,0.4,1.1,0,1.6c-2.8,1.7-1.6,5.6-4.2,7.4
				c-2.5-0.8-1.1-3-1.6-4.8c0.1,3.2,0.2,6.1,0.1,8.9c0.2-1.5-0.9-3.9,2.6-2.6c1.1,2.5,1.2,4.8-1.1,6.8c-2.9,0.3-3.3-1.3-3.2-3.8
				c0-3.7-0.3-7.4-0.5-11.1c-1-0.9-3-0.9-2.6-2.9c0.3-1.5,1.8-1.7,2.8-2C207.6,466.9,210.2,466.6,212.4,468.9z"/>
			<path class="st40" d="M292.8,486.3c-1.4-4.2-2.7-8.4-4.1-12.6c2.8-0.8,5.6-1.5,6.2-5c0,5.3,0,10.7,0,16
				C295,486.4,294.5,487.1,292.8,486.3z"/>
			<path class="st50" d="M371.3,364.1c-0.8,0.3-1.7,0.6-2.5,0.9c0-0.9,0.1-1.8,0.1-2.6c7.2,1.5,14.4,0,21.7,0.3
				c3.6,0.1,2.5-2.6,2.4-4.4c-0.1-2,1-4.6-2.9-4.8c-3.7-0.2-7.6,1.8-11-1c1.2,0,2.5,0,3.7,0c12,0.3,11.3-2.6,11.1,11.3
				C386.3,363.9,378.8,364,371.3,364.1z"/>
			<path class="st58" d="M341.5,472.5c1.4-2.2,6.1,0.8,5.7-2.5c-0.4-3.3-4.4-1.1-6.8-1.6c-1-0.2-2,0.1-3,0.2
				c-0.3-0.2-0.4-0.5-0.3-0.7c0.1-0.3,0.2-0.4,0.3-0.4c3.8-2.8,7.6,0.8,11.4,0.1c1.8,1.4,4.8-2.1,6.1,1.5c-2.6,2.3-1.5,5.4-1.8,8.1
				c-0.3,3.4,0.8,7.1-1.7,10.1c0,0-0.1,0.5-0.1,0.5c-3-5.2-0.3-10.9-1.7-16.6C347.1,473,344.3,472.7,341.5,472.5z"/>
			<path class="st59" d="M211.4,301.2c2.2-1.8,0.2-4.9,2.9-7.7c1.3,7.6,0.9,14.3-0.5,21.1c-0.1,0.6-0.4,0.7-0.9,0.4
				c-1.1-2.8-1.8-5.7-1.6-8.7C210.3,304.6,210.3,302.9,211.4,301.2z"/>
			<path class="st60" d="M99,483.7c1.2-1,0.9-2.5,1-3.8c1.4-1.4,3-2.6,2.8-4.9c0.3-1.7,0.6-3.4,0.9-5c0.9-1.1,2-2.5,3.5-1.4
				c1.4,1,0.1,2.6,0.2,4c-1.2,3.8-2.7,7.5-3.5,11.4c-0.4,1.8-0.8,3.5-2.6,3.4C99.5,487.3,99.6,485.1,99,483.7z"/>
			<path class="st0" d="M414.7,370.6c0.5-2.9,3.2-2.7,6.9-4.3c-6.2,0-10.8,0-15.3,0c0-0.4,0-0.8,0-1.2c4.9,0,9.9,0,14.8,0
				c2.1,0,3.8,0.9,3.7,3.3c-0.1,2.4-1.7,2.3-3.6,1.9C419,369.7,417,372.4,414.7,370.6z"/>
			<path class="st0" d="M202.5,329.8c-0.4-0.8-0.8-1.6-1.2-2.4c3.3-4.1,6.3,2.9,9.6-0.2c-1.6,4-1.7,7.9-2.2,11.7
				c-0.4-0.4-0.9-0.9-1.3-1.3C205,335.4,203.2,333,202.5,329.8z"/>
			<path class="st12" d="M236.3,58.9c0.3,5.3-4.7,3.2-7.3,5.3c2.7,1,5.8,0.8,7.5,3.4c-0.3,1.5-1.2,2.3-2.7,2.3c-1.9-2-3.8-4.5-7-3.6
				c-2.7,0.7-0.6-3.4-3-2.6C227.9,62,231.7,59.6,236.3,58.9z"/>
			<path class="st61" d="M307.3,377.9c0.1-0.5,0.1-1.1,0.2-1.6c0,0,0,0,0,0c0.4-0.6,0.8-0.6,1.2,0c1.5,0.9,1.2,2.4,1.2,3.7
				c-1.8,6.2,0.5,12.6-1.2,18.8c0,1.7,0,3.3,0,5c1.6,2.3-0.4,5.2,1.2,7.5c0.8,0.8,0.7,1.7,0,2.5c-0.8,0.4-1.6,0.8-2.3,1.2
				C307.5,402.6,307.4,390.3,307.3,377.9z"/>
			<path class="st62" d="M422.6,486.5c-2.5-0.1-5.1-0.1-5.3-3.6c-0.7-2.1,1-3.3,1.6-5c0.9-2.2,0.3-4.5,0.5-6.8
				c0.1-1.2,0.1-2.7,1.8-2.7c1.7-0.1,1.9,1.3,1.9,2.6C422.8,476.2,423.8,481.3,422.6,486.5z"/>
			<path class="st63" d="M261.1,484.3c-6.3,0.3-5.6-3.9-5.8-8.1c-0.1-2.5,1.9-7.3-1.6-7.2c-3.4,0-1.4,4.8-1.5,7.4
				c-0.2,3.7-0.8,7.5,0.6,11.1c-3.4-5.8-0.9-12-1.3-18c-0.1-1.2,1-1.7,2.1-1.8c1.4-0.1,2.4,0.6,2.6,2c0.2,1.4,0.4,2.9,0.1,4.3
				C255.5,478.6,256.6,482.2,261.1,484.3z"/>
			<path class="st64" d="M412.9,320.2c-0.3,0.3-0.6,0.6-0.8,0.9c-5,0.5-1.9,4.2-2.4,6.4c-0.6,2.9,1.9,2.4,3.6,2.4
				c2.2,0,4.4,0.1,6.6,0.2c-3.8,2.3-8.1,1.3-12,0.9c-4.5-0.5-1.1-5.6-3.5-7.7c0.6-0.2,1.2-0.3,1.7-0.6c1.3-0.7,1.3,0.2,1.3,1
				c0,1.6,0,3.2,1.3,4.9c0-2-0.1-4.1,0-6.1C408.9,319.5,410.5,318.9,412.9,320.2z"/>
			<path class="st3" d="M397.5,485c-0.7,4.3-4.4,1.2-6.3,2.6c-1.3,0.8-2.6,0.7-3.9,0c-0.9-3-0.2-6.1-0.4-9.1
				c0.1-0.7,0.4-1.2,1.2-1.4c1,0,1.8,0.5,2.5,1.3C391.3,482.3,396.8,481.1,397.5,485z"/>
			<path class="st0" d="M71.2,470c-0.4,2.8-0.7,5.7-2.7,8c-1.8-1.6-2.3-3.5-1.8-5.8c-1.8,0-0.4-6.5-4.4-2.2
				c-1.1-4.5,2.6-1.6,3.9-2.5l0.1,0.1C67.5,469.1,70.9,466.4,71.2,470z"/>
			<path class="st27" d="M296.4,377.6c0,13.7-0.1,27.5-0.1,41.2c-1.8-1.4-1.3-3.4-1.3-5.2c0-10.3,0-20.7,0-31
				C295,380.8,294.5,378.8,296.4,377.6z"/>
			<path class="st30" d="M286.2,422.3c-1.8,0-3.5-0.1-5.3-0.1c-2.7-1.2-5.8,0.5-8.5-1c1.9-6.4,1.8-6.3,6.6-2.4
				C281.2,420.5,285.5,417.7,286.2,422.3z"/>
			<path class="st63" d="M267.8,472.5c1.4-2.2,6.3,0.9,5.6-2.5c-0.7-3.5-4.9-1.1-7.4-1.6c-1.7-0.3-2.6,0.6-2.5,2.5
				c0.3,5.5-0.7,11,0.5,16.5c-3.5-6-0.6-12.5-1.6-18.7c0-0.4,0.1-0.8,0.1-1.3c3.7-1,7.4-0.8,11.1-0.1
				C275.5,472.5,275.5,472.5,267.8,472.5z"/>
			<path class="st53" d="M147.5,390c11.6,0,10-1,10.1,9.7c0.1,7.4-0.1,14.8-0.1,22.3c-1.3-8-0.8-16.1-0.7-24.2
				c0.1-5.2-1-7.9-6.7-6.7C149.1,391.2,147.9,391.4,147.5,390z"/>
			<path class="st65" d="M160.7,317.8c-3.6-1-7.2-1.9-10.7-2.9c-0.5-0.3-0.9-0.7-1.2-1.2c2.7-1.5,6.5,1.4,8.8-2.4
				c0.3-0.5,2.6,0.3,4,0.4C160.7,313.7,163.7,316.1,160.7,317.8z"/>
			<path class="st66" d="M372.5,435c0-0.4,0-0.8,0-1.2c3-2.3,1.6-5.6,1.9-8.5c0.4-3.4-0.7-6.9,0.6-10.2c0.7-2-2.2-4.7,1.1-6.2
				c0.1,7.8,0.1,15.7,0.2,23.5c0.9,2.3,2,4.6-0.7,6.6C374.3,438,372.6,437.1,372.5,435z"/>
			<path class="st67" d="M210.1,265c-0.6,7.1-0.5,14.2,0,21.2c1.1,2.5,0.7,5-0.2,7.5c-2.2-2.5-1.1-5.5-1.1-8.3
				c-0.2-8.7-0.1-17.3,0-26c0-2-0.7-4.2,1.4-5.7C210.9,257.5,210.9,261.2,210.1,265z"/>
			<path class="st0" d="M239,248.8c0.5-3.1,1.8-6.9,4.6-7c3.5-0.1,5.6,3.3,6.3,7c-0.8,0.4-1.5,0.8-2.3,1.2c-1.5-1.1-3.1-2.1-5-2.5
				C241.3,247.9,240.1,248.3,239,248.8z"/>
			<path class="st30" d="M296.3,426.8c-0.2,6.1,2.8,8.1,8.6,7.1c6.2-1.1,12.7,1.6,18.7-1.7c0,3.1-2.3,2.9-4.4,2.9
				c-6,0-11.9,0.1-17.9,0c-6.3-0.1-6.4-0.2-5.1-5.7C296.4,428.5,296.3,427.6,296.3,426.8z"/>
			<path class="st68" d="M72.6,426.6c0.1-3.2,2.4-2.8,4.4-2.8c4.5,0,9.1-0.2,13.6,0c2.9,0.2,5.1-0.2,6.8-3.2
				c0.4,3.3,0.8,6.5,1.2,9.8c-1.5-4.9-4.8-6.4-9.7-5.5c-5.1,0.9-10.4-1.3-15.3,1.4l-0.4,0.5L72.6,426.6z"/>
			<path class="st0" d="M235.1,266.3c0.5-3.3,1-6.7,1.5-10c3,4.7,4.4,9.6,2.2,15C233.7,272.4,238,266.7,235.1,266.3z"/>
			<path class="st69" d="M422.6,486.5c0.1-4.9,0.2-9.9,0.3-14.8c0-1.3,0.4-3.2-1.8-3.1c-1.8,0.1-1.3,1.8-1.3,2.9
				c0,2.7,0.1,5.4,0.1,8c-2.5,1.2-2.5-0.2-2.1-2c1.3-1.3,1.2-3.1,1-4.6c-0.5-4.3,1.3-6,5.8-5.5c-1.1,5.2-0.4,10.5-0.7,15.8
				C423.7,484.3,425,486.1,422.6,486.5z"/>
			<path class="st30" d="M260,323.7c0.1-3.3,0.5-6.6-0.6-9.8c7.6,2.3,4.8,8.5,5.6,13.1C260.9,328.7,265.3,320.4,260,323.7z"/>
			<path class="st23" d="M307.6,67.5c1,0.8,1.6,1.8,1.5,3.1c-4.4-1-6.4,6.1-11.4,3.4c0,0-0.2-0.3-0.2-0.3c-0.6-2.4,0.9-3.6,2.7-4.6
				c1.8,0.7,2.3-1.3,3.6-1.8c0.7-0.7,1.5-0.9,2.4-0.8C306.7,66.8,307.2,67.1,307.6,67.5z"/>
			<path class="st70" d="M181.4,130.6c2.1,3,4.2,6,6.3,8.9c-1.6,0.4,0.3,3.1-2.9,3.3c-4.6,0.2-2.4-2.7-3-4.4
				C180.8,135.9,181.3,133.2,181.4,130.6z"/>
			<path class="st71" d="M91.2,426.3c-2.4,2.2-4.3,4.5-7.3,4.9c-1.6,0.2-3.5,0.2-3.7-2.1c-0.2-2.1,1.2-2.8,3.1-2.8
				C85.9,426.3,88.5,426.3,91.2,426.3z"/>
			<path class="st13" d="M295.2,247.5c0.9-1,1.8-2,4-4.5c-2.4,7.5,2.9,7.4,5.6,9.5c-2.1,4.4-4.6,3.8-7.1,0.4
				C296.5,251.2,295.3,249.6,295.2,247.5z"/>
			<path class="st0" d="M270.1,422.3c-5.3-2.4-2.3-6.9-2.2-10.2c0.1-3.1,3.6-2.1,5.6-2c3.4,0.2,7.1-1.3,10.2,1.2
				c-1.3,1.9-3.4,0.4-5,1.3c-2.9,0.3-5.8-1.1-8.8,0c-1.1,2.9-0.9,5.8,0,8.7l0,0c0.4,0.2,0.5,0.4,0.4,0.7
				C270.3,422.2,270.2,422.3,270.1,422.3z"/>
			<path class="st72" d="M213,315c0.3,0,0.6-0.2,0.9-0.4c3.7-2.3,3.8,1.1,3.4,2.7c-1.8,6.5-0.2,13.1-1.1,19.5
				C215.1,329.6,215.7,322,213,315z"/>
			<path class="st0" d="M250,249.9c2.2,3,3.4,6.4,3.8,10.1c-2.1,1-4.4,0.8-5.6-0.9c-1.3-2,2.6-2.3,2.3-4.3c-1.4-2.2-3.5,1-5-0.9
				C246.2,251.5,249.2,251.9,250,249.9z"/>
			<path class="st0" d="M310,413.7c0-0.8,0-1.7,0-2.5c2.9-1.9,5.3,1.9,8.3,0.8c0.8-0.3,1.6,1.1,1.5,2.3c-0.1,0.9-0.6,1.7-1.5,1.7
				C315.3,416.1,311.9,417.4,310,413.7z"/>
			<path class="st8" d="M377.4,93.7c-4.6-2.5-5.9-7.6-8.7-11.5c-1.3-1.8,0.8-2.4,1.3-3.5c1.7,2.9,3.4,5.8,5.2,8.8
				c0.5,0.3,0.8,0.7,0.9,1.3C376.3,90.5,378,91.8,377.4,93.7z"/>
			<path class="st0" d="M253.9,260.6c2,4.2,3.1,8.6,3.6,13.2C250.7,269.1,250.2,267.2,253.9,260.6z"/>
			<path class="st0" d="M392.5,375c2-0.6,3.1-3.5,6-1.7c3.1,2,0.5,3.9,0.2,5.8c-0.6,3.7,2.6,9.5-4.9,9.6c0-0.5,0-0.9,0-1.4
				c5.7-0.6,3.1-4.9,3.6-7.8c0.6-4.1-2.8-2.9-4.8-3.4c-0.4-0.3-0.5-0.5-0.4-0.8C392.2,375.1,392.4,375,392.5,375z"/>
			<path class="st73" d="M387.5,477.5c-0.4,3.3-0.6,6.6,0.2,9.9c-0.5,0.6-1,0.7-1.6,0.2c-0.1-0.4-0.1-0.9-0.2-1.3
				c0.1-5,0.2-10,0.2-15c0-2.5,1-4.4,3.6-3.8c2.7,0.6,6.7-2.6,7.9,2.5C392.2,469.7,388.2,471.4,387.5,477.5z"/>
			<path class="st30" d="M397.5,485c-2.1-2.5-9.2,1-7.4-6.2c2.1-2,4.4-1.8,6.8-0.7c0.2,0.3,0.5,0.5,0.7,0.8
				C397.2,480.9,400.1,483,397.5,485z"/>
			<path class="st27" d="M267.4,388.7c4-1.3,8.2-0.9,12.3-0.6c5.5,0.5,7.7-1.3,6.6-6.8c-0.2-1.2-0.2-2.5-0.2-3.7
				c3.9,8.5,2.4,11.2-6.4,11.2C275.5,388.8,271.4,388.7,267.4,388.7z"/>
			<path class="st27" d="M208.4,487.4c0.1-2.5,0.1-4.9,0.2-7.4c-0.3-0.3-0.4-0.6-0.3-0.8c0.1-0.3,0.2-0.4,0.3-0.4
				c0.9-2.8-1.5-7.2,3.9-7.7c0.5,3.8-2.4,7.6,0.1,11.4C211.6,484.5,215,490.1,208.4,487.4z"/>
			<path class="st30" d="M397.1,475.2c1.4-0.9,2.7-1.8,4.1-2.7c3.4-2.3,4.8-1.8,3.8,2.5c0.5,1.3-0.1,1.5-1.2,1.2
				c-0.4,0.4-0.8,0.8-1.3,1.2c-1.6,0.4-3.3,0.9-4.9,1.3c0,0-0.3-0.3-0.3-0.3C396.4,477.4,396.3,476.3,397.1,475.2z"/>
			<path class="st74" d="M194.8,350.7c-1.5,5.5,1.5,11.3-1.1,16.8c-0.4,0-0.8,0-1.2,0c-2.3-1-5.1,1-7.2-1.2c6.7,1.4,8.9-1.7,8.4-8
				c-0.2-2.8,0.2-5.7,0.3-8.6C194.4,349.8,194.7,350.1,194.8,350.7z"/>
			<path class="st0" d="M307.5,349c1.6,2.4,3.3,4.9,4.9,7.3c-2.6,0-2.3,2.4-2.8,4.2C307,356.7,305.1,353.2,307.5,349z"/>
			<path class="st75" d="M266.1,307.5c-0.8-3.7-1.7-7.5-2.5-11.2c1.5,0.3,1.9,6.3,4.9-1.9c-0.3,5.7-3.8,9,0.7,11.7
				c1.1,0.6-1.5,1.5-1.6,2.7c0.2,0.8-0.2,1.2-1,1.2C266.5,309.1,266.3,308.3,266.1,307.5z"/>
			<path class="st76" d="M412.5,470c-1.9-1-4.4-3.2-4.3,1.4c0.2,5.4-0.8,10.8,0.7,16.1c-3.7,0.4-2-2.8-2-3.8
				c-0.1-5.4,0.3-10.7,0.5-16.1C409.5,467.6,412.1,466.6,412.5,470z"/>
			<path class="st0" d="M312.4,356.4c3.4,2.5,6.7,4.9,10.1,7.4C318,362.9,311.3,365,312.4,356.4z"/>
			<path class="st0" d="M400.2,361.9c8.2,1.7,16.6-0.5,24.8,0.5c-8.1,2.8-16.4,0.7-24.6,1.2C400.4,363.6,400.3,362.5,400.2,361.9z"
				/>
			<path class="st74" d="M184.8,343.1c-1.5-8.5-0.4-17.1-1.3-25.6c0.3-0.6,0.4-1.5,1.4-1.3C184.9,325.2,184.9,334.1,184.8,343.1z"/>
			<path class="st9" d="M137.5,367.2c0.4,0.2,0.8,0.3,1.2,0.5c-0.6,2.8-2.7,3.8-5.1,3.2c-3.2-0.9-2.4-3.8-2.2-6.2
				C133.5,365.5,135.5,366.3,137.5,367.2z"/>
			<path class="st72" d="M221.2,366.1c0.8-0.4,1.7-0.7,2.5-1.1c2.6-7.2,0.3-14.6,1.4-21.9c1.4,7.6,0.5,15.3,0.9,22.9l0,0
				C224.5,367.5,222.9,367.3,221.2,366.1z"/>
			<path class="st71" d="M72.6,426.6c0.3-0.2,0.7-0.3,1-0.3c1.8,0.4,4.4-0.8,5,2.2c0.2,1-0.1,2.1-1.3,2.5c-2.5,0.9-4.4,0.1-5.7-2.2
				c-0.4-0.1-0.6-0.3-0.6-0.6c0.1-0.3,0.1-0.4,0.2-0.4C71.8,427.3,72.2,426.9,72.6,426.6z"/>
			<path class="st77" d="M427.6,468.8c0.8,0.1,1.6,0.1,2.3,0.2c2.4,4.7,0.5,9.9,1.4,14.7l-0.1-0.1c0.8,1.5,3.3-0.1,3.8,2.5
				c-2.2,1.1-4.4,0.8-6.6,0.2c-2.5-4.7,0-9.9-1.3-14.7C426.8,470.7,426.7,469.6,427.6,468.8z"/>
			<path class="st78" d="M120,434.8c7.9,1.1,15.8,0.6,23.7,0.1c0.4-0.5,0.8-0.5,1.2,0.1c-3.6,3-7.9,1.1-11.9,1.4
				c-4.8,0.3-9.6,0.1-14.3,0c0.1-0.6,0.1-1.1,0.2-1.7C119.4,434.3,119.7,434.4,120,434.8z"/>
			<path class="st72" d="M360,67.5c-1.9-3.4-5.5-6.3-3.8-10.9c3,2.7,4.9,6,6.3,9.7C362,67.4,361.3,68.1,360,67.5z"/>
			<path class="st0" d="M398.8,367.5c-2.8,0.3-4.4-1.1-5-3.7c1.9-0.9,1.5-3.9,4-4.4C400.3,361.8,397,365,398.8,367.5z"/>
			<path class="st79" d="M206.3,205c0.1,1.9-0.7,3.4-1.5,4.9c-3.9-2.9-2.7-6.9-2.8-11.4C204.5,200.7,204,203.8,206.3,205z"/>
			<path class="st30" d="M121,163.7c2.1-1.7,4.3-3.4,6.4-5.1c1.4,2.3,1.6,4.3-0.6,6.5C123.8,168.1,123.1,163.4,121,163.7z"/>
			<path class="st80" d="M267.5,487.6c2-0.1,3.9-0.2,5.9-0.3c0.8-0.5,1.6-1,2.6-1c1.2,0.2,2.5,0.4,3.7,0.6
				C276.5,491.1,269.8,491.5,267.5,487.6z"/>
			<path class="st8" d="M360,67.5c0.8-0.4,1.7-0.8,2.5-1.2c2.4,3.1,4.7,6.3,6,10C365.6,73.4,360.8,72.4,360,67.5z"/>
			<path class="st72" d="M225.1,336.3c-3-7-0.3-14.4-1.8-21.5c0.6,0.1,1.2,0.2,1.8,0.3C225.1,322.1,225.1,329.2,225.1,336.3z"/>
			<path class="st81" d="M305,483.8c-3.5,0.2-5.4-0.9-4.9-4.9c0.4-2.4,0-5,0.1-7.5c0.1-3.1-1.5-3.4-4-2.7c-0.1-0.4-0.1-0.8-0.1-1.2
				c5.6-1,4.8,2.9,5.3,6.5c0.4,3-3.1,8,3.6,8.5l0,0C305,482.9,305,483.3,305,483.8z"/>
			<path class="st69" d="M427.6,468.8c0,0.8,0,1.6,0.1,2.5c0.9,4.6,0.2,9.3,0.4,14c0,0.7-0.1,1.4-0.3,2.1c-2.3-0.3-2.3-2-2.2-3.7
				c0.4-4.4,1.1-8.9,0.3-13.4C425.8,469.9,427,469.3,427.6,468.8z"/>
			<path class="st30" d="M256.2,331.2c-2,1.1-0.6,3.4-1.9,4.9c-2.4-3.4,2-8.5-3-11.1c2.6-2.4,5.8-0.4,8.6-1.3
				C256.9,325.3,252.9,326.5,256.2,331.2z"/>
			<path class="st8" d="M372.2,102.6c4.2,0.8,4.4-3.7,6.8-5.2c1.4,2,2.3,4.4,0.4,6.2C377,105.8,374.5,104,372.2,102.6z"/>
			<path class="st8" d="M174.8,335.4c0,5.8,1.4,11.8-1.8,17.2c0.3-6,0.6-11.9,0.9-17.9C174.1,335,174.4,335.3,174.8,335.4z"/>
			<path class="st28" d="M347.7,485c-0.6-0.4-1.2-1-1.9-1.2c-1.8-0.6-5,1.1-4.7-2.7c0.3-3.9,3.3-1.7,5.1-2.1c1.1,1,0.2,1.8-0.2,2.6
				c0.7-0.4,0.9-1.1,1.4-1.6C349.3,481.6,349.2,483.3,347.7,485z"/>
			<path class="st30" d="M266.2,331.3c0,5.8,0,11.5,0,17.3c-2-5.3-0.3-10.9-2.5-16C264.6,332.1,265.4,331.7,266.2,331.3z"/>
			<path class="st30" d="M267.4,331.3c-0.4,0-0.7,0-1.1,0c0-6.7,0.1-13.5,0.1-20.2c3,0.4,3.5,1.7,1.5,4
				C267.7,320.4,267.5,325.8,267.4,331.3z"/>
			<path class="st82" d="M337.4,467.5c0,0.4,0,0.7,0.1,1.1c-0.2,6.3-0.6,12.6,0.3,18.8c-1.6,0-1.9-0.6-1.8-2.3
				c0.3-5.9,0.2-11.8,0.3-17.6C336.6,467.5,337,467.5,337.4,467.5z"/>
			<path class="st72" d="M351.2,50c-2.9-1.2-10,0.6-4.7-6.5C348.6,45.3,350.6,47.1,351.2,50z"/>
			<path class="st83" d="M201.3,41.3c3.8,2,6.5,4.3,3.3,9c-1.4-1-0.3-2.7-1-3.4c-1.7-1.4-0.7,0.9-1.3,1.1
				C202,45.8,201.7,43.5,201.3,41.3z"/>
			<path class="st0" d="M248.2,313.8c-5.5,1.8-11.3-0.1-16.9,1.5c0.8-1.8,0.3-4.3,4.3-2.1C238.9,315.1,244,313.8,248.2,313.8z"/>
			<path class="st16" d="M197.5,378.8c0-1,0.3-2,1.2-2.5c2.9-1,5.8-0.9,8.7,0c2,0,4,0,7.7,0c-6,2.4-11-0.4-15.2,2.4
				C199.1,378.7,198.3,378.7,197.5,378.8z"/>
			<path class="st84" d="M341.3,376.2c3.5-2.5,7.5-0.7,11.2-1.2c1.5-1.4,3.4-1.5,5.2-1.3c2.1,0.2,3.7,1.1,1.5,3.4
				c-6,1.3-12,2.3-17.8-0.7L341.3,376.2z"/>
			<path class="st0" d="M307.7,421.3c0-1.2,0-2.5,0-3.7c4.1,4,9.2,2,14,2.8C317.1,421.8,312.3,421,307.7,421.3z"/>
			<path class="st59" d="M213.6,239.6c-0.8,4.4,0.6,8.6,0.9,13.3c-2.9-0.9-1.1-4.3-3.1-5.4C211.5,244.7,210.4,241.5,213.6,239.6z"/>
			<path class="st85" d="M107.4,472.5c-1.7-0.1,1.4-7.3-3.7-2.6c3.4-3.6,7.5-3.6,9.1,0c-1.1-2.2-2.1-2.2-3.1,0.1
				C109,470.9,108.2,471.7,107.4,472.5z"/>
			<path class="st0" d="M308.8,398.7c0.7-6.2-1.5-12.7,1.2-18.8C309.3,386.2,311.5,392.7,308.8,398.7z"/>
			<path class="st86" d="M307.6,67.5c-0.6,0-1.1-0.1-1.7-0.1c-1.3-1.9-2.6-3.8-3.4-6.1c-0.8-1.3-1.5-2.5-2.3-3.8
				C304.4,59.6,308.5,61.7,307.6,67.5z"/>
			<path class="st87" d="M302.5,61.3c2.2,1.4,4.8,2.6,3.4,6.1c-0.7,0-1.4,0-2.2,0C301,65.8,299.9,63.9,302.5,61.3z"/>
			<path class="st88" d="M428.2,362.3c0.1-3.2,0.3-6.3,0.4-9.5c4.1,0.3,1.3,3.8,2.4,5.6C432,360.2,431.2,362.5,428.2,362.3z"/>
			<path class="st0" d="M323.5,425.1c-2.3-3.1-5.6-1-8.4-1.6c-2.4-0.5-5.1,1.1-7.3-1c3.8,0,7.7,0,11.5,0c2.3,0,4.5,0,5.7,2.5
				C324.5,425,324,425,323.5,425.1z"/>
			<path class="st13" d="M291.2,235c4.4,0.4,4.8,1.5,2.4,7.9C292.2,240.4,291.2,237.9,291.2,235z"/>
			<path class="st88" d="M441.2,386.8c-0.5,3.4-0.9,6-1.2,8.6c-0.9-0.5-2.6-1-2.6-1.5C437.4,391.3,438.1,388.9,441.2,386.8z"/>
			<path class="st89" d="M253.7,112.6c-3.5,2.4-7.5,0.6-11.2,1.3c-1.7-0.7-3.4,1.2-5-0.1C242.8,111.7,248.3,112.4,253.7,112.6z"/>
			<path class="st72" d="M227.7,303c-3.3-4.3-0.8-7.5,2.1-10.5C229.1,296,228.4,299.5,227.7,303z"/>
			<path class="st90" d="M212.4,468.9c-2.4-0.1-4.8-0.3-7.2-0.4c-1.2,0-2.6-0.3-3,1.3c-0.5,2,2,1.6,2.5,2.8
				c-0.7,0.1-1.5,0.1-2.2,0.2c-2-2.4-2.1-4.3,1.3-5.5c3.1-0.9,6.4-2.8,8.9,1.2L212.4,468.9z"/>
			<path class="st0" d="M360,376.3c-1.9-3.8-5.1-0.2-7.5-1.3c3.6-4,6.9-3.5,8.9,1.1c0,0-0.3,0.3-0.3,0.3
				C360.7,376.7,360.3,376.6,360,376.3z"/>
			<path class="st67" d="M300.2,69.1c0.5,2.4-2.3,2.8-2.7,4.6c-0.8,0.4-1.6,0.8-2.4,1.1C296,68.8,296.6,68.1,300.2,69.1z"/>
			<path class="st91" d="M183.9,470c0.4-0.3,0.7-0.7,1.1-1c0,5.7,0,11.3,0,17l-0.6,0.1c0,0-0.5-0.2-0.5-0.2
				C184.4,480.6,184.5,475.3,183.9,470z"/>
			<path class="st92" d="M313.8,472.5c0.3-1.3,3.1-0.7,2.4-2.9c-0.5-1.7-2-1.1-3.1-1.2c-2.3-0.1-4.5-0.1-6.8-0.1
				c8.8-2.2,10.5-1.6,11.2,4.1C316.3,472.5,315,472.5,313.8,472.5z"/>
			<path class="st53" d="M176.4,381.2c-6.1,0-12.2,0-18.3,0C164.1,380.4,170.3,379.7,176.4,381.2z"/>
			<path class="st93" d="M63.7,423.6c1.6,4.5-0.9,7.4-4.1,10c1-3.2,2-6.3,3-9.5C62.7,423.5,63.1,423.3,63.7,423.6z"/>
			<path class="st15" d="M241.3,365c0.8,1.6,2.5,0.6,3.7,1.3c-1.2,1.4,2.2,4-0.7,4.4c-3.8,0.5-2.9-3.7-4.3-5.7
				C240.4,364.4,240.9,364.4,241.3,365z"/>
			<path class="st92" d="M312.3,487.4c1.8-4.8-0.7-10.1,1.4-14.9c0.1,4.2,0,8.3,0.3,12.5C314.1,486.6,314,487.4,312.3,487.4z"/>
			<path class="st94" d="M256.3,376.3c4.5-2.5,9.1-0.8,14.9-1.1c-5.1,2.4-9.8-0.5-13.6,2.3c-0.4,0-0.8,0.1-1.3,0.1
				C256.3,377.1,256.3,376.7,256.3,376.3z"/>
			<path class="st0" d="M363.7,383.7c-1.5-2.3-1.2-5-1.3-7.5c0.2-0.9,0.2-2.1,1.5-1.8c0.4,0.1,0.7,1.2,1,1.9
				C363.2,378.5,365.9,381.5,363.7,383.7z"/>
			<path class="st30" d="M287.5,435c0.1-0.9,0.2-1.8,0.3-2.6c1.2-2,2.3-4.3,4.7-1.1C292.6,434.9,290.6,435.6,287.5,435z"/>
			<path class="st59" d="M209.9,293.8c0.1-2.5,0.1-5,0.2-7.5c1.2-1,3.1-2.7,2.1,0.8c-1,3.6-0.8,7.1-1.1,10.7c-0.6,0-0.9-0.4-1-0.9
				C210.1,295.8,210,294.8,209.9,293.8z"/>
			<path class="st84" d="M146.4,387.1c-0.9,1.2-2.1,3-3.6,1.4c-1.1-1.2-1.6-3.2,1.6-3.4c1.2-0.1,0.1-3.2,2.2-3.8
				C147,383.3,147.1,385.2,146.4,387.1z"/>
			<path class="st0" d="M207.5,132.5c-2.3,2.1-2.3,2.1-6.2-1.2C205.2,128.3,205.2,128.3,207.5,132.5z"/>
			<path class="st0" d="M308.6,370.9c2.9,0.3,4-2.5,6.2-0.9c0.6,0.4,1,1.5,0.2,2.2C313.2,373.9,311.3,373.7,308.6,370.9z"/>
			<path class="st13" d="M305.1,251.6c0.5-5.1-1.7-10.4,1.3-15.3C306.2,241.4,307.3,246.6,305.1,251.6z"/>
			<path class="st84" d="M127.5,379.8c-3.3,0.1-6.7,0.2-10,0.3c-0.4-0.4-0.9-0.8-1.3-1.3c3.6-1,7.4,0.5,11.1-0.8
				C128.2,377.7,127.7,379.1,127.5,379.8z"/>
			<path class="st9" d="M367.5,487.6c1.6-0.1,3.2-0.1,4.8-0.2c0.5,0,1,0.1,1.4,0.1c-1.3,1.1,0.9,3.1-0.4,3.5
				C370.6,491.9,368.9,489.8,367.5,487.6z"/>
			<path class="st66" d="M143.7,425.1c-3.9,0.1-7.7,0.3-11.6,0.4c-1.3,0-2.6,0.2-2.2-1.8C134.5,424.5,139.4,422.2,143.7,425.1z"/>
			<path class="st19" d="M429.6,419.8c-3.6,0-7.2,0-10.8,0c0-0.3,0-0.6,0-0.9c3.7,0,7.3,0,11,0C429.7,419.2,429.7,419.5,429.6,419.8
				z"/>
			<path class="st84" d="M301.2,368.8c-3.1-1.1-6.4-1.4-9.7-2.5c3.2,0,6.5,0,9.7,0C301.4,367.1,302.6,367.9,301.2,368.8z"/>
			<path class="st13" d="M288.8,233.9c0.2-1.5-1.6-3.2,0.4-4.4c1.2-0.7,1.7,0.5,2.5,1c2.7,1.9-1.1,3-0.4,4.6
				C290.5,234.5,290,233.5,288.8,233.9z"/>
			<path class="st95" d="M427.8,487.4c-0.2-0.4-0.2-0.8,0-1.1c0.3-0.6,0.6-0.6,1-0.1c1.6,0,3.3,0,5.2,0c-1-0.9-1.9-1.7-2.7-2.5
				c1.6,0.7,4.8-1.4,4.7,2.1c-0.1,2.8-2.9,1.3-4.5,1.6C430.3,487.5,429,487.4,427.8,487.4z"/>
			<path class="st95" d="M431.4,483.7c-2.9-4.7-0.7-9.8-1.4-14.7c1.8,0,1,1.5,1.4,2.3c0.7,3.7,0.6,7.5,0.1,11.2
				C431.4,482.9,431.4,483.3,431.4,483.7z"/>
			<path class="st72" d="M225.2,314.4c-0.1-3-0.3-6.1-0.1-9.1c0.2-3.4,1.5-0.4,2.4-0.3C227.3,308.2,226.9,311.5,225.2,314.4z"/>
			<path class="st81" d="M308.7,472.5c2.5,4.8-0.1,10,1.5,14.9c-0.5,0-1.1,0.1-1.6,0.1C308.7,482.5,308.7,477.5,308.7,472.5z"/>
			<path class="st67" d="M292.1,78.7c-2.7,3.6,2.2,3.1,2.7,5c-2.3,0.7-4.7,0.9-5.6-1.9C288.6,79.7,290.4,79.1,292.1,78.7z"/>
			<path class="st8" d="M267.8,315c0.7-1.8,1-3.4-1.5-4c-0.1-0.4,0.1-0.8,0.4-1.1c0.3-0.4,0.6-0.8,1-1.2c2.1,1.7,2,5.1,4.8,6.2
				C270.9,317.2,269.4,314.7,267.8,315z"/>
			<path class="st96" d="M162.4,36.2c0.4,0.2,0.5,0.5,0.2,0.9c-0.5,1.2-0.9,2.4-1.7,4.3c-1.7-3.2-0.7-6-1.1-9.8
				C161.1,33.8,161.8,35,162.4,36.2z"/>
			<path class="st0" d="M199.8,129.1c-0.7-0.6-1.5-1.3-2.2-1.9c-0.5-1.1-1.1-2.3-1.6-3.4c1.3-0.7,2.6-1,4-0.1l0,0
				C201.3,125.6,200.9,127.4,199.8,129.1z"/>
			<path class="st97" d="M416.3,386.4c-0.2,0.4-0.2,0.7-0.1,1.1l-0.5,0l-0.5,0.1c-1.3-0.2-2.4-0.4-2.5-2c2.4,0.6,2.9-5.2,6.1-1.8
				c-0.1,0.2-0.1,0.5-0.2,0.7C418,385.3,416.9,385.6,416.3,386.4z"/>
			<path class="st98" d="M102.8,475c1.9,3.2,1.3,5-2.8,4.9c0-1.6,0-3.3,0-4.9C100.9,475.4,101.8,477.6,102.8,475z"/>
			<path class="st30" d="M282.5,395c-1.1-2.1-4.2-0.4-5.2-2.7c4.3-1.2,4.3-1.2,6.5,2.7c0,0,0,0,0,0
				C283.3,395.4,282.9,395.4,282.5,395z"/>
			<path class="st0" d="M301.2,361.2c-0.5,0-1,0.1-1.5,0.1c-0.4,0.4-0.7,0.4-0.9-0.2c0-0.3,0-0.7-0.1-1c0.2-1.9-0.2-4.2,2.8-4.7
				C302.8,357.5,300.6,359.3,301.2,361.2z"/>
			<path class="st99" d="M205.4,78.6c2.5,1.3,5.2,1.2,8,1.2C210.2,82.4,206.4,81.8,205.4,78.6z"/>
			<path class="st72" d="M217.5,350c-4.3,1.9-4.9,0-3.8-3.7c0.8,0.2,1.7,1.5,2.5-0.1C217.7,347.1,217.5,348.6,217.5,350z"/>
			<path class="st100" d="M69.7,405c-1.2,1.5-0.3,3.9-2.2,5.1c-1.1-3.6-1.1-3.6,0.7-7.6C68.7,403.3,69.2,404.1,69.7,405z"/>
			<path class="st101" d="M241.3,365c-0.4,0-0.9,0-1.3,0c0.6-4.6-1.3-9.3,1.2-13.7C241.2,355.8,241.2,360.4,241.3,365z"/>
			<path class="st16" d="M283.7,396.2c-4,2.4-8.3,0.8-12.4,1c-0.1-0.3-0.1-0.6-0.1-1C275.4,395.3,279.6,395.3,283.7,396.2z"/>
			<path class="st59" d="M210.1,265c0-3.7,0-7.5,0-11.2c0.3-0.5,0.7-1.1,1-1.6C210.9,256.4,212.4,260.8,210.1,265z"/>
			<path class="st21" d="M297.7,332.5c0.3-1.9,0.6-3.9,0.9-5.8c2.8,2,1.3,4.7,1,7.1C298.9,333.4,298.3,332.9,297.7,332.5z"/>
			<path class="st21" d="M242.5,247.5c3.6-3,3.7,0.9,5,2.5C245.5,249.8,242.9,250.8,242.5,247.5z"/>
			<path class="st20" d="M283.7,396.2c-4.2,0-8.3,0-12.5,0c3.5-2.5,7.5-0.7,11.2-1.2c0.4,0,0.8,0,1.2,0
				C283.8,395.4,283.7,395.8,283.7,396.2z"/>
			<path class="st102" d="M167.3,438.1c-1.8,0.4-2.6,0.8-2.9,0.5c-2-1.2-5.2,2.9-5.5,0c-0.2-2.2,3.9-0.7,6.1-1.1
				C165.3,437.5,165.7,437.7,167.3,438.1z"/>
			<path class="st103" d="M233.8,487.5c0.8,0.1,1.6,0.1,2.4,0.2c0,1.2,2.8,2.2,1,3.1c-1,0.5-4.2,1.2-4.8-2
				C232.3,487.6,232.6,487,233.8,487.5z"/>
			<path class="st104" d="M261.1,78.8c1.4-0.3,3.9,1.7,4.1-1.7c0.8,1.5,1.7,3,3,5.3C264.6,82.2,262.7,80.7,261.1,78.8z"/>
			<path class="st76" d="M411,487.4c0.1-3.1-0.2-6.3,0.6-9.1c0.9-3.1,1.5-0.2,2.2,0.5c-2.3,2.7-0.7,5.9-1.2,8.8
				C412,487.5,411.5,487.4,411,487.4z"/>
			<path class="st68" d="M110,433.7c0.3,0.8,0.5,1.5,0.8,2.3c-3.4-0.9-7.1,1-10.3-1C103.6,434.4,107.1,436.1,110,433.7z"/>
			<path class="st0" d="M292.5,431.2c-2-1.5-3.2,0.3-4.7,1.1c0-0.9,0-1.8,0-2.7c0.7-0.8-0.1-3,2.2-2.2
				C292.5,427.6,292.5,429.4,292.5,431.2z"/>
			<path class="st105" d="M305,159.8c0.6-3.6,1.8-5.9,5.4-2.1C308.8,159,307.2,160,305,159.8z"/>
			<path class="st106" d="M145,434.9c-0.4,0-0.8,0-1.2-0.1c-2.5-2.9,1.3-5.8,0.1-8.8C146,428.8,144.4,432,145,434.9z"/>
			<path class="st72" d="M346.6,43.5c-3.1-0.1-5.4-0.9-4.1-4.7C344.4,39.9,345.6,41.6,346.6,43.5z"/>
			<path class="st21" d="M411.7,434.6c2.5-1.1,5.4-1.1,8.2,0C417.1,434.6,414.4,434.6,411.7,434.6z"/>
			<path class="st0" d="M276.3,377.3c3.1-2.2,6.6-1.3,10-1.1c0,0.5-0.1,0.9-0.1,1.4C282.8,377.6,279.6,377.4,276.3,377.3z"/>
			<path class="st16" d="M431.5,482.5c0-3.7,0-7.5-0.1-11.2C433.1,475,433.1,478.7,431.5,482.5z"/>
			<path class="st107" d="M401.2,483.6c2.8,0,2.7,1.8,2.4,3.7C400,488,399,486.8,401.2,483.6z"/>
			<path class="st20" d="M438.8,384.5c-0.2-3-1.3-4.6-0.5-6.4c0.1-0.3,1.5-0.3,1.6-0.2C440.6,379.7,440.1,381.4,438.8,384.5z"/>
			<path class="st108" d="M290,427.5c-0.7,0.7-1.5,1.5-2.2,2.2c-0.1-2.4-0.2-4.8-0.3-7.2C289.8,423.5,290.1,425.4,290,427.5z"/>
			<path class="st0" d="M241.5,311.5c2.7,0,5.5,0,8.2,0c0,0.2,0,0.4,0,0.6c-2.7,0-5.5,0-8.2,0C241.5,311.9,241.5,311.7,241.5,311.5z
				"/>
			<path class="st16" d="M270.1,422.3c-0.1-0.3-0.1-0.7-0.1-1c0.8,0,1.7,0,2.5,0c2.8,0.5,5.9-1,8.5,1
				C277.3,422.3,273.7,422.3,270.1,422.3z"/>
			<path class="st80" d="M386.1,487.5c0.5-0.1,1.1-0.1,1.6-0.2c1.2,0.1,2.3,0.1,3.5,0.2c-2.1,2.4-5.9-0.1-7.9,2.9
				C383.1,488.2,384.5,487.7,386.1,487.5z"/>
			<path class="st38" d="M417.7,477.5c0,1.4,1.2,1.6,2.1,2c-0.8,1.1-1.7,2.3-2.5,3.4c-1.2-0.6-1.7-1.7-2.1-3c1.2-0.9,0.9-2.2,1-3.4
				C416.7,476.9,417.2,477.2,417.7,477.5z"/>
			<path class="st109" d="M257.8,479.9c0-2.3,0-4.7,0-7c0.2,0,0.4,0,0.5-0.1c0,2.3,0,4.6,0,6.8C258.1,479.7,257.9,479.8,257.8,479.9
				z"/>
			<path class="st84" d="M158.8,120.5c-0.6,1.9-1.1,3.9-3.5,5.3C155.6,123,156.6,121.4,158.8,120.5z"/>
			<path class="st30" d="M256.2,341.2c0-3.3,0-6.7,0-10C258.2,334.6,258.2,337.9,256.2,341.2z"/>
			<path class="st30" d="M261.2,335c-0.3,2.1,0.8,4.5-1.2,6.2C260.6,339.2,256.3,336.2,261.2,335z"/>
			<path class="st33" d="M214.9,26.9c-1-3.1-0.1-4.2,1.6-5.3C217.8,23.7,216.1,24.6,214.9,26.9z"/>
			<path class="st30" d="M128.6,157.4c1.3-1.3,2.5-2.6,3.8-3.9C132.2,155.8,133.7,159.9,128.6,157.4z"/>
			<path class="st0" d="M349.9,373.4c-2.4,0-4.9,0-7.3,0c0-0.2,0-0.4,0-0.6c2.4,0,4.9,0,7.3,0C349.9,373,349.9,373.2,349.9,373.4z"
				/>
			<path class="st21" d="M89.1,371.5c2.3,0,4.7,0,7.9,0C93.7,373.2,91.3,372.2,89.1,371.5z"/>
			<path class="st102" d="M367.5,430c-0.7-0.1-1.9-0.2-1.5-1.1c0.4-0.9,1.5-1.9,2.5-2.2c1.2-0.3,1.4,1,1.5,2
				C369.2,429.2,368.3,429.6,367.5,430z"/>
			<path class="st86" d="M300,50.1c3,2.1,0.2,4.1-0.1,6.2C298.5,54.3,296.9,52.2,300,50.1z"/>
			<path class="st0" d="M407.5,372.5c-0.4-0.4-0.8-0.8-1.3-1.3c0.2-1.2,0.5-2.6,2.2-1.8c1,0.5,1.6,1.4,1.4,2.5
				C409.5,373.6,408.4,372.7,407.5,372.5z"/>
			<path class="st0" d="M246,484.9c0.5-0.8,1.1-1.6,1.6-2.4c3,0.4,2.3,2.6,2.2,5.3C248.4,486.7,248,484.5,246,484.9z"/>
			<path class="st88" d="M315.8,113.8c-0.8-1.7-2.6-3.2-0.6-5.8C317,110.1,315.9,112,315.8,113.8z"/>
			<path class="st0" d="M324.5,411.3c0.6,3.8,0.8,6.2-0.2,9.9C323.6,417.5,323.5,415,324.5,411.3z"/>
			<path class="st0" d="M327.3,400.6c0,3.4,0,6.2,0,9.1C326.3,406.8,325.8,404,327.3,400.6z"/>
			<path class="st30" d="M278.8,412.5c1.3-1.8,3.3-1.1,5-1.3c0.4,0,0.8,0,1.2,0C283.5,414.5,281.2,413.9,278.8,412.5z"/>
			<path class="st30" d="M270,421.2c-2.3-2.7-1.1-5.7-1-8.7c0-0.1,0.3-0.3,0.4-0.3c0.2,0,0.4,0.1,0.6,0.2
				C270,415.4,270,418.3,270,421.2z"/>
			<path class="st110" d="M75,482.5c2,0.7,0.3,3.6,2.5,4.1c-0.8,1.3-1.8,2.1-4.3,1.9C75.1,486.6,75.1,484.6,75,482.5z"/>
			<path class="st67" d="M210.2,296.8c0.3,0.3,0.6,0.6,1,0.9c0.1,1.2,0.2,2.3,0.2,3.5c0,1.7,0,3.3-0.1,5
				C208.8,303.4,210.4,300,210.2,296.8z"/>
			<path class="st111" d="M376,88.8c-0.8-0.1-1.1-0.6-0.9-1.3c1.4-0.4,2.5-2.1,4.4-1.3C379.3,88.5,377.6,88.6,376,88.8z"/>
			<path class="st66" d="M323.1,25.8c0.1,0.5,0.5,1.2,0.5,1.9c0,0.8-0.4,1.7-1.4,1c-0.5-0.4-0.7-1.4-0.7-2.1
				C321.5,26,321.9,25.4,323.1,25.8z"/>
			<path class="st66" d="M268.9,103.1c-0.5-0.1-1-0.2-1.5-0.4c1.7-2.3,4.1-1.3,6.5-1.3C272.5,103.4,270.2,101.7,268.9,103.1z"/>
			<path class="st21" d="M287.5,410c0-1.4-0.1-2.9,0.1-4.3c0.1-0.6-0.8-1.8,0.7-1.6c0.2,0,0.3,1.4,0.4,2.2
				C288.2,407.4,289.9,409.4,287.5,410z"/>
			<path class="st0" d="M252.5,278.9c1.8,2.3,3,3.4,1.8,5.3C252.1,283.4,252.6,281.7,252.5,278.9z"/>
			<path class="st66" d="M367.7,311.8c-0.1-0.6-0.1-1.2-0.2-1.8c2.9,0.5,6.2-1.2,8.8,1.4C373.4,311.5,370.6,311.7,367.7,311.8z"/>
			<path class="st0" d="M250,463.8c2.1,0.4,4.2,0.8,6.2,1.2c-1.8,2.1-4.1,1-6.2,1.2C249.3,465.4,249.2,464.6,250,463.8z"/>
			<path class="st21" d="M92.5,316.1c-1.5,0.1-3,0.2-4.6,0.3c-0.6-0.3-1.6,0.1-1.6-1.1C88.3,316.1,90.9,312.6,92.5,316.1z"/>
			<path class="st66" d="M209.4,250.1c-0.8-3.6-0.9-5.6-0.1-8.1C210.3,244.6,210.1,246.6,209.4,250.1z"/>
			<path class="st112" d="M280.1,484.3c2.7-3,5.6-2.5,8.6-0.4C285.8,483.1,282.9,482.8,280.1,484.3z"/>
			<path class="st113" d="M347.5,480c-0.3,2.6-2,2.7-4.4,2c0.3-1.9,4-0.5,3.2-3.1c0.4-0.2,0.8-0.3,1.2-0.4
				C347.4,479,347.5,479.5,347.5,480z"/>
			<path class="st114" d="M71.3,427.7c0,0.4,0.1,0.7,0.3,1c-0.3,1.1,0,2.4-1.5,2.9c-0.8-1.6-1.9-3.4-0.3-5
				C71.5,425.1,71,427.2,71.3,427.7z"/>
			<path class="st0" d="M66.2,467.4c-0.9-0.7-1.7-1.4-2.6-2.1c0.9-0.4,2-1.3,2.6-1.1c2,0.8,1.2,2.1,0.1,3.2
				C66.3,467.5,66.2,467.4,66.2,467.4z"/>
			<path class="st0" d="M198.3,114.4c-0.4,0.8-1,1.4-1.9,1c-1-0.5-1.5-1.5-1.3-2.5c0.2-1.1,0.9-0.6,1.2-0.1
				C196.9,113.5,198.8,112.6,198.3,114.4z"/>
			<path class="st0" d="M308.8,376.3c-0.4,0-0.8,0-1.2,0c-0.8-1.2-1.7-2.4-2.5-3.6c0.4-0.2,0.8-0.5,1.1-0.5
				C308.5,372.5,308.4,374.5,308.8,376.3z"/>
			<path class="st53" d="M176.3,390.1c0-3,0-6,0-9c1.3,0.5,0.7,1.8,1.2,2.6c0.8,2,1,4.1-0.1,6.1l-0.5,0.3L176.3,390.1z"/>
			<path class="st21" d="M339.7,375.9c-2.4,0-4.7,0-7.1,0c0.4-1.4,1.6-0.7,2.5-0.9C336.6,375.2,338.4,374.4,339.7,375.9z"/>
			<path class="st93" d="M61.3,436.1c2.2-2,5.4-0.7,7.8-2.3C67.5,438.4,63.9,435.6,61.3,436.1z"/>
			<path class="st0" d="M216.1,121.2c-0.6,0.9-1.2,1.8-1.8,2.7c-2.4-1-1.5-2.8-0.4-3.9C214.9,119,215.2,121,216.1,121.2z"/>
			<path class="st0" d="M200,118.7c2.5,1.7,4.1,3.3,0,5c0,0,0,0,0,0C200,122.1,200,120.4,200,118.7L200,118.7z"/>
			<path class="st0" d="M200,118.8c-1,0.6-2,1.2-3.5,2.1C197.5,118.9,197.1,115.6,200,118.8L200,118.8z"/>
			<path class="st0" d="M204.5,121.3c3.3,0.3,2.7,2,3,3.5C205.6,124.4,205.7,122.7,204.5,121.3z"/>
			<path class="st115" d="M96,148.8c0,2.5,0,5,0,7.5C94.3,153.7,94.3,151.3,96,148.8z"/>
			<path class="st27" d="M293.8,379.8c-0.8,0.5-1.4,1.1-1.6,1c-0.6-0.3-1-1-1.5-1.5c0.4-0.4,0.9-1.1,1.1-1
				C292.5,378.5,293,379.1,293.8,379.8z"/>
			<path class="st0" d="M232.6,282.5c-0.1-2.3-0.2-4.6,1-6.7C234,278.2,235.3,280.6,232.6,282.5z"/>
			<path class="st0" d="M230.7,291.1c0.7-2.5,0.2-5.2,1.7-7.5C231.9,286.1,233.9,289.2,230.7,291.1z"/>
			<path class="st66" d="M259,100.6c1.8-0.5,3.4-1,4.9,0.1C262.1,101.7,260.4,101.1,259,100.6z"/>
			<path class="st116" d="M80,471.2c0.2-4.2,1.7-5.1,4.9-2.1c-0.3-0.1-0.6-0.2-0.9-0.4C81.5,467.6,81.1,470,80,471.2z"/>
			<path class="st21" d="M296.3,487.2c1.2,0.2,2.4,0.3,3.7,0.5c-0.2,0.8,0.4,2.6-0.7,2.3C298.2,489.8,295.8,489.7,296.3,487.2z"/>
			<path class="st111" d="M148.7,313.7c0.4,0.4,0.8,0.8,1.2,1.2c-2,0.1-4,0.2-5.9,0.3C144.9,312.2,147.3,314.5,148.7,313.7z"/>
			<path class="st112" d="M279.8,486.9c-1.1,0.2-2.2,0.3-3.4,0.5c-1.1-0.9-1.3-2.1-0.7-3.4c0.4-0.6,0.9-0.8,1.6-0.7
				c0,1.9,0.8,2.6,2.6,1.6C279.9,485.7,279.8,486.3,279.8,486.9z"/>
			<path class="st20" d="M123.4,465.6c-0.2,1.1-0.7,1.3-1.3,0.9c-0.6-0.4-1-1-1.5-1.5c0.4-0.2,1-0.8,1.2-0.7
				C122.5,464.6,123,465.2,123.4,465.6z"/>
			<path class="st117" d="M428.8,319.9c0-2.1,0-4.1,0-6.2C431.2,315.8,431.2,317.9,428.8,319.9z"/>
			<path class="st84" d="M177.4,389.9c0-2,0.1-4.1,0.1-6.1c1.9,1.8,1.2,4.1,0.9,6.2c0,0.1-0.4,0.2-0.5,0.2
				C177.8,390.1,177.6,390,177.4,389.9z"/>
			<path class="st118" d="M137.8,484.9c-0.2,2.2-0.8,2.8-1.6,2.5c-0.9-0.3-2-1-2.2-1.7c-0.2-0.9,0.9-1.9,1.9-1.8
				C136.7,484.1,137.6,484.8,137.8,484.9z"/>
			<path class="st21" d="M84.8,328.3c0.5-1,1.4-1,2.3-1c1.1,0.2,2.2,0.3,2.9,1.4l0,0C88.3,328.4,86.3,331.2,84.8,328.3z"/>
			<path class="st0" d="M310,411.2c-2.3-2.2-0.9-5-1.2-7.5C311,405.9,309.6,408.7,310,411.2z"/>
			<path class="st21" d="M90,328.8c1.6-0.7,3.2-1.9,5.6-0.6C93.5,328.6,92.1,330.8,90,328.8L90,328.8z"/>
			<path class="st100" d="M63.7,423.6c-0.3,0.2-0.7,0.4-1,0.6c-0.4-2.6,0.3-4.8,2.1-6.6C64.4,419.6,64.1,421.6,63.7,423.6z"/>
			<path class="st0" d="M110.4,438.8c1.4-0.5,2.6-0.5,3.5,0.6c0.2,0.3,0,1.4-0.1,1.4C112.4,440.8,111.2,440.3,110.4,438.8z"/>
			<path class="st16" d="M60.2,438.4c1.4-1.1,3-1,4.6-0.6C63.4,439.8,61.7,438,60.2,438.4z"/>
			<path class="st119" d="M384.2,434.4c2.6-0.7,4.1-0.9,6.1-0.1C388.4,435.4,386.8,435.1,384.2,434.4z"/>
			<path class="st56" d="M120,476.1c0.5-2.1,1.6-1.8,2.1-0.2c0.5,1.3,0.3,2.9,0.3,4.3C121.1,479.1,121.8,476.8,120,476.1z"/>
			<path class="st0" d="M306,335c0,2.5,0,5,0.1,7.5C304.4,340,304.5,337.5,306,335z"/>
			<path class="st120" d="M141.1,475c0,2.1,0,4.2,0.1,6.2C139.4,479.2,139.4,477.1,141.1,475z"/>
			<path class="st16" d="M232.8,436.9c-1.4,0.9-3.4,0.9-3.6,0.3c-0.5-1.6,1.2-0.7,1.9-0.8C231.5,436.2,232.1,436.6,232.8,436.9z"/>
			<path class="st121" d="M247.5,481.3c0-2.1,0-4.3,0-6.4C249.3,477,249.1,479.2,247.5,481.3z"/>
			<path class="st82" d="M333.9,481.2c0-2.1,0-4.2,0-6.2C335.6,477.1,335.6,479.2,333.9,481.2z"/>
			<path class="st12" d="M251.1,56.3c-2.2-0.1-4.4-0.2-6.6-0.2C246.7,54.9,248.9,54.5,251.1,56.3z"/>
			<path class="st0" d="M327.1,425.7c-0.2,0.4-0.5,1.4-1.1,1.7c-1.3,0.6-0.9-0.7-1-1.3c-0.3-0.9,0.1-1.4,1.1-1.6
				C326.8,424.5,327.2,424.7,327.1,425.7z"/>
			<path class="st122" d="M260.2,437.2c-0.6,0.6-1.1,1.4-1.8,1.6c-0.9,0.3-0.8-0.6-0.7-1.1c0.2-1,0.9-1.3,1.8-1.3
				C259.7,436.5,259.9,436.9,260.2,437.2z"/>
			<path class="st123" d="M300.5,44.5c0,0.1-0.1,1-0.3,1.1c-1.1,0.3-1.3-0.6-1.3-1.3c0-0.5,0.5-1.2,0.9-1.3
				C300.5,42.8,300.5,43.6,300.5,44.5z"/>
			<path class="st104" d="M248.3,66.4c1.4-0.7,2.8-1.1,4.2-0.2v0c-0.4,0.8-0.8,1.7-1.3,2.5C250.2,68,249.2,67.2,248.3,66.4z"/>
			<path class="st0" d="M403.7,370c-1.8,0-3-0.8-3.8-2.5C401.8,367.5,403.6,367.5,403.7,370z"/>
			<path class="st0" d="M429.9,368.8c-0.8,1.3-1.8,1.9-2.9,1.3c-0.1,0,0.1-0.8,0.2-0.9C428.1,369,429,368.9,429.9,368.8z"/>
			<path class="st104" d="M262.5,72.5c-1.9-0.8-3.9-1.6-2.2-4.3C261.5,69.4,262.6,70.6,262.5,72.5z"/>
			<path class="st42" d="M154.9,487.3c1.2-0.8,2.5-1.7,3.7-2.5C158.4,487.1,157.6,488.5,154.9,487.3z"/>
			<path class="st103" d="M227.5,487.5c1.3-0.8,2.5-1.7,3.8-2.5c0,0,0,0,0,0c1.3,1.9,0.1,2.9-1.3,3.8
				C229,488.7,228,488.5,227.5,487.5z"/>
			<path class="st27" d="M230,488.7c0.4-1.3,0.9-2.5,1.3-3.8c1.4,0.2,2.3,1.1,2.6,2.5c-0.5,0.4-0.9,0.9-1.4,1.3
				C231.7,488.7,230.8,488.7,230,488.7z"/>
			<path class="st117" d="M172.5,487.8c0.7-0.1,1.5-0.3,2.2-0.4c0.4,0.1,1,0,1.2,0.3c1.2,1.3-0.4,1-0.8,1.2
				C174,489.3,172.7,489.8,172.5,487.8z"/>
			<path class="st53" d="M146.4,387.1c0-1.9,0.1-3.8,0.1-5.7c0.3,0,0.6,0.1,1,0.1c-0.1,2.2-0.1,4.4-0.2,6.7
				C147,387.8,146.7,387.5,146.4,387.1z"/>
			<path class="st124" d="M332.4,28.9c-0.8-0.5-1.6-0.9-2.5-1.4c0.1-0.9,0.2-1.9,0.3-3.9C331.3,26.2,331.9,27.6,332.4,28.9z"/>
			<path class="st125" d="M172.6,18.8c-1.6,1.1-3,2.4-5.1,2.4C168.5,19,170.4,18.6,172.6,18.8z"/>
			<path class="st105" d="M278.7,159.9c0.1,1.1,0.2,2.2,0.2,3.3c-0.9-0.2-1.8-0.5-2.7-0.7C277.1,161.6,277.9,160.8,278.7,159.9z"/>
			<path class="st126" d="M277,299.7c-1.1-5.7-0.1-11.6-1.4-17.3C278.6,287.9,276.8,293.9,277,299.7z"/>
			<path class="st127" d="M227.1,290.1c1-3.6,1.5-5.6,2.3-8.3C230.3,284.9,230.1,287.1,227.1,290.1z"/>
			<path class="st13" d="M297.7,240.7c-0.2-2.5,0.4-3.8,1.7-4.8C300.4,237.9,299.3,239.1,297.7,240.7z"/>
			<path class="st72" d="M217.9,321.4c1.2,1.4,1,3,0.6,4.6C216.4,324.7,218.2,323,217.9,321.4z"/>
			<path class="st128" d="M210.4,59.9c-0.5-4.7-1-9.4-1.5-14c0.6,0,1.2-0.1,1.8-0.1C212,50.4,210.9,55.2,210.4,59.9z"/>
			<path class="st0" d="M213.8,43.8c2.6,6.4,0.6,13,1.1,19.5C212.9,56.8,213.5,50.3,213.8,43.8z"/>
			<path class="st129" d="M210.5,35.4c1.1,2.9,0.9,4.8,0,6.9C210.5,40.4,210.5,38.5,210.5,35.4z"/>
			<path class="st30" d="M221.3,388.7c2.9,1.4,5.7,2.8,8.6,4.2c3.1,0,1.1,3.3,2.7,4.3c0.4,1.7,0.9,3.3,1.3,5
				c0.8,3.2,0.7,6.3,0.1,9.5c-0.6,5.8-4.4,9.3-8.9,12.2c-0.4,0.2-0.7,0.5-1.1,0.5c-13.2,0.7-13.2,0.7-13.2-12.7c0-5.4,0-10.8,0-16.2
				C210.6,387.4,212.9,385.9,221.3,388.7z"/>
			<path class="st130" d="M221.3,388.7c-10,0-10,0-10,10c0.1,6.7,0.4,13.3,0.1,20c-0.2,4.3,1.1,6.1,5.5,5.4c2.6-0.4,5.4-0.2,8.1-0.2
				c-0.3,1.3,1.8,3.6-1.4,3.5c-0.6,0-3.6,2.9-2.6-1.5c0.3-1.6-3-0.9-4.6-0.7c-4.7,0.4-6.7-0.9-6.5-6.1c0.4-9.7,0.1-19.5,0.2-29.2
				c0-1.5,1.1-4.5,1.7-3.6C214.4,390.4,220.8,378.6,221.3,388.7z"/>
			<path class="st131" d="M202.5,421.2c0-11.6,0-23.1,0-34.7c0.4,0,0.8,0,1.2,0c0,11.6,0,23.1,0,34.7
				C203.3,421.7,202.9,421.7,202.5,421.2z"/>
			<path class="st129" d="M202.5,421.2c0.4,0,0.8,0,1.2,0c2.3,3.4,1.1,6.9,0.7,11.5C201.2,428.6,203.1,424.7,202.5,421.2z"/>
			<path class="st132" d="M232.6,397.3c-0.9-1.4-1.8-2.9-2.7-4.3c0.2-2.5,1.7-3.6,4.4-3.8C235.1,392.2,231.8,394.4,232.6,397.3z"/>
			<path class="st133" d="M233.9,411.7c0-3.2,0-6.3-0.1-9.5C235.3,405.4,235.3,408.5,233.9,411.7z"/>
			<path class="st134" d="M77,414.8c2.4-6.1,4.8-11.9,7.4-18.6c2.4,5.7,4.5,10.7,6.5,15.7c0.9,2.2,0,3-2.2,2.9
				C85,414.7,81.3,414.8,77,414.8z"/>
			<path class="st68" d="M105,421.6c2.6,3.7,3.8,7.9,5,12.1C104.7,432.5,102.7,427.7,105,421.6z"/>
			<path class="st127" d="M84.6,393.2c-1.2-2.2-1-4-0.3-6.3C85.9,389.1,87,390.8,84.6,393.2z"/>
			<path class="st97" d="M435.1,385c-1.2,2.8-3.4,1-5.1,1.1c-2.7-1.1-5.6-0.2-8.3-0.6c-1.2-0.1-3.1,0.6-2.9-1.8v0
				C424.2,384.1,429.8,382.9,435.1,385z"/>
			<path class="st57" d="M433.2,402.6c-1.1-4.6-5.7-1.5-9.2-3.8C428.3,399.5,432.8,396.3,433.2,402.6z"/>
			<path class="st130" d="M428.7,404.7c-2.1,0-4.1,0-6.2,0c0-0.2,0-0.4,0-0.6c2.1,0,4.1,0,6.2,0
				C428.7,404.3,428.7,404.5,428.7,404.7z"/>
			<path class="st135" d="M414.9,427.3c2,0.8,3.5,1.4,5,2C418,429.8,416,430.9,414.9,427.3z"/>
			<path class="st57" d="M415.9,400.7c1.3-1.3,2.4-2.3,4.4-1.4C419.1,400.6,417.9,401.6,415.9,400.7z"/>
			<path class="st0" d="M281.3,111.2c-3.3,2.5-7,0.8-10.5,1.1C274.2,111.2,277.7,111.3,281.3,111.2z"/>
			<path class="st0" d="M268.7,112.4c-1.6,4.5-3.3,1-5,0.1C265.4,112.5,267.1,112.5,268.7,112.4z"/>
			<path class="st136" d="M285,398.6c3.6,7.3,2.4,9.8-5.1,10c-4.5,0.1-9,0.3-13.5,0.4c-0.3-0.3-0.4-0.7-0.3-1
				c0.1-0.4,0.1-0.5,0.2-0.5c5.6,0,11.1-0.1,16.7-0.1c0.2,0,0.3-0.2,1.6-1c-5.1,0-9.1,0-14.8,0c3.9-2,6.4-1.5,8.7-1.3
				C283.5,405.6,285.9,403.9,285,398.6z"/>
			<path class="st127" d="M266.3,407.5c0,0.5,0.1,1,0.1,1.6c0.2,0.4,0.1,0.7-0.2,1c-0.8,4.2-1,8.3,0.1,12.5c0.4,0.3,0.5,0.6,0.5,1.1
				c-1.7,0-3.9-0.1-3.3-2.4c1-4,0.1-7.8-0.4-11.6C262.4,405.4,263.3,405.3,266.3,407.5z"/>
			<path class="st57" d="M268.9,385.7c9-1.6,13.5-3,14.2-4.3C283.5,386.9,281.5,387.5,268.9,385.7z"/>
			<path class="st97" d="M424,359.7c-4.4,0-8.7,0-13.1,0c0-0.3,0-0.5,0-0.8c4.5,0,8.9,0,13.4,0C424.2,359.1,424.1,359.4,424,359.7z"
				/>
			<path class="st137" d="M404.3,352.9c0.4,0.7,0.8,1.3,1,2c0.2,0.7-0.4,1.2-0.9,0.7c-0.5-0.5-0.8-1.3-1.1-2
				C403.3,353.5,403.8,353.2,404.3,352.9z"/>
			<path class="st0" d="M344,324.9c2.7,2.7,3.9,6.1,4.9,9.7c0.7,2.7,0.8,5.4-0.1,8.1c-1.3,6.9-5.7,10.8-12.3,12.4
				c-2.3,0.8-4.6,0.7-6.9,0.1c-6-1.1-10.4-3.9-12.1-10.1c-1-4.4-0.7-8.8-0.1-13.2c-0.1-1.3,0.5-2.4,1.6-3.2c2.3-0.3,3.1-2,3.5-4
				C329.7,318.9,336.9,320.4,344,324.9z"/>
			<path class="st42" d="M317.3,331.9c0,4.4,0.1,8.8,0.1,13.2C315.3,340.7,315.4,336.3,317.3,331.9z"/>
			<path class="st42" d="M322.4,324.7c0.5,1.4,1.8,2.7,0.3,4.3c-1.3,1.3-2.5,0.3-3.7-0.2C319.4,326.9,320.8,325.7,322.4,324.7z"/>
			<path class="st138" d="M329.6,355.2c2.3,0,4.6,0,6.9-0.1c-0.2,0.3-0.4,0.6-0.6,1C333.8,355.5,331.5,356.8,329.6,355.2z"/>
			<path class="st132" d="M321.5,318.1c-1,0.8-2.7,1.6-3.1,0.7c-0.6-1.2,1.1-1.1,2.1-1.2C320.7,317.6,321,317.9,321.5,318.1z"/>
			<path class="st0" d="M207.5,376.2c-2.9,0-5.8,0-8.7,0c0.9-1.3-2.9-2.2,0.1-4.4c3.2-2.3,1.3-6.2-0.1-9.4h0c1,0,2-0.3,2.5-1.3
				c0.8-0.9,1.3-2,2.5-3.8c-1.3,1.8-1.8,2.9-2.5,3.8c-3.2-7.2-6-14.4-3.8-22.5c0.5,0.4,1,0.8,1.5,1.2c1.3,0.5,2,1.6,2.1,3
				c3.9,7.7,9.8,14.1,14.2,21.5c1.5,2.5,3.7,2,6,1.7c1.6,0,3.2-0.1,4.9-0.1c-0.3,3-6.5,0.9-4.8,5.6c-0.5,0.1-1.1,0.1-1.6,0.2
				c0.6-5.8-6.8-1.7-7.6-6.7c1.6,9.9-5.3,8.6-11.3,8.8C203.1,375.9,206,373.9,207.5,376.2z"/>
			<path class="st139" d="M202.5,329.8c2.4,2.1,4,4.7,5,7.7C202.8,336.9,200.6,334.7,202.5,329.8z"/>
			<path class="st0" d="M194.8,350.7c-0.3-0.3-0.6-0.7-0.9-1c0-4.6,0-9.3,0-13.9c0-0.2,0.1-0.4,0.2-0.5c1-0.2,0.6,0.6,0.8,1
				C194.9,341.1,194.9,345.9,194.8,350.7z"/>
			<path class="st139" d="M201.1,343c-0.7-1-1.4-2-2.1-3c0.8-0.1,1.8-0.6,2.2-0.3C202.6,340.7,201.3,341.9,201.1,343z"/>
			<path class="st140" d="M360,376.3c0.3,0.3,0.7,0.4,1.1,0.2c0.7,2.4,0.8,4.9,0.2,7.3c-2.2-1-4.2,1.5-6.1,0.6
				c0.8,0.6,2.9-0.8,3.9,2.3c-5.8-0.6-11.4,2.2-16.6-2.3c-1.7-1.5-4.2-1.9-6.5-0.9c-2.1,0.9-1.8,3.1-1.9,4.9
				c-0.1,2.3,0.1,4.6-0.1,6.9c-0.2,2.6,1.2,2.7,3.3,3.2c3.4,0.7,0.7-2,1.9-2.6c0.7-0.3,1-1.2,2-0.9c0.4,3.4,3,2.4,5.1,2.7
				c5.3,0.7,10.9-2.1,15.9,1.5c-0.8,8.5-0.8,8.5-10,8.6c-0.6,0-1.2,0-1.9,0c-8.7,0.1-8.4,0.1-8.7,9.1c-0.2,5.1,1.8,6.5,6.3,5.8
				c1.2-0.2,2.5-0.1,3.7-0.1c10-0.1,10-0.1,10.5,9.8l-0.6,0.1l-0.6-0.1c-7.1,0-14.2-0.4-21.2,0.1c-5.8,0.4-7.1-2.5-7.5-7.2
				c-0.4-4.7,1.3-9.5-1-14.1c-0.1-9.5,0-19-0.5-28.5c-0.2-4.4,0.6-6.7,5.6-5.9c1.6,0.2,3.2-0.3,4.9-0.5
				C347.6,377,353.8,376.9,360,376.3z"/>
			<path class="st101" d="M350,396.1c-1.4,0-2.9,0-4.3,0.1c-2.4,0-3.1-1.3-3.1-3.5c0-2.4,0.6-3.9,3.4-3.9c5.5,0,11,0,16.6,0
				c-4.4,3.6-9.6,0-14.3,1.6c-1.6,0.6-3.3-0.7-3.5,2.3c-0.2,3.9,2.7,1.6,4,2.3c0.4-0.4,0.9-0.5,1.4-0.2
				C350.5,395.3,350.4,395.7,350,396.1z"/>
			<path class="st141" d="M375,415c0,6.8,0,13.6,0,20.6c-1.3,0.6-1.3-1.6-2.5-1.8c1.3-4.1,1.4-8.3,1.2-12.5
				C374,419.1,372.9,416.8,375,415z"/>
			<path class="st142" d="M350,396.1c0-0.4,0-0.8,0-1.1c2.9-1,5.8-0.9,8.7,0c1.7,0.8,2.3-2.8,4.1-1c0.3,0.3-0.2,1.5-0.4,2.3
				C358.3,396.2,354.2,396.2,350,396.1z"/>
			<path class="st51" d="M358.7,395c-2.9,0-5.8,0-8.7,0c-0.4,0-0.8,0-1.2,0C352.1,393.1,355.4,393.1,358.7,395z"/>
			<path class="st16" d="M392.5,375c0,0.4,0,0.8,0,1.1c-7.1,0-14.2,0.1-21.2,0.1c3.1-2.4,6.7-0.7,10-1.2c2.9-0.9,5.8-0.9,8.7,0
				C390.8,375,391.7,375,392.5,375z"/>
			<path class="st15" d="M212.7,468.5c-2.7-2-6-0.5-8.9-1.2c0-0.3,0-0.6,0-1c1.4-1.1,3.1-0.3,4.6-0.7c0.9-0.2,2.9,0.4,1.6-1.8
				c1.6-3,4.1-1,6.3-1.2c1.4,0.6,1.1,3.7,3.8,2.5c2.1-0.2,4.2-1.7,6.2,0c-1.6,3.4-4.8,2.3-7.5,2.5
				C216.7,467.6,214.4,466.2,212.7,468.5z"/>
			<path class="st15" d="M251.2,458.8c0,0.4,0,0.8,0,1.2c-11.2,0-22.4,0-33.5,0c-2.2,0-4.6,0.8-6.4-1.2
				C224.6,458.8,237.9,458.8,251.2,458.8z"/>
			<path class="st36" d="M168.8,465c4.1-2.2,7.8-0.7,10.1-4.1C178.9,465.9,178.9,465.9,168.8,465z"/>
			<path class="st27" d="M210,463.8c-0.1,0.8,3.2,2-0.2,2.5c-2,0.3-4,0-6.1,0c-0.4-0.4-0.8-0.8-1.3-1.3
				C205.1,465,207.7,465.2,210,463.8z"/>
			<path class="st143" d="M220,465c-3.5,2.6-3.7,0.1-3.8-2.5C220,459.5,218.5,464.6,220,465z"/>
			<path class="st36" d="M179.9,472.7c-0.8-0.9-1.6-1.8-2.4-2.7c1.1-0.2,1.3-2.6,2.9-1.2C181.9,470.1,180.3,471.4,179.9,472.7z"/>
			<path class="st15" d="M250,463.8c0,0.8,0,1.7,0,2.5c-1.8,0-3.6,0-3.8-2.5C247.5,464.1,248.8,462.3,250,463.8z"/>
			<path class="st36" d="M181.2,458.7c2.9,0,5.8,0,8.8,0C187.1,460.7,184.2,460.7,181.2,458.7z"/>
			<path class="st20" d="M147.7,464.3c-0.6,1.1-1.5,1.7-2.9,1.4c-0.1,0-0.1-0.8,0.1-1C145.7,463.9,146.6,463.5,147.7,464.3z"/>
			<path class="st144" d="M299.5,430.5c-1-1.6-0.8-2.8-0.4-4C300.6,427.3,300,428.6,299.5,430.5z"/>
			<path class="st30" d="M281.2,348.8c-3.7,0.8-1.9,3.8-2.5,6c-1,4.2,2.3,8.8-1.2,12.8c-0.5-0.4-1-0.9-1.5-1
				c-8.6-1.5-8.6-1.5-8.4-10.9c0.2,1.6,0.9,3.3,0.7,4.8c-0.6,4.5,1.8,4.8,5.4,4.9c4.5,0.2,4.4-2.1,4.3-5.3
				c-0.2-5.4-0.2-10.8-0.3-16.2c3-0.5,2.7,2.1,3.5,3.7C281.2,348,281.2,348.4,281.2,348.8z"/>
			<path class="st145" d="M298.8,361.2c0.3,0.1,0.6,0.2,0.9,0.2c0.1,1.2,2,3.1-0.4,3.3c-3,0.2-6.3,1.6-9-0.9
				C293.1,362.8,297.1,365.9,298.8,361.2z"/>
			<path class="st146" d="M281.2,347.5c-1.7-0.8-1.3-3.5-3.5-3.7c0.7-3,2.1-0.5,3-0.2C283,344.4,281.9,346.1,281.2,347.5z"/>
			<path class="st97" d="M274.8,350.8c1.8,2.6,1.5,5.2,0.4,7.9C275.1,356.1,275,353.4,274.8,350.8z"/>
			<path class="st30" d="M251.3,330c2.4,3.8,1,8,1.1,12c0.3,7.2,0.1,14.5,0.1,21.7c0,2.5-0.4,4.9-3.8,2.4c3.2-0.5,2.8-2.8,2.8-5.1
				C251.4,350.7,251.4,340.3,251.3,330z"/>
			<path class="st147" d="M351.4,487.3c-0.1-5.3-0.2-10.6-0.4-15.9c-0.1-3.2,1.5-3.3,3.9-2.4c-0.1,0.4-0.1,0.7,0.2,0.9
				c1,4.2,0.8,8.3,0.1,12.5c0.1,1.1,0.9,1.2,1.7,1.2c1.5,0,3.1,0.1,2.9,2.2c-0.3,2.1-2.1,1.5-3.4,1.5
				C354.6,487.4,353,487.3,351.4,487.3z"/>
			<path class="st68" d="M387.5,477.5c-0.1-0.6-0.3-1.2-0.3-1.8c-0.2-8.1,2.4-9.6,10.4-5.7c-0.2,0.3-0.3,0.7-0.2,1.1
				c-1.9,1.7-4.5,0-6.5,1.3c-1.4,0.4-0.9,1.6-1,2.5c0.7,1.4,1.1,2.7-1.3,2.6C388.3,477.5,387.9,477.5,387.5,477.5z"/>
			<path class="st148" d="M388.8,477.5c1-0.6,1.2-1.5,1.3-2.6c2.4,0.1,4.7,0.2,7.1,0.2c0,1.1,0.1,2.2,0.1,3.3
				c-2.4,0.1-4.8,0.2-7.1,0.3C389.7,478.4,389.2,477.9,388.8,477.5z"/>
			<path class="st108" d="M355.1,482.5c-0.7-4.2-0.6-8.3-0.1-12.5C357,474.1,356.8,478.3,355.1,482.5z"/>
			<path class="st149" d="M360,481.2c-2.3-3.5-1-7.4-1-11.1c0-0.1,0.3-0.3,0.4-0.3c0.2,0,0.4,0.1,0.6,0.2
				C361,473.8,361,477.5,360,481.2z"/>
			<path class="st108" d="M360,481.2c0-3.7,0-7.5,0-11.2c0.4,0,0.8,0,1.2,0c0,3.7,0,7.5,0,11.2C360.8,481.2,360.4,481.3,360,481.2z"
				/>
			<path class="st30" d="M401.2,472.9c-1.7-2.7-1.3-4.7-1-6.9C403.7,467.9,401.2,470.4,401.2,472.9z"/>
			<path class="st16" d="M383.5,467.3c-2.8,0-5.5,0-8.3,0C378,465.7,380.8,465.7,383.5,467.3z"/>
			<path class="st0" d="M403.7,476.2c0.4-0.4,0.8-0.8,1.2-1.2c1.1,0.9,1.8,2.2,0.4,3C404.2,478.7,403.9,477.2,403.7,476.2z"/>
			<path class="st76" d="M391,472.4c1.9-1.6,4.4-0.1,6.5-1.3C395.7,473.7,393.2,472.3,391,472.4z"/>
			<path class="st0" d="M368.9,362.5c-1.9-1.3-1.3-3.3-1.3-5.1c0-13.9,0-27.9,0-41.8C369.4,331.1,368.5,346.8,368.9,362.5z"/>
			<path class="st150" d="M377.5,360.7c3.7-1,6.2-0.8,9.9-0.2C383.7,361.5,381.3,361.4,377.5,360.7z"/>
			<path class="st106" d="M120,434.8l-0.6,0l-0.5-0.1c0.2-0.3,0.1-0.7-0.2-0.9c-2-6.7-2.1-13.3-0.1-20c0-1.3,0-2.5,0-3.8
				c-0.8-2.9-0.8-5.8,0-8.7c0-5.2,0-10.5,0.2-15.7c0.1-1.4-1.2-3.3,1.1-4.1c0,14.7,0.3,29.5-0.1,44.2c-0.1,5.5,1.4,7.7,6.9,6.9
				c2.6-0.4,5.3-0.1,8,0.3C130,434.8,124.7,432.3,120,434.8z"/>
			<path class="st94" d="M117.5,433.7c-0.1,0.8-0.2,1.6-0.2,2.4c-1.5-5.7-0.4-11.5-2-17.2c-0.3-1.1,1.1-2.1,2.2-2.7
				C118.5,422.1,118.5,427.9,117.5,433.7z"/>
			<path class="st66" d="M117.5,433.7c0-5.8,0-11.7,0-17.5c0-1,0.2-1.9,1.2-2.5c0,6.7,0.1,13.3,0.1,20
				C118.3,433.7,117.9,433.7,117.5,433.7z"/>
			<path class="st0" d="M108.1,411.7c-0.7-1.6-1.5-3.3-2.4-5.3c4.1,0.4,2.8,3.2,3.9,4.7C109,411.2,108.6,411.4,108.1,411.7z"/>
			<path class="st0" d="M118.7,401.3c0,2.9,0,5.8,0,8.7c-2.2-2.7-0.7-5.9-1.1-8.8C117.9,401.2,118.3,401.3,118.7,401.3z"/>
			<path class="st151" d="M127.2,402.9c0,6.5,0,13,0,19.4c-0.2,0-0.4,0-0.6,0c0-6.5,0-13.1,0-19.6
				C126.7,402.8,126.9,402.9,127.2,402.9z"/>
			<path class="st30" d="M264,363.8c1.2-3.6,1-7.5,1.6-11.2C265.8,356.4,267.8,360.6,264,363.8z"/>
			<path class="st30" d="M137.4,328.6c11.7-6.9,20.4-4.4,27.5,7.9c-0.2,0.4-0.1,0.8,0.2,1.1c0.9,3.3,0.7,6.7,0,10
				c-2.4,6.1-6.9,10.1-13,12.3c-2.2,0-4.4,0-6.6,0c-3.6-0.6-7.8-0.2-9.2-4.9C129.6,344.9,130,337.8,137.4,328.6z"/>
			<path class="st22" d="M136.3,354.9c3.1,1.6,6.1,3.3,9.2,4.9c-0.8,0.2-1.8,0.3-2.3,0.8c-2.1,2.1-5.1,1.3-6.6,0.4
				C134.7,360,135.4,357.1,136.3,354.9z"/>
			<path class="st19" d="M331.1,470.3c-3.9-2.3-8.1-2.4-12.3-1.4C323.2,466.9,327.5,465.7,331.1,470.3z"/>
			<path class="st19" d="M307,466.1c-1.2-0.2-1.8-0.7-1.8-1.6c-0.1-0.6,0.3-1.3,0.9-0.7c0.7,0.7,2.2,0.1,2.1,1.6
				C308.2,465.7,307.3,465.9,307,466.1z"/>
			<path class="st109" d="M305,482.5c0.1-1-0.3-2.1,0.8-2.7c0.2-0.1,1.2,0.6,1.2,1C307.2,482.2,306.1,482.4,305,482.5
				C305,482.5,305,482.5,305,482.5z"/>
			<path class="st152" d="M314.8,465.3c-1,1.2-2.2,1-3.4,0.6C312.3,463.9,313.7,465.9,314.8,465.3z"/>
			<path class="st8" d="M165.1,347.5c0-3.3,0-6.7,0-10c3.7,0.9,5.3,3,4.2,6.8c-2.6,0-1.1-2.6-2.6-3.1
				C165.5,343.1,167.2,345.8,165.1,347.5z"/>
			<path class="st66" d="M359.8,336.7c0.5-1.8-0.4-4,1.5-5.4c0.9,4.2,1.1,8.3,0,12.5c-0.4,0.4-0.8,0.8-1.2,1.2
				c-1.2-1.8-0.7-3.7-0.2-5.6C359.3,338.5,359.3,337.6,359.8,336.7z"/>
			<path class="st153" d="M348.8,342.7c0-2.7,0-5.4,0.1-8.1C350,337.3,350.1,340,348.8,342.7z"/>
			<path class="st69" d="M359.9,339.4c0.1,1.9,0.1,3.7,0.2,5.6c-0.4,0.4-0.9,0.9-1.3,1.3C359.1,344,359.5,341.7,359.9,339.4z"/>
			<path class="st154" d="M277.4,328c-0.8-3.6,0.6-4.9,4.2-4.7c3.6,0.3,7,0.9,6.9,5.3c0,4.9-3.9,5-7.5,5.3
				C275.7,334.2,278,330.2,277.4,328z"/>
			<path class="st87" d="M277.3,483.4c-0.3,0.2-0.7,0.3-1.1,0.4c-2.8-0.8-5.9-0.2-8.7-1.3c0-0.8,0-1.7,0-2.5
				c2.3-1.6,5.2,0.4,7.4-1.2c0.8,0.8,1.5,1.6,2.3,2.4C277.3,481.9,277.3,482.7,277.3,483.4z"/>
			<path class="st16" d="M273.6,467.3c-3.7,0-7.4,0.1-11.1,0.1C266.2,465.5,269.9,465.7,273.6,467.3z"/>
			<path class="st63" d="M275,478.8c-2.2,2.2-5,0.8-7.4,1.2c1.5-2.6,4-0.6,6-1.3C274,478.7,274.5,478.7,275,478.8z"/>
			<path class="st19" d="M390,375c-2.9,0-5.8,0-8.7,0c0-0.4,0-0.8,0-1.2C384.2,374.2,387.4,372.6,390,375z"/>
			<path class="st19" d="M387.5,366.2c-0.4-0.4-0.8-0.8-1.2-1.2c1.6,0,3.3,0,5.2,0C390.2,366.9,388.7,365.9,387.5,366.2z"/>
			<path class="st0" d="M400.6,382c-0.7-1.9-1-3.3,0.2-3.8c1.3-0.5,0.7,0.8,0.6,1.4C401.3,380.2,401.1,380.7,400.6,382z"/>
			<path class="st69" d="M361.3,343.7c0-4.2,0-8.3,0-12.5C362.6,335.4,364.3,339.6,361.3,343.7z"/>
			<path class="st102" d="M120.2,366.5c0.9-0.7,1.3-1.1,1.4-1.1c0.6,0.5,1.3,0.9,1.7,1.5c0.3,0.6,0,1.2-0.9,0.8
				C121.7,367.4,121,367,120.2,366.5z"/>
			<path class="st0" d="M119.5,372c-0.9,0.2-1.6,0.4-2.3,0.4c-0.5,0-1.6-0.1-0.6-0.9c0.5-0.5,1.5-0.5,2.4-0.6
				C119,370.9,119.2,371.4,119.5,372z"/>
			<path class="st155" d="M266.2,422.5c-2-4.1-1.8-8.3-0.1-12.5C266.2,414.2,266.2,418.3,266.2,422.5z"/>
			<path class="st156" d="M171.1,484c-3.8-0.4-6.1-2.5-6-6.4c0.1-3.8,2.2-6.3,6.2-6.2c3.9,0.1,6.1,2.6,6,6.4
				C177.3,481.7,175,483.8,171.1,484z"/>
			<path class="st84" d="M95,463.8c-0.4,0.7-0.8,1.4-1.1,2.1c-0.7,1.5-2,0.9-3.1,0.7c-0.2,0-0.6-1-0.5-1.4c0.3-1.2,1.3-1.4,2.3-1.4
				C93.4,463.8,94.2,463.8,95,463.8C95,463.8,95,463.8,95,463.8z"/>
			<path class="st157" d="M93.5,476c0.3,1.2,0.7,2.7-0.7,3.2c-1.3,0.5-1.5-0.8-1.4-1.9C92.1,476.9,92.8,476.5,93.5,476z"/>
			<path class="st158" d="M322.3,477.4c1-2-1.6-5.7,2.8-5.5c3.8,0.2,5.3,2.8,5.2,6.4c-0.1,3.4-1.9,5.7-5.4,5.4
				C320.3,483.3,323.7,479.3,322.3,477.4z"/>
			<path class="st0" d="M212.5,482.5c-0.9-0.1-2.4,2.5-2.2,0.5c0.4-4-1.9-8.6,2.2-11.9c-0.1-0.4-0.1-0.7,0.2-1
				C214.7,474.2,214.2,478.3,212.5,482.5z"/>
			<path class="st21" d="M233.7,465c2.2,0.4,4.5,0.7,5,3.5c-0.8-0.1-1.7-0.1-2.5-0.2C235.2,467.3,233.5,466.9,233.7,465z"/>
			<path class="st159" d="M229.9,474.7c0,2.6,0.1,5.2,0.1,7.9C228.8,479.9,228.2,477.3,229.9,474.7z"/>
			<path class="st160" d="M232.6,477.4c0.2-4,1.7-6.3,5.8-5.9c4.1,0.4,6.6,2.8,6.4,6.9c-0.1,3.6-2.4,5.8-6.1,5.6
				C234.6,483.6,232.2,481.5,232.6,477.4z"/>
			<path class="st0" d="M198.7,362.5c-1.2-0.2-2.4-0.4-2.3-2.1c0-0.3,0.5-0.8,0.7-0.7C198.6,360,198.6,361.3,198.7,362.5
				L198.7,362.5z"/>
			<path class="st161" d="M222.7,474.3c0,0.6-0.9,1.1-1.9,1.4c-1.3,0.4-2-0.4-2.1-1.5c-0.2-1.3,0.1-2.6,1.8-2.5
				C221.6,471.8,222.5,472.4,222.7,474.3z"/>
			<path class="st104" d="M252.5,66.3c0.6-1,1-2.4,2.6-1.5c0.3,0.1,0.5,0.8,0.4,1C254.8,67.6,253.6,66.6,252.5,66.3L252.5,66.3z"/>
			<path class="st63" d="M267.6,482.5c2.9,0.5,6.1-1.2,8.7,1.3c0,1.2,0.1,2.4,0.1,3.7c-1,0-2-0.1-3-0.1c0.6-2,0.8-3.7-2.2-3.7
				C270,483.6,268.2,484.5,267.6,482.5z"/>
			<path class="st162" d="M280.4,480.1c3.1-2,0.7-5.4,3.7-5.6c1.7-0.1,2,1.8,2.1,3.2C286.3,481.4,283.6,479.5,280.4,480.1z"/>
			<path class="st5" d="M418.7,383.7c3.3,3.1,7.9-0.5,11.2,2.4c-4.6,0.1-9.1,0.1-13.7,0.2C416.7,385.1,417.5,384.2,418.7,383.7z"/>
			<path class="st11" d="M341.3,395c-2.5,0.7,0.3,4.3-2.7,4.8c-4.1,0.7-7.1,0.6-6.1-5c0.4-2.4-0.1-5,0.1-7.4
				c0.2-2.2-1.3-5.2,2.5-6.1c4-1,8.5,0.5,9.9,3.8c0.5,1.2,1,0.9,1.6,0.9c2.4,0.1,4.9,0.2,7.3,0.2c1.2,0,2.4-0.1,4-0.2
				c-2.2-2.1-4.8-0.1-7.9-2.8c4.7,1.9,7.8-2,11.3,0.5c1,2.9-0.4,3.7-3,3.6c-2.9-0.1-5.8,0.4-8.7,0
				C343.4,386.4,340.2,388.3,341.3,395z"/>
			<path class="st8" d="M208.6,478.7c0,0.4,0,0.9,0,1.3c-1.8,1.1-0.3,3.5-2.1,5.2c0-3.9,0-7.5,0-11.8
				C208.1,475.2,206.8,477.7,208.6,478.7z"/>
			<path class="st163" d="M428.8,486.1c-0.3,0.1-0.7,0.1-1,0.1c0-5-0.1-10-0.1-15C429.9,476.1,428.1,481.2,428.8,486.1z"/>
			<path class="st111" d="M201.3,361.2c0.2-2.6,1.7-4.5,3.6-8.2C204.8,357.6,203.8,359.8,201.3,361.2L201.3,361.2z"/>
		</g>
	</g>
</g>
</svg>
