<?xml version="1.0" encoding="utf-8"?>
<!-- Generator: Adobe Illustrator 23.0.1, SVG Export Plug-In . SVG Version: 6.00 Build 0)  -->
<svg version="1.1" id="Layer_1" xmlns="http://www.w3.org/2000/svg" xmlns:xlink="http://www.w3.org/1999/xlink" x="0px" y="0px"
	 viewBox="0 0 892.5 1082.5" style="enable-background:new 0 0 892.5 1082.5;" xml:space="preserve">
<style type="text/css">
	.st0{fill:#FFFFFF;}
</style>
<g>
	<path class="st0" d="M253.8,200.3c-9.9,15.8-19.5,30.2-28.2,45.1c-14.6,25-27,51.5-46.8,73.2c-11.1,12.3-23.5,22.5-40.6,25.2
		c-17,2.7-31.4-4.9-36.9-19.6c-5.7-15.2,0.3-33.5,14.3-41.3c4.7-2.6,10.8-3.8,16.1-3.6c12.9,0.4,23.5-3.7,31.1-14.1
		c12.1-16.6,24.2-33.2,35.6-50.3c11.6-17.5,22.4-35.6,38.1-50c12.2-11.2,22.8-10.9,34.3,1c20.2,20.9,35.1,45.6,50.8,69.7
		c5.3,8.2,10.8,16.3,16.2,24.4c0.8,1.3,1.7,2.5,2.8,3.6c8.5,8.7,12.7,8.8,19.6-0.7c10.3-14.2,19.8-28.9,29.8-43.3
		c3.8-5.5,8.3-10.6,12-16.1c5-7.4,12.1-10.4,20.6-9.9c20.7,1.3,41.5,2.5,62.2,4.7c13.3,1.4,26.4,4.2,39.5,7.3
		c4.5,1,8.5,4.5,12.7,6.9c-0.1,0.9-0.3,1.8-0.4,2.7c-12.1,1.4-24.2,3.6-36.3,4.2c-21.2,1-42.5,1.5-63.7,1.5
		c-12.9,0-20.7,6.4-26.8,17c-9.3,16.1-19.1,32-29.1,47.7c-7.6,11.8-17,21.8-30,28c-4.6,2.2-7.7,1.8-11.7-1.3
		c-15.2-12.3-27.2-27.3-37.8-43.5c-12.4-18.8-24.8-37.6-37.4-56.2C261.4,208.7,258.3,205.6,253.8,200.3z"/>
	<path class="st0" d="M492.6,152.8c-4.9-3.2-10.3-5.9-14.6-9.7c-5.9-5.3-11.1-11.6-16.6-17.4c-1.9-2-3.9-4.1-6.1-5.9
		c-7.6-6.3-15-9.3-25.2-3.7c-16.9,9.3-34.2,18-52.1,25c-26.9,10.4-31.4,1.4-33.8-20.8c-1.3-12.2-0.5-24.7-1.4-37
		c-0.8-11.2-2.6-22.3-4-33.4c-0.6-4.8-3.7-7.4-8.5-6.8c-9.2,1.2-18.4,2.4-27.3,4.5c-11.1,2.6-21.9,6.8-33.1,9.1
		c-9,1.9-14.3-2.3-16.8-11.2c-4.1-14.5,2.9-30.1,16.9-37.1c15.7-7.9,32.5-8.3,49.6-7c12.4,0.9,24.5,2.7,35.3,9.7
		c6.3,4.2,10.6,9.6,11.3,17.3c1.2,14.2,2.2,28.5,3.2,42.7c0.8,11.2,1.5,22.5,1.9,33.7c0.2,4.7,2.3,5.8,6.6,5.5
		c13.6-0.7,25.4-6.6,37.5-11.9c11.1-4.9,22.2-10,34.8-9.3c2.7,0.2,6,1.5,7.7,3.5c14.6,17,26.9,35.5,35.4,56.4
		c0.3,0.7,0.3,1.6,0.5,2.4C493.4,151.9,493,152.3,492.6,152.8z"/>
	<path class="st0" d="M466.8,829.7c22.7,0,45.7,0,69.3,0c0,7.6,0,15.1,0,23.6c-14.9,0-29.9,0-45.4,0c0,8.3,0,15.6,0,23.5
		c15.3,0,30.3,0,45.8,0c0,8,0,15.5,0,23.8c-15.1,0-29.9,0-45.2,0c0,11.6,0,22.3,0,33.8c15.2,0,30.2,0,45.8,0c0,8.1,0,15.6,0,24.1
		c-23,0-46.1,0-70.3,0C466.8,916.2,466.8,873.3,466.8,829.7z"/>
	<path class="st0" d="M809.5,826.3c22.6,0,45.5,0,69,0c0,7.4,0,15,0,23.6c-14.8,0-29.7,0-44.9,0c0,8.2,0,15.4,0,23.4
		c15,0,30,0,45.6,0c0,8.1,0,15.6,0,23.8c-15,0-29.9,0-45.5,0c0,10.8-0.2,20.9,0.3,31c0.1,1.2,3.5,3.1,5.4,3.1
		c13.2,0.3,26.4,0.1,40.2,0.1c0,7.6,0,15.2,0,23.8c-22.8,0-45.8,0-70.1,0C809.5,912.9,809.5,870.2,809.5,826.3z"/>
	<path class="st0" d="M639.9,827.8c22.9,0,45.8,0,69.3,0c0,7.6,0,15.2,0,24.1c-12.7,0-25.4,0.4-38.1-0.2c-6.6-0.3-8.3,2-7.7,8.1
		c0.5,4.9,0.1,9.8,0.1,15.2c15.8,0,30.6,0,46.1,0c0,7.9,0,15.3,0,23.7c-14.8,0-29.7,0-45,0c0,11.8,0,22.7,0,34.3
		c15.4,0,30.5,0,45.9,0c0,8.2,0,15.6,0,23.9c-23.3,0-46.4,0-70.6,0C639.9,914.5,639.9,871.7,639.9,827.8z"/>
	<path class="st0" d="M144,711.6c-4.9,4.7-9.8,9.5-14.6,14.1c-5.7-3.6-11.3-8.1-17.7-11.1c-17.4-8.2-37-3.7-49,10.4
		c-11.1,13.1-12.1,34.5-2.2,49.2c11.6,17.2,37.5,22.3,55.7,10.7c4.9-3.1,9.2-7.1,14.2-11c4.7,4.9,9.5,10,14.4,15.1
		c-15.1,20.4-46.5,29.1-73.2,20.2c-24.7-8.2-40.1-30.5-40.4-58.4c-0.3-27.2,16-50,41.9-58.7C98.2,683.7,129.3,692.1,144,711.6z"/>
	<path class="st0" d="M819.6,719.3c14.2,0,27.7,0,41.8,0c0,7,0,13.8,0,21.5c-13.5,0-26.9,0-40.7,0c0,10.7,0,20.5,0,30.9
		c13.8,0,27.3,0,41.6,0c0,7.1,0,14.1,0,22c-20.7,0-41.6,0-63.5,0c-0.8-38.3-1.6-77.2-2.5-117c21.6,0,42.5,0,64,0c0,6.2,0,13,0,21
		c-13.3,0-26.8,0-40.7,0C819.6,705.5,819.6,712.1,819.6,719.3z"/>
	<path class="st0" d="M791.1,827.3c0,7.7,0,15.3,0,23.7c-7.5,0-14.9,0-22.6,0c0,35.7,0,70.4,0,105.4c-8.2,0-16.1,0-25.1,0
		c0-34.9,0-69.5,0-104.7c-8.3,0-15.5,0-23.2,0c0-8.4,0-16,0-24.4C743.7,827.3,767,827.3,791.1,827.3z"/>
	<path class="st0" d="M239.8,859.8c-8.7,0-15.5,0-22.8,0c0-7.9,0-15.3,0-23.4c22.8,0,45.2,0,68.4,0c0,7.1,0,14.6,0,22.8
		c-6.7,0-13.8,0-21.4,0c0,34.4,0,68,0,102.2c-7.8,0-15.3,0-24.1,0C239.8,928.1,239.8,894.4,239.8,859.8z"/>
	<path class="st0" d="M584.2,934.9c13.3,0,24.7,0,36.6,0c0,7.7,0,15,0,23c-19.8,0-39.6,0-60.4,0c0-42.4,0-85,0-128.3
		c7,0,14.7,0,23.8,0C584.2,864.1,584.2,899,584.2,934.9z"/>
	<path class="st0" d="M176.2,939.6c12.4,0,23.6,0,35.2,0c0,7.6,0,14.6,0,22.4c-19.2,0-38.3,0-58.6,0c0-41.3,0-82.8,0-124.6
		c7.1,0,14.6,0,23.4,0C176.2,871.4,176.2,905.3,176.2,939.6z"/>
	<path class="st0" d="M411.4,707.1c0-7.6,0-14.5,0-22.4c21.4,0,42.5,0,64.4,0c0,6.4,0,13.4,0,21.4c-6.7,0-13.5,0-19.7,0
		c0,32.4,0,63.7,0,95.6c-6.8,0-13.8,0-21.7,0c-0.7-31.4-1.4-62.8-2.1-94.7C425.2,707.1,418.8,707.1,411.4,707.1z"/>
	<path class="st0" d="M724,678.6c7.9,0,14.8,0,22.4,0c0.7,31.9,1.5,63.6,2.2,95.6c11.1,0,21.4,0,32.3,0c0,6.9,0,13.5,0,21.1
		c-17.6,0-35.5,0-54.3,0C725.8,757.1,724.9,718.3,724,678.6z"/>
	<path class="st0" d="M889.2,1007.7c-295.1,0-590.2,0-885.9,0C7.3,1004.7,882.9,1004,889.2,1007.7z"/>
	<path class="st0" d="M48.1,1053.3c-2.3,8.4-4.5,14.9-5.9,21.6c-1.1,5.3-3.6,7.5-9.8,5.6c-3.1-13.6-6.3-27.6-9.5-41.9
		c5.4-2.1,8.2-1,9.1,4.9c1.1,6.5,2.9,12.8,5.6,19.3c1.9-6.7,3.6-13.6,5.9-20.2c0.7-1.9,3-3.3,4.6-4.9c1.6,1.6,4,2.9,4.6,4.8
		c2.3,6.7,4.1,13.5,7.3,20.3c1.5-6.3,3.2-12.6,4.3-19.1c0.9-5.7,3.4-7.5,9.2-5.1c-2.9,12.8-5.7,25.7-8.8,38.5
		c-0.4,1.6-3,3.6-4.5,3.6c-1.7,0-4.3-1.9-4.8-3.5C52.7,1070,50.8,1062.5,48.1,1053.3z"/>
	<path class="st0" d="M131.2,1038.4c5.8-1.7,8.3-0.3,9.1,5.2c1,6.5,2.9,12.8,5.6,19.2c2-7,3.7-14,6-20.9c0.6-1.7,2.9-3.9,4.4-3.9
		c1.5,0,3.8,2.2,4.4,4c2.4,6.9,4.2,13.9,7.4,20.8c1.4-6.4,3.1-12.7,4.2-19.2c0.9-5.1,3.1-7.3,9.2-5.2c-3.1,13.9-6.2,27.8-9.3,41.7
		c-5.6,2.2-8.6,0.7-9.9-5.2c-1.4-6.7-3.7-13.2-6.7-19.8c-1.9,6.9-3.6,14-5.9,20.8c-0.7,2-3.1,4.2-5.2,4.9c-3.7,1.2-4.5-1.7-5.1-4.8
		C136.9,1063.7,134,1051.3,131.2,1038.4z"/>
	<path class="st0" d="M127.5,1038.5c-3,13.5-5.6,26.6-9,39.5c-0.5,1.8-4.6,2.7-7.8,4.4c-2.9-10-5.4-18.5-7.8-26.9
		c-0.4-0.1-0.8-0.1-1.2-0.2c-1.8,6.5-3.7,12.9-5.5,19.4c-1.8,6.4-1.8,6.4-9.5,6.2c-3.1-14-6.3-28.1-9.6-42.8c2.9,0,5,0,7.8,0
		c2,8.4,4,16.9,6.4,27.2c2.3-8.3,4.1-15,6-21.6c0.8-2.7,0.7-7,5.1-5.7c2,0.6,4.1,3.2,4.8,5.3c2.3,6.5,3.9,13.2,6.9,19.9
		c1.5-6.7,3.4-13.3,4.5-20C119.4,1037.9,122,1036.8,127.5,1038.5z"/>
	<path class="st0" d="M336.5,1080.4c-5.4,1.7-8.2-0.3-10.7-4.4c-4.3-7.3-9.2-14.3-15-21c0,8.3,0,16.6,0,25.5c-3,0-5.4,0-8,0
		c0-14.1,0-27.9,0-41.8c4.9-2.2,8.1-0.6,10.7,3.8c4.4,7.3,9.3,14.5,15.1,21.5c0-8.4,0-16.9,0-25.8c3,0,5.2,0,7.9,0
		C336.5,1052.4,336.5,1066.4,336.5,1080.4z"/>
	<path class="st0" d="M842.2,1037.6c3.2,0.2,5.3,0.3,7.7,0.5c0,14.4,0,28.3,0,42.2c-5.1,2-8.2,0.4-10.8-4.1
		c-4.3-7.4-9.2-14.4-14.9-23.3c0,10.5,0,19,0,27.8c-2.9,0-5.1,0-7.8,0c0-14.2,0-28.3,0-42.4c5-1.7,8,0,10.4,4.2
		c4.4,7.4,9.3,14.5,15.4,21.6C842.2,1055.4,842.2,1046.6,842.2,1037.6z"/>
	<path class="st0" d="M239.6,1068.5c1.7,1.8,3.1,3.3,4.6,4.8c-8.5,10.3-24.3,11.7-33.6,3.2c-9.4-8.6-9.9-23.6-1.1-32.7
		c9.4-9.6,24.8-9.1,34.9,1.6c-0.7,0.9-1.5,1.9-2.3,2.8c-0.7,0.8-1.6,1.4-2.4,2c-12-6.8-19.7-6.7-25.1,0.1
		c-4.4,5.4-4.2,14.1,0.4,19.2C220.6,1075.7,229.1,1075.5,239.6,1068.5z"/>
	<path class="st0" d="M711.6,1080.5c0-14.5,0-28.2,0-42.4c7.6,0,14.8,0,22.6,0c0,2.3,0,4.5,0,7.4c-4.6,0-9.3,0-14.4,0
		c-0.1,2.8-0.3,4.8-0.4,7.7c5,0,9.7,0,14.8,0c0,3,0,5.2,0,7.9c-4.6,0-9,0-14.3,0c-0.2,4-0.3,7.5-0.5,11.8c5.3,0,9.9,0,15,0
		c0.1,2.8,0.3,4.9,0.4,7.6C727,1080.5,719.6,1080.5,711.6,1080.5z"/>
	<path class="st0" d="M507.5,1061.3c-4.7,0-9.4,0-14.6,0c0,4,0,7.3,0,11.4c4.6,0.2,9.4,0.5,14.7,0.7c0.2,2.4,0.3,4.4,0.5,7.1
		c-8,0-15.6,0-23.4,0c0-14.1,0-28.1,0-42.4c7.6,0,14.9,0,22.9,0c0.1,2.3,0.3,4.5,0.4,7.4c-5.2,0-9.8,0-15.2,0
		c-0.2,2.8-0.3,5-0.5,7.9c5.2,0,9.9,0,15.1,0C507.5,1056.2,507.5,1058.4,507.5,1061.3z"/>
	<path class="st0" d="M661.9,1046.1c0,2.7,0,4.6,0,7.2c4.9,0,9.5,0,14.7,0c0,2.9,0,5.1,0,8c-4.8,0-9.4,0-14.5,0c0,4.1,0,7.4,0,11.5
		c4.6,0,9.3,0,14.6,0c0.1,2.9,0.3,5.1,0.4,7.8c-8,0-15.4,0-23.2,0c0-14.1,0-27.9,0-42.3c7.5,0,14.9,0,22.8,0c0.1,2.1,0.3,4.1,0.5,7
		C672.1,1045.5,667.3,1045.8,661.9,1046.1z"/>
	<path class="st0" d="M776.6,1053.5c4.9,0,9.2,0,14.3,0c0.2,2.4,0.4,4.7,0.6,7.6c-5.1,0.2-9.8,0.4-14.9,0.7c0,3.4,0,6.8,0,10.9
		c4.4,0.2,9.3,0.5,14.5,0.7c0,2.5,0,4.8,0,7.4c-7.6,0-14.8,0-22.6,0c0-14.2,0-28.1,0-42.6c7.3,0,14.5,0,22.6,0
		c0.1,2,0.3,4.2,0.5,7.2c-5.1,0-9.8,0-14.9,0C776.6,1048.3,776.6,1050.5,776.6,1053.5z"/>
	<path class="st0" d="M465.5,1073c3.5,0,6-0.5,8.1,0.2c1.7,0.6,2.8,2.6,4.2,4c-1.5,1.3-2.8,3.6-4.4,3.8c-4.9,0.5-9.9,0.2-15.2,0.2
		c0-14.6,0-28.7,0-43.1c2.4,0,4.5,0,7.4,0C465.5,1049.4,465.5,1060.7,465.5,1073z"/>
	<path class="st0" d="M366.3,1038.2c0,2.5,0,4.5,0,6.8c-2.3,0.4-4.5,0.9-7.2,1.4c0,11.2,0,22.4,0,34.1c-3,0-5.4,0-8.3,0
		c0-11.3,0-22.5,0-34.1c-2.6-0.5-4.9-0.9-7.4-1.4c0-2.2,0-4.3,0-6.9C350.8,1038.2,358.2,1038.2,366.3,1038.2z"/>
	<path class="st0" d="M598.2,1080.8c-3.2,0-5.4,0-8.2,0c0-11.6,0-23,0-34.6c-2.8-0.3-4.9-0.6-7.3-0.9c0-2.4,0-4.6,0-7.2
		c7.5,0,14.8,0,22.6,0c0,2.3,0,4.6,0,7.1c-2.2,0.3-4.2,0.6-7,1C598.2,1057.6,598.2,1069,598.2,1080.8z"/>
	<path class="st0" d="M746.1,1046.1c-2.7-0.3-4.8-0.5-7.3-0.8c0-2.4,0-4.6,0-7.2c7.5,0,14.8,0,22.6,0c0,2.4,0,4.6,0,7.2
		c-2.2,0.3-4.3,0.6-7,0.9c0,11.5,0,22.8,0,34.5c-3,0-5.3,0-8.2,0C746.1,1069.1,746.1,1057.8,746.1,1046.1z"/>
	<path class="st0" d="M880,1073.4c0,2.6,0,4.8,0,7.4c-6.4,0-12.6,0-19.1,0c0-14.3,0-28.3,0-42.7c2.4-0.2,4.5-0.3,7.4-0.5
		c0,11.7,0,23,0,35C872.5,1072.9,876.1,1073.1,880,1073.4z"/>
	<path class="st0" d="M560.4,1038.1c2.4,0,4.5,0,7.3,0c0,11.4,0,22.7,0,34.5c4.3,0.3,7.8,0.6,11.7,0.9c0,2.4,0,4.5,0,7.1
		c-6.2,0-12.3,0-19,0C560.4,1066.8,560.4,1052.9,560.4,1038.1z"/>
	<path class="st0" d="M692.8,1072.7c4.3,0.3,7.7,0.5,11.6,0.7c0.2,2.4,0.3,4.4,0.5,7.1c-6.7,0-13,0-19.6,0c0-14,0-28,0-42.4
		c2.5,0,4.8,0,7.6,0C692.8,1049.6,692.8,1060.7,692.8,1072.7z"/>
	<path class="st0" d="M192.1,1084c-2.1-3.2-4.4-5.1-4.1-6.7c0.2-1.7,2.7-3,4.2-4.5c1.4,1.4,3.8,2.8,3.8,4.2
		C196.1,1078.8,194.1,1080.6,192.1,1084z"/>
	<path class="st0" d="M809.1,1076.8c-3,2.4-4.7,4.8-6.3,4.7c-1.7-0.1-3.9-2.5-4.4-4.2c-0.3-1.1,2.3-4,3.7-4.1
		C803.9,1073,805.8,1074.9,809.1,1076.8z"/>
	<path class="st0" d="M752.3,193.3c-0.6-3.2-1.7-6.3-2.8-9.3c-8-22.7-21-42.7-33.1-63.2c-17.8-30.2-37.9-58.6-62.9-83.2
		c-4-3.9-8.7-7.2-13.5-9.9c-6.4-3.6-11.6-1-13.4,5.9c-1.1,4.4-1.7,8.9-2.8,13.3c-1.4,5.6-2,11.8-4.7,16.6c-3.4,5.9-8.5,11-13.2,16
		c-1.4,1.5-4.5,2.5-6.5,2.1c-8.3-1.6-16.4-4.1-24.7-5.6c-3-0.5-7.8-0.3-9.2,1.5c-1.6,2.1-0.5,6.4,0,9.6c0.3,1.8,1.7,3.5,2.8,5.1
		c5.2,7.1,10.4,14.2,15.9,21.8c-15.9,7.9-27.3,20.1-37.9,34.7c20.8,8.6,41.8,15.2,55.8,33.3c14,18.1,18.8,38.5,16,61.8
		c-12.9-10.9-36.2-13.7-49.8-5.7c-4.1,2.4-8,7.2-9.3,11.6c-1.2,4.1-0.3,10.3,2.2,13.7c1.4,2,7.9,1.4,11.8,0.5
		c7.1-1.7,13.9-4.8,21-6.5c2.6-0.6,6.3-0.1,8.5,1.5c3.3,2.4,3.8,16.2,1.4,19.8c-17.1,26.6-50.6,30.7-72.3,7.9
		c-8.4-8.8-14.6-19.8-21.9-29.7c-1.4-1.9-3.1-3.6-4.8-5.5c-9.2,12.4-9.8,31.3-1.7,44.4c4.4,7,9.4,13.5,13.8,20.4
		c5.2,8.1,3.4,16-5.8,18.6c-7.8,2.3-16.7,2.9-24.8,1.8c-19.3-2.7-36.7,0.8-52.3,12.2c-25.1,18.2-46.5,40.3-65.8,64.3
		c-6.6,8.3-11.6,18.1-16.6,27.6c-1.4,2.6-1.5,8,0.1,9.4c2.2,1.9,6.8,1.9,10.1,1.2c5.7-1.2,11.2-3.5,16.9-5.3
		c-3.7,18.5-7.8,36.3-10.8,54.2c-8.4,49.4-10,99.2-4.6,149c1.8,16.2,8.2,32,9.5,48.2c1.7,21,0.4,42.1,0.4,63c-0.6-0.8-1.6-2-2.6-3.4
		c-14.9-21.8-29.8-43.7-44.7-65.5c-1.2-1.7-2.7-4.5-4.2-4.6c-6.8-0.5-13.6-0.2-20.6-0.2c0.9,40.4,1.7,79.1,2.6,117.7
		c7.9,0,14.7,0,21.5,0c0-25.2,0-49.9,0-75.4c1.1,1.4,1.8,2.1,2.4,3c15.2,22.2,30.3,44.4,45.5,66.6c1.3,1.9,3.1,4.5,4.9,4.6
		c6.6,0.6,13.2,0.2,20.1,0.2c-0.7-33.2-1.4-65-2-96.8c-0.1-6.9-0.7-14,0.5-20.7c6.2-33.6,13.2-67.1,19.4-100.7
		c3.7-20.3,7.1-40.6,16.4-59.2c1.7-3.4,5.4-8.3,7.8-8.1c3.3,0.2,7.3,4.2,9.2,7.5c3.6,6.3,6.9,13.1,8.7,20.2
		c8.7,32.4,17.5,64.8,24.9,97.5c3.6,15.8,11.2,30.1,10.4,47.8c-1.7,34.8,0.8,69.8,1.5,104.6c0,1.7,0.3,3.3,0.5,4.9
		c7.5,0,14.5,0,21.6,0c0-16.7,0-32.8,0-49c0.5-0.1,1-0.3,1.5-0.4c1.3,2.2,2.6,4.4,3.8,6.6c7.1,12.7,14.1,25.4,21.3,38
		c1,1.7,2.7,4.1,4.2,4.2c7.2,0.4,14.4,0.2,22.9,0.2c-10.2-18.3-19.5-35.1-28.8-51.7c18.7-11.5,23.9-21.3,20.5-39
		c-4.4-22.9-21.7-26.8-40.8-26.6c-2.8-63.4-6.4-126.2,23.1-185.8c2.7,8.6,4.5,16.5,7.5,23.8c3.5,8.5,7.7,16.8,12.3,24.9
		c3,5.3,8.3,4.9,11.2,0.7c3.1-4.5,5.7-10.4,6-15.8c2.7-38.5,4.7-77,6.8-115.5c0.2-4-0.4-8.2-1-12.2c-1.9-13.4-11-22.7-18.9-32.7
		c-4.3-5.6-8.2-11.6-11.4-17.9c-2.3-4.5-1-9.1,3.8-11.7c7-3.9,13.9-7.9,21.2-11.1c47.4-20.6,81.8-54.7,100.7-102.4
		c7-17.7,16.5-29.2,33.8-35.1c0.2-0.1,0.4-0.2,0.6-0.3c2.8-2.1,4.5-0.7,7.2,1.1c5.9,3.8,12.2,7.2,18.9,9.3
		C749.9,203.7,753.6,199.5,752.3,193.3z M532.4,705.4c6.2,0.9,9.3,5.2,9.5,11.4c0.2,6-3.1,9.7-9.6,11.1
		c-15.3,3.3-16.1,2.7-16.3-12.6c0-3.2,0-6.4,0-10.8C522.1,704.8,527.3,704.7,532.4,705.4z"/>
	<path class="st0" d="M439.5,873.9c-7.5-25.5-24.8-39.8-51.2-41.8c-14-1.1-28.1-0.5-42.2-1.1c-5.3-0.2-7.1,1.4-7,6.9
		c0.6,18.4,0.8,36.8,0.9,55.2c0.1,22.3,0,44.6,0,68.5c19.7-0.8,38.2-0.9,56.4-2.6c18.9-1.7,31.7-13.1,39.6-29.8
		C444.6,911.2,445,892.6,439.5,873.9z M417.9,897.2c-0.1,5.6-0.9,11.3-2.6,16.6c-3.9,12.4-12.1,20.4-25.5,21.6
		c-7.9,0.7-15.9,0.9-25.4,1.4c0-23.8,0-46.3,0-68.7c0-13.6,0-13.6,13.9-13C403.9,856,418.5,871.3,417.9,897.2z"/>
	<path class="st0" d="M221.3,686.1c-34.1-0.4-61.8,26.8-62.1,61c-0.3,35.1,26.2,62.5,60.7,62.9c34.2,0.4,61.2-26.1,61.6-60.4
		C281.9,714.5,255.3,686.5,221.3,686.1z M220.6,788c-22.4,0-38.8-17-38.9-40c0-22.9,16.7-40,39-39.8c21.3,0.1,38.2,17.7,38.5,40.1
		C259.5,770.3,242.2,788,220.6,788z"/>
	<path class="st0" d="M643.9,677.2c-34.5-0.2-61.8,27-61.9,61.7c-0.2,34.8,26.2,61.8,60.7,62.1c34.2,0.3,61.5-26.5,61.6-60.4
		C704.4,705.4,677.8,677.4,643.9,677.2z M643.8,779.2c-22.4,0.1-39.2-16.8-39.4-39.6c-0.1-23.1,16.2-40.2,38.5-40.3
		c21.7-0.1,38.9,17.8,38.9,40.3C681.8,761.7,665.1,779.1,643.8,779.2z"/>
	<path class="st0" d="M91.3,853.5c-6.4-16.1-6.4-15.8-24.2-15.6c-5,0.1-7.1,1.7-8.8,6.3c-10.8,29.5-21.9,58.9-32.9,88.3
		c-3.8,10.3-7.6,20.6-11.7,31.6c8.1,0,15.4,0.2,22.7-0.2c1.3-0.1,2.9-2.3,3.5-3.9c2.4-5.8,4.2-11.9,7-17.5c0.9-2,3.8-4.1,5.9-4.2
		c13.8-0.6,27.7-0.4,41.6-0.9c4.3-0.2,6.2,1.6,7.5,5.3c1.9,5.5,3.9,11.1,6.4,16.3c0.9,1.8,3.5,3.9,5.4,4c6.7,0.5,13.4,0.2,21.1,0.2
		C120,925.9,105.7,889.7,91.3,853.5z M57.4,914c5.3-14,10.3-27.4,16-42.5c5.9,15,11.2,28.3,16.9,42.5C78.8,914,68.5,914,57.4,914z"
		/>
	<path class="st0" d="M272,1036.8c-12.3,0.3-21.9,10.3-21.8,22.7c0.1,12.8,9.9,22.6,22.6,22.4c12.3-0.1,22-10.1,22-22.5
		C294.7,1047,284.2,1036.5,272,1036.8z M272,1074.1c-8.1-0.2-14-6.6-13.8-14.9c0.2-8.6,6.7-14.8,15.1-14.2
		c7.6,0.5,13.6,7.2,13.3,14.9C286.3,1068.1,279.9,1074.3,272,1074.1z"/>
	<path class="st0" d="M428.2,1036.9c-12.2-0.3-22.5,9.4-23,21.6c-0.5,12.9,8.9,23.1,21.5,23.5c12.5,0.3,22.6-9.1,22.9-21.4
		C450,1047.7,440.5,1037.2,428.2,1036.9z M427.5,1074.1c-8,0-14.3-6.4-14.3-14.6c0-8.3,6.2-14.7,14.2-14.7c8,0.1,14.3,6.5,14.3,14.6
		C441.7,1067.6,435.4,1074.1,427.5,1074.1z"/>
	<path class="st0" d="M641.3,1045.4c-7.8-10-18.7-7.2-29.3-7.8c0,14.8,0,28.6,0,43.3c11.4-0.6,23.2,3.1,30.6-8.7
		C647.6,1064.4,647.1,1052.9,641.3,1045.4z M636,1067.5c-3.4,6.6-9.5,5.4-15.9,5.5c0-9.4,0-17.9,0-26.8c6-0.8,11.5-0.5,15.1,4.8
		C638.6,1056.1,638.9,1061.9,636,1067.5z"/>
	<path class="st0" d="M390.8,1062.4c0.7-0.7,1.1-1.2,1.6-1.5c5.5-3,7.3-7.8,6.1-13.7c-1.3-6.2-5.8-8.9-11.8-9.2
		c-4.3-0.2-8.5,0-13.1,0c0,14.7,0,28.6,0,42.5c2.8,0,5,0,8.1,0c0-5.8,0-11.2,0-18.4c3.2,5.7,5.7,9.5,7.4,13.7
		c2.2,5.5,5.8,6.1,11.2,4.4C397,1074.2,393.9,1068.3,390.8,1062.4z M390,1052.2c-2.1,1.5-4.7,2.1-8.2,3.6c0-4.3,0-6.7,0-10.6
		c3,0.9,5.7,1.3,7.8,2.6C390.4,1048.2,390.6,1051.7,390,1052.2z"/>
	<path class="st0" d="M538.6,1042.4c-0.8-2-3.5-3.8-5.7-4.5c-3.7-1.2-5.3,1.4-6.4,4.6c-2.5,7.1-5.3,14.2-7.9,21.3
		c-2.1,5.5-4.2,11-6.3,16.6c5.7,1.7,9.1,0.8,10.7-4.7c0.4-1.5,3.3-2.9,5.2-3.2c2.9-0.5,6.1-0.6,9,0c2.1,0.5,5,2,5.5,3.7
		c1.6,5.5,5.1,5.6,10.4,4.2C548.2,1067.3,543.7,1054.8,538.6,1042.4z M527.2,1063.8c1.7-4.5,3.2-8.6,5.4-14.6
		c2.2,5.8,3.8,9.9,5.6,14.6C534.5,1063.8,531.2,1063.8,527.2,1063.8z"/>
</g>
</svg>
