<svg xmlns="http://www.w3.org/2000/svg" viewBox="0 0 751.22 197.1"><defs><style>.cls-1{fill:#abdaed;}</style></defs><title>stadMiddel 11@4x</title><g id="Laag_2" data-name="Laag 2"><g id="Laag_2-2" data-name="Laag 2"><polygon class="cls-1" points="0 186.88 61.19 186.88 61.19 149.29 95.65 149.29 95.65 88.47 142.43 88.47 142.43 0 161.57 0 199.85 12.34 199.85 125.05 206.23 125.05 206.23 179.92 221.54 179.92 221.54 130.58 226.65 130.58 226.65 121.22 231.33 121.22 231.33 104.21 243.24 104.21 243.24 61.25 278.12 61.25 278.12 55.72 290.02 55.72 290.02 119.94 307.89 119.94 307.89 164.22 335.65 164.22 335.65 157.92 343.75 157.92 343.75 135.66 345.68 135.66 345.68 122.16 349.54 122.16 349.54 119.97 353.53 119.97 353.53 122.03 357.52 122.03 357.52 135.79 359.58 135.79 359.58 157.85 367.39 157.85 367.39 164.2 371.5 164.2 371.5 143.98 373.46 143.98 373.46 116.44 375.3 116.44 375.3 102.32 379.33 102.32 379.33 96.12 385.24 96.12 385.24 82.28 389.28 82.28 389.28 96.12 395.33 96.12 395.33 102.13 399.15 102.13 399.15 116.09 401.23 116.09 401.23 144.02 402.71 144.02 402.71 163.72 405.34 163.72 405.34 122.19 411.26 122.19 411.26 114.05 445.11 114.05 445.11 120.15 447.06 120.15 447.06 124.06 448.95 124.06 448.95 130.09 451.01 130.09 451.01 136.09 462.74 136.09 462.74 170.92 468.82 170.92 468.82 167.42 470.88 167.42 470.88 171.03 475.02 171.03 475.02 136.22 506.83 136.22 506.83 171.92 512.68 171.92 512.68 169.91 512.68 167.98 516.83 167.98 516.83 166.14 518.73 166.14 518.73 169.96 520.87 169.96 528.75 169.96 528.75 133.82 562.43 133.82 562.43 155.83 584.44 155.83 584.44 96.37 610.39 96.37 610.39 110.17 616.3 110.17 616.3 155.85 618.25 155.85 618.25 158.01 624.29 158.01 624.29 161.83 626.08 161.83 626.08 165.72 632.29 165.72 632.29 127.93 634.27 127.93 634.27 108.22 636.27 108.22 636.27 104.21 638.13 104.21 638.13 102.07 642.24 102.07 642.24 100.2 644.2 100.2 644.2 90.23 648.11 90.23 648.11 100.2 650.14 100.2 650.14 102.2 653.99 102.2 653.99 104.26 656.05 104.26 656.05 108.25 657.84 108.25 657.84 127.92 660.16 127.92 660.16 165.87 672.42 165.87 672.42 162.94 685.9 162.94 685.9 165.87 691.78 165.87 691.78 178.04 699.92 178.04 699.92 136.93 706.9 136.93 716.11 127.73 716.11 120.23 723.04 120.23 723.04 127.61 731.76 136.34 739.37 136.34 739.37 187.11 741.61 187.11 741.61 189.8 745.41 189.8 745.41 193.82 751.23 193.82 751.23 197.1 0 197.1 0 186.88"/></g></g></svg>