<?xml version="1.0" encoding="utf-8"?>
<!-- Generator: Adobe Illustrator 23.0.1, SVG Export Plug-In . SVG Version: 6.00 Build 0)  -->
<svg version="1.1" id="Layer_1" xmlns="http://www.w3.org/2000/svg" xmlns:xlink="http://www.w3.org/1999/xlink" x="0px" y="0px"
	 viewBox="0 0 500 500" style="enable-background:new 0 0 500 500;" xml:space="preserve">
<style type="text/css">
	.st0{fill:#FFF33D;}
	.st1{fill:#FFFFFF;}
</style>
<rect class="st0" width="500" height="500"/>
<g id="Laag_2_2_">
	<g id="Laag_2-2_2_">
		<path class="st1" d="M149.6,313.6c-0.7-0.7-1.1-1.2-1.6-1.7c-9.3-8.5-16.4-19.1-20.7-30.9c-0.8-3.3-1.3-6.7-1.4-10.2
			c0-1.2-0.4-2.4-1.1-3.5c-8.9-9.9-14.9-22.1-17.3-35.2c-0.8-5.2-1.2-10.4-1.3-15.6c0.1-3.9,1.4-7.7,3.7-10.9c0.6-1,0.7-2.2,0.4-3.3
			c-7-20.4-4.8-42.8,6-61.5c5.5-9.2,17.4-12.3,26.6-6.8c2,1.2,3.8,2.8,5.3,4.6c16.5,20.8,38.9,36.2,64.3,44.1
			c4.7,1.5,9.5,2.8,14.6,4.1c0.6-2.8,1-5.5,1.6-8c7.1-30.7,32.7-53.6,64-57.4c18.8-2.3,37.8,2.7,53,13.9c1,0.7,2.3,0.9,3.5,0.6
			c6.4-2.8,12.8-5.3,18.9-8.3c9.3-5.1,20.9-1.6,26,7.7c0.6,1.1,1.1,2.2,1.4,3.4c0.5,3.3,0.7,6.6,0.6,10c0,0.9,0.3,1.9,0.9,2.6
			c7.8,6.6,9.2,18.2,3.1,26.4c-6.4,9.2-13.8,17.6-22.2,25c-0.9,0.9-1.4,2-1.6,3.3c-2.8,59.3-27.7,107-75.3,142.5
			c-19.6,14.7-42.2,23-66.2,27.2c-46,8.1-89.4,1.4-129.4-23.7c-6.8-3.8-10.5-11.5-9.3-19.2c0.6-7.9,6.3-14.5,14.1-16.2
			c2.6-0.6,5.3-0.8,7.9-0.5c9.9,1,19.9,0.3,29.6-2C148.4,314,148.8,313.9,149.6,313.6z M377.4,144.5c-1.3,0.6-2,0.9-2.8,1.3
			c-9,4.9-18.5,8.6-28.4,11.1c-2.2,0.7-4.6,0.1-6.2-1.6c-14.5-14.1-35.7-19-54.9-12.5c-26.3,7.9-42,34.9-37.5,62.9
			c0.4,2.6-0.4,2.9-2.6,2.8c-3.8-0.5-7.6-0.8-11.4-1.4c-38.6-5.3-73.7-24.8-98.6-54.7c-0.5-0.8-1-1.6-1.4-2.5
			c-5.6,9.5-8.3,20.4-7.8,31.4c1.1,17.8,9.1,32,23.9,43.1c-8.7-0.2-17.2-2.5-24.8-6.7c1.5,28.8,16.2,46.7,43.1,55.5
			c-7.7,1.8-15.7,2.3-23.6,1.3c3.8,10.7,10.6,20.1,19.7,27c9.4,6.6,20.3,10.5,31.8,11.3c-24.2,18.6-51,25.5-80.5,23.4
			c0.7,0.7,1.6,1.4,2.5,1.9c35.1,21.1,73,26.2,112.7,19.3c34.7-5.7,66.2-24,88.4-51.3c25.3-29.8,38.9-67.9,38.1-107.1
			c-0.2-2.5,0.9-4.9,3-6.3c7.4-5.6,14-12.1,19.7-19.4c1.5-2,2.9-4,4.4-6c-9.5,3.7-19.4,6-29.5,7
			C365.4,167.1,373.3,156.6,377.4,144.5z"/>
	</g>
</g>
</svg>
