<svg xmlns="http://www.w3.org/2000/svg" viewBox="0 0 111.01 92.98"><defs><style>.cls-1{fill:#fff;}</style></defs><title>twitterMiddel 28@4x</title><g id="Laag_2" data-name="Laag 2"><g id="Laag_2-2" data-name="Laag 2"><path class="cls-1" d="M19.3,69.42c-.24-.25-.4-.44-.58-.6a28.42,28.42,0,0,1-7.46-11.15A18,18,0,0,1,10.75,54a2.59,2.59,0,0,0-.38-1.26A25.87,25.87,0,0,1,4.14,40.07a42.74,42.74,0,0,1-.47-5.63A6.78,6.78,0,0,1,5,30.51a1.57,1.57,0,0,0,.16-1.19A26.92,26.92,0,0,1,7.33,7.16a7,7,0,0,1,11.5-.78A47.8,47.8,0,0,0,42,22.28c1.7.54,3.44,1,5.26,1.47.2-1,.37-2,.57-2.88A27,27,0,0,1,70.9.18,26.65,26.65,0,0,1,90,5.2a1.55,1.55,0,0,0,1.27.2c2.3-1,4.6-1.91,6.83-3a6.91,6.91,0,0,1,9.89,4A17.37,17.37,0,0,1,108.2,10a1.48,1.48,0,0,0,.32.94,7,7,0,0,1,1.1,9.52,50.84,50.84,0,0,1-8,9,1.88,1.88,0,0,0-.56,1.18c-1,21.37-10,38.56-27.15,51.38-7.07,5.29-15.22,8.29-23.85,9.8-16.57,2.91-32.24.49-46.65-8.55A6.71,6.71,0,0,1,.07,76.34a6.5,6.5,0,0,1,5.08-5.84A8.63,8.63,0,0,1,8,70.32a33.18,33.18,0,0,0,10.68-.71C18.86,69.57,19,69.51,19.3,69.42ZM101.41,8.47c-.47.22-.73.33-1,.47a43.72,43.72,0,0,1-10.24,4,2.13,2.13,0,0,1-2.24-.56A19.46,19.46,0,0,0,68.15,7.86C58.68,10.7,53,20.44,54.64,30.53c.16.93-.15,1.06-.92,1-1.36-.18-2.74-.3-4.1-.5A56,56,0,0,1,14.08,11.3a6.08,6.08,0,0,1-.5-.9,20.23,20.23,0,0,0-2.81,11.32c.4,6.41,3.27,11.52,8.63,15.52a19.85,19.85,0,0,1-8.93-2.4C11,45.21,16.32,51.66,26,54.85a24.09,24.09,0,0,1-8.51.46,21.16,21.16,0,0,0,7.09,9.75,22.65,22.65,0,0,0,11.45,4.06c-8.73,6.71-18.39,9.2-29,8.43a4.24,4.24,0,0,0,.9.69c12.64,7.59,26.31,9.44,40.63,6.94A52,52,0,0,0,80.43,66.7,57.78,57.78,0,0,0,94.15,28.1a2.47,2.47,0,0,1,1.07-2.26,38.44,38.44,0,0,0,7.1-7c.55-.71,1.06-1.45,1.58-2.18a39.71,39.71,0,0,1-10.62,2.52A21.25,21.25,0,0,0,101.41,8.47Z"/></g></g></svg>