<?xml version="1.0" encoding="utf-8"?>
<!-- Generator: Adobe Illustrator 23.0.1, SVG Export Plug-In . SVG Version: 6.00 Build 0)  -->
<svg version="1.1" id="Layer_1" xmlns="http://www.w3.org/2000/svg" xmlns:xlink="http://www.w3.org/1999/xlink" x="0px" y="0px"
	 viewBox="0 0 500 500" style="enable-background:new 0 0 500 500;" xml:space="preserve">
<style type="text/css">
	.st0{fill:#FFF33D;}
	.st1{fill:#FFFFFF;}
</style>
<title>instagram</title>
<rect class="st0" width="500" height="500"/>
<g>
	<path class="st1" d="M340.5,158.4c-24.2-24.2-56.3-37.5-90.5-37.5c-70.6,0-128,57.4-128,128c0,22.5,5.9,44.6,17.1,64l-18.2,66.3
		l67.9-17.8c18.7,10.2,39.7,15.6,61.2,15.6h0.1c70.5,0,129.2-57.4,129.2-128C379.2,214.7,364.6,182.6,340.5,158.4z M249.9,355.4
		c-19.1,0-37.9-5.1-54.2-14.8l-3.9-2.3l-40.3,10.6l10.7-39.3l-2.5-4c-10.7-17-16.3-36.5-16.3-56.6c0-58.6,47.7-106.4,106.5-106.4
		c28.4,0,55.1,11.1,75.2,31.2c20.1,20.1,32.4,46.8,32.4,75.3C357.5,307.6,308.6,355.4,249.9,355.4z M308.3,275.7
		c-3.2-1.6-18.9-9.3-21.9-10.4c-2.9-1.1-5.1-1.6-7.2,1.6s-8.2,10.4-10.1,12.6c-1.8,2.1-3.7,2.4-6.9,0.8
		c-18.8-9.4-31.1-16.8-43.5-38.1c-3.3-5.7,3.3-5.2,9.4-17.5c1-2.1,0.5-4-0.3-5.6s-7.2-17.4-9.9-23.8c-2.6-6.2-5.2-5.4-7.2-5.5
		c-1.8-0.1-4-0.1-6.1-0.1s-5.6,0.8-8.5,4s-11.2,11-11.2,26.7s11.5,31,13,33.1c1.6,2.1,22.5,34.4,54.7,48.3c20.3,8.8,28.3,9.5,38.4,8
		c6.2-0.9,18.9-7.7,21.6-15.2s2.7-13.9,1.8-15.2C313.6,278,311.5,277.2,308.3,275.7z"/>
</g>
</svg>
